<svg width="28" height="28" viewBox="0 0 28 28" fill="none" xmlns="http://www.w3.org/2000/svg">
<path fill-rule="evenodd" clip-rule="evenodd" d="M-5.37372e-06 4.8125C-5.37372e-06 2.15463 2.15462 0 4.81249 0H23.1875C25.8454 0 28 2.15464 28 4.8125V23.1875C28 25.8454 25.8454 28 23.1875 28H4.81249C2.15464 28 -5.37372e-06 25.8454 -5.37372e-06 23.1875V21.0112C-7.95368e-05 21.0032 -7.96411e-05 20.9951 -5.37372e-06 20.987V4.8125ZM2.62499 21.4541V23.1875C2.62499 24.3957 3.60436 25.375 4.81249 25.375H23.1875C24.3957 25.375 25.375 24.3957 25.375 23.1875V15.416C25.3327 15.3781 25.2924 15.337 25.2544 15.2928L21.0292 10.3744C21.0292 10.3744 21.0292 10.3743 21.0292 10.3743C20.1331 9.33132 18.5091 9.36425 17.6558 10.4406L16.6273 9.6253L17.6577 10.4382C17.6564 10.4399 17.6557 10.4408 17.6554 10.4411L17.648 10.4509L17.648 10.4509L17.6155 10.4928C17.3167 10.8791 15.4337 13.3134 13.799 15.4023L16.7456 18.8322C17.2179 19.3821 17.1551 20.2107 16.6053 20.6831C16.0554 21.1554 15.2268 21.0926 14.7544 20.5428L11.1235 16.3162C11.1107 16.3019 11.0982 16.2874 11.086 16.2726L10.5292 15.6244L10.5292 15.6244C9.63114 14.5789 8.00188 14.6144 7.15018 15.6979L7.15016 15.6979L2.62499 21.4541ZM12.0227 13.4125C9.98805 11.6408 6.81196 11.8806 5.08648 14.0756L2.62499 17.2067V4.8125C2.62499 3.60438 3.60437 2.625 4.81249 2.625H23.1875C24.3957 2.625 25.375 3.60436 25.375 4.8125V11.4047L23.0204 8.66381L23.0203 8.66378C21.0489 6.36902 17.4761 6.44169 15.5987 8.80995L15.5968 8.8124C15.5886 8.82282 15.5791 8.83495 15.5686 8.84871L15.5387 8.88741C15.2548 9.25434 13.576 11.4247 12.0227 13.4125Z" fill="#2065EA"/>
</svg>
