<svg width="24" height="24" viewBox="0 0 24 24" fill="none" xmlns="http://www.w3.org/2000/svg">
<path fill-rule="evenodd" clip-rule="evenodd" d="M13.2075 6.23214C13.4935 5.93252 13.9682 5.92148 14.2679 6.20748L19.7679 11.4575C19.9161 11.599 20 11.795 20 12C20 12.205 19.9161 12.401 19.7679 12.5425L14.2679 17.7925C13.9682 18.0785 13.4935 18.0675 13.2075 17.7679C12.9215 17.4682 12.9325 16.9935 13.2321 16.7075L18.1638 12L13.2321 7.29252C12.9325 7.00651 12.9215 6.53177 13.2075 6.23214Z" fill="#6D798F"/>
<path fill-rule="evenodd" clip-rule="evenodd" d="M4 12C4 11.5858 4.33579 11.25 4.75 11.25H19C19.4142 11.25 19.75 11.5858 19.75 12C19.75 12.4142 19.4142 12.75 19 12.75H4.75C4.33579 12.75 4 12.4142 4 12Z" fill="#6D798F"/>
</svg>
