<svg width="200" height="104" viewBox="0 0 200 104" fill="none" xmlns="http://www.w3.org/2000/svg" id="car" >
    <path d="M25.7118 87.4885L80.6073 86.91L206.218 85.0829L255.076 80.9263L263.641 82.6164C263.641 82.6164 268.353 78.7643 267.988 69.0581C267.622 59.3518 260.078 43.1747 237.072 41.7359C214.067 40.2971 201.117 55.3932 195.727 62.945C190.338 70.4969 85.7079 72.6513 85.7079 72.6513C85.7079 72.6513 83.5535 51.4422 64.4988 46.4101C45.444 41.3781 33.2256 47.8489 26.0391 55.7281C18.8527 63.6073 21.0071 84.1313 21.0071 84.1313L25.7118 87.4885Z" fill="#0B1F44" stroke="#0B1F44" stroke-linecap="round" stroke-linejoin="round"/>
    <path d="M113.342 19.1413C113.342 19.1413 118.184 18.1364 118.587 20.5573C118.991 22.9782 118.793 24.1886 117.583 24.79C115.731 25.5629 113.676 25.7047 111.736 25.1935C111.282 25.0817 110.865 24.8554 110.523 24.5362C110.182 24.2171 109.928 23.8157 109.786 23.3705C109.644 22.9253 109.619 22.4512 109.712 21.9933C109.805 21.5354 110.015 21.1092 110.32 20.7552C111.177 19.9743 112.216 19.4196 113.342 19.1413Z" fill="white" stroke="#0B1F44" stroke-linecap="round" stroke-linejoin="round"/>
    <path d="M283.716 52.8124C283.312 51.1985 275.448 46.9658 275.448 46.9658C275.448 46.9658 268.185 36.308 264.158 32.4483C261.96 30.3206 259.601 28.3659 257.101 26.6017C257.101 26.6017 265.772 25.7947 265.772 24.3864C265.772 22.978 263.755 22.7725 262.339 22.369C260.923 21.9655 250.646 22.1711 250.646 22.1711H192.378L134.917 25.3913L117.179 26.6017C117.179 26.6017 116.372 24.3864 114.758 24.3864C113.406 24.3397 112.058 24.2049 110.723 23.9829C110.723 23.9829 109.916 22.1711 112.741 19.5447C115.565 16.9183 130.082 8.05704 130.082 8.05704C129.975 6.6978 129.406 5.41629 128.469 4.42574C127.48 3.32793 126.231 2.49561 124.837 2.00489L118.389 1C117.377 1 101.641 9.4654 79.275 26.8073C79.275 26.8073 49.0295 29.2281 34.1085 34.2677C19.1875 39.3074 12.5339 44.7505 9.51168 52.409C9.51168 52.409 9.91516 55.0353 9.10821 55.8423C8.30125 56.6492 2.85813 58.4611 1.6477 60.4785C0.437276 62.4958 2.6602 77.6148 2.6602 77.6148C2.6602 77.6148 0.239345 79.2287 1.24423 80.8502C2.24911 82.4717 9.10821 85.4864 14.7569 86.4912C18.2773 87.1086 21.841 87.4471 25.4147 87.5037H25.6888C25.0797 84.5206 24.7862 81.4816 24.8133 78.4369C24.752 74.7176 25.4316 71.0233 26.8126 67.5693C28.1935 64.1152 30.2481 60.9706 32.8567 58.3187C35.4653 55.6668 38.5756 53.5606 42.0064 52.1229C45.4372 50.6853 49.1198 49.9449 52.8397 49.9449C56.5595 49.9449 60.2422 50.6853 63.673 52.1229C67.1038 53.5606 70.2141 55.6668 72.8226 58.3187C75.4312 60.9706 77.4858 64.1152 78.8668 67.5693C80.2477 71.0233 80.9273 74.7176 80.866 78.4369C80.866 81.5962 80.7671 84.4054 80.5844 86.9252H82.8682L92.3461 86.3238L206.164 85.1209C205.966 83.0883 205.86 80.873 205.86 78.4598C205.798 74.6078 206.502 70.7819 207.933 67.205C209.364 63.6281 211.493 60.3718 214.195 57.6257C216.897 54.8796 220.118 52.6987 223.671 51.21C227.225 49.7213 231.039 48.9546 234.891 48.9546C238.744 48.9546 242.558 49.7213 246.111 51.21C249.664 52.6987 252.886 54.8796 255.588 57.6257C258.29 60.3718 260.418 63.6281 261.849 67.205C263.28 70.7819 263.985 74.6078 263.922 78.4598C263.921 79.8635 263.82 81.2653 263.618 82.6544L274.002 80.4772L282.475 71.4028C283.113 69.8671 283.454 68.224 283.48 66.5611C283.51 63.9042 284.119 54.4263 283.716 52.8124Z" fill="white"/>
    <mask id="mask0_214_5341" style="mask-type:luminance" maskUnits="userSpaceOnUse" x="1" y="1" width="283" height="87">
        <path d="M283.716 52.8124C283.312 51.1985 275.448 46.9658 275.448 46.9658C275.448 46.9658 268.185 36.308 264.158 32.4483C261.96 30.3206 259.601 28.3659 257.101 26.6017C257.101 26.6017 265.772 25.7947 265.772 24.3864C265.772 22.978 263.755 22.7725 262.339 22.369C260.923 21.9655 250.646 22.1711 250.646 22.1711H192.378L134.917 25.3913L117.179 26.6017C117.179 26.6017 116.372 24.3864 114.758 24.3864C113.406 24.3397 112.058 24.2049 110.723 23.9829C110.723 23.9829 109.916 22.1711 112.741 19.5447C115.565 16.9183 130.082 8.05704 130.082 8.05704C129.975 6.6978 129.406 5.41629 128.469 4.42574C127.48 3.32793 126.231 2.49561 124.837 2.00489L118.389 1C117.377 1 101.641 9.4654 79.275 26.8073C79.275 26.8073 49.0295 29.2281 34.1085 34.2677C19.1875 39.3074 12.5339 44.7505 9.51168 52.409C9.51168 52.409 9.91516 55.0353 9.10821 55.8423C8.30125 56.6492 2.85813 58.4611 1.6477 60.4785C0.437276 62.4958 2.6602 77.6148 2.6602 77.6148C2.6602 77.6148 0.239345 79.2287 1.24423 80.8502C2.24911 82.4717 9.10821 85.4864 14.7569 86.4912C18.2773 87.1086 21.841 87.4471 25.4147 87.5037H25.6888C25.0797 84.5206 24.7862 81.4816 24.8133 78.4369C24.752 74.7176 25.4316 71.0233 26.8126 67.5693C28.1935 64.1152 30.2481 60.9706 32.8567 58.3187C35.4653 55.6668 38.5756 53.5606 42.0064 52.1229C45.4372 50.6853 49.1198 49.9449 52.8397 49.9449C56.5595 49.9449 60.2422 50.6853 63.673 52.1229C67.1038 53.5606 70.2141 55.6668 72.8226 58.3187C75.4312 60.9706 77.4858 64.1152 78.8668 67.5693C80.2477 71.0233 80.9273 74.7176 80.866 78.4369C80.866 81.5962 80.7671 84.4054 80.5844 86.9252H82.8682L92.3461 86.3238L206.164 85.1209C205.966 83.0883 205.86 80.873 205.86 78.4598C205.798 74.6078 206.502 70.7819 207.933 67.205C209.364 63.6281 211.493 60.3718 214.195 57.6257C216.897 54.8796 220.118 52.6987 223.671 51.21C227.225 49.7213 231.039 48.9546 234.891 48.9546C238.744 48.9546 242.558 49.7213 246.111 51.21C249.664 52.6987 252.886 54.8796 255.588 57.6257C258.29 60.3718 260.418 63.6281 261.849 67.205C263.28 70.7819 263.985 74.6078 263.922 78.4598C263.921 79.8635 263.82 81.2653 263.618 82.6544L274.002 80.4772L282.475 71.4028C283.113 69.8671 283.454 68.224 283.48 66.5611C283.51 63.9042 284.119 54.4263 283.716 52.8124Z" fill="white"/>
    </mask>
    <g mask="url(#mask0_214_5341)">
        <path d="M283.51 66.5229C283.51 65.2288 283.655 62.275 283.761 59.4126C241.236 32.2884 216.32 46.5927 184.468 55.728C149.944 65.6246 107.579 48.8766 68.7542 45.0702C46.9817 42.9386 24.4936 49.6378 8.94075 55.9793C7.73033 56.8395 2.79726 58.5676 1.64773 60.4784C0.498209 62.3892 2.66023 77.6147 2.66023 77.6147C2.66023 77.6147 0.239376 79.2286 1.24426 80.8501C2.24914 82.4716 9.10824 85.4863 14.7569 86.4912C18.2774 87.1085 21.841 87.4471 25.4148 87.5037H25.6888C25.0797 84.5205 24.7863 81.4815 24.8133 78.4369C24.752 74.7175 25.4317 71.0232 26.8126 67.5692C28.1935 64.1152 30.2482 60.9706 32.8567 58.3186C35.4653 55.6667 38.5756 53.5605 42.0064 52.1229C45.4372 50.6852 49.1199 49.9448 52.8397 49.9448C56.5596 49.9448 60.2422 50.6852 63.673 52.1229C67.1038 53.5605 70.2141 55.6667 72.8227 58.3186C75.4312 60.9706 77.4859 64.1152 78.8668 67.5692C80.2477 71.0232 80.9274 74.7175 80.8661 78.4369C80.8661 81.5962 80.7671 84.4053 80.5844 86.9251H82.8682L92.3461 86.3237L206.164 85.1209C205.966 83.0883 205.86 80.873 205.86 78.4597C205.798 74.6077 206.502 70.7818 207.933 67.205C209.364 63.6281 211.493 60.3717 214.195 57.6256C216.897 54.8795 220.118 52.6986 223.671 51.2099C227.225 49.7212 231.039 48.9546 234.891 48.9546C238.744 48.9546 242.558 49.7212 246.111 51.2099C249.664 52.6986 252.886 54.8795 255.588 57.6256C258.29 60.3717 260.418 63.6281 261.849 67.205C263.28 70.7818 263.985 74.6077 263.922 78.4597C263.921 79.8634 263.82 81.2652 263.618 82.6544L274.002 80.4771L282.475 71.4027C283.128 69.8572 283.48 68.2007 283.51 66.5229Z" fill="#DADADA"/>
        <path opacity="0.5" d="M283.51 66.5229C283.51 65.2288 283.655 62.275 283.761 59.4126C241.236 32.2884 216.32 46.5927 184.468 55.728C149.944 65.6246 107.579 48.8766 68.7542 45.0702C46.9817 42.9386 24.4936 49.6378 8.94075 55.9793C7.73033 56.8395 2.79726 58.5676 1.64773 60.4784C0.498209 62.3892 2.66023 77.6147 2.66023 77.6147C2.66023 77.6147 0.239376 79.2286 1.24426 80.8501C2.24914 82.4716 9.10824 85.4863 14.7569 86.4912C18.2774 87.1085 21.841 87.4471 25.4148 87.5037H25.6888C25.0797 84.5205 24.7863 81.4815 24.8133 78.4369C24.752 74.7175 25.4317 71.0232 26.8126 67.5692C28.1935 64.1152 30.2482 60.9706 32.8567 58.3186C35.4653 55.6667 38.5756 53.5605 42.0064 52.1229C45.4372 50.6852 49.1199 49.9448 52.8397 49.9448C56.5596 49.9448 60.2422 50.6852 63.673 52.1229C67.1038 53.5605 70.2141 55.6667 72.8227 58.3186C75.4312 60.9706 77.4859 64.1152 78.8668 67.5692C80.2477 71.0232 80.9274 74.7175 80.8661 78.4369C80.8661 81.5962 80.7671 84.4053 80.5844 86.9251H82.8682L92.3461 86.3237L206.164 85.1209C205.966 83.0883 205.86 80.873 205.86 78.4597C205.798 74.6077 206.502 70.7818 207.933 67.205C209.364 63.6281 211.493 60.3717 214.195 57.6256C216.897 54.8795 220.118 52.6986 223.671 51.2099C227.225 49.7212 231.039 48.9546 234.891 48.9546C238.744 48.9546 242.558 49.7212 246.111 51.2099C249.664 52.6986 252.886 54.8795 255.588 57.6256C258.29 60.3717 260.418 63.6281 261.849 67.205C263.28 70.7818 263.985 74.6077 263.922 78.4597C263.921 79.8634 263.82 81.2652 263.618 82.6544L274.002 80.4771L282.475 71.4027C283.128 69.8572 283.48 68.2007 283.51 66.5229Z" fill="white"/>
    </g>
    <path d="M283.716 52.8124C283.312 51.1985 275.448 46.9658 275.448 46.9658C275.448 46.9658 268.185 36.308 264.158 32.4483C261.96 30.3206 259.601 28.3659 257.101 26.6017C257.101 26.6017 265.772 25.7947 265.772 24.3864C265.772 22.978 263.755 22.7725 262.339 22.369C260.923 21.9655 250.646 22.1711 250.646 22.1711H192.378L134.917 25.3913L117.179 26.6017C117.179 26.6017 116.372 24.3864 114.758 24.3864C113.406 24.3397 112.058 24.2049 110.723 23.9829C110.723 23.9829 109.916 22.1711 112.741 19.5447C115.565 16.9183 130.082 8.05704 130.082 8.05704C129.975 6.6978 129.406 5.41629 128.469 4.42574C127.48 3.32793 126.231 2.49561 124.837 2.00489L118.389 1C117.377 1 101.641 9.4654 79.275 26.8073C79.275 26.8073 49.0295 29.2281 34.1085 34.2677C19.1875 39.3074 12.5339 44.7505 9.51168 52.409C9.51168 52.409 9.91516 55.0353 9.10821 55.8423C8.30125 56.6492 2.85813 58.4611 1.6477 60.4785C0.437276 62.4958 2.6602 77.6148 2.6602 77.6148C2.6602 77.6148 0.239345 79.2287 1.24423 80.8502C2.24911 82.4717 9.10821 85.4864 14.7569 86.4912C18.2773 87.1086 21.841 87.4471 25.4147 87.5037H25.6888C25.0797 84.5206 24.7862 81.4815 24.8133 78.4369C24.752 74.7176 25.4316 71.0233 26.8126 67.5693C28.1935 64.1152 30.2481 60.9706 32.8567 58.3187C35.4653 55.6668 38.5756 53.5606 42.0064 52.1229C45.4372 50.6853 49.1198 49.9449 52.8397 49.9449C56.5595 49.9449 60.2422 50.6853 63.673 52.1229C67.1038 53.5606 70.2141 55.6668 72.8226 58.3187C75.4312 60.9706 77.4858 64.1152 78.8668 67.5693C80.2477 71.0233 80.9273 74.7176 80.866 78.4369C80.866 81.5962 80.7671 84.4054 80.5844 86.9252H82.8682L92.3461 86.3238L206.164 85.1209C205.966 83.0883 205.86 80.873 205.86 78.4598C205.797 74.6078 206.502 70.7819 207.933 67.205C209.364 63.6281 211.493 60.3718 214.195 57.6257C216.897 54.8796 220.118 52.6987 223.671 51.21C227.225 49.7213 231.039 48.9546 234.891 48.9546C238.744 48.9546 242.558 49.7213 246.111 51.21C249.664 52.6987 252.886 54.8796 255.588 57.6257C258.29 60.3718 260.418 63.6281 261.849 67.205C263.28 70.7819 263.985 74.6078 263.922 78.4598C263.921 79.8635 263.82 81.2653 263.618 82.6544L274.002 80.4772L282.475 71.4028C283.113 69.8671 283.454 68.224 283.48 66.5611C283.51 63.9042 284.119 54.4263 283.716 52.8124Z" stroke="#0B1F44" stroke-linecap="round" stroke-linejoin="round"/>
    <path d="M122.622 7.25009C122.622 7.25009 103.065 18.5398 93.3889 31.8469L252.062 23.3815L241.929 22.1711H192.378L134.917 25.3913L117.179 26.6017C117.179 26.6017 116.372 24.3864 114.758 24.3864C113.406 24.3397 112.058 24.2049 110.723 23.9829C110.723 23.9829 109.916 22.1711 112.741 19.5447C115.565 16.9183 130.082 8.05704 130.082 8.05704C129.975 6.6978 129.405 5.41629 128.469 4.42574C127.479 3.32793 126.231 2.49561 124.837 2.00489L118.389 1C118.389 1 122.622 3.6188 122.622 7.25009Z" fill="white" stroke="#0B1F44" stroke-linecap="round" stroke-linejoin="round"/>
    <path d="M161.28 12.0841C160.406 11.9942 159.53 12.2352 158.825 12.7595C158.121 13.2838 157.638 14.0533 157.473 14.9161C157.15 16.4393 156.964 17.9883 156.917 19.5446C156.917 22.5897 161.356 24.7898 161.356 24.7898L159.133 28.0176L168.413 27.6141C168.42 26.7899 168.283 25.9707 168.009 25.1933L167.606 24.3863C167.606 24.3863 168.816 22.978 166.799 18.7377C164.781 14.4974 162.992 12.2897 161.356 12.0841H161.28Z" fill="#A6A6A6" stroke="#0B1F44" stroke-linecap="round" stroke-linejoin="round"/>
    <path d="M199.435 22.3691L202.48 25.5969L243.817 24.3864L249.26 23.983C249.26 23.983 251.475 23.983 250.668 22.1712C250.401 21.6279 250.003 21.1594 249.51 20.8074C249.017 20.4554 248.445 20.2308 247.844 20.1538C247.844 20.1538 247.037 17.7329 246.032 16.926C245.37 16.315 244.512 15.9589 243.611 15.9211C243.01 15.9211 241.998 12.6933 240.566 12.6933C239.135 12.6933 234.72 14.3072 234.111 14.7106C233.502 15.1141 229.475 11.4829 226.658 12.0843C223.841 12.6857 207.908 19.3468 205.89 20.1538C203.873 20.9607 199.435 22.3691 199.435 22.3691Z" fill="#0B1F44" stroke="#0B1F44" stroke-linecap="round" stroke-linejoin="round"/>
    <path d="M117.179 26.6017C117.179 26.6017 116.372 24.3864 114.758 24.3864C113.406 24.3397 112.058 24.2049 110.723 23.9829C110.723 23.9829 109.916 22.1711 112.741 19.5447C115.565 16.9183 130.082 8.05704 130.082 8.05704C129.975 6.6978 129.405 5.41629 128.469 4.42574C127.479 3.32793 126.231 2.49561 124.837 2.00489L118.389 1C118.389 1 122.622 3.6188 122.622 7.25009C122.622 7.25009 103.065 18.5398 93.3889 31.8469L119.356 30.4614L117.179 26.6017Z" fill="#A6A6A6" stroke="#0B1F44" stroke-linecap="round" stroke-linejoin="round"/>
    <path d="M102.662 21.9654C102.662 21.9654 105.707 21.1585 107.496 22.7724C109.285 24.3863 109.916 28.2155 108.912 28.8626C107.907 29.5096 103.468 29.464 103.468 29.464L105.684 31.4814L100.644 31.6793L100.439 29.464C100.439 29.464 97.6219 27.6522 98.0254 25.4292C98.4288 23.2063 102.662 21.9654 102.662 21.9654Z" fill="white" stroke="#0B1F44" stroke-linecap="round" stroke-linejoin="round"/>
    <path d="M268.589 37.8914C268.589 37.8914 257.505 29.6316 237.545 32.0448C217.584 34.4581 201.856 41.9414 195.408 73.9835" stroke="#0B1F44" stroke-linecap="round" stroke-linejoin="round"/>
    <path d="M197.622 79.0232C197.622 79.0232 199.434 77.8128 198.833 76.6024C198.388 75.7571 197.721 75.0485 196.905 74.5524C196.088 74.0564 195.152 73.7913 194.197 73.7856C191.776 73.7856 91.1657 77.2114 91.1657 77.2114L91.7747 81.642L197.622 79.0232Z" stroke="#0B1F44" stroke-linecap="round" stroke-linejoin="round"/>
    <path d="M91.166 77.2114C91.166 77.2114 91.166 65.3126 87.1389 57.6542C83.1117 49.9958 77.2423 42.9388 63.3414 37.8611C49.4405 32.7833 24.8361 41.0889 24.8361 41.0889C18.9404 43.6884 13.9563 47.9912 10.5241 53.4444L9.71716 54.8527" stroke="#0B1F44" stroke-linecap="round" stroke-linejoin="round"/>
    <path d="M20.9461 52.7668C16.82 56.5731 12.3742 58.4916 11.0496 57.0223C9.72495 55.5531 11.925 51.2594 16.0511 47.4378C20.1773 43.6162 24.6155 41.7131 25.9477 43.1823C27.28 44.6516 25.0646 48.9452 20.9461 52.7668Z" stroke="#0B1F44" stroke-linecap="round" stroke-linejoin="round"/>
    <path d="M1.64024 69.1495C2.04372 73.4202 2.66036 77.6148 2.66036 77.6148C2.66036 77.6148 8.50695 79.4267 10.5243 79.2287C12.5417 79.0308 13.341 78.4218 14.148 74.9961C14.955 71.5703 13.1431 70.3523 13.1431 70.3523L1.64786 69.1418L1.64024 69.1495Z" fill="#0B1F44" stroke="#0B1F44" stroke-linecap="round" stroke-linejoin="round"/>
    <path d="M171.107 43.1365H169.09C168.263 43.1345 167.47 42.8051 166.885 42.2201C166.3 41.6352 165.971 40.8425 165.969 40.0153C165.969 39.1868 166.297 38.3921 166.883 37.8056C167.468 37.219 168.261 36.8885 169.09 36.8865H171.107C171.518 36.8865 171.925 36.9674 172.305 37.1247C172.684 37.2819 173.029 37.5124 173.32 37.8029C173.61 38.0934 173.841 38.4384 173.998 38.818C174.155 39.1976 174.236 39.6044 174.236 40.0153C174.234 40.8438 173.904 41.6377 173.317 42.2228C172.731 42.8079 171.936 43.1365 171.107 43.1365Z" fill="white" stroke="#0B1F44" stroke-linecap="round" stroke-linejoin="round"/>
    <path d="M165.763 41.3475C165.382 41.3475 165.016 41.196 164.746 40.9261C164.476 40.6563 164.325 40.2903 164.325 39.9087C164.325 39.5271 164.476 39.1612 164.746 38.8913C165.016 38.6215 165.382 38.4699 165.763 38.4699L176.65 38.272C177.029 38.2698 177.394 38.4158 177.667 38.6789C177.94 38.942 178.099 39.3014 178.111 39.6804C178.115 39.8693 178.082 40.0572 178.014 40.2333C177.945 40.4094 177.842 40.5703 177.712 40.7068C177.581 40.8432 177.424 40.9525 177.251 41.0285C177.078 41.1045 176.892 41.1457 176.703 41.1496L165.817 41.3475H165.763Z" fill="white" stroke="#0B1F44" stroke-linecap="round" stroke-linejoin="round"/>
    <path d="M56.4302 102.416C69.1088 100.367 77.7257 88.4275 75.6767 75.7489C73.6276 63.0703 61.6885 54.4534 49.0099 56.5025C36.3314 58.5516 27.7145 70.4906 29.7635 83.1692C31.8126 95.8478 43.7517 104.465 56.4302 102.416Z" fill="#0B1F44" stroke="#0B1F44" stroke-width="1.00285" stroke-linecap="round" stroke-linejoin="round"/>
    <path d="M56.5292 93.9257C65.0854 91.8873 70.3691 83.2987 68.3308 74.7426C66.2924 66.1864 57.7038 60.9027 49.1477 62.941C40.5915 64.9794 35.3078 73.568 37.3461 82.1241C39.3845 90.6803 47.9731 95.964 56.5292 93.9257Z" fill="white" stroke="#0B1F44" stroke-linecap="round" stroke-linejoin="round"/>
    <path d="M55.0731 87.6314C60.1659 86.4219 63.314 81.3128 62.1045 76.22C60.8949 71.1271 55.7859 67.9791 50.693 69.1886C45.6002 70.3981 42.4522 75.5072 43.6617 80.6001C44.8712 85.6929 49.9803 88.8409 55.0731 87.6314Z" stroke="#A6A6A6" stroke-linecap="round" stroke-linejoin="round"/>
    <path d="M57.091 78.4217C57.091 77.5845 56.8428 76.7662 56.3777 76.0701C55.9126 75.374 55.2516 74.8315 54.4781 74.5111C53.7047 74.1908 52.8536 74.107 52.0326 74.2703C51.2115 74.4336 50.4573 74.8367 49.8654 75.4287C49.2734 76.0206 48.8703 76.7748 48.707 77.5959C48.5437 78.417 48.6275 79.268 48.9478 80.0414C49.2682 80.8149 49.8107 81.4759 50.5068 81.941C51.2029 82.4061 52.0212 82.6543 52.8583 82.6543C53.9809 82.6543 55.0575 82.2084 55.8513 81.4146C56.6451 80.6208 57.091 79.5442 57.091 78.4217Z" stroke="#A6A6A6" stroke-linecap="round" stroke-linejoin="round"/>
    <path d="M178.934 27.5608C180.887 32.9539 181.636 38.7096 181.126 44.423C180.365 54.2587 174.564 74.4021 174.564 74.4021C175.048 75.2741 175.205 76.2905 175.005 77.2678C174.806 78.2451 174.263 79.1188 173.475 79.731" stroke="#0B1F44" stroke-linecap="round" stroke-linejoin="round"/>
    <path d="M93.3891 31.8469C92.278 33.1331 91.3034 34.5312 90.4811 36.0187C89.499 37.9904 89.1717 62.0087 89.1717 62.0087" stroke="#0B1F44" stroke-linecap="round" stroke-linejoin="round"/>
    <path d="M84.7411 29.2738C86.2637 28.6115 88.5475 25.4674 96.5866 18.7454C104.626 12.0233 117.476 4.76073 117.476 4.76073L115.032 2.5835C109.14 5.77324 96.0917 13.7895 79.2523 26.8073L76.6411 29.6012C76.6411 29.6012 83.2186 29.9285 84.7411 29.2738Z" fill="#A6A6A6" stroke="#0B1F44" stroke-linecap="round" stroke-linejoin="round"/>
    <path d="M79.1985 26.7996C78.6656 26.8376 74.8593 27.1574 69.5075 27.7588C69.5075 29.1824 76.6635 29.5858 76.6635 29.5858L79.1985 26.7996Z" stroke="#0B1F44" stroke-linecap="round" stroke-linejoin="round"/>
    <path d="M1.64796 60.4785C1.64796 60.4785 4.10688 57.5552 12.3743 61.5062C15.5227 63.0527 18.8453 64.2156 22.2709 64.97" stroke="#0B1F44" stroke-linecap="round" stroke-linejoin="round"/>
    <path d="M3.39073 80.2031C8.6044 81.1937 13.9034 81.6654 19.21 81.6114C19.21 81.6114 17.7712 66.5077 29.6319 54.9668" stroke="#0B1F44" stroke-linecap="round" stroke-linejoin="round"/>
</svg>
