<svg width="135" height="129" viewBox="0 0 135 129" fill="none" xmlns="http://www.w3.org/2000/svg" id="debt" >
    <path d="M1.00004 65.24L101.153 147.947L144.795 95.0989L44.6418 12.3924L1.00004 65.24Z" fill="white" stroke="#0B1F44" stroke-linecap="round" stroke-linejoin="round"/>
    <path d="M104.702 134.592L132.085 101.428C131.031 100.143 130.456 98.5323 130.456 96.8705C130.456 95.2086 131.031 93.5981 132.085 92.313L132.368 91.9995L51.1515 24.9142C51.0674 25.0213 50.9909 25.1436 50.8992 25.2507C49.6812 26.7076 47.9368 27.6241 46.046 27.8003C44.1553 27.9764 42.2715 27.3981 40.8054 26.1913L13.5905 59.1413C14.3167 59.7447 14.9169 60.4852 15.3568 61.3206C15.7967 62.1561 16.0677 63.07 16.1543 64.0102C16.241 64.9503 16.1415 65.8984 15.8617 66.8001C15.5818 67.7019 15.1271 68.5396 14.5234 69.2656L95.7476 136.351C96.8075 135.069 98.2785 134.193 99.9107 133.873C101.543 133.552 103.236 133.806 104.702 134.592Z" fill="white" stroke="#0B1F44" stroke-linecap="round" stroke-linejoin="round"/>
    <path d="M93.2089 89.7361C95.1394 84.9618 95.3957 79.6743 93.9362 74.7356C92.4767 69.7969 89.3873 65.4982 85.1716 62.5403C80.956 59.5823 75.8628 58.1396 70.7221 58.4472C65.5814 58.7547 60.6965 60.7946 56.8637 64.2341" stroke="#0B1F44" stroke-linecap="round" stroke-linejoin="round"/>
    <path d="M82.6407 101.382C85.3406 99.972 87.7302 98.0348 89.6681 95.685C89.8898 95.4173 90.1039 95.1497 90.3028 94.8744" stroke="#0B1F44" stroke-linecap="round" stroke-linejoin="round"/>
    <path d="M51.4191 71.5593C49.5448 75.6201 48.9069 80.1426 49.5849 84.5634C50.2628 88.9842 52.2267 93.1077 55.2318 96.4202C58.2369 99.7326 62.1503 102.088 66.4844 103.191C70.8185 104.295 75.3816 104.099 79.6052 102.628" stroke="#0B1F44" stroke-linecap="round" stroke-linejoin="round"/>
    <path d="M57.7064 95.5572C49.7521 87.603 49.7522 74.7066 57.7064 66.7524C65.6606 58.7982 78.557 58.7981 86.5112 66.7524C94.4654 74.7066 94.4654 87.603 86.5112 95.5572C78.557 103.511 65.6606 103.511 57.7064 95.5572Z" fill="#0B1F44" stroke="#0B1F44"/>
    <path d="M85.0188 79.9711C85.1356 80.4152 85.1034 80.8853 84.927 81.3093C84.7804 81.7032 84.5126 82.0405 84.1623 82.2728C83.8061 82.499 83.4037 82.6427 82.9847 82.6933C82.5565 82.7471 82.1236 82.641 81.7689 82.3951C81.3538 82.0861 81.029 81.6716 80.8283 81.1946C80.7824 81.0952 80.6601 80.8122 80.4689 80.3458C80.2777 79.8793 80.1095 79.4893 79.9566 79.1605C79.7384 78.7236 79.4825 78.3066 79.1919 77.9141C78.8182 77.3958 78.3901 76.919 77.9149 76.4918C77.5802 76.1386 77.2056 75.8255 76.7985 75.5589C76.396 75.2671 75.9687 75.0113 75.5214 74.7942C75.123 74.5995 74.678 74.52 74.2368 74.5648C74.0203 74.5892 73.8111 74.6573 73.6218 74.7651C73.4325 74.8729 73.2671 75.0181 73.1357 75.1918C73.011 75.3758 72.9297 75.5855 72.898 75.8054C72.8662 76.0253 72.8847 76.2495 72.9521 76.4612C73.1331 77.1431 73.4562 77.7789 73.9003 78.327L75.6973 80.8505C76.3626 81.814 76.8826 82.6092 77.2267 83.2286C77.6162 83.871 77.9537 84.5435 78.2361 85.2397C78.5121 85.8538 78.6629 86.5167 78.6796 87.1897C78.672 87.81 78.5529 88.4238 78.3278 89.0019C78.0432 89.7193 77.6399 90.3836 77.1349 90.9672C76.527 91.7461 75.7204 92.3467 74.8 92.706C73.8796 93.0653 72.8794 93.1699 71.9045 93.0088C69.7634 92.7387 67.5739 91.5611 65.3359 89.476C64.7069 88.9105 64.131 88.2885 63.6154 87.6179C63.2273 87.1307 62.8698 86.6199 62.5449 86.0885C62.3256 85.7011 62.0708 85.1913 61.7802 84.5592C61.5465 84.0994 61.4635 83.5776 61.5431 83.068C61.5961 82.6214 61.795 82.2048 62.109 81.8828C62.4079 81.5919 62.7686 81.3723 63.1643 81.2405C63.3667 81.1706 63.5816 81.144 63.795 81.1624C64.0084 81.1808 64.2156 81.2439 64.403 81.3475C64.8597 81.5962 65.2382 81.9668 65.4965 82.4181C66.2576 83.7289 67.177 84.9411 68.2341 86.0273C68.6164 86.3867 68.9987 86.7385 69.5034 87.0979C69.9536 87.4418 70.4769 87.6773 71.0328 87.7861C71.2474 87.8474 71.4749 87.8477 71.6896 87.7869C71.9044 87.7262 72.098 87.6067 72.2486 87.442C72.4039 87.2662 72.5148 87.0557 72.572 86.8282C72.6292 86.6007 72.6311 86.3628 72.5774 86.1344C72.3646 85.4817 72.027 84.8766 71.5834 84.3527L69.7558 81.8904C69.1252 81.0304 68.5456 80.1342 68.02 79.2064C67.6079 78.4562 67.2992 77.6536 67.1023 76.8206C66.9033 76.0378 66.9033 75.2176 67.1023 74.4348C67.3617 73.5935 67.7882 72.8132 68.3564 72.1408C69.2357 70.9637 70.4944 70.1264 71.9198 69.7703C73.3278 69.4419 74.8024 69.5485 76.1485 70.0761C77.7196 70.6875 79.158 71.5962 80.3848 72.7525C82.5947 74.6602 84.2043 77.1676 85.0188 79.9711ZM64.1048 94.3853C63.9797 94.5581 63.817 94.7003 63.6288 94.801C63.4407 94.9016 63.2322 94.9582 63.019 94.9664C62.6381 94.9838 62.2645 94.8584 61.9713 94.6147C61.6801 94.363 61.4944 94.0108 61.4514 93.6282C61.418 93.4223 61.4316 93.2115 61.4912 93.0115C61.5508 92.8116 61.6548 92.6277 61.7955 92.4736L65.2748 88.2908L67.5688 90.1948L64.1048 94.3853ZM80.2166 74.2283L77.9225 72.309L81.333 68.1568C81.4926 67.9345 81.7138 67.7639 81.9693 67.6661C82.2248 67.5682 82.5034 67.5474 82.7706 67.6062C83.0322 67.6487 83.2783 67.7584 83.4848 67.9246C83.6912 68.0909 83.8509 68.3079 83.9482 68.5544C84.0586 68.8086 84.0907 69.0899 84.0403 69.3623C83.9899 69.6348 83.8593 69.886 83.6653 70.0838L80.2166 74.2283Z" fill="white" stroke="#0B1F44" stroke-miterlimit="10"/>
    <path d="M12.9861 51.7173L100.168 148L150.973 101.997L63.7916 5.71427L12.9861 51.7173Z" fill="white" stroke="#0B1F44" stroke-linecap="round" stroke-linejoin="round"/>
    <path d="M105.566 135.28L137.453 106.414C136.6 104.986 136.268 103.307 136.513 101.662C136.759 100.016 137.566 98.5072 138.799 97.3905L139.128 97.1228L68.3797 19.0109C68.2803 19.1103 68.1886 19.2098 68.0815 19.3092C66.6672 20.5873 64.8036 21.2521 62.8996 21.1574C60.9957 21.0628 59.2071 20.2166 57.9266 18.8045L26.2765 47.4875C27.5551 48.9031 28.2201 50.768 28.1255 52.6732C28.0309 54.5784 27.1844 56.3682 25.7718 57.6501L96.4587 135.731C97.691 134.616 99.2716 133.961 100.932 133.879C102.592 133.797 104.23 134.292 105.566 135.28Z" fill="white" stroke="#0B1F44" stroke-linecap="round" stroke-linejoin="round"/>
    <path d="M100.664 89.2388C103.286 84.7891 104.318 79.5805 103.591 74.4673C102.864 69.3541 100.421 64.6396 96.6625 61.0973C92.9041 57.5549 88.0535 55.3948 82.9062 54.9713C77.7589 54.5477 72.6205 55.8859 68.3336 58.7663" stroke="#0B1F44" stroke-linecap="round" stroke-linejoin="round"/>
    <path d="M88.5288 99.218C91.4046 98.212 94.0491 96.6388 96.3056 94.5917C96.5579 94.3623 96.8103 94.1253 97.0703 93.8806" stroke="#0B1F44" stroke-linecap="round" stroke-linejoin="round"/>
    <path d="M61.9257 65.2739C59.4847 69.021 58.2006 73.4036 58.2335 77.8755C58.2664 82.3474 59.6148 86.7107 62.1107 90.4215C64.6065 94.1322 68.1394 97.0263 72.2688 98.7428C76.3983 100.459 80.9416 100.922 85.3325 100.074" stroke="#0B1F44" stroke-linecap="round" stroke-linejoin="round"/>
    <path d="M66.6142 92.1112C58.66 84.1569 58.66 71.2606 66.6142 63.3063C74.5684 55.3521 87.4648 55.3521 95.419 63.3063C103.373 71.2606 103.373 84.1569 95.419 92.1111C87.4648 100.065 74.5684 100.065 66.6142 92.1112Z" fill="#0B1F44" stroke="#0B1F44"/>
    <path d="M93.958 78.4417C94.0126 78.897 93.913 79.3574 93.675 79.7493C93.4643 80.1212 93.14 80.416 92.7498 80.5905C92.3648 80.7608 91.9471 80.8444 91.5263 80.8352C91.0925 80.8315 90.6766 80.6618 90.364 80.3611C89.9935 80.0009 89.729 79.546 89.5993 79.0458C89.5993 78.9388 89.4846 78.6405 89.3699 78.1588C89.2552 77.6771 89.1328 77.2488 89.0258 76.9124C88.8719 76.4439 88.6748 75.9908 88.437 75.5589C88.141 74.992 87.7846 74.4587 87.3741 73.9684C87.0961 73.5703 86.7728 73.2059 86.4106 72.8825C86.0464 72.5506 85.6579 72.2465 85.2483 71.9726C84.8844 71.7239 84.4576 71.5833 84.0171 71.5673C83.7992 71.5572 83.5815 71.592 83.3776 71.6696C83.1737 71.7472 82.988 71.866 82.8319 72.0184C82.6802 72.183 82.5687 72.3805 82.5063 72.5955C82.444 72.8105 82.4324 73.037 82.4725 73.2572C82.549 73.9541 82.7732 74.6267 83.1301 75.2301L84.5448 77.9906C85.0724 79.0458 85.47 79.9023 85.753 80.5675C86.0398 81.263 86.2749 81.9786 86.4565 82.7086C86.6449 83.3534 86.7021 84.0295 86.6247 84.6968C86.5228 85.3124 86.3131 85.9052 86.0053 86.4479C85.622 87.113 85.131 87.7099 84.5524 88.2143C83.8384 88.8988 82.9529 89.3781 81.9893 89.6015C81.0257 89.8249 80.0197 89.7842 79.0773 89.4837C76.9923 88.9076 74.9939 87.4241 73.0823 85.0332C72.1441 83.8907 71.3719 82.6216 70.7882 81.2634C70.6276 80.8428 70.4365 80.2922 70.2224 79.604C70.059 79.1073 70.059 78.5714 70.2224 78.0747C70.3502 77.6381 70.6191 77.2563 70.987 76.9888C71.3231 76.7434 71.7097 76.5762 72.1188 76.4994C72.3287 76.4596 72.5447 76.4641 72.7528 76.5129C72.9609 76.5616 73.1565 76.6534 73.3269 76.7824C73.7447 77.0965 74.0675 77.5199 74.2599 78.0059C74.825 79.4126 75.5594 80.7453 76.4468 81.9745C76.7756 82.3798 77.1427 82.7927 77.5556 83.2133C77.9387 83.6181 78.4133 83.9249 78.9397 84.108C79.1426 84.2041 79.3691 84.2393 79.5916 84.2095C79.8142 84.1796 80.0233 84.0859 80.1938 83.9398C80.3749 83.7917 80.5166 83.6011 80.606 83.3849C80.6954 83.1687 80.7298 82.9337 80.7061 82.701C80.5838 82.0208 80.3236 81.3728 79.9414 80.7969L78.4962 78.09C77.9934 77.1485 77.5466 76.1782 77.158 75.1842C76.8567 74.3855 76.6663 73.5493 76.5921 72.699C76.5177 71.8924 76.6465 71.0801 76.9668 70.3361C77.4765 69.2775 78.2405 68.3617 79.1906 67.6705C80.1407 66.9793 81.2472 66.5342 82.4113 66.3751C83.8506 66.2526 85.2932 66.5699 86.5482 67.2851C88.0218 68.116 89.3202 69.2249 90.3716 70.5502C92.3167 72.7711 93.5641 75.5159 93.958 78.4417ZM71.1858 89.6901C71.0362 89.8432 70.854 89.9605 70.6528 90.0333C70.4515 90.1061 70.2364 90.1326 70.0235 90.1107C69.6459 90.0699 69.297 89.89 69.0447 89.606C68.7927 89.3163 68.659 88.9423 68.6701 88.5584C68.667 88.3511 68.7107 88.1458 68.7981 87.9577C68.8855 87.7697 69.0143 87.6039 69.1747 87.4726L73.2275 83.7945L75.2157 86.0044L71.1858 89.6901ZM90.0275 72.1025L88.0011 69.862L92.0386 66.1686C92.2312 65.9669 92.48 65.8276 92.7527 65.769C93.0254 65.7104 93.3095 65.7351 93.568 65.8398C93.8192 65.9195 94.0455 66.0628 94.225 66.2557C94.4046 66.4486 94.5312 66.6847 94.5926 66.941C94.6668 67.2073 94.6591 67.4898 94.5704 67.7517C94.4818 68.0135 94.3163 68.2427 94.0956 68.4091L90.0275 72.1025Z" fill="white" stroke="#0B1F44" stroke-miterlimit="10"/>
    <path d="M34.4062 34.8955L98.6422 147.788L158.212 113.892L93.9761 1.00002L34.4062 34.8955Z" fill="white" stroke="#0B1F44" stroke-linecap="round" stroke-linejoin="round"/>
    <path d="M106.674 136.557L144.037 115.268C143.51 113.685 143.551 111.969 144.15 110.412C144.75 108.855 145.872 107.555 147.325 106.735L147.707 106.544L95.5789 14.9733C95.4642 15.0497 95.3495 15.1262 95.2271 15.195C94.4064 15.6632 93.5014 15.965 92.5639 16.0831C91.6264 16.2012 90.6748 16.1333 89.7636 15.8833C88.8524 15.6333 87.9994 15.2061 87.2534 14.6262C86.5075 14.0462 85.8832 13.3248 85.4163 12.5033L48.2759 33.6391C49.2194 35.2971 49.4659 37.262 48.9611 39.1017C48.4564 40.9415 47.2417 42.5054 45.5842 43.4499L97.6894 135.028C99.1334 134.206 100.817 133.91 102.455 134.189C104.093 134.467 105.583 135.304 106.674 136.557Z" fill="white" stroke="#0B1F44" stroke-linecap="round" stroke-linejoin="round"/>
    <path d="M111.867 90.531C115.38 86.7557 117.508 81.9003 117.903 76.7586C118.298 71.6169 116.937 66.4933 114.042 62.2257C111.147 57.958 106.89 54.7988 101.967 53.2648C97.0432 51.7307 91.745 51.9126 86.9384 53.7806" stroke="#0B1F44" stroke-linecap="round" stroke-linejoin="round"/>
    <path d="M97.8653 97.6426C100.888 97.2813 103.807 96.3194 106.453 94.8133C106.751 94.6374 107.049 94.4615 107.34 94.278" stroke="#0B1F44" stroke-linecap="round" stroke-linejoin="round"/>
    <path d="M79.2456 58.736C76.0529 61.8652 73.8512 65.8643 72.9145 70.2356C71.9778 74.6068 72.3476 79.157 73.9777 83.3197C75.6079 87.4823 78.4265 91.0735 82.0825 93.6462C85.7386 96.2188 90.0706 97.6592 94.5392 97.7881" stroke="#0B1F44" stroke-linecap="round" stroke-linejoin="round"/>
    <path d="M81.746 90.3145C73.2963 82.8887 72.4664 70.0191 79.8922 61.5694C87.318 53.1198 100.188 52.2898 108.637 59.7156C117.087 67.1414 117.917 80.011 110.491 88.4607C103.065 96.9104 90.1956 97.7403 81.746 90.3145Z" fill="#A6A6A6" stroke="#0B1F44"/>
    <path d="M107.669 78.5258C107.621 78.9813 107.425 79.4086 107.11 79.7417C106.822 80.0566 106.442 80.2732 106.025 80.3611C105.612 80.4526 105.183 80.4526 104.77 80.3611C104.351 80.2633 103.984 80.0089 103.746 79.6499C103.459 79.2184 103.3 78.7148 103.287 78.197C103.287 78.0899 103.287 77.7841 103.287 77.2794C103.287 76.7747 103.287 76.3465 103.226 75.9871C103.172 75.4983 103.077 75.0149 102.943 74.5418C102.773 73.9255 102.54 73.3284 102.247 72.7601C102.061 72.3117 101.825 71.8858 101.544 71.4908C101.259 71.0876 100.945 70.7067 100.603 70.3514C100.303 70.0267 99.915 69.7956 99.4866 69.6861C99.2758 69.6318 99.0564 69.6201 98.841 69.6516C98.6257 69.6831 98.4188 69.7572 98.2325 69.8697C98.0495 69.9983 97.8984 70.1672 97.791 70.3634C97.6837 70.5597 97.6228 70.7779 97.6131 71.0014C97.5393 71.7 97.6149 72.4064 97.8348 73.0737L98.5995 76.0788C98.8825 77.2182 99.0889 78.1435 99.2189 78.847C99.3521 79.5895 99.4288 80.341 99.4483 81.0951C99.4881 81.767 99.3946 82.4401 99.173 83.0757C98.9381 83.6499 98.6071 84.18 98.1942 84.6432C97.673 85.2122 97.0605 85.6903 96.3819 86.0579C95.5376 86.5713 94.5701 86.8467 93.5819 86.8548C92.5938 86.8629 91.6218 86.6034 90.7692 86.1038C88.8575 85.0842 87.2288 83.2056 85.8829 80.4681C85.501 79.7138 85.1838 78.9285 84.9347 78.1205C84.7472 77.5211 84.5965 76.9108 84.4836 76.293C84.4147 75.8494 84.3459 75.2683 84.2924 74.5495C84.2338 74.035 84.341 73.5153 84.5983 73.066C84.8081 72.6704 85.1409 72.3537 85.5465 72.1637C85.9285 71.9941 86.3447 71.9156 86.7623 71.9343C86.9754 71.9407 87.1848 71.9917 87.3771 72.0839C87.5694 72.1761 87.7402 72.3074 87.8787 72.4696C88.2177 72.8679 88.44 73.3522 88.5211 73.8689C88.769 75.3631 89.1978 76.8217 89.7981 78.2123C90.0275 78.6788 90.3028 79.1605 90.6086 79.6652C90.9005 80.1417 91.2982 80.5447 91.7709 80.8428C91.948 80.9783 92.1602 81.0603 92.3824 81.0793C92.6045 81.0983 92.8275 81.0534 93.025 80.9498C93.2327 80.8428 93.4111 80.6864 93.5444 80.4944C93.6777 80.3025 93.7619 80.0808 93.7897 79.8487C93.824 79.1627 93.7226 78.4767 93.4915 77.83L92.6656 74.8783C92.3777 73.8505 92.153 72.806 91.9927 71.7508C91.8781 70.9033 91.8781 70.0442 91.9927 69.1967C92.0769 68.3999 92.3552 67.6359 92.8033 66.9715C93.3435 66.2582 94.0256 65.6646 94.8067 65.2281C96.0483 64.4421 97.5226 64.1073 98.9819 64.2799C100.406 64.4785 101.737 65.0991 102.805 66.0616C104.059 67.193 105.082 68.5562 105.818 70.0761C107.248 72.6512 107.891 75.5889 107.669 78.5258ZM83.0001 84.5668C82.8211 84.6832 82.6183 84.7581 82.4066 84.7858C82.1948 84.8136 81.9796 84.7936 81.7766 84.7274C81.4134 84.6113 81.1092 84.3592 80.9278 84.0238C80.7411 83.6858 80.6892 83.2898 80.7825 82.9151C80.8297 82.7084 80.9231 82.5152 81.0555 82.3496C81.1879 82.1841 81.356 82.0507 81.5472 81.9592L85.5393 79.7417L86.9385 82.3496L83.0001 84.5668ZM106.228 70.8682L104.724 68.2229L108.364 66.138C108.592 65.9896 108.858 65.9106 109.129 65.9106C109.401 65.9106 109.666 65.9896 109.894 66.138C110.12 66.2735 110.308 66.4634 110.442 66.6905C110.575 66.9176 110.65 67.1746 110.658 67.438C110.67 67.714 110.599 67.9873 110.455 68.2229C110.31 68.4584 110.099 68.6457 109.848 68.7609L106.228 70.8682Z" fill="white" stroke="#0B1F44" stroke-miterlimit="10"/>
</svg>
