<svg width="115" height="154" viewBox="0 0 115 154" fill="none" xmlns="http://www.w3.org/2000/svg" id="driver" >
<path d="M71.9578 68.5435C71.9578 68.5435 53.7301 73.1004 48.2513 74.1804C42.7724 75.2604 39.954 75.2603 39.1375 77.6573C33.2817 88.6133 26.4587 99.0242 18.7498 108.766C12.5861 115.482 12.0593 121.936 13.9295 125.387C15.7997 128.837 17.9596 130.497 25.9935 128.337C31.1696 126.769 35.7571 123.687 39.1638 119.486C39.1638 119.486 41.0603 139.61 38.3736 147.644C35.6868 155.678 34.6069 162.132 36.4771 163.449C44.6158 167.931 53.7375 170.329 63.0284 170.429C77.7791 170.956 94.6371 169.612 97.2711 166.926C98.1812 166.192 98.8974 165.247 99.3567 164.172C99.8159 163.097 100.004 161.926 99.9052 160.762C99.9052 158.892 98.8516 146.301 102.065 136.371C105.279 126.44 114.393 100.969 114.656 91.3018C114.919 81.6348 111.179 80.3177 103.935 77.3676C96.6917 74.4175 85.1545 69.3337 82.4941 68.7805C78.9909 68.4721 75.4713 68.3929 71.9578 68.5435Z" fill="#0B1F44" stroke="#0B1F44" stroke-linecap="round" stroke-linejoin="round"/>
<path d="M68.1912 63.7231C65.9922 65.1361 63.9289 66.7498 62.0275 68.5434C61.7378 69.36 52.3605 84.3478 53.4405 84.3478C54.5204 84.3478 66.321 78.4475 66.321 78.4475C66.321 78.4475 72.195 69.5971 71.5892 66.0938C71.5666 65.6954 71.4538 65.3073 71.2593 64.9589C71.0648 64.6105 70.7938 64.3108 70.4665 64.0824C70.1392 63.8541 69.7644 63.7031 69.3702 63.6409C68.9761 63.5786 68.5729 63.6068 68.1912 63.7231Z" fill="white" stroke="#0B1F44" stroke-linecap="round" stroke-linejoin="round"/>
<path d="M65.9268 60.7467C66.2073 66.6798 65.7561 72.6248 64.5835 78.4476C62.7133 85.6913 61.3699 90.5115 64.0566 91.3281C66.7434 92.1447 75.5938 78.9744 77.9908 75.234C79.4057 73.0814 80.489 70.7284 81.2044 68.2538L83.1009 47.3394C83.1009 47.3394 72.3539 58.9292 65.9268 60.7467Z" fill="white" stroke="#0B1F44" stroke-linecap="round" stroke-linejoin="round"/>
<path d="M56.286 10.8575C56.286 10.8575 53.6519 33.6685 53.6519 42.2555C53.6519 50.8426 59.2888 61.8265 61.9492 62.8802C64.6096 63.9338 71.3528 65.0401 74.0396 63.1699C76.7263 61.2997 84.207 49.7625 84.207 49.7625C86.7442 41.6998 88.6292 33.4462 89.8439 25.0814C90.6605 15.9675 88.2371 11.674 79.9135 8.98729C71.5899 6.30055 60.5532 6.24788 56.286 10.8575Z" fill="white" stroke="#0B1F44" stroke-linecap="round" stroke-linejoin="round"/>
<path d="M62.7119 30.4548C62.7119 30.4548 60.2886 43.6251 61.3686 43.8622C62.9679 44.0552 64.5781 44.1432 66.1889 44.1256" stroke="#0B1F44" stroke-linecap="round" stroke-linejoin="round"/>
<path d="M62.4485 48.6827C62.4485 48.6827 69.6921 50.2895 73.4325 46.8125" stroke="#0B1F44" stroke-linecap="round" stroke-linejoin="round"/>
<path d="M72.1205 30.6328L72.117 30.6623V30.6919C72.117 31.1496 71.9799 31.5351 71.8027 31.7875C71.6127 32.0583 71.4463 32.0947 71.3959 32.0903C71.3754 32.0885 71.2441 32.0543 71.1153 31.7337C70.9961 31.437 70.9345 31.0065 70.981 30.5298C71.0271 30.0575 71.1761 29.6458 71.3565 29.3766C71.5527 29.0836 71.6916 29.0782 71.7094 29.0805C71.7548 29.0864 71.8882 29.1395 72.0079 29.4388C72.1219 29.7237 72.1787 30.1436 72.1205 30.6328Z" fill="#0B1F44" stroke="#0B1F44"/>
<path d="M60.8716 29.5646L60.8694 29.5882V29.612C60.8694 30.0651 60.7283 30.4503 60.5471 30.705C60.3492 30.9831 60.1826 31.0135 60.1503 31.0106C60.1394 31.0096 60.0077 30.9781 59.8756 30.6589C59.7543 30.3656 59.6871 29.9362 59.7336 29.4487C59.7798 28.9636 59.9287 28.5595 60.105 28.2976C60.2959 28.014 60.4361 28.001 60.4549 28.0027C60.4658 28.0037 60.5975 28.0352 60.7296 28.3545C60.8509 28.6477 60.9181 29.0771 60.8716 29.5646Z" fill="#0B1F44" stroke="#0B1F44"/>
<path d="M56.2851 25.6083C56.6558 25.1173 57.1306 24.7146 57.6755 24.4291C58.2204 24.1437 58.8218 23.9825 59.4364 23.9573C60.0511 23.9322 60.6636 24.0435 61.2301 24.2835C61.7965 24.5234 62.3027 24.8859 62.7123 25.3449" stroke="#0B1F44" stroke-linecap="round" stroke-linejoin="round"/>
<path d="M67.7975 25.0813C67.7975 25.0813 72.9076 21.0512 75.6997 25.3447" stroke="#0B1F44" stroke-linecap="round" stroke-linejoin="round"/>
<path d="M51.9906 7.11715C51.9724 7.33628 51.9724 7.55654 51.9906 7.77567C52.4097 9.14283 53.1605 10.385 54.1762 11.3916C55.1919 12.3981 56.4409 13.1376 57.8118 13.5443C63.7121 15.9676 77.6463 13.0174 82.4666 14.6242C87.287 16.231 85.1007 20.7879 82.2033 22.3947C79.3058 24.0015 78.7263 24.8181 80.0696 26.6882C81.413 28.5584 84.6266 30.4549 83.5466 32.5885C82.4667 34.7221 81.9398 36.8821 83.81 37.1455C85.6802 37.4089 87.0236 37.4088 87.8401 36.3552C88.6567 35.3016 94.0038 23.7381 94.0038 17.0476C94.0038 10.3571 90.7903 7.38055 83.2832 4.4304C75.7761 1.48025 60.2089 -0.389924 55.6519 2.29682C54.6954 2.74157 53.8618 3.41315 53.2238 4.25319C52.5857 5.09323 52.1624 6.07634 51.9906 7.11715Z" fill="#0B1F44" stroke="#0B1F44" stroke-linecap="round" stroke-linejoin="round"/>
<path d="M83.1003 46.7333C83.7837 47.4096 84.6744 47.8369 85.6296 47.9468C86.5848 48.0566 87.5493 47.8427 88.3684 47.3392C91.3185 45.469 92.6619 38.7521 90.7917 35.2752C88.9215 31.7982 85.1548 38.4887 85.1548 38.4887" fill="white"/>
<path d="M83.1003 46.7333C83.7837 47.4096 84.6744 47.8369 85.6296 47.9468C86.5848 48.0566 87.5493 47.8427 88.3684 47.3392C91.3185 45.469 92.6619 38.7521 90.7917 35.2752C88.9215 31.7982 85.1548 38.4887 85.1548 38.4887" stroke="#0B1F44" stroke-linecap="round" stroke-linejoin="round"/>
<path d="M71.957 68.5434C71.957 68.5434 71.4302 92.408 73.0369 89.6159C74.6437 86.8238 88.0511 69.2547 88.0511 69.2547L84.8376 59.8511L71.957 68.5434Z" fill="white" stroke="#0B1F44" stroke-linecap="round" stroke-linejoin="round"/>
<path d="M95.5593 94.8313L86.4454 123.253L103.066 144.325C103.066 144.325 103.883 145.932 105.226 144.062C106.57 142.192 107.623 142.192 109.783 131.998C111.943 121.804 115.051 97.123 114.867 91.2227C114.683 85.3224 113.524 82.3722 108.967 81.582" fill="#0B1F44"/>
<path d="M95.5593 94.8313L86.4454 123.253L103.066 144.325C103.066 144.325 103.883 145.932 105.226 144.062C106.57 142.192 107.623 142.192 109.783 131.998C111.943 121.804 115.051 97.123 114.867 91.2227C114.683 85.3224 113.524 82.3722 108.967 81.582" stroke="#0B1F44" stroke-linecap="round" stroke-linejoin="round"/>
<path d="M44.6158 127.81C44.6158 127.81 86.1813 143.614 91.8182 143.904C97.455 144.194 98.7721 140.427 96.3751 133.368C93.9781 126.308 86.7081 122.357 80.5707 120.487C73.5078 118.837 66.1497 118.927 59.1295 120.75C52.9131 122.436 44.6158 125.676 44.6158 127.81Z" fill="white" stroke="#0B1F44" stroke-linecap="round" stroke-linejoin="round"/>
<path d="M79.2017 120.303C79.2017 120.303 89.1321 141.744 89.7379 143.64C90.3437 145.537 100.485 146.854 103.698 146.591C106.912 146.327 105.569 141.48 102.355 134.527C99.1415 127.573 94.0314 121.356 90.2911 120.303C86.6178 119.717 82.8749 119.717 79.2017 120.303Z" fill="white" stroke="#0B1F44" stroke-linecap="round" stroke-linejoin="round"/>
<path d="M23.7014 112.796C20.227 113.074 16.8019 113.791 13.5076 114.929C9.74088 116.536 8.95067 127.81 10.8735 131.84C12.7964 135.87 18.644 135.844 22.6741 135.58C23.8121 135.543 24.9284 135.259 25.9468 134.75C26.9652 134.241 27.8615 133.518 28.5744 132.63L31.5245 112.796H23.7014Z" fill="#0B1F44" stroke="#0B1F44" stroke-linecap="round" stroke-linejoin="round"/>
<path d="M31.4721 112.796C31.4721 112.796 61.7638 112.796 69.2708 112.532C76.7779 112.269 78.6744 114.139 80.2812 116.826C81.888 119.513 82.4148 120.566 82.4148 120.566C72.9095 121.482 63.5512 123.552 54.5465 126.73C42.1927 131.576 31.4721 135.844 27.7054 135.844C23.9387 135.844 22.4373 126.203 23.965 119.486C24.2773 117.687 25.1891 116.047 26.5521 114.832C27.9152 113.617 29.6492 112.9 31.4721 112.796Z" fill="white" stroke="#0B1F44" stroke-linecap="round" stroke-linejoin="round"/>
<path d="M22.8838 110.925C22.8838 110.925 35.7643 110.636 35.5009 113.059C35.2375 115.482 32.8669 133.71 31.9976 135.317C31.1284 136.924 23.437 137.74 19.6703 137.477C15.9035 137.213 17.2469 125.123 19.6703 119.486C20.9258 116.705 21.9992 113.846 22.8838 110.925Z" fill="white" stroke="#0B1F44" stroke-linecap="round" stroke-linejoin="round"/>
</svg>
