<svg width="17" height="17" viewBox="0 0 17 17" fill="none" xmlns="http://www.w3.org/2000/svg">
<g clip-path="url(#clip0_214_1971)">
<path d="M15.5833 4.24992C15.5833 3.47075 14.9458 2.83325 14.1667 2.83325H2.83333C2.05417 2.83325 1.41667 3.47075 1.41667 4.24992V12.7499C1.41667 13.5291 2.05417 14.1666 2.83333 14.1666H14.1667C14.9458 14.1666 15.5833 13.5291 15.5833 12.7499V4.24992ZM14.1667 4.24992L9.03 7.46034C8.70573 7.663 8.29427 7.663 7.97 7.46034L2.83333 4.24992H14.1667ZM14.1667 12.7499H2.83333V5.66659L7.97 8.877C8.29427 9.07967 8.70573 9.07967 9.03 8.877L14.1667 5.66659V12.7499Z" fill="#6D798F"/>
</g>
<defs>
<clipPath id="clip0_214_1971">
<rect width="17" height="17" fill="white"/>
</clipPath>
</defs>
</svg>
