<svg width="21" height="20" viewBox="0 0 21 20" fill="none" xmlns="http://www.w3.org/2000/svg" id="error" >
<path fill-rule="evenodd" clip-rule="evenodd" d="M10.0252 10C10.4855 10 10.8586 10.3731 10.8586 10.8333V12.5C10.8586 12.9602 10.4855 13.3333 10.0252 13.3333C9.56499 13.3333 9.19189 12.9602 9.19189 12.5V10.8333C9.19189 10.3731 9.56499 10 10.0252 10Z" fill="#EB5757"/>
<path d="M10.0252 8.33332C10.4855 8.33332 10.8586 7.96023 10.8586 7.49999C10.8586 7.03975 10.4855 6.66666 10.0252 6.66666C9.56499 6.66666 9.19189 7.03975 9.19189 7.49999C9.19189 7.96023 9.56499 8.33332 10.0252 8.33332Z" fill="#EB5757"/>
<path fill-rule="evenodd" clip-rule="evenodd" d="M10.0256 4.58334C7.03401 4.58334 4.60889 7.00847 4.60889 10C4.60889 12.9916 7.03401 15.4167 10.0256 15.4167C13.0171 15.4167 15.4422 12.9916 15.4422 10C15.4422 7.00847 13.0171 4.58334 10.0256 4.58334ZM3.35889 10C3.35889 6.31811 6.34365 3.33334 10.0256 3.33334C13.7075 3.33334 16.6922 6.31811 16.6922 10C16.6922 13.6819 13.7075 16.6667 10.0256 16.6667C6.34365 16.6667 3.35889 13.6819 3.35889 10Z" fill="#EB5757"/>
</svg>
