<svg width="388" height="190" viewBox="0 0 388 190" fill="none" xmlns="http://www.w3.org/2000/svg" id="exam-history" >
<path d="M378.648 7H257.97C253.568 7 250 10.5685 250 14.9704V41.7585C250 46.1604 253.568 49.7289 257.97 49.7289H378.648C383.05 49.7289 386.619 46.1604 386.619 41.7585V14.9704C386.619 10.5685 383.05 7 378.648 7Z" fill="white" stroke="#2065EA" stroke-width="1.02934" stroke-miterlimit="10"/>
<path d="M273.912 28.1761H367.021" stroke="#2065EA" stroke-width="1.02934" stroke-miterlimit="10"/>
<path d="M271.006 28.1762L285.711 17.8119H323.161L338.441 28.1762" stroke="#2065EA" stroke-width="1.02934" stroke-miterlimit="10"/>
<path d="M341.34 28.1762C341.34 28.7511 341.17 29.3131 340.85 29.7911C340.53 30.269 340.076 30.6414 339.545 30.8611C339.014 31.0808 338.429 31.1379 337.865 31.0252C337.301 30.9126 336.784 30.6351 336.378 30.2281C335.972 29.8211 335.696 29.3027 335.584 28.7386C335.473 28.1746 335.532 27.5902 335.753 27.0594C335.974 26.5286 336.347 26.0753 336.826 25.757C337.304 25.4386 337.867 25.2694 338.442 25.2708C339.211 25.2726 339.948 25.5796 340.492 26.1242C341.035 26.6689 341.34 27.4068 341.34 28.1762Z" fill="#A6C1F7" stroke="#2065EA" stroke-width="1.02934" stroke-miterlimit="10"/>
<path d="M285.711 20.7172C287.315 20.7172 288.616 19.4164 288.616 17.8118C288.616 16.2072 287.315 14.9064 285.711 14.9064C284.106 14.9064 282.805 16.2072 282.805 17.8118C282.805 19.4164 284.106 20.7172 285.711 20.7172Z" fill="#A6C1F7" stroke="#2065EA" stroke-width="1.02934" stroke-miterlimit="10"/>
<path d="M326.06 17.8119C326.061 18.3871 325.892 18.9499 325.573 19.4287C325.254 19.9076 324.801 20.2811 324.27 20.5019C323.738 20.7227 323.154 20.7808 322.589 20.6689C322.025 20.5571 321.507 20.2802 321.1 19.8734C320.693 19.4667 320.416 18.9483 320.305 18.3841C320.193 17.8198 320.251 17.235 320.472 16.7039C320.692 16.1727 321.066 15.719 321.545 15.4003C322.024 15.0816 322.586 14.9122 323.162 14.9136C323.93 14.9155 324.666 15.2214 325.209 15.7646C325.752 16.3077 326.058 17.0438 326.06 17.8119Z" fill="#A6C1F7" stroke="#2065EA" stroke-width="1.02934" stroke-miterlimit="10"/>
<path d="M271.006 28.1761L285.711 38.5405H354.73L367.02 28.1761" stroke="#2065EA" stroke-width="1.02934" stroke-miterlimit="10"/>
<path d="M311.099 38.5404C311.099 39.1151 310.929 39.6768 310.61 40.1546C310.291 40.6324 309.837 41.0048 309.306 41.2247C308.775 41.4446 308.191 41.5021 307.627 41.39C307.064 41.2779 306.546 41.0012 306.14 40.5949C305.733 40.1885 305.457 39.6708 305.344 39.1073C305.232 38.5437 305.29 37.9595 305.51 37.4286C305.73 36.8977 306.102 36.4439 306.58 36.1247C307.058 35.8054 307.619 35.635 308.194 35.635C308.965 35.635 309.704 35.9411 310.248 36.486C310.793 37.0309 311.099 37.7699 311.099 38.5404Z" fill="#A6C1F7" stroke="#2065EA" stroke-width="1.02934" stroke-miterlimit="10"/>
<path d="M288.616 38.5404C288.616 39.1151 288.446 39.6768 288.126 40.1546C287.807 40.6324 287.353 41.0048 286.822 41.2247C286.292 41.4446 285.707 41.5021 285.144 41.39C284.58 41.2779 284.062 41.0012 283.656 40.5949C283.25 40.1885 282.973 39.6708 282.861 39.1073C282.749 38.5437 282.806 37.9595 283.026 37.4286C283.246 36.8977 283.619 36.4439 284.096 36.1247C284.574 35.8054 285.136 35.635 285.711 35.635C286.481 35.635 287.22 35.9411 287.765 36.486C288.31 37.0309 288.616 37.7699 288.616 38.5404Z" fill="#A6C1F7" stroke="#2065EA" stroke-width="1.02934" stroke-miterlimit="10"/>
<path d="M357.636 38.5404C357.636 39.1151 357.466 39.6768 357.146 40.1546C356.827 40.6324 356.373 41.0048 355.842 41.2247C355.312 41.4446 354.727 41.5021 354.164 41.39C353.6 41.2779 353.083 41.0012 352.676 40.5949C352.27 40.1885 351.993 39.6708 351.881 39.1073C351.769 38.5437 351.826 37.9595 352.046 37.4286C352.266 36.8977 352.639 36.4439 353.116 36.1247C353.594 35.8054 354.156 35.635 354.731 35.635C355.501 35.635 356.24 35.9411 356.785 36.486C357.33 37.0309 357.636 37.7699 357.636 38.5404Z" fill="#A6C1F7" stroke="#2065EA" stroke-width="1.02934" stroke-miterlimit="10"/>
<path d="M367.02 31.0816C368.625 31.0816 369.926 29.7808 369.926 28.1762C369.926 26.5716 368.625 25.2708 367.02 25.2708C365.416 25.2708 364.115 26.5716 364.115 28.1762C364.115 29.7808 365.416 31.0816 367.02 31.0816Z" fill="#A6C1F7" stroke="#2065EA" stroke-width="1.02934" stroke-miterlimit="10"/>
<path d="M273.911 28.1762C273.911 28.7511 273.741 29.3131 273.421 29.7911C273.102 30.269 272.648 30.6414 272.116 30.8611C271.585 31.0808 271 31.1379 270.437 31.0252C269.873 30.9126 269.355 30.6351 268.949 30.2281C268.543 29.8211 268.267 29.3027 268.156 28.7386C268.044 28.1746 268.103 27.5902 268.324 27.0594C268.545 26.5286 268.918 26.0753 269.397 25.757C269.876 25.4386 270.438 25.2694 271.013 25.2708C271.782 25.2726 272.52 25.5796 273.063 26.1242C273.606 26.6689 273.911 27.4068 273.911 28.1762Z" fill="#A6C1F7" stroke="#2065EA" stroke-width="1.02934" stroke-miterlimit="10"/>
<path d="M119.021 61.0042H49.4968C45.0949 61.0042 41.5265 64.5726 41.5265 68.9745V138.499C41.5265 142.901 45.0949 146.469 49.4968 146.469H119.021C123.423 146.469 126.991 142.901 126.991 138.499V68.9745C126.991 64.5726 123.423 61.0042 119.021 61.0042Z" fill="white" stroke="#2065EA" stroke-width="1.02934" stroke-miterlimit="10"/>
<path d="M73.5715 109.8L62.5039 131.317H112.67" stroke="#2065EA" stroke-width="1.02934" stroke-linecap="round" stroke-linejoin="round"/>
<path d="M112.671 77.293L89.2571 92.8572L112.671 99.9041" stroke="#2065EA" stroke-width="1.02934" stroke-linecap="round" stroke-linejoin="round"/>
<path d="M118.205 71.7592H107.137V82.8268H118.205V71.7592Z" fill="#A6C1F7" stroke="#2065EA" stroke-width="1.02934" stroke-miterlimit="10"/>
<path d="M118.205 94.3702H107.137V105.438H118.205V94.3702Z" fill="#A6C1F7" stroke="#2065EA" stroke-width="1.02934" stroke-miterlimit="10"/>
<path d="M94.7903 87.3232H83.7227V98.3908H94.7903V87.3232Z" fill="#A6C1F7" stroke="#2065EA" stroke-width="1.02934" stroke-miterlimit="10"/>
<path d="M79.1054 104.266H68.0378V115.333H79.1054V104.266Z" fill="#A6C1F7" stroke="#2065EA" stroke-width="1.02934" stroke-miterlimit="10"/>
<path d="M68.0377 125.776H56.9701V136.843H68.0377V125.776Z" fill="#A6C1F7" stroke="#2065EA" stroke-width="1.02934" stroke-miterlimit="10"/>
<path d="M118.205 125.776H107.137V136.843H118.205V125.776Z" fill="#A6C1F7" stroke="#2065EA" stroke-width="1.02934" stroke-miterlimit="10"/>
<path d="M78.4945 27.51H8.97037C4.56846 27.51 1 31.0785 1 35.4804V105.004C1 109.406 4.56846 112.975 8.97037 112.975H78.4945C82.8964 112.975 86.4648 109.406 86.4648 105.004V35.4804C86.4648 31.0785 82.8964 27.51 78.4945 27.51Z" fill="white" stroke="#2065EA" stroke-width="1.02934" stroke-miterlimit="10"/>
<path d="M66.8941 35.7788H10.0431V40.1831H66.8941V35.7788Z" fill="#A6C1F7"/>
<path d="M42.8907 43.0317H10.0431V47.4361H42.8907V43.0317Z" fill="#A6C1F7"/>
<path d="M29.1734 50.2845H10.0431V54.6888H29.1734V50.2845Z" fill="#A6C1F7"/>
<path d="M41.5268 57.5304H10.0431V61.9347H41.5268V57.5304Z" fill="#A6C1F7"/>
<path d="M59.1227 64.7833H10.0431V69.1876H59.1227V64.7833Z" fill="#A6C1F7"/>
<path d="M42.8907 72.0291H10.0431V76.4334H42.8907V72.0291Z" fill="#A6C1F7"/>
<path d="M32.9597 79.2819H10.0431V83.6862H32.9597V79.2819Z" fill="#A6C1F7"/>
<path d="M47.1458 86.5348H10.0431V90.9391H47.1458V86.5348Z" fill="#A6C1F7"/>
<path d="M55.0238 93.7806H10.0431V98.185H55.0238V93.7806Z" fill="#A6C1F7"/>
<path d="M66.8941 101.033H10.0431V105.438H66.8941V101.033Z" fill="#A6C1F7"/>
<path opacity="0.3" d="M66.8941 35.7788H10.0431V40.1831H66.8941V35.7788Z" fill="#2065EA"/>
<path opacity="0.3" d="M42.8907 43.0317H10.0431V47.4361H42.8907V43.0317Z" fill="#2065EA"/>
<path opacity="0.3" d="M29.1734 50.2845H10.0431V54.6888H29.1734V50.2845Z" fill="#2065EA"/>
<path opacity="0.3" d="M41.5268 57.5304H10.0431V61.9347H41.5268V57.5304Z" fill="#2065EA"/>
<path opacity="0.3" d="M59.1227 64.7833H10.0431V69.1876H59.1227V64.7833Z" fill="#2065EA"/>
<path opacity="0.3" d="M42.8907 72.0291H10.0431V76.4334H42.8907V72.0291Z" fill="#2065EA"/>
<path opacity="0.3" d="M32.9597 79.2819H10.0431V83.6862H32.9597V79.2819Z" fill="#2065EA"/>
<path opacity="0.3" d="M47.1458 86.5348H10.0431V90.9391H47.1458V86.5348Z" fill="#2065EA"/>
<path opacity="0.3" d="M55.0238 93.7806H10.0431V98.185H55.0238V93.7806Z" fill="#2065EA"/>
<path opacity="0.3" d="M66.8941 101.033H10.0431V105.438H66.8941V101.033Z" fill="#2065EA"/>
<path d="M46.6488 20.0156H67.3348C68.3334 20.0156 69.291 20.4123 69.9971 21.1184C70.7031 21.8244 71.0998 22.7821 71.0998 23.7806V27.5243H42.8839V23.7806C42.8839 22.7821 43.2805 21.8244 43.9866 21.1184C44.6927 20.4123 45.6503 20.0156 46.6488 20.0156Z" fill="white" stroke="#2065EA" stroke-width="1.02934" stroke-miterlimit="10"/>
<path d="M32.6611 20.0157H53.1056C54.138 20.0157 55.1282 20.4258 55.8582 21.1558C56.5883 21.8859 56.9984 22.876 56.9984 23.9085V27.5314H28.754V23.9085C28.754 23.3961 28.8552 22.8887 29.0517 22.4155C29.2482 21.9422 29.5363 21.5125 29.8992 21.1508C30.2622 20.7891 30.6931 20.5027 31.167 20.3079C31.6409 20.1131 32.1487 20.0138 32.6611 20.0157Z" fill="#A6C1F7" stroke="#2065EA" stroke-width="1.02934" stroke-miterlimit="10"/>
<path d="M16.9406 20.0157H37.8824C38.8477 20.0119 39.775 20.3912 40.4609 21.0704C41.1468 21.7497 41.5352 22.6733 41.5408 23.6386V27.5101H13.3035V23.6386C13.3092 22.677 13.6946 21.7566 14.3759 21.078C15.0572 20.3994 15.9791 20.0175 16.9406 20.0157Z" fill="white" stroke="#2065EA" stroke-width="1.02934" stroke-miterlimit="10"/>
<path d="M170.516 178.533C166.787 180.242 162.75 181.174 158.649 181.272C152.333 181.272 139.481 168.219 139.481 168.219C139.481 168.219 139.015 166.813 140.019 161.555C141.023 156.298 150.462 108.057 150.462 108.057C150.462 108.057 151.575 96.8293 157.956 89.9377C164.336 83.0461 176.86 80.5907 176.86 80.5907C176.86 80.5907 204.554 68.5327 220.09 72.2569C235.607 78.4183 252.558 84.68 258.217 89.5361C263.876 94.3921 277.787 133.35 282.607 153.359C282.607 153.359 271.991 175.914 262.087 182.248C252.183 188.583 228.314 186.52 228.314 186.52L170.516 178.533Z" fill="#E7E9EC"/>
<path opacity="0.3" d="M167.002 139.329L162.994 86.1588C160.372 87.2213 158.046 88.9056 156.219 91.0666C154.392 93.2277 153.118 95.8006 152.506 98.5637C150.434 108.075 137.902 166.612 139.454 168.237C141.005 169.862 149.175 176.863 149.175 176.863C149.175 176.863 157.983 184.394 167.002 179.893C176.02 175.393 167.002 139.329 167.002 139.329Z" fill="#6D798F"/>
<path opacity="0.3" d="M206.763 91.0879C206.297 92.6762 204.298 93.1874 202.637 93.2056C197.863 93.2574 193.233 91.5703 189.611 88.4591C188.954 87.884 177.207 95.1407 175.856 95.8618C173.72 97.012 171.629 98.2716 169.466 99.3396C167.44 100.335 165.523 100.827 164.199 102.836C163.322 104.316 162.661 105.914 162.237 107.582C159.389 116.911 156.386 126.212 153.793 135.605C151.548 143.738 148.527 152.738 148.654 161.273C148.656 161.883 148.699 162.493 148.782 163.098C150.608 174.006 170.525 178.533 170.525 178.533C170.525 178.533 163.478 182.851 158.659 181.272C153.839 179.693 142.575 173.248 139.025 167.224L148.801 116.108C148.801 116.108 148.682 91.4622 166.445 84.1598C184.208 76.8575 191.181 75.7347 191.181 75.7347L206.763 91.0879Z" fill="#6D798F"/>
<path opacity="0.3" d="M272.311 171.496C272.311 171.496 280.069 162.925 282.58 153.377C282.58 153.377 270.713 114.181 267.628 106.824C264.543 99.4672 259.55 91.1151 256.054 87.537L250.376 168.21L249.18 185.188C249.18 185.188 255.57 185.452 259.997 183.362C264.424 181.272 272.311 171.496 272.311 171.496Z" fill="#6D798F"/>
<path d="M249.18 185.215L256.054 87.5462C256.054 87.5462 222.773 72.0288 214.065 70.55C205.357 69.0713 163.067 85.7389 163.067 85.7389L169.22 179.41" stroke="#6D798F" stroke-width="1.02934" stroke-linecap="round" stroke-linejoin="round"/>
<path d="M189.191 22.884L185.778 39.2686C185.778 39.2686 181.396 36.1742 180.465 39.6702C179.534 43.1662 182.382 47.9766 187.886 48.2414C187.886 48.2414 189.383 55.6624 194.276 60.701C196.579 63.1589 199.017 65.487 201.578 67.6747C201.578 67.6747 203.504 80.1161 209.793 80.5907C216.082 81.0654 217.305 75.4061 218.574 67.5378C218.574 67.5378 224.005 58.1178 225.594 53.0244C225.594 53.0244 232.257 48.3783 227.812 41.5962C227.812 41.5962 230.012 25.3759 226.187 22.6375C222.362 19.8991 195.864 21.2957 189.191 22.884Z" fill="white"/>
<path d="M209.483 81.8869C209.483 81.8869 207.374 92.5118 206.06 92.7765C204.745 93.0413 199.543 88.0757 194.997 81.8869C190.451 75.6982 191.154 75.6891 191.154 75.6891C191.154 75.6891 193.263 67.5652 194.997 66.3786C196.731 65.1919 202.984 65.338 202.984 65.338L216.676 64.8177C216.676 64.8177 221.24 64.1696 224.06 65.9861C226.881 67.8025 228.25 75.6891 228.25 75.6891C228.25 75.6891 220.035 90.8323 213.335 92.7765C211.841 89.2243 210.555 85.5883 209.483 81.8869Z" fill="white"/>
<path d="M164.601 161.665L166.417 136.18" stroke="#6D798F" stroke-width="1.02934" stroke-miterlimit="10"/>
<path d="M228.25 27.5757C228.25 27.5757 220.473 30.588 213.6 30.0129C213.6 30.0129 206.343 37.3152 197.051 32.9795C197.051 32.9795 188.671 55.6715 207.886 70.5135C203.026 68.6491 198.678 65.6567 195.201 61.7829C191.724 57.9091 189.217 53.2647 187.886 48.2322C187.886 48.2322 182.41 49.0811 180.465 40.9299C180.465 40.9299 178.886 37.7808 186.088 37.7625L185.778 21.9712L204.28 25.6863L217.561 23.742L228.25 27.5757Z" fill="#E7E9EC"/>
<path opacity="0.4" d="M228.25 27.5757C228.25 27.5757 220.473 30.588 213.599 30.0129C213.599 30.0129 206.343 37.3152 197.051 32.9795C197.051 32.9795 190.278 57.278 207.091 70.1028C207.091 70.1028 191.838 64.8177 187.877 48.1957C187.877 48.1957 182.455 47.6207 180.456 40.8934C180.456 40.8934 178.877 37.7442 186.079 37.726L185.768 21.9347L204.271 25.6498L217.552 23.7055L228.25 27.5757Z" fill="white"/>
<path d="M207.101 59.0305C207.703 59.5175 208.334 59.9686 208.99 60.3814C209.419 60.6552 210.067 60.8743 210.368 60.4727C210.471 60.3087 210.525 60.1187 210.524 59.925C210.797 55.4432 209.748 50.9158 210.387 46.4705" stroke="#6D798F" stroke-width="1.02934" stroke-linecap="round" stroke-linejoin="round"/>
<path d="M213.335 43.9238C213.335 43.9238 215.562 39.013 221.304 43.4217" stroke="#6D798F" stroke-width="2.05868" stroke-linecap="round" stroke-linejoin="round"/>
<path d="M206.115 44.791C206.115 44.791 201.916 39.5699 196.713 44.9553" stroke="#6D798F" stroke-width="2.05868" stroke-linecap="round" stroke-linejoin="round"/>
<path d="M200.446 66.8897C200.446 66.8897 202.683 80.2804 210.569 80.6912C216.959 81.0198 218.218 69.9476 218.465 65.9861" stroke="#6D798F" stroke-width="1.02934" stroke-linecap="round" stroke-linejoin="round"/>
<path d="M186.855 40.7565C186.855 40.7565 183.377 36.6032 181.022 38.6296C178.667 40.656 182.2 49.5832 187.886 48.2322" stroke="#6D798F" stroke-width="1.02934" stroke-linecap="round" stroke-linejoin="round"/>
<path d="M201.916 60.6919C203.632 62.7611 205.979 64.2104 208.597 64.8177" stroke="#6D798F" stroke-width="1.02934" stroke-linecap="round" stroke-linejoin="round"/>
<path d="M201.533 52.9241C202.032 52.9241 202.436 52.0658 202.436 51.0072C202.436 49.9485 202.032 49.0903 201.533 49.0903C201.034 49.0903 200.629 49.9485 200.629 51.0072C200.629 52.0658 201.034 52.9241 201.533 52.9241Z" fill="#6D798F"/>
<path d="M217.087 51.0072C217.087 52.066 216.676 52.924 216.174 52.924C215.672 52.924 215.261 52.066 215.261 51.0072C215.261 49.9483 215.663 49.0812 216.174 49.0812C216.685 49.0812 217.087 49.9483 217.087 51.0072Z" fill="#6D798F"/>
<path d="M209.739 80.5815C209.739 80.5815 207.548 92.5118 206.088 92.7765C204.627 93.0412 193.391 82.8544 191.182 75.689C191.182 75.689 193.555 66.3237 195.746 65.986C196.777 65.8217 197.964 65.6665 198.904 65.5479" stroke="#6D798F" stroke-width="1.02934" stroke-linecap="round" stroke-linejoin="round"/>
<path d="M209.739 80.5816C209.739 80.5816 211.856 92.5118 213.335 92.7765C214.814 93.0412 226.041 82.8545 228.25 75.6891C228.25 75.6891 225.567 66.3877 223.531 65.6027C222.232 65.1156 220.895 64.7371 219.533 64.4708" stroke="#6D798F" stroke-width="1.02934" stroke-linecap="round" stroke-linejoin="round"/>
<path d="M188.963 51.2353C190.406 53.7364 192.195 44.9279 191.437 42.1074C190.926 40.2818 189.931 38.511 189.84 36.6306C189.748 34.4947 190.753 32.4957 191.538 30.4967C192.323 28.4976 192.733 26.1153 191.538 24.3262C195.683 27.2579 200.549 29.0032 205.613 29.3739C206.904 29.5557 208.219 29.4497 209.465 29.0636C210.082 28.8606 210.636 28.502 211.074 28.0223C211.512 27.5426 211.819 26.9581 211.966 26.3252C216.712 26.9276 221.413 27.5483 226.142 26.9003C230.112 26.3617 236.283 25.3576 238.318 21.3048C241.303 15.3899 233.617 9.24684 229.081 7.1748C218.127 2.16357 203.322 1.31469 193.427 9.18296C192.412 10.063 191.348 10.8858 190.241 11.6475C188.06 13.0167 183.094 14.0755 181.351 15.9833C179.014 18.5482 181.944 38.3558 181.944 38.3558C181.944 38.3558 185.76 36.585 187.33 42.4908C188.425 46.4705 187.503 48.716 188.963 51.2353Z" fill="#6D798F"/>
<path d="M224.854 25.6223C224.79 25.8677 224.747 26.1181 224.726 26.3708C224.625 28.6174 224.893 30.8655 225.521 33.0251C225.767 33.9926 226.123 34.9328 226.278 35.9186C226.643 38.2645 226.643 40.5282 228.378 42.436C228.378 42.436 231.7 30.8161 230.358 22.5097C230.203 21.5969 229.902 19.1324 228.432 19.5796C227.355 19.9082 226.607 21.7521 226.132 22.6466C225.603 23.5908 225.174 24.5882 224.854 25.6223Z" fill="#6D798F"/>
<path d="M178.996 14.6688C180.465 13.6487 182.156 12.9926 183.929 12.7545C185.701 12.5164 187.505 12.7033 189.192 13.2997C191.844 8.57595 195.537 4.51799 199.99 1.43335" stroke="#6D798F" stroke-width="1.02934" stroke-linecap="round" stroke-linejoin="round"/>
<path opacity="0.47" d="M193.272 11.8757C193.272 11.8757 211.163 24.6 221.998 21.4509C232.832 18.3018 229.802 8.98218 229.802 8.98218" stroke="white" stroke-width="1.02934" stroke-linecap="round" stroke-linejoin="round"/>
<path opacity="0.47" d="M194.997 9.73984C194.997 9.73984 217.461 20.0635 221.24 5.44971" stroke="white" stroke-width="1.02934" stroke-linecap="round" stroke-linejoin="round"/>
<path d="M200.446 66.8897C200.446 66.8897 204.718 75.187 208.068 75.0501C211.418 74.9132 217.561 65.9861 217.561 65.9861C217.561 65.9861 214.248 70.258 209.218 70.6961C205.905 70.9882 200.446 66.8897 200.446 66.8897Z" fill="#6D798F"/>
<path d="M226.297 127.472L226.99 127.152C227.379 126.98 227.698 126.682 227.895 126.306C228.092 125.93 228.156 125.498 228.077 125.08L227.94 124.24C227.872 123.822 227.665 123.439 227.352 123.154C227.038 122.869 226.637 122.698 226.215 122.67L225.375 122.597C225.043 122.574 224.724 122.463 224.449 122.275C224.175 122.087 223.956 121.83 223.814 121.529C223.586 121.055 223.348 120.617 223.084 120.142C222.918 119.856 222.83 119.532 222.83 119.202C222.83 118.872 222.918 118.547 223.084 118.262L223.513 117.531C223.723 117.164 223.807 116.737 223.753 116.317C223.699 115.897 223.508 115.506 223.211 115.204L222.609 114.61C222.316 114.298 221.922 114.098 221.497 114.046C221.071 113.994 220.641 114.094 220.281 114.328L219.542 114.766C219.256 114.932 218.932 115.019 218.602 115.019C218.272 115.019 217.947 114.932 217.662 114.766C216.464 114.074 215.177 113.549 213.837 113.205C213.509 113.119 213.211 112.947 212.973 112.706C212.735 112.465 212.567 112.164 212.486 111.836L212.267 110.923C212.176 110.498 211.937 110.119 211.593 109.855C211.248 109.591 210.82 109.458 210.387 109.481H209.547C209.114 109.458 208.688 109.589 208.343 109.852C207.999 110.114 207.759 110.491 207.667 110.914L207.429 111.826C207.353 112.151 207.189 112.449 206.956 112.687C206.723 112.925 206.429 113.095 206.106 113.177C205.631 113.314 205.193 113.451 204.718 113.625C204.404 113.738 204.065 113.765 203.736 113.704C203.407 113.643 203.1 113.496 202.847 113.278L202.089 112.63C201.78 112.344 201.38 112.174 200.959 112.149C200.538 112.124 200.122 112.245 199.78 112.493L199.114 112.949C198.746 113.181 198.474 113.537 198.345 113.951C198.216 114.366 198.239 114.814 198.411 115.213L198.749 116.126C198.871 116.437 198.908 116.775 198.857 117.105C198.805 117.436 198.667 117.747 198.457 118.006C198.153 118.365 197.87 118.739 197.608 119.129C197.417 119.408 197.154 119.63 196.847 119.771C196.54 119.912 196.2 119.968 195.864 119.932L194.951 119.85C194.527 119.793 194.096 119.887 193.734 120.116C193.372 120.344 193.102 120.693 192.971 121.1L192.669 121.922C192.523 122.313 192.511 122.741 192.635 123.139C192.759 123.537 193.012 123.883 193.354 124.122L194.267 124.733C194.537 124.928 194.751 125.189 194.889 125.492C195.026 125.794 195.083 126.128 195.052 126.459C194.995 126.946 194.971 127.437 194.979 127.928C194.97 128.249 194.883 128.563 194.723 128.842C194.564 129.12 194.338 129.355 194.066 129.526L193.153 130.018C192.778 130.222 192.484 130.547 192.318 130.94C192.152 131.333 192.125 131.771 192.24 132.182L192.459 133.003C192.565 133.417 192.81 133.782 193.152 134.038C193.494 134.293 193.913 134.424 194.34 134.409H195.253C195.582 134.405 195.907 134.488 196.195 134.648C196.483 134.808 196.725 135.04 196.896 135.322C197.151 135.778 197.416 136.235 197.708 136.627C197.896 136.9 198.008 137.217 198.034 137.548C198.059 137.878 197.997 138.209 197.854 138.507L197.471 139.311C197.281 139.692 197.227 140.126 197.317 140.542C197.406 140.959 197.634 141.332 197.964 141.602L198.612 142.149C198.935 142.425 199.341 142.583 199.766 142.598C200.19 142.613 200.607 142.484 200.948 142.232L201.624 141.757C201.886 141.57 202.193 141.455 202.513 141.424C202.834 141.394 203.157 141.449 203.449 141.584C203.933 141.812 204.417 142.013 204.919 142.204C205.228 142.318 205.501 142.512 205.71 142.765C205.92 143.018 206.06 143.322 206.115 143.646L206.252 144.468C206.323 144.886 206.532 145.269 206.847 145.554C207.161 145.838 207.563 146.009 207.986 146.038L208.844 146.111C209.265 146.151 209.688 146.048 210.042 145.818C210.397 145.587 210.663 145.243 210.797 144.842L211.062 144.112C211.174 143.795 211.368 143.514 211.625 143.298C211.882 143.081 212.192 142.937 212.523 142.88C213.054 142.794 213.582 142.682 214.102 142.542C214.423 142.457 214.76 142.457 215.081 142.544C215.401 142.63 215.693 142.8 215.927 143.035L216.484 143.601C216.778 143.902 217.164 144.097 217.581 144.153C217.998 144.21 218.422 144.124 218.784 143.911L219.533 143.491C219.91 143.287 220.206 142.961 220.372 142.566C220.538 142.171 220.564 141.731 220.446 141.319L220.236 140.589C220.138 140.262 220.13 139.914 220.213 139.583C220.297 139.252 220.469 138.95 220.71 138.708C221.103 138.324 221.475 137.918 221.824 137.494C222.042 137.232 222.327 137.035 222.648 136.922C222.97 136.809 223.316 136.786 223.65 136.855L224.407 137.001C224.823 137.082 225.255 137.019 225.631 136.823C226.007 136.628 226.306 136.311 226.479 135.924L226.835 135.157C227.022 134.773 227.072 134.335 226.975 133.918C226.879 133.501 226.643 133.13 226.306 132.866L225.74 132.401C225.477 132.2 225.274 131.932 225.152 131.625C225.03 131.318 224.993 130.984 225.046 130.657C225.136 130.098 225.193 129.534 225.22 128.969C225.255 128.648 225.373 128.341 225.562 128.079C225.751 127.817 226.004 127.608 226.297 127.472ZM214.987 127.956C214.989 128.938 214.699 129.899 214.155 130.717C213.61 131.535 212.835 132.172 211.928 132.55C211.021 132.927 210.022 133.027 209.058 132.836C208.095 132.645 207.209 132.173 206.514 131.479C205.818 130.785 205.344 129.9 205.152 128.937C204.96 127.973 205.058 126.974 205.433 126.067C205.809 125.159 206.445 124.383 207.262 123.837C208.079 123.291 209.039 122.999 210.022 122.999C211.332 122.997 212.59 123.514 213.519 124.438C214.449 125.363 214.973 126.618 214.978 127.928L214.987 127.956Z" fill="#6D798F"/>
<path d="M164.793 158.233C164.047 159.054 163.232 159.808 162.355 160.488C159.979 162.789 158.197 165.633 157.162 168.776C156.65 170.229 156.65 171.813 157.162 173.267C158.266 176.005 161.771 178.743 164.574 176.991" stroke="#6D798F" stroke-width="1.02934" stroke-linecap="round" stroke-linejoin="round"/>
<path d="M164.574 153.413C161.899 152.993 159.27 154.545 157.445 156.526C155.619 158.507 154.35 160.953 152.689 163.08" stroke="#6D798F" stroke-width="1.02934" stroke-linecap="round" stroke-linejoin="round"/>
<path d="M164.364 180.861C160.803 181.553 157.117 181.159 153.784 179.729C151.673 178.594 149.705 177.208 147.924 175.603L140.987 169.871C139.873 168.958 138.641 167.635 139.098 166.265C139.098 166.265 150.69 105.172 152.506 98.5636C154.615 90.9418 163.104 85.7845 163.104 85.7845" stroke="#6D798F" stroke-width="1.02934" stroke-linecap="round" stroke-linejoin="round"/>
<path d="M251.343 158.89C254.329 161.135 256.612 164.184 257.925 167.68C258.963 170.924 259.658 174.268 259.997 177.657C258.171 178.661 254.52 181.308 251.343 181.308" stroke="#6D798F" stroke-width="1.02934" stroke-linecap="round" stroke-linejoin="round"/>
<path d="M251.736 153.806C254.548 153.057 257.332 154.974 259.458 156.964C261.585 158.954 263.767 161.263 266.66 161.574" stroke="#6D798F" stroke-width="1.02934" stroke-linecap="round" stroke-linejoin="round"/>
<path d="M252.275 185.553C257.751 184.978 262.68 181.993 266.624 178.186C270.567 174.38 273.597 169.761 276.6 165.188C279.038 161.482 281.511 157.676 282.579 153.377C282.579 153.377 272.968 121.602 267.628 106.824C262.06 91.462 256.053 87.537 256.053 87.537" stroke="#6D798F" stroke-width="1.02934" stroke-linecap="round" stroke-linejoin="round"/>
<path d="M251.736 153.806C256.693 149.643 264.296 153.012 269.627 155.805" stroke="#6D798F" stroke-width="1.02934" stroke-linecap="round" stroke-linejoin="round"/>
<path d="M251.335 136.801H164.793V186.539H251.335V136.801Z" fill="white"/>
<path d="M251.736 186.539H164.363V189.14H251.736V186.539Z" fill="#6D798F"/>
<path d="M164.363 186.539L251.343 136.801L251.736 186.539H164.363Z" fill="#6D798F"/>
<path opacity="0.9" d="M164.363 186.539L251.343 136.801L251.736 186.539H164.363Z" fill="white"/>
<path d="M214.446 166.071C217.327 163.191 217.327 158.521 214.446 155.641C211.566 152.761 206.896 152.761 204.016 155.641C201.136 158.521 201.136 163.191 204.016 166.071C206.896 168.952 211.566 168.952 214.446 166.071Z" fill="#6D798F"/>
<path d="M251.335 136.801H164.793V186.539H251.335V136.801Z" stroke="#6D798F" stroke-width="1.02934" stroke-linecap="round" stroke-linejoin="round"/>
<path d="M186.453 35.7179C186.453 35.7179 188.352 53.0609 190.762 56.1918C193.171 59.3227 200.912 70.6505 209.346 70.4771C217.78 70.3036 223.284 59.4596 224.663 54.8135C226.378 48.9295 227.416 42.8689 227.757 36.7494" stroke="#6D798F" stroke-width="1.02934" stroke-linecap="round" stroke-linejoin="round"/>
<path d="M225.539 53.0062C225.539 53.0062 231.791 49.7749 227.757 41.578" stroke="#6D798F" stroke-width="1.02934" stroke-linecap="round" stroke-linejoin="round"/>
</svg>
