<svg width="279" height="289" viewBox="0 0 279 289" fill="none" xmlns="http://www.w3.org/2000/svg" id="exam-official" >
<path d="M139.634 73.0589V49.5903H137.51V19.549C137.514 17.1147 137.039 14.7034 136.11 12.4532C135.182 10.2029 133.819 8.15779 132.099 6.43491C130.379 4.71204 128.336 3.3452 126.088 2.41261C123.839 1.48002 121.429 0.999997 118.995 1H19.5289C17.0937 0.999115 14.6822 1.47844 12.4325 2.41055C10.1827 3.34266 8.13888 4.70925 6.41788 6.43213C4.69688 8.155 3.33251 10.2003 2.40285 12.4511C1.47319 14.7018 0.996485 17.1138 1.00002 19.549V221.666C1.00002 226.578 2.95145 231.29 6.42502 234.763C9.89859 238.237 14.6098 240.188 19.5221 240.188H118.988C121.42 240.188 123.828 239.709 126.075 238.778C128.322 237.847 130.363 236.483 132.083 234.763C133.802 233.043 135.166 231.001 136.096 228.754C137.026 226.506 137.504 224.098 137.503 221.666V93.073H139.627V79.1948H137.503V73.0589H139.634Z" fill="#2065EA" stroke="#2065EA" stroke-linejoin="round"/>
<path d="M114.855 3.58069H23.6555C12.3273 3.58069 3.14404 12.764 3.14404 24.0921V217.123C3.14404 228.451 12.3273 237.634 23.6555 237.634H114.855C126.183 237.634 135.366 228.451 135.366 217.123V24.0921C135.366 12.764 126.183 3.58069 114.855 3.58069Z" fill="#2065EA" stroke="#2065EA" stroke-linejoin="round"/>
<path d="M113.174 5.26086H76.4527L76.4124 5.39528C75.3304 9.3067 72.8236 11.8471 70.0547 11.8471H68.482C65.7064 11.8471 63.2063 9.3067 62.1176 5.39528L62.084 5.26086H25.3422C20.4298 5.26086 15.7186 7.2123 12.245 10.6859C8.77147 14.1594 6.82004 18.8706 6.82004 23.783V208.44C6.82004 210.872 7.29918 213.28 8.23008 215.527C9.16099 217.774 10.5254 219.815 12.2454 221.534C13.9655 223.254 16.0074 224.618 18.2546 225.548C20.5017 226.478 22.9101 226.956 25.3422 226.955H113.174C115.606 226.956 118.014 226.478 120.261 225.547C122.508 224.617 124.549 223.254 126.269 221.534C127.988 219.815 129.352 217.773 130.282 215.526C131.212 213.279 131.691 210.871 131.69 208.44V23.783C131.691 21.3509 131.212 18.9426 130.282 16.6954C129.352 14.4482 127.989 12.4063 126.269 10.6863C124.55 8.96625 122.508 7.60181 120.261 6.67091C118.015 5.74 115.606 5.26086 113.174 5.26086Z" fill="white" stroke="#2065EA" stroke-linejoin="round"/>
<path d="M113.174 5.26086H76.4527L76.4124 5.39528C75.3304 9.3067 72.8236 11.8471 70.0547 11.8471H68.482C65.7064 11.8471 63.2063 9.3067 62.1176 5.39528L62.084 5.26086H25.3422C20.4298 5.26086 15.7186 7.2123 12.245 10.6859C8.77147 14.1594 6.82004 18.8706 6.82004 23.783V25.8664H131.69V23.783C131.691 21.3509 131.212 18.9426 130.282 16.6954C129.352 14.4482 127.989 12.4063 126.269 10.6863C124.55 8.96625 122.508 7.60181 120.261 6.67091C118.015 5.74 115.606 5.26086 113.174 5.26086Z" fill="#A6C1F7"/>
<path d="M110.681 109.875C110.681 105.842 116.179 101.098 115.184 97.3608C114.149 93.4964 106.992 92.159 105.036 88.7718C103.08 85.3846 105.446 78.4825 102.657 75.6934C99.8677 72.9044 93.0194 75.3103 89.5784 73.321C86.1374 71.3317 84.8739 64.2078 80.9961 63.1728C77.2594 62.1782 72.5348 67.6757 68.4822 67.6757C64.4297 67.6757 59.7051 62.1782 55.9684 63.1728C52.104 64.2078 50.7666 71.3653 47.3794 73.321C43.9922 75.2767 37.0901 72.9111 34.301 75.7001C31.5119 78.4892 33.9179 85.3376 31.9286 88.7785C29.9393 92.2195 22.8154 93.483 21.7804 97.3608C20.7656 101.098 26.2833 105.842 26.2833 109.875C26.2833 113.907 20.7858 118.652 21.7804 122.389C22.8154 126.253 29.9729 127.59 31.9286 130.978C33.8843 134.365 31.5186 141.267 34.3077 144.056C37.0968 146.845 43.9451 144.439 47.3861 146.428C50.8271 148.418 52.0906 155.542 55.9684 156.576C59.7051 157.571 64.4297 152.074 68.4822 152.074C72.5348 152.074 77.2594 157.571 80.9961 156.576C84.8605 155.542 86.1979 148.384 89.5851 146.428C92.9723 144.473 99.8744 146.838 102.663 144.049C105.453 141.26 103.047 134.412 105.036 130.971C107.025 127.53 114.149 126.266 115.184 122.389C116.199 118.652 110.681 113.907 110.681 109.875Z" fill="#A6C1F7"/>
<path d="M67.8975 126.784L49.6644 107.482C49.2455 107.036 49.0208 106.443 49.0397 105.831C49.0586 105.22 49.3196 104.641 49.7652 104.223C50.2108 103.804 50.8045 103.579 51.4158 103.598C52.0271 103.617 52.6058 103.878 53.0247 104.323L67.3397 119.485L85.4183 93.2746C85.5825 93.0089 85.7992 92.7793 86.0549 92.5998C86.3107 92.4204 86.6002 92.2948 86.906 92.2307C87.2118 92.1666 87.5274 92.1653 87.8337 92.2269C88.14 92.2886 88.4306 92.4118 88.6878 92.5892C88.945 92.7666 89.1634 92.9944 89.3299 93.2589C89.4963 93.5233 89.6073 93.8188 89.656 94.1274C89.7047 94.436 89.6902 94.7513 89.6133 95.0541C89.5364 95.3569 89.3987 95.641 89.2087 95.889L67.8975 126.784Z" fill="white"/>
<path d="M12.2841 189.514H50.6725" stroke="#2065EA" stroke-linejoin="round"/>
<path d="M81.4734 194.555H94.4711" stroke="#2065EA" stroke-linejoin="round"/>
<path d="M70.7203 194.555H78.7851" stroke="#2065EA" stroke-linejoin="round"/>
<path d="M38.461 194.555H67.5883" stroke="#2065EA" stroke-linejoin="round"/>
<path d="M12.2841 194.555H34.879" stroke="#2065EA" stroke-linejoin="round"/>
<path d="M61.3112 199.931H86.6279" stroke="#2065EA" stroke-linejoin="round"/>
<path d="M38.9113 199.931H58.1795" stroke="#2065EA" stroke-linejoin="round"/>
<path d="M12.2841 199.931H35.7728" stroke="#2065EA" stroke-linejoin="round"/>
<path d="M120.009 205.308H123.141" stroke="#2065EA" stroke-linejoin="round"/>
<path d="M96.7088 205.308H117.765" stroke="#2065EA" stroke-linejoin="round"/>
<path d="M55.4911 205.308H91.3324" stroke="#2065EA" stroke-linejoin="round"/>
<path d="M21.4375 205.308H51.9022" stroke="#2065EA" stroke-linejoin="round"/>
<path d="M12.2841 205.308H17.8555" stroke="#2065EA" stroke-linejoin="round"/>
<path d="M68.8785 7.88865C69.8399 7.88865 70.6192 7.10933 70.6192 6.148C70.6192 5.18666 69.8399 4.40735 68.8785 4.40735C67.9172 4.40735 67.1379 5.18666 67.1379 6.148C67.1379 7.10933 67.9172 7.88865 68.8785 7.88865Z" fill="#2065EA"/>
<path d="M17.9158 12.815C17.9158 14.5691 15.9467 15.2075 15.8996 16.5449V16.639H17.8217V17.2304H15.2948V16.7331C15.2948 14.8446 17.2706 14.4817 17.2706 12.8351C17.2706 12.237 17.069 11.9211 16.5986 11.9211C16.1281 11.9211 15.9265 12.2639 15.9265 12.7814V13.2989H15.3217V12.8217C15.3217 11.9278 15.7316 11.3364 16.6658 11.3364C17.6 11.3364 17.9158 11.9211 17.9158 12.815Z" fill="white"/>
<path d="M21.115 12.8015V12.9561C21.1423 13.2058 21.0876 13.4577 20.9591 13.6735C20.8305 13.8894 20.6352 14.0575 20.4026 14.1524C20.6362 14.2497 20.832 14.4203 20.9605 14.6384C21.089 14.8566 21.1431 15.1105 21.115 15.3621V15.7855C21.115 16.6793 20.6983 17.264 19.7708 17.264C18.8434 17.264 18.4267 16.6793 18.4267 15.7855V15.389H19.0383V15.8258C19.0383 16.35 19.2533 16.6726 19.7103 16.6726C20.1673 16.6726 20.3824 16.3634 20.3824 15.772V15.3217C20.3824 14.7438 20.1405 14.4682 19.6498 14.4548H19.3004V13.8701H19.6835C19.7836 13.8719 19.8828 13.8514 19.974 13.8099C20.0651 13.7684 20.1458 13.7072 20.2102 13.6305C20.2747 13.5538 20.3211 13.4638 20.3463 13.3669C20.3714 13.2699 20.3746 13.1686 20.3555 13.0703V12.8015C20.3555 12.2034 20.1472 11.8942 19.6835 11.8942C19.2197 11.8942 19.0114 12.2168 19.0114 12.741V13.0972H18.3998V12.8284C18.3998 11.9413 18.8165 11.3633 19.7439 11.3633C20.6714 11.3633 21.115 11.9144 21.115 12.8015Z" fill="white"/>
<path d="M22.3719 13.245V14.0515H21.7469V13.245H22.3719ZM22.3719 16.4239V17.2303H21.7469V16.4575L22.3719 16.4239Z" fill="white"/>
<path d="M23.6888 13.7692C23.7738 13.6158 23.9001 13.4891 24.0533 13.4036C24.2065 13.3181 24.3805 13.2772 24.5558 13.2854C25.3085 13.2854 25.6378 13.8364 25.6378 14.6698V15.7854C25.6378 16.6793 25.2144 17.264 24.2937 17.264C23.373 17.264 22.9899 16.6793 22.9899 15.7854V15.3956H23.5947V15.8258C23.5947 16.35 23.8098 16.6726 24.2668 16.6726C24.7238 16.6726 24.9389 16.35 24.9389 15.8258V14.7236C24.9389 14.1994 24.7171 13.8768 24.2668 13.8768C24.1811 13.8713 24.0951 13.8833 24.0142 13.9122C23.9333 13.9411 23.8591 13.9861 23.7962 14.0446C23.7333 14.1031 23.683 14.1738 23.6484 14.2524C23.6137 14.331 23.5955 14.4159 23.5947 14.5018V14.6362H22.9832L23.1444 11.3969H25.4698V11.9815H23.7829L23.6888 13.7692Z" fill="white"/>
<path d="M28.8843 12.7948V12.9023H28.2728V12.7545C28.2728 12.2303 28.0577 11.9211 27.6007 11.9211C27.1437 11.9211 26.8883 12.237 26.8883 12.862V14.2061C26.9563 14.0142 27.0849 13.8494 27.2545 13.7367C27.4242 13.624 27.6258 13.5694 27.8292 13.5811C28.5819 13.5811 28.9112 14.1188 28.9112 14.9656V15.7855C28.9112 16.6793 28.4744 17.264 27.5671 17.264C26.6598 17.264 26.223 16.6793 26.223 15.7855V12.8351C26.223 11.9144 26.6396 11.3364 27.5671 11.3364C28.4945 11.3364 28.8843 11.901 28.8843 12.7948ZM26.8681 14.979V15.8527C26.8681 16.3769 27.0832 16.6995 27.5402 16.6995C27.9972 16.6995 28.2123 16.3769 28.2123 15.8527V14.979C28.2123 14.4548 27.9838 14.1389 27.5402 14.1389C27.0966 14.1389 26.8749 14.4414 26.8749 14.979H26.8681Z" fill="white"/>
<path d="M92.5823 13.0502H90.9358V17.1699H92.5823V13.0502Z" fill="white"/>
<path d="M94.78 12.2235H93.1335V17.1699H94.78V12.2235Z" fill="white"/>
<path d="M96.9777 11.6388H95.3311V17.1699H96.9777V11.6388Z" fill="white"/>
<path d="M99.1754 10.624H97.5288V17.1699H99.1754V10.624Z" fill="white"/>
<path d="M119.559 17.0557H109.68V11.0071H119.559V17.0557ZM110.217 16.5113H119.008V11.5649H110.224L110.217 16.5113Z" fill="white"/>
<path d="M116.266 12.163H111.051V15.9131H116.266V12.163Z" fill="white"/>
<path d="M120.466 13.3257H119.223V14.7505H120.466V13.3257Z" fill="white"/>
<path d="M106.051 15.7451C105.984 15.7429 105.92 15.7244 105.862 15.6913C103.846 14.495 102.502 15.6039 102.469 15.651C102.434 15.6903 102.391 15.7218 102.343 15.7433C102.295 15.7648 102.243 15.7759 102.191 15.7758C102.138 15.7757 102.087 15.7645 102.039 15.7428C101.991 15.7211 101.948 15.6895 101.914 15.6501C101.879 15.6106 101.853 15.5643 101.838 15.5141C101.823 15.4639 101.818 15.411 101.825 15.359C101.832 15.3069 101.849 15.2569 101.877 15.2122C101.904 15.1676 101.941 15.1293 101.985 15.0999C102.052 15.0327 103.752 13.581 106.246 15.0596C106.329 15.1098 106.389 15.191 106.413 15.2853C106.437 15.3797 106.423 15.4797 106.373 15.5636C106.339 15.6187 106.292 15.6642 106.235 15.6959C106.179 15.7276 106.115 15.7445 106.051 15.7451Z" fill="white"/>
<path d="M106.79 14.5017C106.723 14.5028 106.658 14.4841 106.602 14.4479C103.692 12.7207 101.736 14.3942 101.716 14.4076C101.68 14.4407 101.638 14.4662 101.592 14.4826C101.547 14.4989 101.498 14.5057 101.45 14.5026C101.401 14.4994 101.354 14.4864 101.311 14.4643C101.267 14.4422 101.229 14.4115 101.198 14.374C101.166 14.3381 101.141 14.296 101.125 14.2504C101.11 14.2047 101.103 14.1564 101.106 14.1082C101.109 14.06 101.122 14.0129 101.144 13.9697C101.165 13.9265 101.195 13.888 101.232 13.8565C101.232 13.8565 103.611 11.8403 106.978 13.8162C107.02 13.8404 107.057 13.8729 107.086 13.9115C107.115 13.9502 107.136 13.9943 107.148 14.0413C107.16 14.0883 107.162 14.1371 107.155 14.1851C107.148 14.233 107.131 14.2789 107.106 14.3202C107.074 14.3761 107.028 14.4225 106.973 14.4544C106.917 14.4863 106.854 14.5027 106.79 14.5017Z" fill="white"/>
<path d="M107.462 13.0972C107.396 13.0993 107.331 13.083 107.274 13.0502C103.584 10.8592 101.138 12.9158 101.037 13.0099C100.963 13.0749 100.866 13.1079 100.768 13.1016C100.67 13.0953 100.578 13.0502 100.513 12.9763C100.448 12.9023 100.415 12.8055 100.421 12.7072C100.427 12.6089 100.472 12.5171 100.546 12.452C100.58 12.452 103.49 9.93852 107.65 12.4117C107.733 12.462 107.794 12.5431 107.817 12.6375C107.841 12.7319 107.827 12.8319 107.778 12.9158C107.746 12.9712 107.7 13.0171 107.644 13.049C107.589 13.0809 107.526 13.0975 107.462 13.0972Z" fill="white"/>
<path d="M104.941 16.3634C104.941 16.5468 104.887 16.7261 104.785 16.8786C104.683 17.0311 104.538 17.15 104.369 17.2202C104.199 17.2904 104.013 17.3088 103.833 17.273C103.653 17.2372 103.488 17.1489 103.358 17.0192C103.228 16.8895 103.14 16.7242 103.104 16.5443C103.069 16.3644 103.087 16.1779 103.157 16.0084C103.227 15.839 103.346 15.6941 103.499 15.5922C103.651 15.4903 103.831 15.4359 104.014 15.4359C104.26 15.4359 104.496 15.5336 104.67 15.7076C104.844 15.8815 104.941 16.1174 104.941 16.3634Z" fill="white"/>
<path d="M198.441 135.936C198.441 135.936 195.143 155.557 197.552 166.813C199.961 178.068 205.002 192.862 205.553 195.2C206.105 197.538 203.695 207.904 204.664 215.577C205.633 223.249 207.847 247.369 207.847 247.369C207.847 247.369 207.438 253.379 208.354 254.846C209.193 256.254 209.627 257.866 209.607 259.505C209.678 261.22 208.46 262.981 209.607 264.216C210.754 265.452 211.626 266.492 211.679 267.773C211.732 269.053 211.777 270.333 211.812 271.187C211.848 272.04 205.171 281.944 205.287 284.94C205.402 287.936 207.954 288.052 211.572 286.834C215.191 285.616 218.373 280.139 218.373 280.139L218.693 282.7C218.836 282.753 218.987 282.777 219.139 282.77C219.29 282.763 219.439 282.726 219.576 282.66C219.713 282.595 219.835 282.502 219.936 282.388C220.036 282.274 220.113 282.141 220.16 281.997C220.443 280.441 220.524 278.854 220.4 277.277C220.4 276.387 221.156 274.68 221.049 271.898C220.915 269.818 220.618 267.752 220.16 265.719C220.16 265.719 220.916 263.123 221.049 262.047C221.183 260.971 220.16 260.154 220.872 257.344C221.583 254.535 222.65 254.481 222.65 252.774C222.665 251.047 222.452 249.325 222.018 247.654C221.538 246.178 223.619 233.891 223.556 232.175C223.494 230.459 223.725 225.747 223.725 225.747C223.725 225.747 226.001 218.155 225.886 215.168C225.77 212.181 225.628 192.471 225.628 192.471L225.343 185.198C225.343 185.198 225.984 195.867 227.273 201.619C228.562 207.371 230.936 223.747 232.358 227.33C233.78 230.913 235.834 239.403 236.608 242.799C237.381 246.196 238.501 252.792 238.501 252.792C238.098 254.187 238.01 255.654 238.243 257.086C238.325 258.236 238.512 259.376 238.804 260.491C238.804 260.491 237.426 263.541 237.674 264.385C237.903 265.8 238.031 267.229 238.057 268.662C238.057 269.302 236.679 271.711 235.532 275.401C234.385 279.09 230.5 283.518 233.852 287.029C237.203 290.541 242.929 283.669 243.853 279.997C244.778 276.325 246.876 269.595 247.063 268.946C247.867 267.541 248.387 265.991 248.592 264.385C248.778 262.749 248.778 261.097 248.592 259.46C249.001 258.263 249.298 257.031 249.481 255.779C249.632 254.277 249.481 251.067 249.481 251.067C249.481 251.067 252.77 236.843 253.037 232.086C253.304 227.33 251.606 217.577 251.321 215.87C251.037 214.163 251.321 210.091 250.619 208.838C249.917 207.584 248.476 203.352 248.476 203.352C248.476 203.352 259.145 179.588 260.736 166.671C262.328 153.753 261.741 143.075 261.012 140.959C260.283 138.843 259.572 136.95 259.572 136.95C259.572 136.95 250.61 143.298 231.229 140.63C211.848 137.963 204.309 136.985 202.362 136.416C201.085 136.066 199.764 135.905 198.441 135.936Z" fill="#9DA5B4" stroke="#9DA5B4" stroke-linejoin="round"/>
<path d="M216.631 5.24687C216.631 5.24687 211.501 5.67362 206.594 11.6836C201.686 17.6935 199.312 25.6149 200.744 27.793C202.175 29.9712 203.882 33.7141 203.918 34.6031C203.953 35.4922 197.277 42.0266 199.179 44.8538C201.082 47.6809 201.597 49.459 200.068 49.7435C198.539 50.028 195.925 52.3662 196.432 53.9131C196.939 55.4601 199.668 56.6958 198.628 58.5273C197.588 60.3587 196.681 60.1631 196.761 62.4035C196.841 64.6439 199.055 66.3509 197.89 66.7243C196.725 67.0977 194.512 67.6133 195.223 69.1691C195.893 70.4091 196.688 71.577 197.597 72.6542C197.597 72.6542 206.211 81.2601 223.263 82.6026C240.315 83.945 256.042 68.5646 258.407 66.2353C260.772 63.906 261.199 63.2125 261.145 61.879C261.092 60.5454 260.141 59.0074 259.625 57.4338C259.11 55.8601 259.67 52.7396 259.625 52.0995C259.581 51.4594 257.963 49.708 256.807 48.8634C255.651 48.0188 255.34 45.565 255.696 43.3068C256.051 41.0487 253.757 39.5818 252.842 38.9505C251.926 38.3193 251.17 36.3278 251.766 34.2919C252.362 32.256 249.597 30.3535 248.441 29.5089C247.285 28.6643 246.992 26.6551 247.347 24.4058C247.703 22.1565 244.618 17.5779 242.973 15.6309C241.329 13.6839 239.07 7.28277 230.473 4.96237C221.876 2.64196 216.631 5.24687 216.631 5.24687Z" fill="#9DA5B4" stroke="#9DA5B4" stroke-linejoin="round"/>
<path d="M227.522 53.1486C227.522 53.1486 217.893 58.6606 211.341 60.8477C204.789 63.0347 204.504 77.615 204.647 81.2423C204.789 84.8696 201.179 107.514 203.438 110.421C205.696 113.328 226.233 112.732 233.283 112.243C240.333 111.754 245.312 113.266 249.952 111.354C254.593 109.443 255.171 107.94 255.082 105.584C254.993 103.228 255.473 77.5173 255.278 72.5919C255.082 67.6666 253.74 60.661 251.97 59.2563C250.201 57.8516 246.512 56.6869 241.097 55.1934C235.683 53.6998 227.522 53.1486 227.522 53.1486Z" fill="white" stroke="#9DA5B4" stroke-linejoin="round"/>
<path d="M201.402 118.644C201.402 118.644 197.846 137.199 197.917 138.906C197.938 140.13 197.843 141.353 197.632 142.56C197.632 142.56 205.438 144.827 208.657 145.129C211.875 145.431 218.961 145.574 221.992 146.311C225.024 147.049 237.631 146.311 242.085 145.307C246.539 144.302 249.722 143.298 252.255 142.551C254.339 141.878 256.382 141.082 258.372 140.168L260.879 138.39L255.625 119.329C255.625 119.329 246.477 120.76 237.506 121.534C228.536 122.307 211.537 120.2 209.172 119.871C206.807 119.542 201.402 118.644 201.402 118.644Z" fill="white" stroke="#9DA5B4" stroke-linejoin="round"/>
<path d="M209.43 133.625L209.173 136.043" stroke="#9DA5B4" stroke-linejoin="round"/>
<path d="M210.55 123.019L209.652 131.536" stroke="#9DA5B4" stroke-linejoin="round"/>
<path d="M209.154 123.552L207.074 130.7" stroke="#9DA5B4" stroke-linejoin="round"/>
<path d="M238.395 123.81L238.083 133.963" stroke="#9DA5B4" stroke-linejoin="round"/>
<path d="M245.543 134.176L245.987 136.95" stroke="#9DA5B4" stroke-linejoin="round"/>
<path d="M243.792 123.125L245.099 131.349" stroke="#9DA5B4" stroke-linejoin="round"/>
<path d="M255.083 105.602C254.985 103.255 255.474 77.535 255.278 72.6097C255.181 70.1293 254.949 71.1161 254.389 68.5557C251.278 71.4717 244.388 76.2903 230.83 77.8551C221.939 78.8366 212.964 77.0217 205.154 72.663C204.759 75.5047 204.601 78.3744 204.683 81.2423C204.825 84.8785 201.216 107.514 203.474 110.421C205.732 113.328 226.269 112.732 233.319 112.243C240.369 111.754 245.348 113.266 249.989 111.354C254.629 109.443 255.154 107.958 255.083 105.602Z" fill="white" stroke="#9DA5B4" stroke-linejoin="round"/>
<path d="M232.038 104.864C234.301 104.67 236.551 104.346 238.777 103.895" stroke="#9DA5B4" stroke-linejoin="round"/>
<path d="M210.239 103.726C216.544 104.906 222.964 105.351 229.371 105.051" stroke="#9DA5B4" stroke-linejoin="round"/>
<path d="M212.915 100.837C213.889 102.155 215.178 103.207 216.665 103.897C218.152 104.587 219.788 104.892 221.423 104.784" stroke="#9DA5B4" stroke-linejoin="round"/>
<path d="M222.836 102.588C223.961 103.507 225.217 104.253 226.562 104.802" stroke="#9DA5B4" stroke-linejoin="round"/>
<path d="M234.892 104.26C236.448 102.785 237.754 101.068 238.759 99.1744" stroke="#9DA5B4" stroke-linejoin="round"/>
<path d="M201.678 109.203C201.678 109.203 221.085 112.51 230.705 112.128C240.324 111.745 254.914 106.891 254.914 106.891L255.616 119.293C255.616 119.293 247.019 123.908 229.042 124.192C211.066 124.477 200.869 121.232 200.869 121.232L201.678 109.203Z" fill="#9DA5B4" stroke="#9DA5B4" stroke-linejoin="round"/>
<path d="M220.338 66.4932C220.338 66.4932 220.134 61.1589 219.938 56.2247C219.946 53.855 219.648 51.4942 219.049 49.2013C221.29 49.9039 223.612 50.3162 225.957 50.4281C229.389 50.4993 234.528 45.165 234.919 44.2848C235.31 43.4047 235.897 41.8933 235.897 41.8933C235.897 41.8933 236.439 50.2237 237.213 53.4064C237.986 56.5892 238.484 58.5006 238.484 58.5006" fill="white"/>
<path d="M220.338 66.4932C220.338 66.4932 220.134 61.1589 219.938 56.2247C219.946 53.855 219.648 51.4942 219.049 49.2013C221.29 49.9039 223.612 50.3162 225.957 50.4281C229.389 50.4993 234.528 45.165 234.919 44.2848C235.31 43.4047 235.897 41.8933 235.897 41.8933C235.897 41.8933 236.439 50.2237 237.213 53.4064C237.986 56.5892 238.484 58.5006 238.484 58.5006" stroke="#9DA5B4" stroke-miterlimit="10"/>
<path d="M223.485 57.7004C228.695 54.8377 233.185 48.1965 233.185 48.1965L233.487 45.9473C231.638 47.8143 228.348 50.4814 225.921 50.3925C223.575 50.2805 221.254 49.8682 219.013 49.1656C219.611 51.4586 219.91 53.8194 219.902 56.1891C219.947 57.3004 219.991 58.4294 220.027 59.5141C220.907 59.1051 222.009 58.5095 223.485 57.7004Z" fill="#9DA5B4" stroke="#9DA5B4" stroke-linejoin="round"/>
<path d="M239.15 26.9839L235.737 27.3395C235.737 27.3395 235.665 26.8505 235.461 26.0593L235.025 25.6503C234.359 25.0369 234.136 25.2591 233.078 25.0813C232.02 24.9035 231.505 23.2232 231.434 21.5252C231.362 19.8271 229.211 19.4715 226.793 17.8534C224.81 16.5287 223.921 13.7282 223.663 12.7503C222.867 12.6556 222.064 12.6258 221.263 12.6614C220.91 14.4511 220.241 16.1639 219.289 17.72C217.671 20.1382 216.169 19.9871 215.795 21.2762C215.422 22.5653 214.408 24.1123 213.555 24.3612C212.701 24.6101 210.577 24.699 210.612 25.7659C210.648 26.8327 210.088 28.5664 209.456 29.0198L208.985 29.3665C209.368 31.7758 209.874 33.7228 209.874 34.1496C209.874 35.0386 210.123 40.5596 212.604 43.6801C215.084 46.8007 219.849 53.673 225.415 53.4596C230.98 53.2462 235.381 45.5738 236.163 43.6179C236.946 41.662 237.15 36.0788 237.15 36.0788C238.284 34.9431 239.19 33.6 239.817 32.1226C240.742 29.7044 239.15 26.9839 239.15 26.9839Z" fill="white" stroke="#9DA5B4" stroke-linejoin="round"/>
<path d="M209.118 26.246C209.056 24.7435 210.452 22.1208 211.092 22.0942C212.406 21.6864 213.519 20.8015 214.213 19.6137C214.595 18.5291 214.337 17.4711 215.395 16.9999C216.453 16.5288 216.382 15.0352 216.382 15.0352C216.382 15.0352 213.51 18.1468 211.83 19.0714C210.641 19.6844 209.584 20.524 208.718 21.543C208.437 23.4619 208.437 25.4117 208.718 27.3306C208.87 27.1976 208.986 27.0287 209.056 26.8392C209.126 26.6498 209.147 26.4458 209.118 26.246Z" fill="white" stroke="#9DA5B4" stroke-linejoin="round"/>
<path d="M221.103 42.2577C221.103 42.2577 222.455 44.1336 224.971 42.5333" stroke="#9DA5B4" stroke-linejoin="round"/>
<path d="M221.227 45.4673C221.227 45.4673 225.574 47.0142 227.157 43.6892" stroke="#9DA5B4" stroke-linejoin="round"/>
<path d="M216.711 34.3185C216.836 35.2076 216.551 35.9632 216.08 36.0255C215.609 36.0877 215.147 35.4743 215.022 34.5852C214.898 33.6962 215.182 32.9494 215.645 32.8783C216.107 32.8071 216.596 33.4384 216.711 34.3185Z" fill="#9DA5B4"/>
<path d="M227.371 32.9406C227.486 33.8296 227.211 34.5764 226.739 34.6386C226.268 34.7009 225.788 34.043 225.672 33.1717C225.557 32.3005 225.832 31.527 226.304 31.4648C226.775 31.4025 227.246 32.0604 227.371 32.9406Z" fill="#9DA5B4"/>
<path d="M212.088 31.0292C212.088 31.0292 213.083 29.0644 216.533 29.3577" stroke="#9DA5B4" stroke-linejoin="round"/>
<path d="M224.037 28.6554C224.037 28.6554 227.398 27.0195 230.047 29.0643" stroke="#9DA5B4" stroke-linejoin="round"/>
<path d="M217.182 29.7756C217.182 29.7756 220.08 32.665 220.196 35.6611" stroke="#9DA5B4" stroke-linejoin="round"/>
<path d="M229.745 147.494C229.745 147.494 226.233 150.846 225.486 159.051C224.739 167.257 224.739 183.714 224.739 183.714C224.739 183.714 225.273 189.146 225.513 192.462" stroke="#6D798F" stroke-linejoin="round"/>
<path d="M226.126 152.25C224.949 151.423 223.888 150.442 222.97 149.334" stroke="#6D798F" stroke-linejoin="round"/>
<path d="M233.7 231.766C234.821 235.669 235.959 240.426 236.492 242.764C237.266 246.16 238.386 252.757 238.386 252.757C237.982 254.151 237.894 255.618 238.128 257.051C238.209 258.201 238.397 259.34 238.688 260.456C238.688 260.456 237.31 263.505 237.559 264.35C237.788 265.764 237.915 267.193 237.941 268.626C237.941 269.266 236.563 271.676 235.416 275.365C234.269 279.055 230.384 283.482 233.736 286.994C237.088 290.505 242.813 283.633 243.738 279.961C244.662 276.29 246.76 269.56 246.947 268.911C247.751 267.505 248.271 265.956 248.476 264.35C248.662 262.713 248.662 261.061 248.476 259.424C248.885 258.228 249.183 256.995 249.365 255.744C249.517 254.241 249.365 251.032 249.365 251.032C249.365 251.032 252.655 236.807 252.922 232.051C252.959 230.993 252.942 229.933 252.868 228.877C246.934 231.807 240.235 232.817 233.7 231.766Z" fill="#595959" stroke="#9DA5B4" stroke-linejoin="round"/>
<path d="M218.258 280.104L218.578 282.664C218.721 282.717 218.872 282.741 219.024 282.734C219.175 282.728 219.324 282.69 219.461 282.625C219.598 282.559 219.72 282.467 219.821 282.353C219.921 282.239 219.997 282.106 220.045 281.962C220.328 280.405 220.408 278.818 220.285 277.241C220.285 276.352 221.041 274.645 220.934 271.862C220.8 269.783 220.503 267.717 220.045 265.683C220.045 265.683 220.801 263.087 220.934 262.012C221.068 260.936 220.045 260.118 220.756 257.309C221.468 254.499 222.535 254.446 222.535 252.739C222.549 251.012 222.337 249.29 221.903 247.618C221.423 246.142 223.504 233.856 223.441 232.14C223.441 231.606 223.441 230.78 223.441 229.891C217.76 232.051 210.63 231.126 206.105 230.131C206.994 238.701 207.75 247.325 207.75 247.325C207.75 247.325 207.341 253.335 208.257 254.802C209.096 256.209 209.53 257.821 209.51 259.46C209.581 261.176 208.363 262.936 209.51 264.172C210.657 265.408 211.528 266.448 211.582 267.728C211.635 269.008 211.679 270.289 211.715 271.142C211.75 271.996 205.074 281.9 205.189 284.896C205.305 287.892 207.856 288.007 211.475 286.789C215.093 285.571 218.258 280.104 218.258 280.104Z" fill="#595959" stroke="#9DA5B4" stroke-linejoin="round"/>
<path d="M219.761 57.3092C219.761 57.3092 215.075 68.8668 213.724 77.8906C212.373 86.9144 210.168 102.659 209.279 105.691C208.39 108.723 205.891 112.252 202.913 129.073C199.935 145.894 202.024 165.524 202.024 165.524C202.024 165.524 201.197 166.413 197.534 165.915C195.01 165.508 192.54 164.813 190.173 163.843C190.173 163.843 191.569 144.942 193.223 138.061C194.876 131.18 198.735 114.715 198.735 114.715L198.637 106.793C197.423 110.097 195.955 113.301 194.245 116.377C191.845 120.547 189.337 122.138 185.275 122.298C181.212 122.458 178.34 114.866 181.078 108.331C183.816 101.797 186.484 93.3422 188.022 88.7725C189.56 84.2028 194.334 69.6758 197.863 66.7509C201.393 63.8259 218.036 56.9447 219.761 57.3092Z" fill="#CED2DA" stroke="#9DA5B4" stroke-linejoin="round"/>
<path d="M239.15 54.4021C239.15 54.4021 238.261 80.3533 239.675 89.5016C241.088 98.6498 246.058 110.243 247.534 115.115C249.01 119.987 250.77 137.474 252.104 144.062C253.437 150.65 252.993 166.511 252.993 166.511C252.993 166.511 256.416 166.377 258.567 166.511C260.719 166.644 269.307 162.012 269.307 162.012C269.307 162.012 268.195 150.063 265.946 141.804C263.697 133.545 259.367 116.146 258.789 112.314C258.211 108.483 257.18 104.233 257.136 102.953C257.091 101.673 258.914 94.0624 258.914 94.0624C258.914 94.0624 265.466 75.3924 264.799 69.4181C264.132 63.4437 256.504 60.1098 252.797 58.3228C249.09 56.5358 239.15 54.4021 239.15 54.4021Z" fill="#CED2DA" stroke="#9DA5B4" stroke-linejoin="round"/>
<path d="M257.749 91.7953L262.835 112.154C262.835 112.154 261.67 115.195 262.559 116.022C263.077 116.52 263.393 117.19 263.448 117.907C263.448 117.907 262.71 120.938 263.626 122.352C264.542 123.765 268.72 153.851 268.72 153.851C268.72 153.851 265.226 157.407 265.279 158.909C265.303 160.375 265.071 161.834 264.595 163.221C264.213 164.315 262.817 166.511 263.448 166.697C264.079 166.884 266.622 165.71 266.8 164.848C266.98 164.167 267.243 163.51 267.582 162.892L268.16 161.372C268.348 163.361 268.428 165.358 268.4 167.355C268.284 168.488 267.965 169.59 267.458 170.609C266.853 171.703 265.431 173.472 266.515 173.854C267.6 174.236 270.854 169.836 270.854 169.836C271.824 169.59 272.748 169.191 273.592 168.653C275.05 167.764 276.259 164.697 276.393 163.612C276.526 162.528 276.393 158.278 276.393 157.62C276.393 156.962 275.503 152.081 275.503 152.081C275.503 152.081 278.028 129.286 277.779 122.867C277.609 118.868 277.235 114.88 276.659 110.919L275.824 106.029C275.824 106.029 273.894 78.6908 270.88 72.8053C267.867 66.9199 262.968 62.4124 259.083 61.4967" fill="white"/>
<path d="M257.749 91.7953L262.835 112.154C262.835 112.154 261.67 115.195 262.559 116.022C263.077 116.52 263.393 117.19 263.448 117.907C263.448 117.907 262.71 120.938 263.626 122.352C264.542 123.765 268.72 153.851 268.72 153.851C268.72 153.851 265.226 157.407 265.279 158.909C265.303 160.375 265.071 161.834 264.595 163.221C264.213 164.315 262.817 166.511 263.448 166.697C264.079 166.884 266.622 165.71 266.8 164.848C266.98 164.167 267.243 163.51 267.582 162.892L268.16 161.372C268.348 163.361 268.428 165.358 268.4 167.355C268.284 168.488 267.965 169.59 267.458 170.609C266.853 171.703 265.431 173.472 266.515 173.854C267.6 174.236 270.854 169.836 270.854 169.836C271.824 169.59 272.748 169.191 273.592 168.653C275.05 167.764 276.259 164.697 276.393 163.612C276.526 162.528 276.393 158.278 276.393 157.62C276.393 156.962 275.503 152.081 275.503 152.081C275.503 152.081 278.028 129.286 277.779 122.867C277.609 118.868 277.235 114.88 276.659 110.919L275.824 106.029C275.824 106.029 273.894 78.6908 270.88 72.8053C267.867 66.9199 262.968 62.4124 259.083 61.4967" stroke="#9DA5B4" stroke-linejoin="round"/>
<path d="M257.385 91.1374L262.834 112.154C262.834 112.154 261.67 115.195 262.559 116.022C263.077 116.52 263.393 117.19 263.448 117.907C263.448 117.907 262.71 120.938 263.626 122.352C263.887 123.032 264.071 123.738 264.177 124.459C266.728 122.796 272.578 119.907 276.997 124.61C277.212 124.856 277.479 125.05 277.779 125.179C277.779 124.29 277.779 123.49 277.779 122.867C277.609 118.868 277.235 114.88 276.659 110.919L275.823 106.029C275.823 106.029 273.894 78.6908 270.88 72.8053C267.866 66.9198 261.919 62.4568 258.025 61.5322" fill="#CED2DA"/>
<path d="M257.385 91.1374L262.834 112.154C262.834 112.154 261.67 115.195 262.559 116.022C263.077 116.52 263.393 117.19 263.448 117.907C263.448 117.907 262.71 120.938 263.626 122.352C263.887 123.032 264.071 123.738 264.177 124.459C266.728 122.796 272.578 119.907 276.997 124.61C277.212 124.856 277.479 125.05 277.779 125.179C277.779 124.29 277.779 123.49 277.779 122.867C277.609 118.868 277.235 114.88 276.659 110.919L275.823 106.029C275.823 106.029 273.894 78.6908 270.88 72.8053C267.866 66.9198 261.919 62.4568 258.025 61.5322" stroke="#9DA5B4" stroke-linejoin="round"/>
<path d="M189.8 83.7406L197.188 106.162L209.252 105.7L203.091 82.0514L189.8 83.7406Z" fill="#9DA5B4" stroke="#9DA5B4" stroke-linejoin="round"/>
<path d="M197.427 110.359C197.748 110.136 198 109.828 198.156 109.47C198.61 108.278 199.383 106.749 199.383 106.749C199.383 106.749 203.162 105.095 203.651 104.74C204.14 104.384 207.438 103.424 207.9 102.571C208.363 101.717 208.354 101.219 206.7 101.779C205.046 102.339 199.943 103.886 199.943 103.886C199.943 103.886 200.761 103.522 201.41 103.157C202.059 102.793 206.469 100.117 206.967 99.93C207.465 99.7433 207.589 98.7387 207.225 98.0897C206.86 97.4407 206.576 98.4453 205.091 98.9788C203.606 99.5122 198.165 101.264 198.165 101.264L201.09 99.1477C201.579 98.7921 206.007 96.7828 206.007 96.7828C206.007 96.7828 207.313 96.0627 207.278 95.227C207.242 94.3913 206.744 94.2491 206.247 94.4358C205.749 94.6225 202.424 94.9158 201.277 95.467C200.13 96.0183 196.369 97.9919 196.369 97.9919L198.059 94.2579C198.059 94.2579 202.61 91.0663 203.268 90.8796C203.926 90.6929 205.233 89.795 205.046 89.1015C204.86 88.408 203.517 88.328 203.517 88.328C203.517 88.328 197.747 90.2217 196.618 91.4397C195.489 92.6577 193.267 95.2448 193.267 95.2448C192.825 94.1837 192.5 93.0778 192.297 91.9464C192.297 90.9418 192.191 89.1104 191.48 88.1324C190.768 87.1545 190.591 87.5012 190.591 87.5012C190.591 87.5012 190.591 92.8355 190.315 93.3511C190.039 93.8668 192.671 102.242 192.671 102.242L193.809 105.709C191.602 106.035 189.379 106.234 187.15 106.305C185.479 106.198 183.265 109.292 182.918 113.15C182.843 113.981 182.941 114.818 183.204 115.609C183.467 116.401 183.89 117.13 184.448 117.75C185.005 118.371 185.684 118.87 186.443 119.216C187.201 119.563 188.023 119.75 188.857 119.765C191.853 119.64 194.093 117.222 195.205 115.675C195.986 114.417 196.554 113.038 196.885 111.594L197.427 110.359Z" fill="white" stroke="#9DA5B4" stroke-linejoin="round"/>
</svg>
