<svg width="201" height="187" viewBox="0 0 201 187" fill="none" xmlns="http://www.w3.org/2000/svg" id="exam-amount" >
<g opacity="0.3">
<path d="M25.1598 47.0779H4.09539V20.8027H22.0165L25.1598 23.4236V47.0779Z" fill="white" stroke="#2065EA" stroke-linejoin="round"/>
<path d="M22.0164 20.8027V23.4679H25.1597L22.0164 20.8027Z" fill="white" stroke="#2065EA" stroke-linejoin="round"/>
<path d="M15.7255 23.0118H0.000205994V28.7539H15.7255V23.0118Z" fill="#2065EA"/>
<path d="M6.42388 30.3964H23.3843" stroke="#2065EA" stroke-miterlimit="10"/>
<path d="M6.42388 33.5441H23.3843" stroke="#2065EA" stroke-miterlimit="10"/>
<path d="M6.42388 36.6874H23.3843" stroke="#2065EA" stroke-miterlimit="10"/>
<path d="M6.42388 39.8351H23.3843" stroke="#2065EA" stroke-miterlimit="10"/>
<path d="M6.42388 42.9784H23.3843" stroke="#2065EA" stroke-miterlimit="10"/>
<path d="M4.79936 27.9349V24.2116H4.03789V23.7689H6.01683V24.2116H5.25536V27.9349H4.79936Z" fill="white"/>
<path d="M7.36265 26.1507L6.66758 27.9216H6.22487L7.0616 25.7877L6.2957 23.791H6.77826L7.41577 25.4512L8.06657 23.791H8.50928L7.73453 25.8009L8.56241 27.9348H8.06657L7.36265 26.1507Z" fill="white"/>
<path d="M9.50532 27.9349V24.2116H8.73943V23.7689H10.7228V24.2116H9.95689V27.9349H9.50532Z" fill="white"/>
</g>
<g opacity="0.3">
<path d="M196.596 104.879H175.532V78.5991H193.449L196.596 81.22V104.879Z" fill="white" stroke="#2065EA" stroke-linejoin="round"/>
<path d="M193.449 78.5991V81.2643H196.596L193.449 78.5991Z" fill="white" stroke="#2065EA" stroke-linejoin="round"/>
<path d="M187.158 80.8127H171.433V86.5548H187.158V80.8127Z" fill="#2065EA"/>
<path d="M177.861 88.1971H194.817" stroke="#2065EA" stroke-miterlimit="10"/>
<path d="M177.861 91.3405H194.817" stroke="#2065EA" stroke-miterlimit="10"/>
<path d="M177.861 94.4838H194.817" stroke="#2065EA" stroke-miterlimit="10"/>
<path d="M177.861 97.6315H194.817" stroke="#2065EA" stroke-miterlimit="10"/>
<path d="M177.861 100.775H194.817" stroke="#2065EA" stroke-miterlimit="10"/>
<path d="M176.236 85.7357V82.0125H175.47V81.5919H177.454V82.0125H176.692V85.7357H176.236Z" fill="white"/>
<path d="M178.799 83.9472L178.104 85.718H177.661L178.498 83.5797L177.715 81.5742H178.193L178.835 83.23L179.481 81.5742H179.924L179.149 83.5797L179.977 85.718H179.485L178.799 83.9472Z" fill="white"/>
<path d="M180.938 85.7357V82.0125H180.176V81.5919H182.16V82.0125H181.394V85.7357H180.938Z" fill="white"/>
</g>
<g opacity="0.3">
<path d="M127.737 149.766H106.672V123.486H124.594L127.737 126.107V149.766Z" fill="white" stroke="#2065EA" stroke-linejoin="round"/>
<path d="M124.593 123.486V126.156H127.737L124.593 123.486Z" fill="white" stroke="#2065EA" stroke-linejoin="round"/>
<path d="M118.302 125.7H102.577V131.442H118.302V125.7Z" fill="#2065EA"/>
<path d="M109.005 133.084H125.961" stroke="#2065EA" stroke-miterlimit="10"/>
<path d="M109.005 136.227H125.961" stroke="#2065EA" stroke-miterlimit="10"/>
<path d="M109.005 139.371H125.961" stroke="#2065EA" stroke-miterlimit="10"/>
<path d="M109.005 142.518H125.961" stroke="#2065EA" stroke-miterlimit="10"/>
<path d="M109.005 145.662H125.961" stroke="#2065EA" stroke-miterlimit="10"/>
<path d="M107.376 130.623V126.899H106.615V126.479H108.598V126.899H107.832V130.623H107.376Z" fill="white"/>
<path d="M109.94 128.834L109.245 130.605H108.802L109.634 128.467L108.855 126.461H109.333L109.971 128.117L110.617 126.461H111.06L110.281 128.467L111.113 130.605H110.626L109.94 128.834Z" fill="white"/>
<path d="M112.104 130.623V126.899H111.338V126.479H113.322V126.899H112.547V130.623H112.104Z" fill="white"/>
</g>
<g opacity="0.3">
<path d="M33.8857 110.833H5.51645V75.4426H29.6533L33.8857 78.9711V110.833Z" fill="white" stroke="#2065EA" stroke-linejoin="round"/>
<path d="M29.6534 75.4426V79.0331H33.8858L29.6534 75.4426Z" fill="white" stroke="#2065EA" stroke-linejoin="round"/>
<path d="M21.1797 78.4221H0.000205994V86.1564H21.1797V78.4221Z" fill="#2065EA"/>
<path d="M8.65543 88.3655H31.4951" stroke="#2065EA" stroke-miterlimit="10"/>
<path d="M8.65543 92.6023H31.4951" stroke="#2065EA" stroke-miterlimit="10"/>
<path d="M8.65543 96.8347H31.4951" stroke="#2065EA" stroke-miterlimit="10"/>
<path d="M8.65543 101.071H31.4951" stroke="#2065EA" stroke-miterlimit="10"/>
<path d="M8.65543 105.308H31.4951" stroke="#2065EA" stroke-miterlimit="10"/>
<path d="M6.87991 79.4713C7.76534 79.4713 8.13279 79.9893 8.13279 80.8349V81.5034C8.13279 82.3888 7.71664 82.8316 6.83121 82.8316H6.29552V85.0451H5.67572V79.4669L6.87991 79.4713ZM6.83121 82.3003C7.27392 82.3003 7.51742 82.0834 7.51742 81.5521V80.8083C7.51742 80.2992 7.3359 80.0424 6.87991 80.0424H6.29552V82.3003H6.83121Z" fill="white"/>
<path d="M9.94805 79.4713C10.8335 79.4713 11.2142 79.9937 11.2142 80.857V83.6683C11.2142 84.5227 10.8158 85.0495 9.94805 85.0495H8.6199V79.4713H9.94805ZM9.94805 84.4829C10.3908 84.4829 10.6121 84.2039 10.6121 83.6948V80.826C10.6121 80.3125 10.3952 80.0336 9.94362 80.0336H9.26184V84.4829H9.94805Z" fill="white"/>
<path d="M13.7023 82.0701V82.6323H12.4184V85.0495H11.7986V79.4713H14.0122V80.0336H12.4184V82.0701H13.7023Z" fill="white"/>
</g>
<g opacity="0.3">
<path d="M22.2334 159.244H8.25242V141.806H20.1438L22.2334 143.546V159.244Z" fill="white" stroke="#2065EA" stroke-linejoin="round"/>
<path d="M20.1436 141.806V143.577H22.2332L20.1436 141.806Z" fill="white" stroke="#2065EA" stroke-linejoin="round"/>
<path d="M15.9688 143.271H5.53403V147.083H15.9688V143.271Z" fill="#2065EA"/>
<path d="M9.80173 148.172H21.0556" stroke="#2065EA" stroke-miterlimit="10"/>
<path d="M9.80173 150.262H21.0556" stroke="#2065EA" stroke-miterlimit="10"/>
<path d="M9.80173 152.347H21.0556" stroke="#2065EA" stroke-miterlimit="10"/>
<path d="M9.80173 154.437H21.0556" stroke="#2065EA" stroke-miterlimit="10"/>
<path d="M9.80173 156.522H21.0556" stroke="#2065EA" stroke-miterlimit="10"/>
<path d="M8.92526 143.789C9.36797 143.789 9.54063 144.046 9.54063 144.462V144.79C9.54063 145.232 9.33698 145.454 8.8987 145.454H8.62864V146.538H8.32317V143.789H8.92526ZM8.8987 145.166C9.12891 145.166 9.23959 145.06 9.23959 144.799V144.431C9.23959 144.183 9.14662 144.055 8.92526 144.055H8.62864V145.166H8.8987Z" fill="white"/>
<path d="M10.4349 143.789C10.8777 143.789 11.0592 144.05 11.0592 144.475V145.861C11.0592 146.282 10.8644 146.538 10.4349 146.538H9.79301V143.789H10.4349ZM10.4349 146.26C10.6563 146.26 10.7626 146.122 10.7626 145.87V144.458C10.7626 144.205 10.6563 144.068 10.4305 144.068H10.1029V146.282L10.4349 146.26Z" fill="white"/>
<path d="M12.2854 145.069V145.348H11.6523V146.538H11.3468V143.789H12.4403V144.068H11.6523V145.069H12.2854Z" fill="white"/>
</g>
<g opacity="0.3">
<path d="M199.971 29.7898H185.99V12.3468H197.881L199.971 14.0867V29.7898Z" fill="white" stroke="#2065EA" stroke-linejoin="round"/>
<path d="M197.881 12.3468V14.1177H199.97L197.881 12.3468Z" fill="white" stroke="#2065EA" stroke-linejoin="round"/>
<path d="M193.706 13.8167H183.271V17.6284H193.706V13.8167Z" fill="#2065EA"/>
<path d="M187.535 18.7175H198.789" stroke="#2065EA" stroke-miterlimit="10"/>
<path d="M187.535 20.8027H198.789" stroke="#2065EA" stroke-miterlimit="10"/>
<path d="M187.535 22.8923H198.789" stroke="#2065EA" stroke-miterlimit="10"/>
<path d="M187.535 24.9774H198.789" stroke="#2065EA" stroke-miterlimit="10"/>
<path d="M187.535 27.0671H198.789" stroke="#2065EA" stroke-miterlimit="10"/>
<path d="M186.662 14.3346C187.105 14.3346 187.278 14.5869 187.278 15.0075V15.3351C187.278 15.7778 187.074 15.9992 186.636 15.9992H186.366V17.0839H186.06V14.3346H186.662ZM186.636 15.7247C186.866 15.7247 186.977 15.6185 186.977 15.3528V15.0075C186.977 14.7552 186.884 14.6312 186.662 14.6312H186.366V15.7424L186.636 15.7247Z" fill="white"/>
<path d="M188.172 14.3346C188.615 14.3346 188.796 14.5914 188.796 15.0164V16.4021C188.796 16.8227 188.602 17.0839 188.172 17.0839H187.53V14.3346H188.172ZM188.172 16.8049C188.394 16.8049 188.5 16.6677 188.5 16.4154V15.0075C188.5 14.7552 188.394 14.6179 188.168 14.6179H187.84V16.8315L188.172 16.8049Z" fill="white"/>
<path d="M190.023 15.614V15.893H189.39V17.0839H189.084V14.3346H190.178V14.6135H189.39V15.614H190.023Z" fill="white"/>
</g>
<path d="M175.183 5.52893H27.1118V121.259H175.183V5.52893Z" fill="#2065EA" stroke="#2065EA" stroke-miterlimit="10"/>
<path d="M180.433 1H31.9154V117.005H180.433V1Z" fill="#D2E0FB"/>
<path d="M180.433 1H31.9154V117.005H180.433V1Z" fill="white" stroke="#2065EA" stroke-linecap="round" stroke-linejoin="round"/>
<path d="M67.3901 17.438H35.9573V37.3602H67.3901V17.438Z" fill="white" stroke="#2065EA" stroke-linecap="round" stroke-linejoin="round"/>
<path d="M44.5903 26.0754H57.8717" stroke="#2065EA" stroke-miterlimit="10"/>
<path d="M41.2697 29.3958H63.1842" stroke="#2065EA" stroke-miterlimit="10"/>
<path d="M67.3901 41.1233H35.9573V61.0455H67.3901V41.1233Z" fill="white" stroke="#2065EA" stroke-linecap="round" stroke-linejoin="round"/>
<path d="M39.2291 45.8516H50.2527" stroke="#2065EA" stroke-miterlimit="10"/>
<path d="M39.2291 48.4901H50.2527" stroke="#2065EA" stroke-miterlimit="10"/>
<path d="M39.2291 51.1287H50.2527" stroke="#2065EA" stroke-miterlimit="10"/>
<path d="M39.2291 53.7673H50.2527" stroke="#2065EA" stroke-miterlimit="10"/>
<path d="M39.2291 56.4059H50.2527" stroke="#2065EA" stroke-miterlimit="10"/>
<path d="M52.8779 45.8516H63.9015" stroke="#2065EA" stroke-miterlimit="10"/>
<path d="M52.8779 48.4901H63.9015" stroke="#2065EA" stroke-miterlimit="10"/>
<path d="M52.8779 51.1287H63.9015" stroke="#2065EA" stroke-miterlimit="10"/>
<path d="M52.8779 53.7673H63.9015" stroke="#2065EA" stroke-miterlimit="10"/>
<path d="M52.8779 56.4059H63.9015" stroke="#2065EA" stroke-miterlimit="10"/>
<path d="M67.3901 64.8086H35.9573V84.7308H67.3901V64.8086Z" fill="white" stroke="#2065EA" stroke-linecap="round" stroke-linejoin="round"/>
<path d="M39.2291 69.5369H50.2527" stroke="#2065EA" stroke-miterlimit="10"/>
<path d="M39.2291 72.1754H50.2527" stroke="#2065EA" stroke-miterlimit="10"/>
<path d="M39.2291 74.814H50.2527" stroke="#2065EA" stroke-miterlimit="10"/>
<path d="M39.2291 77.4526H50.2527" stroke="#2065EA" stroke-miterlimit="10"/>
<path d="M39.2291 80.0912H50.2527" stroke="#2065EA" stroke-miterlimit="10"/>
<path d="M52.8779 69.5369H63.9015" stroke="#2065EA" stroke-miterlimit="10"/>
<path d="M52.8779 72.1754H63.9015" stroke="#2065EA" stroke-miterlimit="10"/>
<path d="M52.8779 74.814H63.9015" stroke="#2065EA" stroke-miterlimit="10"/>
<path d="M52.8779 77.4526H63.9015" stroke="#2065EA" stroke-miterlimit="10"/>
<path d="M52.8779 80.0912H63.9015" stroke="#2065EA" stroke-miterlimit="10"/>
<path d="M67.3901 88.4939H35.9573V108.416H67.3901V88.4939Z" fill="white" stroke="#2065EA" stroke-linecap="round" stroke-linejoin="round"/>
<path d="M39.2291 93.2222H50.2527" stroke="#2065EA" stroke-miterlimit="10"/>
<path d="M39.2291 95.8607H50.2527" stroke="#2065EA" stroke-miterlimit="10"/>
<path d="M39.2291 98.4993H50.2527" stroke="#2065EA" stroke-miterlimit="10"/>
<path d="M39.2291 101.138H50.2527" stroke="#2065EA" stroke-miterlimit="10"/>
<path d="M39.2291 103.776H50.2527" stroke="#2065EA" stroke-miterlimit="10"/>
<path d="M52.8779 93.2222H63.9015" stroke="#2065EA" stroke-miterlimit="10"/>
<path d="M52.8779 95.8607H63.9015" stroke="#2065EA" stroke-miterlimit="10"/>
<path d="M52.8779 98.4993H63.9015" stroke="#2065EA" stroke-miterlimit="10"/>
<path d="M52.8779 101.138H63.9015" stroke="#2065EA" stroke-miterlimit="10"/>
<path d="M52.8779 103.776H63.9015" stroke="#2065EA" stroke-miterlimit="10"/>
<path d="M180.429 1H71.8171V117.005H180.429V1Z" fill="#E9F0FD" stroke="#2065EA" stroke-linecap="round" stroke-linejoin="round"/>
<path d="M173.199 22.9764H74.9163V89.8265H173.199V22.9764Z" fill="white" stroke="#2065EA" stroke-linecap="round" stroke-linejoin="round"/>
<path d="M97.7515 49.5128H151.692" stroke="#2065EA" stroke-miterlimit="10"/>
<path d="M90.4201 55.3744H159.023" stroke="#2065EA" stroke-miterlimit="10"/>
<path d="M180.429 1H176.59V117.005H180.429V1Z" fill="#DBDBDB" stroke="#2065EA" stroke-miterlimit="10"/>
<path d="M180.433 1H31.9154V8.53502H180.433V1Z" fill="#D2E0FB" stroke="#2065EA" stroke-linecap="round" stroke-linejoin="round"/>
<path d="M137.167 2.28381H41.6816V6.53389H137.167V2.28381Z" fill="white"/>
<path d="M173.195 11.2002H165.824" stroke="#2065EA" stroke-miterlimit="10"/>
<path d="M173.195 13.4713H165.824" stroke="#2065EA" stroke-miterlimit="10"/>
<path d="M173.195 15.738H165.824" stroke="#2065EA" stroke-miterlimit="10"/>
<path d="M64.8538 185.944C66.9788 183.324 70.7729 178.702 72.0789 177.489C73.335 176.286 74.5177 175.008 75.6206 173.663C75.6206 173.663 73.376 178.015 77.2011 181.446C81.0262 184.877 92.3774 182.239 94.8832 180.393C97.3889 178.547 97.6546 173.796 95.4144 166.801C93.1743 159.806 90 146.879 90.1328 142.39C90.2656 137.901 87.3614 125.235 86.0421 121.804C84.7228 118.373 79.3129 115.867 73.7701 114.68C68.2273 113.494 53.3166 119.692 53.3166 119.692L50.284 120.878C50.284 120.878 37.8879 127.741 34.5809 130.512C31.2738 133.283 32.8631 140.938 32.0751 148.327C31.2871 155.716 31.2826 164.296 31.2826 164.296C31.2826 164.296 23.6281 171.025 18.0853 178.675C15.429 182.358 13.8839 184.603 13.0073 185.944H64.8538Z" fill="#CED2DA" stroke="#6D798F" stroke-miterlimit="10"/>
<path d="M92.0676 171.649C92.0676 171.649 87.6405 170.609 83.0008 173.721C78.3611 176.833 79.6273 181.495 83.7756 182.531C87.9238 183.567 93.3648 183.567 96.2159 179.162C99.067 174.757 94.144 171.388 92.0676 171.649Z" fill="white" stroke="#6D798F" stroke-miterlimit="10"/>
<path d="M93.1697 171.609C90.6879 171.215 88.15 171.796 86.0863 173.23C82.4471 175.656 83.4565 179.299 86.6928 180.109C89.929 180.92 94.1791 180.92 96.406 177.48C98.6328 174.04 94.7856 171.41 93.1697 171.609Z" fill="white" stroke="#6D798F" stroke-miterlimit="10"/>
<path d="M82.9253 142.098C83.0714 139.689 83.1644 138.047 83.1644 137.901" stroke="#6D798F" stroke-miterlimit="10"/>
<path d="M75.6427 173.663C75.6427 173.663 80.393 169.046 81.181 163.764C81.6725 160.51 82.31 151.643 82.7261 145.192" stroke="#6D798F" stroke-miterlimit="10"/>
<path d="M88.539 151.041C87.3436 154.883 85.13 160.652 81.7123 164.557" stroke="#6D798F" stroke-miterlimit="10"/>
<path d="M89.6282 147.008C89.6282 147.008 89.4422 147.893 89.0482 149.31" stroke="#6D798F" stroke-miterlimit="10"/>
<path d="M89.2119 162.055C86.8785 164.728 84.1221 167 81.0526 168.78" stroke="#6D798F" stroke-miterlimit="10"/>
<path d="M91.4743 159.147C90.9907 159.876 90.466 160.576 89.9026 161.245" stroke="#6D798F" stroke-miterlimit="10"/>
<path d="M96.0961 170.365C91.6931 169.031 86.981 169.122 82.6331 170.626C75.2441 173.137 76.0366 178.808 76.6963 179.733" stroke="#6D798F" stroke-miterlimit="10"/>
<path d="M76.0677 78.4088C76.0677 78.4088 76.0677 76.8548 73.9294 73.5389C71.7911 70.2229 60.9047 71.5954 57.2124 75.2876C53.5202 78.9799 58.7664 83.6461 56.4333 86.3555C54.1002 89.0649 46.3261 87.7146 43.7982 92.5757C41.2703 97.4367 47.6852 99.7654 49.0488 101.514C50.4123 103.263 46.7157 103.847 47.1052 105.596C47.4948 107.345 53.5158 107.539 53.5158 107.539C53.5158 107.539 49.6287 108.708 51.5722 110.262C54.2506 112.288 57.5497 113.319 60.9047 113.18C64.7917 112.985 63.8178 105.401 63.4326 99.7654C63.0474 94.1296 68.0944 87.9094 73.9294 88.4894C79.7644 89.0693 85.9801 95.6835 84.9973 98.601C84.0145 101.519 86.5512 98.0166 91.8018 94.7095C97.0524 91.4025 94.7193 84.6023 93.5727 83.2432C92.426 81.8841 88.5213 81.4945 87.7421 78.9666C86.9629 76.4387 85.2142 73.9152 81.9116 73.9152C78.6089 73.9152 79.3704 78.214 76.0677 78.4088Z" fill="#6D798F" stroke="#6D798F" stroke-miterlimit="10"/>
<path d="M59.4215 113.357C59.4215 113.357 56.9157 114.016 55.8798 115.34C54.8438 116.664 50.5672 119.046 50.306 120.878C50.0448 122.711 51.6341 132.23 54.7907 136.055C57.9473 139.88 59.541 140.145 59.541 140.145C59.541 140.145 60.4663 136.453 61.126 136.188C61.7856 135.922 67.8552 139.729 67.8552 139.729C67.8552 139.729 68.9089 133.531 69.573 133.531C70.2371 133.531 72.34 135.643 72.34 135.643C72.34 135.643 73.1324 130.361 72.6056 126.271C72.0788 122.18 68.6477 117.168 66.1419 115.451C63.6362 113.733 61.6351 112.17 59.4215 113.357Z" fill="white" stroke="#6D798F" stroke-miterlimit="10"/>
<path d="M60.7098 108.345L55.8399 120.006C55.8399 120.006 57.0928 125.438 58.7397 128.931C60.9843 133.682 66.5315 135.944 66.5315 135.944C66.4959 133.189 67.0942 130.462 68.2803 127.975C69.3882 125.729 70.6887 123.582 72.1673 121.56C72.1673 121.56 63.4325 113.011 60.7098 108.345Z" fill="white" stroke="#6D798F" stroke-miterlimit="10"/>
<path d="M61.9674 112.768C61.9674 112.768 64.2031 125.549 67.3995 129.542L70.4321 123.787L62.4632 111.325L61.9674 112.768Z" fill="#6D798F" stroke="#6D798F" stroke-miterlimit="10"/>
<path d="M60.0679 150.704C60.0679 150.704 67.8553 130.379 68.9222 129.193C69.9892 128.006 72.3533 125.894 73.4114 124.442C74.4694 122.99 77.3692 119.298 78.4273 119.298C79.4854 119.298 81.9691 120.219 83.1777 120.484C84.3863 120.75 85.1566 121.144 85.285 123.141C85.4134 125.137 83.7045 125.252 83.7045 125.252L83.0448 124.46C83.0448 124.46 78.2945 131.588 76.8468 132.509C75.982 133.065 75.051 133.511 74.0754 133.837L67.7402 157.46L60.0679 150.704Z" fill="white" stroke="#6D798F" stroke-miterlimit="10"/>
<path d="M87.5341 91.7699C87.5341 91.7699 89.3802 93.3105 88.1495 98.5346C86.9187 103.759 86.6133 106.375 86.6133 109.452C86.6133 112.529 85.6924 116.832 83.0715 119.599C80.4507 122.366 77.2321 126.364 73.3893 126.209C67.302 125.965 64.3181 117.598 62.3215 113.755C60.3248 109.912 59.8644 104.684 59.8644 102.532C59.8644 100.381 60.1699 95.3072 62.9368 91.4644C65.7038 87.6216 73.2388 86.0854 76.4662 86.5458C79.6936 87.0063 83.6913 87.4667 87.5341 91.7699Z" fill="white" stroke="#6D798F" stroke-miterlimit="10"/>
<path d="M61.2457 105.609C61.2457 105.609 61.8611 103.458 64.628 102.227C67.395 100.996 69.0862 98.8445 68.1698 96.8435C67.2533 94.8424 67.727 92.859 71.7115 91.7699C75.6959 90.6809 76.785 94.6919 80.6278 94.0765C84.4705 93.4611 85.5463 91.9249 87.543 92.8457C89.5396 93.7666 88.6188 96.3875 88.6188 96.3875C88.6188 96.3875 91.0803 91.9293 86.3167 86.8558C81.553 81.7823 70.0203 79.9362 62.0249 85.78C54.0294 91.6238 58.6425 105.304 58.6425 105.304C58.6425 105.304 59.0941 105.915 61.2457 105.609Z" fill="#6D798F" stroke="#6D798F" stroke-miterlimit="10"/>
<path d="M80.4639 108.221L80.0035 117.137L76.7717 115.907" stroke="#6D798F" stroke-miterlimit="10"/>
<path d="M78.0156 120.374C78.0156 120.374 74.9431 120.817 73.5574 118.683" stroke="#6D798F" stroke-miterlimit="10"/>
<path d="M74.6112 108.128C74.4695 109.014 73.9781 109.66 73.5177 109.585C73.0573 109.51 72.8005 108.735 72.9422 107.854C73.0838 106.973 73.5752 106.322 74.0357 106.397C74.4961 106.473 74.7529 107.247 74.6112 108.128Z" fill="#6D798F"/>
<path d="M84.4615 108.376C84.3198 109.262 83.8284 109.908 83.368 109.833C82.9076 109.757 82.6464 108.983 82.7925 108.106C82.9386 107.23 83.4256 106.57 83.886 106.645C84.3464 106.72 84.6032 107.495 84.4615 108.376Z" fill="#6D798F"/>
<path d="M70.6843 104.113C70.6843 104.113 73.9914 101.231 76.6565 103.471" stroke="#6D798F" stroke-width="2" stroke-miterlimit="10" stroke-linecap="round"/>
<path d="M82.3099 103.471C82.3099 103.471 84.5501 101.554 86.4714 103.365" stroke="#6D798F" stroke-width="2" stroke-miterlimit="10" stroke-linecap="round"/>
<path d="M78.7904 106.034C78.7904 106.034 74.0976 105.286 66.8371 106.477C66.8371 106.477 66.1996 111.382 69.6129 113.516C73.0263 115.65 76.3333 113.622 77.1834 112.449C78.9011 110.112 78.7904 106.034 78.7904 106.034Z" stroke="#6D798F" stroke-miterlimit="10"/>
<path d="M89.5619 105.361C89.5619 105.361 86.2061 104.649 81.0174 105.769C81.0174 105.769 80.5747 110.461 83.0008 112.498C85.4269 114.534 87.8087 112.6 88.4197 111.48C89.6238 109.262 89.5619 105.361 89.5619 105.361Z" stroke="#6D798F" stroke-miterlimit="10"/>
<path d="M78.7904 106.034C78.7904 106.034 79.2951 104.653 81.004 105.769" stroke="#6D798F" stroke-width="2" stroke-miterlimit="10"/>
<path d="M59.6961 103.577L66.8415 106.459" stroke="#6D798F" stroke-miterlimit="10"/>
<path d="M61.8609 106.375C61.8609 106.375 60.7851 100.075 57.8764 103.148C54.9678 106.22 57.571 109.297 58.9522 110.674C60.3335 112.051 62.0512 110.674 62.0512 110.674" fill="white"/>
<path d="M61.8609 106.375C61.8609 106.375 60.7851 100.075 57.8764 103.148C54.9678 106.22 57.571 109.297 58.9522 110.674C60.3335 112.051 62.0512 110.674 62.0512 110.674" stroke="#6D798F" stroke-miterlimit="10"/>
<path d="M50.3415 137.436C52.2359 140.951 53.5174 144.762 54.1311 148.708C55.0564 155.043 54.9236 156.234 54.9236 156.234L59.5411 150.695C59.5411 150.695 67.0673 155.973 68.2493 157.686C69.4314 159.399 69.5775 159.93 69.5775 159.93C69.5775 159.93 69.5775 170.224 65.2211 176.426C60.8648 182.628 58.7531 182.624 54.534 182.624C50.3149 182.624 44.9005 178.662 41.9963 172.065C39.0921 165.469 36.7147 155.849 36.1878 154.906C35.661 153.963 33.9433 148.708 33.9433 148.708" fill="#CED2DA"/>
<path d="M50.3415 137.436C52.2359 140.951 53.5174 144.762 54.1311 148.708C55.0564 155.043 54.9236 156.234 54.9236 156.234L59.5411 150.695C59.5411 150.695 67.0673 155.973 68.2493 157.686C69.4314 159.399 69.5775 159.93 69.5775 159.93C69.5775 159.93 69.5775 170.224 65.2211 176.426C60.8648 182.628 58.7531 182.624 54.534 182.624C50.3149 182.624 44.9005 178.662 41.9963 172.065C39.0921 165.469 36.7147 155.849 36.1878 154.906C35.661 153.963 33.9433 148.708 33.9433 148.708" stroke="#6D798F" stroke-miterlimit="10"/>
<path d="M48.6104 163.977C48.1279 164.543 47.725 165.017 47.4018 165.349" stroke="#6D798F" stroke-miterlimit="10"/>
<path d="M54.9237 156.234C54.9237 156.234 52.4578 159.333 50.2442 162.011" stroke="#6D798F" stroke-miterlimit="10"/>
<path d="M55.5832 155.583C58.4532 156.411 61.2033 157.609 63.7646 159.147C68.2493 161.803 68.6344 164.69 69.9626 163.636C71.2907 162.582 72.3355 159.28 71.0162 157.438C69.6969 155.596 65.6063 151.24 62.7065 149.912C59.8067 148.584 58.6158 149.38 57.6905 151.364C56.7652 153.347 54.6579 154.396 55.5832 155.583Z" fill="white" stroke="#6D798F" stroke-miterlimit="10"/>
<path d="M55.4371 166.385C55.4717 167.642 55.6621 168.89 56.0038 170.1" stroke="#6D798F" stroke-miterlimit="10"/>
<path d="M55.5832 155.583C55.5832 155.583 55.2688 160.01 55.3352 164.132" stroke="#6D798F" stroke-miterlimit="10"/>
<path d="M60.0679 157.828C60.0679 157.828 60.9932 162.976 62.0513 165.216" stroke="#6D798F" stroke-miterlimit="10"/>
<path d="M91.3458 170.626C91.3458 170.626 86.8566 178.547 87.5163 179.481C88.1759 180.415 102.825 179.481 102.825 179.481L103.613 176.315C103.613 176.315 106.65 177.502 109.028 177.502C111.405 177.502 109.555 176.842 108.762 176.05C107.97 175.257 103.352 172.357 102.954 172.092C102.555 171.826 94.9052 169.834 91.3458 170.626Z" fill="white" stroke="#6D798F" stroke-miterlimit="10"/>
<path d="M100.904 169.714C100.904 169.714 103.025 169.077 103.591 170.423C104.158 171.769 103.875 177.506 103.662 178.976C103.45 180.446 102.463 180.388 102.038 178.976C101.612 177.564 100.621 169.927 100.621 169.927L100.904 169.714Z" fill="white" stroke="#6D798F" stroke-miterlimit="10"/>
<path d="M96.4504 170.352C96.4504 170.352 99.6335 168.161 100.554 169.289C101.475 170.418 102.325 179.33 102.604 179.968C102.883 180.605 101.4 181.097 100.833 180.459C100.267 179.822 98.6418 176.572 98.1504 175.372C97.659 174.173 96.4504 170.352 96.4504 170.352Z" fill="white" stroke="#6D798F" stroke-miterlimit="10"/>
<path d="M90.1595 172.756C90.1595 172.756 91.9303 169.502 93.4134 168.585C94.8965 167.669 96.5124 169.36 97.3005 170.635C98.0885 171.91 98.7127 175.231 99.0713 176.855C99.4299 178.48 100.399 180.317 99.8505 180.53C99.3015 180.742 97.0924 178.905 96.4549 177.918C95.8174 176.931 94.2634 173.11 94.2634 173.11" fill="white"/>
<path d="M90.1595 172.756C90.1595 172.756 91.9303 169.502 93.4134 168.585C94.8965 167.669 96.5124 169.36 97.3005 170.635C98.0885 171.91 98.7127 175.231 99.0713 176.855C99.4299 178.48 100.399 180.317 99.8505 180.53C99.3015 180.742 97.0924 178.905 96.4549 177.918C95.8174 176.931 94.2634 173.11 94.2634 173.11" stroke="#6D798F" stroke-miterlimit="10"/>
<path d="M93.0682 178.905C93.0682 178.905 90.5226 176.43 89.6725 175.651C88.8225 174.872 87.6228 174.522 86.7772 175.443C85.9316 176.364 85.5022 177.493 86.7772 178.693C88.0522 179.892 91.0804 181.468 93.0682 181.468C95.056 181.468 94.6929 180.477 94.1971 179.915C93.8619 179.535 93.483 179.196 93.0682 178.905Z" fill="white" stroke="#6D798F" stroke-miterlimit="10"/>
<path d="M67.8727 185.9H160.644V183.248H67.8727V185.9Z" fill="#E9F0FD" stroke="#2065EA" stroke-linecap="round" stroke-linejoin="round"/>
<path d="M67.8726 185.9H100.439V183.248H67.8726V185.9Z" fill="#2065EA" stroke="#2065EA" stroke-linecap="round" stroke-linejoin="round"/>
<path d="M97.8134 183.24H158.049L161.529 143.178C161.577 142.738 161.53 142.293 161.393 141.872C161.255 141.451 161.03 141.064 160.731 140.737C160.433 140.41 160.068 140.15 159.661 139.975C159.255 139.8 158.815 139.713 158.372 139.721H105.047C104.107 139.738 103.206 140.1 102.514 140.737C101.823 141.374 101.388 142.243 101.293 143.178L97.8134 183.24Z" fill="#2065EA" stroke="#2065EA" stroke-linecap="round" stroke-linejoin="round"/>
<path d="M98.9689 183.24H159.205L162.685 143.178C162.732 142.738 162.686 142.293 162.548 141.872C162.411 141.451 162.185 141.064 161.887 140.737C161.588 140.41 161.223 140.15 160.817 139.975C160.41 139.8 159.971 139.713 159.528 139.721H106.203C105.263 139.738 104.362 140.1 103.67 140.737C102.978 141.374 102.544 142.243 102.449 143.178L98.9689 183.24Z" fill="#E9F0FD" stroke="#2065EA" stroke-linecap="round" stroke-linejoin="round"/>
<path d="M129.49 160.218C129.594 159.196 130.069 158.247 130.825 157.551C131.581 156.855 132.566 156.461 133.594 156.442C134.077 156.433 134.557 156.528 135.002 156.719C135.446 156.911 135.845 157.194 136.171 157.552C136.497 157.909 136.743 158.331 136.894 158.791C137.044 159.251 137.095 159.737 137.043 160.218C136.939 161.241 136.464 162.19 135.708 162.886C134.951 163.582 133.966 163.976 132.939 163.995C132.455 164.003 131.975 163.909 131.531 163.717C131.086 163.526 130.688 163.242 130.362 162.885C130.035 162.528 129.789 162.105 129.639 161.646C129.488 161.186 129.438 160.699 129.49 160.218Z" fill="#2065EA" stroke="#2065EA" stroke-linecap="round" stroke-linejoin="round"/>
</svg>
