<svg width="268" height="257" viewBox="0 0 268 257" fill="none" xmlns="http://www.w3.org/2000/svg" id="exam-online" >
<path d="M244.127 36.6858V35.8895C244.127 33.2667 243.085 30.7512 241.23 28.8966C239.376 27.0419 236.86 26 234.237 26L157 26V26.0955C159.38 26.4033 161.566 27.5671 163.15 29.3696C164.735 31.1721 165.608 33.4899 165.608 35.8895V53.0888H165.783L165.783 153.816C165.783 155.377 166.09 156.923 166.688 158.365C167.285 159.808 168.161 161.118 169.265 162.222C170.369 163.326 171.679 164.202 173.122 164.799C174.564 165.396 176.11 165.704 177.671 165.704H244.111L244.111 36.7097L244.127 36.6858Z" fill="#E7E9EC" stroke="#0B1F44" stroke-linecap="round" stroke-linejoin="round"/>
<path d="M191.829 148.043V155.822C191.827 158.039 191.08 160.191 189.708 161.933C188.336 163.674 186.419 164.904 184.264 165.425V165.712H218.384V148.043H191.829Z" fill="#0B1F44" stroke="#0B1F44" stroke-linecap="round" stroke-linejoin="round"/>
<path d="M197.148 138.623V155.822C197.145 158.22 196.271 160.535 194.69 162.336C193.108 164.138 190.925 165.304 188.548 165.616V165.704H257.026C258.325 165.704 259.611 165.448 260.811 164.951C262.011 164.454 263.101 163.726 264.019 162.807C264.938 161.889 265.666 160.799 266.163 159.599C266.66 158.399 266.916 157.113 266.916 155.814V138.623H197.148Z" fill="#CED2DA" stroke="#0B1F44" stroke-linecap="round" stroke-linejoin="round"/>
<path d="M181.007 39.4568L232.47 39.4568" stroke="#0B1F44" stroke-miterlimit="10"/>
<path d="M181.007 48.8368L232.47 48.8368" stroke="#0B1F44" stroke-miterlimit="10"/>
<path d="M181.007 56.7993L232.47 56.7993" stroke="#0B1F44" stroke-miterlimit="10"/>
<path d="M181.007 112.243L232.47 112.243" stroke="#0B1F44" stroke-miterlimit="10"/>
<path d="M181.007 125.899L232.47 125.899" stroke="#0B1F44" stroke-miterlimit="10"/>
<path d="M181.007 65.0487H211.719" stroke="#0B1F44" stroke-miterlimit="10"/>
<path d="M181.007 72.438H211.719" stroke="#0B1F44" stroke-miterlimit="10"/>
<path d="M181.007 79.8271H211.719" stroke="#0B1F44" stroke-miterlimit="10"/>
<path d="M181.007 87.2245H211.719" stroke="#0B1F44" stroke-miterlimit="10"/>
<path d="M181.007 94.6138H211.719" stroke="#0B1F44" stroke-miterlimit="10"/>
<path d="M181.007 102.011H211.719" stroke="#0B1F44" stroke-miterlimit="10"/>
<path d="M121.976 15.7249V233.212C121.974 236.078 120.835 238.826 118.808 240.852C116.782 242.879 114.034 244.018 111.168 244.02H17.1982C14.3323 244.018 11.5843 242.879 9.55784 240.852C7.53134 238.826 6.39205 236.078 6.3902 233.212V15.7179C6.3902 12.8533 7.52816 10.106 9.55375 8.08042C11.5793 6.05483 14.3266 4.91687 17.1912 4.91687H57.5258V5.04255C58.5312 8.65918 60.8423 11.0121 63.4116 11.0121H64.8848C67.4542 11.0121 69.7721 8.65918 70.7706 5.04255L70.8125 4.91687H111.168C112.587 4.91687 113.993 5.19643 115.304 5.73958C116.615 6.28274 117.807 7.07885 118.81 8.08247C119.814 9.08608 120.61 10.2776 121.153 11.5888C121.696 12.9001 121.976 14.3056 121.976 15.7249Z" fill="white" stroke="#2065EA" stroke-linecap="round" stroke-linejoin="round"/>
<path d="M121.976 68.5362V15.7249C121.976 14.3056 121.696 12.9001 121.153 11.5888C120.61 10.2776 119.814 9.08608 118.81 8.08247C117.807 7.07885 116.615 6.28274 115.304 5.73958C113.993 5.19643 112.587 4.91687 111.168 4.91687H70.8823L70.8404 5.04255C69.835 8.65918 67.524 11.0121 64.9546 11.0121H63.4814C60.9121 11.0121 58.5941 8.65918 57.5957 5.04255V4.91687H17.1912C14.3266 4.91687 11.5793 6.05484 9.55375 8.08042C7.52816 10.106 6.3902 12.8533 6.3902 15.7179V68.5362H121.976Z" fill="#D2E0FB" stroke="#2065EA" stroke-miterlimit="10"/>
<path d="M46.1468 36.5933V43.89H45.0494V37.5339H41.6148V43.89H40.5174V36.5933H46.1468Z" fill="#2065EA"/>
<path d="M47.7447 45.9422V38.4174H48.7851V39.3046H48.8741C48.9359 39.1906 49.025 39.0588 49.1413 38.9091C49.2577 38.7595 49.4192 38.6288 49.6259 38.5172C49.8325 38.4032 50.1057 38.3462 50.4454 38.3462C50.8871 38.3462 51.2814 38.4578 51.6282 38.6811C51.975 38.9044 52.247 39.2262 52.4441 39.6466C52.6436 40.0671 52.7434 40.573 52.7434 41.1644C52.7434 41.7559 52.6448 42.263 52.4477 42.6858C52.2505 43.1062 51.9798 43.4304 51.6354 43.6584C51.2909 43.8841 50.8978 43.9969 50.456 43.9969C50.1235 43.9969 49.8515 43.9411 49.6401 43.8294C49.4311 43.7178 49.2672 43.5872 49.1485 43.4375C49.0297 43.2879 48.9383 43.1549 48.8741 43.0385H48.81V45.9422H47.7447ZM48.7886 41.1537C48.7886 41.5385 48.8444 41.8758 48.9561 42.1656C49.0677 42.4554 49.2292 42.6822 49.4406 42.8461C49.652 43.0076 49.9109 43.0884 50.2173 43.0884C50.5356 43.0884 50.8016 43.004 51.0154 42.8354C51.2292 42.6644 51.3907 42.4328 51.5 42.1406C51.6116 41.8485 51.6674 41.5195 51.6674 41.1537C51.6674 40.7927 51.6128 40.4685 51.5035 40.1811C51.3966 39.8937 51.2351 39.6668 51.019 39.5006C50.8052 39.3343 50.538 39.2512 50.2173 39.2512C49.9085 39.2512 49.6473 39.3307 49.4335 39.4899C49.2221 39.649 49.0618 39.8711 48.9525 40.1561C48.8433 40.4412 48.7886 40.7737 48.7886 41.1537Z" fill="#2065EA"/>
<path d="M56.2421 44.0005C55.7291 44.0005 55.2814 43.8829 54.8989 43.6477C54.5165 43.4126 54.2196 43.0836 54.0082 42.6608C53.7968 42.238 53.6911 41.744 53.6911 41.1787C53.6911 40.611 53.7968 40.1146 54.0082 39.6894C54.2196 39.2642 54.5165 38.9341 54.8989 38.6989C55.2814 38.4638 55.7291 38.3462 56.2421 38.3462C56.7552 38.3462 57.2029 38.4638 57.5853 38.6989C57.9678 38.9341 58.2647 39.2642 58.4761 39.6894C58.6875 40.1146 58.7932 40.611 58.7932 41.1787C58.7932 41.744 58.6875 42.238 58.4761 42.6608C58.2647 43.0836 57.9678 43.4126 57.5853 43.6477C57.2029 43.8829 56.7552 44.0005 56.2421 44.0005ZM56.2457 43.1062C56.5782 43.1062 56.8538 43.0183 57.0723 42.8425C57.2908 42.6668 57.4523 42.4328 57.5568 42.1406C57.6637 41.8485 57.7172 41.5266 57.7172 41.1751C57.7172 40.8259 57.6637 40.5053 57.5568 40.2131C57.4523 39.9186 57.2908 39.6823 57.0723 39.5041C56.8538 39.326 56.5782 39.2369 56.2457 39.2369C55.9108 39.2369 55.6329 39.326 55.412 39.5041C55.1935 39.6823 55.0308 39.9186 54.9239 40.2131C54.8194 40.5053 54.7671 40.8259 54.7671 41.1751C54.7671 41.5266 54.8194 41.8485 54.9239 42.1406C55.0308 42.4328 55.1935 42.6668 55.412 42.8425C55.6329 43.0183 55.9108 43.1062 56.2457 43.1062Z" fill="#2065EA"/>
<path d="M59.9823 43.89V38.4174H62.2518C62.8694 38.4174 63.3587 38.5493 63.7197 38.8129C64.0807 39.0742 64.2613 39.4293 64.2613 39.8782C64.2613 40.1989 64.1591 40.453 63.9549 40.6407C63.7506 40.8283 63.4798 40.9542 63.1425 41.0183C63.3872 41.0468 63.6116 41.1205 63.8159 41.2392C64.0202 41.3556 64.1841 41.5124 64.3076 41.7095C64.4335 41.9067 64.4964 42.1418 64.4964 42.415C64.4964 42.7048 64.4216 42.9613 64.272 43.1846C64.1223 43.4055 63.905 43.5789 63.6199 43.7047C63.3373 43.8283 62.9964 43.89 62.5974 43.89H59.9823ZM60.9834 42.9993H62.5974C62.8611 42.9993 63.0677 42.9364 63.2173 42.8105C63.367 42.6846 63.4418 42.5136 63.4418 42.2974C63.4418 42.0433 63.367 41.8437 63.2173 41.6989C63.0677 41.5516 62.8611 41.478 62.5974 41.478H60.9834V42.9993ZM60.9834 40.6977H62.2625C62.462 40.6977 62.633 40.6692 62.7755 40.6122C62.9204 40.5552 63.0309 40.4744 63.1069 40.3699C63.1853 40.263 63.2245 40.1371 63.2245 39.9922C63.2245 39.7808 63.1378 39.6158 62.9644 39.497C62.791 39.3782 62.5535 39.3189 62.2518 39.3189H60.9834V40.6977Z" fill="#2065EA"/>
<path d="M68.0237 44.0005C67.4845 44.0005 67.0201 43.8853 66.6306 43.6549C66.2434 43.4221 65.9441 43.0955 65.7327 42.6751C65.5237 42.2523 65.4192 41.757 65.4192 41.1894C65.4192 40.6288 65.5237 40.1348 65.7327 39.7072C65.9441 39.2797 66.2387 38.9459 66.6163 38.706C66.9964 38.4661 67.4405 38.3462 67.9488 38.3462C68.2576 38.3462 68.5569 38.3973 68.8467 38.4994C69.1365 38.6015 69.3965 38.7619 69.6269 38.9804C69.8573 39.1989 70.039 39.4827 70.1721 39.8319C70.3051 40.1787 70.3716 40.6003 70.3716 41.0967V41.4744H66.0213V40.6763H69.3277C69.3277 40.396 69.2707 40.1478 69.1566 39.9317C69.0426 39.7131 68.8823 39.5409 68.6757 39.4151C68.4714 39.2892 68.2315 39.2262 67.956 39.2262C67.6567 39.2262 67.3954 39.2999 67.1721 39.4471C66.9512 39.592 66.7802 39.782 66.6591 40.0172C66.5403 40.25 66.4809 40.5029 66.4809 40.7761V41.3996C66.4809 41.7654 66.5451 42.0765 66.6733 42.333C66.804 42.5896 66.9857 42.7855 67.2184 42.9209C67.4512 43.0539 67.7232 43.1204 68.0343 43.1204C68.2362 43.1204 68.4203 43.0919 68.5866 43.0349C68.7528 42.9755 68.8966 42.8877 69.0177 42.7713C69.1388 42.6549 69.2315 42.5112 69.2956 42.3402L70.3039 42.5219C70.2231 42.8188 70.0782 43.0789 69.8692 43.3021C69.6626 43.523 69.4025 43.6952 69.0889 43.8188C68.7778 43.9399 68.4227 44.0005 68.0237 44.0005Z" fill="#2065EA"/>
<path d="M71.5536 45.9422V38.4174H72.5939V39.3046H72.683C72.7447 39.1906 72.8338 39.0588 72.9502 38.9091C73.0666 38.7595 73.2281 38.6288 73.4348 38.5172C73.6414 38.4032 73.9146 38.3462 74.2542 38.3462C74.696 38.3462 75.0903 38.4578 75.4371 38.6811C75.7839 38.9044 76.0558 39.2262 76.253 39.6466C76.4525 40.0671 76.5523 40.573 76.5523 41.1644C76.5523 41.7559 76.4537 42.263 76.2565 42.6858C76.0594 43.1062 75.7886 43.4304 75.4442 43.6584C75.0998 43.8841 74.7067 43.9969 74.2649 43.9969C73.9324 43.9969 73.6604 43.9411 73.449 43.8294C73.24 43.7178 73.0761 43.5872 72.9573 43.4375C72.8386 43.2879 72.7471 43.1549 72.683 43.0385H72.6189V45.9422H71.5536ZM72.5975 41.1537C72.5975 41.5385 72.6533 41.8758 72.7649 42.1656C72.8766 42.4554 73.0381 42.6822 73.2495 42.8461C73.4609 43.0076 73.7198 43.0884 74.0262 43.0884C74.3445 43.0884 74.6105 43.004 74.8243 42.8354C75.038 42.6644 75.1996 42.4328 75.3088 42.1406C75.4205 41.8485 75.4763 41.5195 75.4763 41.1537C75.4763 40.7927 75.4216 40.4685 75.3124 40.1811C75.2055 39.8937 75.044 39.6668 74.8278 39.5006C74.6141 39.3343 74.3468 39.2512 74.0262 39.2512C73.7174 39.2512 73.4561 39.3307 73.2424 39.4899C73.031 39.649 72.8706 39.8711 72.7614 40.1561C72.6521 40.4412 72.5975 40.7737 72.5975 41.1537Z" fill="#2065EA"/>
<path d="M77.7458 43.89V38.4174H78.8111V40.7119H79.3242L81.1305 38.4174H82.4488L80.3289 41.0789L82.4737 43.89H81.1519L79.5023 41.7024H78.8111V43.89H77.7458Z" fill="#2065EA"/>
<path d="M84.8938 44.0112C84.547 44.0112 84.2335 43.947 83.9532 43.8188C83.673 43.6881 83.4509 43.4993 83.287 43.2523C83.1255 43.0052 83.0447 42.7024 83.0447 42.3437C83.0447 42.0349 83.1041 41.7808 83.2228 41.5813C83.3416 41.3818 83.5019 41.2238 83.7038 41.1074C83.9057 40.991 84.1314 40.9031 84.3808 40.8438C84.6302 40.7844 84.8843 40.7393 85.1432 40.7084C85.471 40.6704 85.737 40.6395 85.9413 40.6157C86.1456 40.5896 86.294 40.548 86.3867 40.491C86.4793 40.434 86.5256 40.3414 86.5256 40.2131V40.1882C86.5256 39.877 86.4377 39.636 86.262 39.4649C86.0886 39.2939 85.8297 39.2084 85.4853 39.2084C85.1266 39.2084 84.8439 39.288 84.6373 39.4471C84.433 39.6039 84.2917 39.7785 84.2133 39.9709L83.2122 39.7428C83.3309 39.4103 83.5043 39.1419 83.7323 38.9376C83.9627 38.731 84.2276 38.5813 84.5269 38.4887C84.8261 38.3937 85.1409 38.3462 85.471 38.3462C85.6895 38.3462 85.9211 38.3723 86.1658 38.4246C86.4128 38.4745 86.6432 38.5671 86.857 38.7025C87.0731 38.8379 87.2501 39.0315 87.3878 39.2832C87.5256 39.5326 87.5945 39.8568 87.5945 40.2559V43.89H86.5541V43.1418H86.5114C86.4425 43.2796 86.3392 43.415 86.2014 43.548C86.0636 43.681 85.8867 43.7914 85.6705 43.8793C85.4544 43.9672 85.1955 44.0112 84.8938 44.0112ZM85.1254 43.1561C85.4199 43.1561 85.6717 43.0979 85.8807 42.9815C86.0921 42.8651 86.2525 42.7131 86.3617 42.5254C86.4734 42.3354 86.5292 42.1323 86.5292 41.9162V41.2107C86.4912 41.2487 86.4175 41.2844 86.3083 41.3176C86.2014 41.3485 86.0791 41.3758 85.9413 41.3996C85.8035 41.4209 85.6693 41.4411 85.5387 41.4601C85.4081 41.4768 85.2988 41.491 85.2109 41.5029C85.0043 41.529 84.8154 41.573 84.6444 41.6347C84.4758 41.6965 84.3404 41.7855 84.2383 41.9019C84.1385 42.0159 84.0886 42.168 84.0886 42.358C84.0886 42.6216 84.186 42.8212 84.3808 42.9565C84.5755 43.0896 84.8238 43.1561 85.1254 43.1561Z" fill="#2065EA"/>
<path d="M42.7478 55.7593V50.2867H45.0173C45.6349 50.2867 46.1242 50.4186 46.4852 50.6822C46.8463 50.9435 47.0268 51.2986 47.0268 51.7475C47.0268 52.0682 46.9246 52.3223 46.7204 52.51C46.5161 52.6976 46.2453 52.8235 45.908 52.8876C46.1527 52.9161 46.3772 52.9898 46.5814 53.1085C46.7857 53.2249 46.9496 53.3817 47.0731 53.5788C47.199 53.776 47.2619 54.0111 47.2619 54.2843C47.2619 54.574 47.1871 54.8306 47.0375 55.0538C46.8878 55.2747 46.6705 55.4481 46.3855 55.574C46.1028 55.6975 45.762 55.7593 45.3629 55.7593H42.7478ZM43.7489 54.8686H45.3629C45.6266 54.8686 45.8332 54.8056 45.9829 54.6797C46.1325 54.5539 46.2073 54.3828 46.2073 54.1667C46.2073 53.9125 46.1325 53.713 45.9829 53.5681C45.8332 53.4209 45.6266 53.3472 45.3629 53.3472H43.7489V54.8686ZM43.7489 52.567H45.028C45.2275 52.567 45.3986 52.5385 45.5411 52.4815C45.686 52.4245 45.7964 52.3437 45.8724 52.2392C45.9508 52.1323 45.99 52.0064 45.99 51.8615C45.99 51.6501 45.9033 51.485 45.7299 51.3663C45.5565 51.2475 45.319 51.1881 45.0173 51.1881H43.7489V52.567Z" fill="#2065EA"/>
<path d="M50.7357 55.8697C50.2227 55.8697 49.7749 55.7522 49.3925 55.517C49.0101 55.2819 48.7132 54.9529 48.5018 54.5301C48.2904 54.1073 48.1847 53.6133 48.1847 53.048C48.1847 52.4803 48.2904 51.9838 48.5018 51.5587C48.7132 51.1335 49.0101 50.8033 49.3925 50.5682C49.7749 50.333 50.2227 50.2155 50.7357 50.2155C51.2488 50.2155 51.6965 50.333 52.0789 50.5682C52.4613 50.8033 52.7582 51.1335 52.9696 51.5587C53.181 51.9838 53.2867 52.4803 53.2867 53.048C53.2867 53.6133 53.181 54.1073 52.9696 54.5301C52.7582 54.9529 52.4613 55.2819 52.0789 55.517C51.6965 55.7522 51.2488 55.8697 50.7357 55.8697ZM50.7393 54.9755C51.0718 54.9755 51.3474 54.8876 51.5659 54.7118C51.7844 54.536 51.9459 54.3021 52.0504 54.0099C52.1573 53.7178 52.2108 53.3959 52.2108 53.0444C52.2108 52.6952 52.1573 52.3746 52.0504 52.0824C51.9459 51.7879 51.7844 51.5515 51.5659 51.3734C51.3474 51.1953 51.0718 51.1062 50.7393 51.1062C50.4044 51.1062 50.1265 51.1953 49.9056 51.3734C49.6871 51.5515 49.5244 51.7879 49.4175 52.0824C49.313 52.3746 49.2607 52.6952 49.2607 53.0444C49.2607 53.3959 49.313 53.7178 49.4175 54.0099C49.5244 54.3021 49.6871 54.536 49.9056 54.7118C50.1265 54.8876 50.4044 54.9755 50.7393 54.9755Z" fill="#2065EA"/>
<path d="M53.9414 57.3376V54.8365H54.3868C54.5008 54.732 54.597 54.6073 54.6754 54.4624C54.7561 54.3175 54.8238 54.1453 54.8785 53.9458C54.9355 53.7463 54.983 53.5135 55.021 53.2475C55.059 52.9791 55.0922 52.6727 55.1207 52.3283L55.2917 50.2867H59.0114V54.8365H59.8522V57.3376H58.8119V55.7593H54.996V57.3376H53.9414ZM55.5269 54.8365H57.971V51.1988H56.2466L56.1326 52.3283C56.0779 52.9031 56.0091 53.4019 55.9259 53.8247C55.8428 54.2451 55.7098 54.5824 55.5269 54.8365Z" fill="#2065EA"/>
<path d="M61.9374 54.2665L64.3494 50.2867H65.4967V55.7593H64.4528V51.776L62.0514 55.7593H60.8935V50.2867H61.9374V54.2665Z" fill="#2065EA"/>
<path d="M66.2502 51.206V50.2867H70.8677V51.206H69.0827V55.7593H68.0424V51.206H66.2502Z" fill="#2065EA"/>
<path d="M74.0983 55.8697C73.5592 55.8697 73.0948 55.7545 72.7053 55.5241C72.3181 55.2914 72.0188 54.9648 71.8074 54.5444C71.5984 54.1216 71.4939 53.6263 71.4939 53.0586C71.4939 52.4981 71.5984 52.004 71.8074 51.5765C72.0188 51.1489 72.3133 50.8152 72.691 50.5753C73.071 50.3354 73.5152 50.2155 74.0235 50.2155C74.3323 50.2155 74.6316 50.2665 74.9214 50.3687C75.2111 50.4708 75.4712 50.6311 75.7016 50.8497C75.932 51.0682 76.1137 51.352 76.2467 51.7012C76.3798 52.048 76.4463 52.4696 76.4463 52.966V53.3437H72.096V52.5456H75.4023C75.4023 52.2653 75.3453 52.0171 75.2313 51.8009C75.1173 51.5824 74.957 51.4102 74.7503 51.2843C74.5461 51.1584 74.3062 51.0955 74.0306 51.0955C73.7314 51.0955 73.4701 51.1691 73.2468 51.3164C73.0259 51.4613 72.8549 51.6513 72.7338 51.8865C72.615 52.1192 72.5556 52.3722 72.5556 52.6453V53.2689C72.5556 53.6346 72.6197 53.9458 72.748 54.2023C72.8786 54.4588 73.0604 54.6548 73.2931 54.7902C73.5259 54.9232 73.7979 54.9897 74.109 54.9897C74.3109 54.9897 74.495 54.9612 74.6613 54.9042C74.8275 54.8448 74.9712 54.7569 75.0924 54.6406C75.2135 54.5242 75.3061 54.3805 75.3703 54.2094L76.3786 54.3912C76.2978 54.6881 76.1529 54.9481 75.9439 55.1714C75.7373 55.3923 75.4772 55.5645 75.1636 55.688C74.8525 55.8092 74.4974 55.8697 74.0983 55.8697Z" fill="#2065EA"/>
<path d="M77.1971 55.7593L77.1936 54.8365H77.3895C77.5415 54.8365 77.6686 54.8044 77.7708 54.7403C77.8753 54.6738 77.9608 54.5622 78.0273 54.4054C78.0938 54.2486 78.1449 54.0325 78.1805 53.757C78.2161 53.4791 78.2422 53.1299 78.2589 52.7095L78.3551 50.2867H82.1745V55.7593H81.1305V51.206H79.342L79.2565 53.0658C79.2351 53.5171 79.1888 53.9114 79.1175 54.2486C79.0486 54.5859 78.9477 54.8674 78.8147 55.093C78.6817 55.3163 78.5107 55.4838 78.3016 55.5954C78.0926 55.7047 77.8385 55.7593 77.5392 55.7593H77.1971Z" fill="#2065EA"/>
<path d="M86.8587 55.7593V51.1953H85.5476C85.2365 51.1953 84.9942 51.2677 84.8208 51.4126C84.6474 51.5575 84.5607 51.7475 84.5607 51.9827C84.5607 52.2154 84.6403 52.4031 84.7994 52.5456C84.9609 52.6857 85.1866 52.7558 85.4764 52.7558H87.1687V53.618H85.4764C85.0726 53.618 84.7234 53.5515 84.4289 53.4185C84.1367 53.2831 83.9111 53.0919 83.7519 52.8449C83.5952 52.5978 83.5168 52.3057 83.5168 51.9684C83.5168 51.624 83.5975 51.3271 83.7591 51.0777C83.9229 50.8259 84.1569 50.6311 84.4609 50.4934C84.7673 50.3556 85.1296 50.2867 85.5476 50.2867H87.8599V55.7593H86.8587ZM83.2674 55.7593L84.8101 52.9945H85.9003L84.3576 55.7593H83.2674Z" fill="#2065EA"/>
<path d="M97.7419 138.844H29.4097C25.7079 138.844 22.7071 141.845 22.7071 145.547V166.807C22.7071 170.509 25.7079 173.51 29.4097 173.51H97.7419C101.444 173.51 104.445 170.509 104.445 166.807V145.547C104.445 141.845 101.444 138.844 97.7419 138.844Z" fill="#D2E0FB" stroke="#2065EA" stroke-miterlimit="10"/>
<path d="M121.976 25.8417V15.7249C121.976 14.3056 121.696 12.9001 121.153 11.5888C120.61 10.2776 119.814 9.08609 118.81 8.08247C117.807 7.07885 116.615 6.28274 115.304 5.73958C113.993 5.19643 112.587 4.91687 111.168 4.91687H70.8823L70.8404 5.04255C69.835 8.65919 67.524 11.0121 64.9546 11.0121H63.4814C60.9121 11.0121 58.5941 8.65919 57.5957 5.04255V4.91687H17.1912C14.3266 4.91687 11.5793 6.05484 9.55375 8.08042C7.52816 10.106 6.3902 12.8533 6.3902 15.7179V25.8417H121.976Z" fill="#E9F0FD" stroke="#2065EA" stroke-linecap="round" stroke-linejoin="round"/>
<path d="M6.3902 231.508V233.212C6.39205 236.078 7.53134 238.826 9.55784 240.852C11.5843 242.879 14.3323 244.018 17.1982 244.02H111.168C114.034 244.018 116.782 242.879 118.808 240.852C120.835 238.826 121.974 236.078 121.976 233.212V231.508H6.3902Z" fill="#E9F0FD" stroke="#2065EA" stroke-linecap="round" stroke-linejoin="round"/>
<path d="M129.328 67.6704V45.9846H127.366V18.1406C127.364 13.594 125.557 9.23425 122.341 6.01995C119.125 2.80566 114.765 1 110.218 1H18.1476C13.601 1 9.24049 2.80566 6.02489 6.01995C2.80929 9.23425 1.00185 13.594 1 18.1406V239.119C1.00185 243.665 2.80929 248.025 6.02489 251.239C9.24049 254.454 13.601 256.259 18.1476 256.259H110.218C114.765 256.259 119.125 254.454 122.341 251.239C125.557 248.025 127.364 243.665 127.366 239.119V86.2145H129.328V73.3468H127.366V67.6704H129.328ZM121.976 226.858C121.976 231.405 120.17 235.766 116.956 238.981C113.742 242.197 109.382 244.004 104.835 244.006H23.5307C18.9841 244.004 14.6243 242.197 11.41 238.981C8.1957 235.766 6.39005 231.405 6.39005 226.858V22.0575C6.39005 17.5115 8.19593 13.1517 11.4104 9.93724C14.6249 6.72275 18.9847 4.91686 23.5307 4.91686H57.5257V5.04254C58.5311 8.65918 60.8421 11.0121 63.4115 11.0121H64.8847C67.454 11.0121 69.772 8.65918 70.7704 5.04254L70.8123 4.91686H104.8C109.346 4.91686 113.706 6.72275 116.921 9.93724C120.135 13.1517 121.941 17.5115 121.941 22.0575L121.976 226.858Z" fill="#D2E0FB" stroke="#2065EA" stroke-linecap="round" stroke-linejoin="round"/>
<path d="M108.843 3.39478H19.5231C15.1382 3.39478 10.9329 5.13666 7.83237 8.23724C4.73179 11.3378 2.9899 15.5431 2.9899 19.928V237.366C2.9899 241.751 4.73179 245.956 7.83237 249.057C10.9329 252.158 15.1382 253.899 19.5231 253.899H108.843C113.228 253.899 117.433 252.158 120.534 249.057C123.634 245.956 125.376 241.751 125.376 237.366V19.8931C125.367 15.5142 123.621 11.3179 120.521 8.22489C117.422 5.13186 113.222 3.39477 108.843 3.39478ZM121.976 227.515C121.976 231.9 120.234 236.106 117.134 239.208C114.034 242.31 109.828 244.053 105.443 244.055H22.9233C18.5378 244.053 14.3325 242.31 11.2321 239.208C8.13177 236.106 6.39011 231.9 6.39011 227.515V21.4431C6.39011 19.2728 6.81757 17.1238 7.64809 15.1188C8.47861 13.1137 9.69593 11.2919 11.2305 9.75726C12.7651 8.22265 14.587 7.00534 16.592 6.17482C18.5971 5.3443 20.7461 4.91684 22.9163 4.91684H57.5258V5.04251C58.5312 8.65915 60.8422 11.0121 63.4115 11.0121H64.8847C67.4541 11.0121 69.7721 8.65915 70.7705 5.04251L70.8124 4.91684H105.443C109.828 4.91684 114.033 6.65872 117.133 9.7593C120.234 12.8599 121.976 17.0652 121.976 21.45V227.515Z" fill="#2065EA" stroke="#2065EA" stroke-linecap="round" stroke-linejoin="round"/>
<path d="M65.4362 5.73378C65.4362 5.4145 65.3414 5.1024 65.1639 4.83703C64.9864 4.57165 64.7341 4.36493 64.4389 4.24307C64.1438 4.12121 63.8192 4.08968 63.5061 4.15248C63.1931 4.21528 62.9057 4.36958 62.6805 4.59584C62.4552 4.82209 62.3021 5.11012 62.2407 5.42344C62.1792 5.73675 62.2122 6.06126 62.3353 6.35584C62.4585 6.65042 62.6663 6.90182 62.9324 7.0782C63.1986 7.25458 63.5111 7.34799 63.8303 7.34661C64.0418 7.34661 64.2512 7.30484 64.4465 7.22371C64.6418 7.14257 64.8191 7.02366 64.9683 6.8738C65.1175 6.72395 65.2357 6.54609 65.316 6.35046C65.3963 6.15482 65.4371 5.94525 65.4362 5.73378Z" fill="white"/>
<path d="M16.6606 11.9059C16.6606 13.5327 14.8313 14.1192 14.8244 15.3968V15.4806H16.5978V15.9624H14.2309V15.5016C14.2309 13.7561 16.0602 13.407 16.0602 11.8989C16.0602 11.3403 15.8786 11.0471 15.4318 11.0471C14.9849 11.0471 14.7964 11.3683 14.7964 11.843V12.3248H14.2309V11.9129C14.2309 11.089 14.6079 10.5165 15.4458 10.5165C16.2836 10.5165 16.6606 11.075 16.6606 11.9059Z" fill="#2065EA"/>
<path d="M19.6208 11.8988V12.0315C19.6465 12.2636 19.5966 12.4978 19.4783 12.6991C19.36 12.9004 19.1797 13.0581 18.9645 13.1486C19.1804 13.2381 19.3613 13.3956 19.4798 13.5972C19.5982 13.7988 19.6477 14.0335 19.6208 14.2657V14.6846C19.6208 15.5085 19.2298 16.081 18.3989 16.081C17.5681 16.081 17.1911 15.5434 17.1911 14.6846V14.3076H17.7496V14.7195C17.7496 15.2083 17.9521 15.5015 18.385 15.5015C18.8178 15.5015 19.0203 15.2152 19.0203 14.6637V14.2517C19.0203 13.7141 18.7899 13.4628 18.3221 13.4488H18.001V12.9042H18.357C18.4505 12.9051 18.5431 12.8859 18.6284 12.8477C18.7138 12.8096 18.7899 12.7534 18.8515 12.6832C18.9132 12.6129 18.9589 12.5301 18.9856 12.4406C19.0124 12.351 19.0194 12.2567 19.0064 12.1641V11.9198C19.0064 11.3612 18.8109 11.075 18.371 11.075C17.9311 11.075 17.7357 11.3822 17.7357 11.8639V12.1432H17.1771V11.8988C17.1771 11.068 17.5611 10.5024 18.385 10.5024C19.2088 10.5024 19.6208 11.075 19.6208 11.8988Z" fill="#2065EA"/>
<path d="M20.7867 12.3037V13.0508H20.2072V12.3037H20.7867ZM20.7867 15.2431V15.9622H20.2072V15.2641L20.7867 15.2431Z" fill="#2065EA"/>
<path d="M22.0088 12.7924C22.0878 12.6507 22.2048 12.5337 22.3467 12.4548C22.4885 12.3759 22.6496 12.338 22.8117 12.3456C23.5099 12.3456 23.8171 12.8553 23.8171 13.6233V14.6845C23.8171 15.5084 23.4261 16.0809 22.5953 16.0809C21.7644 16.0809 21.3874 15.5433 21.3874 14.6845V14.3215H21.9459V14.7195C21.9459 15.2082 22.1484 15.5014 22.5813 15.5014C23.0142 15.5014 23.2167 15.2082 23.2167 14.7195V13.6722C23.2167 13.1834 23.0142 12.8902 22.5813 12.8902C22.5031 12.8874 22.4252 12.9003 22.352 12.928C22.2789 12.9558 22.2121 12.998 22.1555 13.052C22.0989 13.106 22.0536 13.1707 22.0225 13.2425C21.9913 13.3142 21.9748 13.3915 21.9739 13.4697V13.5954H21.4083L21.555 10.5931H23.6495V11.1307H22.0577L22.0088 12.7924Z" fill="#2065EA"/>
<path d="M26.8122 11.8849V11.9896H26.2466V11.85C26.2466 11.3612 26.0511 11.075 25.6113 11.075C25.1714 11.075 24.955 11.3682 24.955 11.9477V13.1695C25.0168 12.9921 25.1347 12.8395 25.2909 12.735C25.4471 12.6304 25.6331 12.5796 25.8207 12.59C26.5189 12.59 26.8261 13.0927 26.8261 13.8677V14.6916C26.8261 15.5155 26.4212 16.088 25.5903 16.088C24.7595 16.088 24.3475 15.5504 24.3475 14.6916V11.8988C24.3475 11.0401 24.7385 10.5024 25.5903 10.5024C26.4421 10.5024 26.8122 11.075 26.8122 11.8849ZM24.955 13.9096V14.7195C24.955 15.2083 25.1505 15.5015 25.5903 15.5015C26.0302 15.5015 26.2327 15.2083 26.2327 14.7195V13.9096C26.2327 13.4209 26.0232 13.1276 25.5903 13.1276C25.1574 13.1276 24.955 13.4209 24.955 13.9096Z" fill="#2065EA"/>
<path d="M85.7747 12.1222H84.2527V15.9343H85.7747V12.1222Z" fill="#2065EA"/>
<path d="M87.8063 11.3613H86.2842V15.9345H87.8063V11.3613Z" fill="#2065EA"/>
<path d="M89.8381 10.8167H88.316V15.9344H89.8381V10.8167Z" fill="#2065EA"/>
<path d="M91.8768 9.87415H90.3547V15.9345H91.8768V9.87415Z" fill="#2065EA"/>
<path d="M110.749 15.8365H101.603V10.251H110.749V15.8365ZM102.105 15.3268H110.239V10.7467H102.105V15.3268Z" fill="#2065EA"/>
<path d="M107.698 11.3054H102.866V14.7754H107.698V11.3054Z" fill="#2065EA"/>
<path d="M111.58 12.3806H110.428V13.7002H111.58V12.3806Z" fill="#2065EA"/>
<path d="M98.2443 14.6149C98.1826 14.6161 98.1218 14.5991 98.0697 14.566C96.2055 13.4628 94.9767 14.4892 94.9209 14.566C94.8879 14.5959 94.8492 14.6189 94.8071 14.6334C94.765 14.648 94.7204 14.6538 94.676 14.6505C94.6316 14.6472 94.5883 14.635 94.5488 14.6144C94.5092 14.5939 94.4743 14.5655 94.4461 14.5311C94.4149 14.4999 94.3901 14.4629 94.3731 14.4222C94.3562 14.3815 94.3475 14.3378 94.3475 14.2937C94.3475 14.2496 94.3562 14.2059 94.3731 14.1652C94.3901 14.1244 94.4149 14.0874 94.4461 14.0563C94.5159 13.9935 96.0869 12.6599 98.3909 14.0144C98.4685 14.0609 98.5245 14.1361 98.5468 14.2238C98.569 14.3115 98.5557 14.4044 98.5096 14.4822C98.4789 14.5236 98.4389 14.5572 98.3928 14.5802C98.3467 14.6033 98.2958 14.6151 98.2443 14.6149Z" fill="#2065EA"/>
<path d="M98.9356 13.4698C98.8738 13.4719 98.8128 13.4548 98.761 13.4209C96.066 11.822 94.2577 13.365 94.2368 13.4209C94.2028 13.4507 94.1634 13.4735 94.1206 13.4881C94.0779 13.5026 94.0327 13.5086 93.9876 13.5057C93.9426 13.5028 93.8985 13.491 93.858 13.4711C93.8175 13.4511 93.7813 13.4234 93.7515 13.3895C93.7217 13.3556 93.6989 13.3161 93.6843 13.2733C93.6698 13.2306 93.6638 13.1854 93.6667 13.1404C93.6697 13.0953 93.6814 13.0513 93.7013 13.0107C93.7213 12.9702 93.749 12.934 93.7829 12.9042C93.7829 12.9042 95.9892 11.0191 99.1101 12.9042C99.1864 12.9519 99.2412 13.0272 99.2633 13.1143C99.2854 13.2015 99.2731 13.2938 99.2288 13.372C99.1902 13.4089 99.1438 13.4368 99.0931 13.4537C99.0424 13.4706 98.9887 13.4761 98.9356 13.4698Z" fill="#2065EA"/>
<path d="M99.5568 12.1361C99.4952 12.1365 99.4347 12.1196 99.3823 12.0872C95.9751 10.0624 93.706 11.9685 93.6082 12.0523C93.577 12.0846 93.5396 12.1103 93.4982 12.1278C93.4568 12.1454 93.4123 12.1544 93.3673 12.1544C93.3224 12.1544 93.2779 12.1454 93.2365 12.1278C93.1952 12.1103 93.1577 12.0846 93.1265 12.0523C93.0695 11.9841 93.0413 11.8964 93.0478 11.8078C93.0543 11.7192 93.0951 11.6366 93.1614 11.5775C93.1614 11.5775 95.8774 9.24555 99.7314 11.5356C99.809 11.5821 99.865 11.6574 99.8873 11.745C99.9095 11.8327 99.8961 11.9256 99.8501 12.0034C99.8167 12.0489 99.7722 12.0849 99.7208 12.1082C99.6695 12.1314 99.613 12.141 99.5568 12.1361Z" fill="#2065EA"/>
<path d="M97.218 15.1874C97.2194 15.3575 97.1702 15.5242 97.0767 15.6664C96.9832 15.8085 96.8495 15.9197 96.6928 15.9857C96.536 16.0518 96.3631 16.0698 96.196 16.0375C96.029 16.0051 95.8753 15.9239 95.7545 15.8041C95.6337 15.6843 95.5512 15.5312 95.5175 15.3645C95.4838 15.1977 95.5004 15.0247 95.5652 14.8673C95.63 14.71 95.74 14.5755 95.8814 14.4808C96.0228 14.3861 96.1891 14.3356 96.3592 14.3356C96.5858 14.3356 96.8032 14.4251 96.964 14.5846C97.1249 14.7442 97.2162 14.9608 97.218 15.1874Z" fill="#2065EA"/>
<path d="M45.0981 94.6222C45.9957 94.6222 46.8592 94.7727 47.6887 95.0738C48.5238 95.3749 49.268 95.855 49.9213 96.514C50.5804 97.173 51.1002 98.0479 51.4808 99.1386C51.8671 100.224 52.0631 101.556 52.0688 103.135C52.0688 104.618 51.9012 105.942 51.566 107.106C51.2365 108.265 50.7621 109.251 50.1429 110.063C49.5237 110.876 48.7766 111.495 47.9017 111.921C47.0268 112.341 46.0497 112.552 44.9703 112.552C43.8057 112.552 42.7774 112.327 41.8855 111.878C40.9935 111.424 40.2749 110.808 39.7295 110.029C39.1898 109.245 38.8631 108.365 38.7495 107.388H42.3882C42.5303 108.024 42.8285 108.518 43.283 108.87C43.7375 109.217 44.2999 109.39 44.9703 109.39C46.1065 109.39 46.97 108.896 47.5609 107.907C48.1517 106.913 48.4499 105.553 48.4556 103.826H48.3363C48.075 104.337 47.7228 104.777 47.2796 105.146C46.8365 105.51 46.3281 105.791 45.7543 105.99C45.1862 106.189 44.5811 106.288 43.9392 106.288C42.9109 106.288 41.9934 106.047 41.1867 105.564C40.38 105.081 39.7437 104.416 39.2778 103.57C38.812 102.723 38.5791 101.758 38.5791 100.673C38.5734 99.5022 38.8432 98.4597 39.3886 97.5451C39.934 96.6304 40.6953 95.9146 41.6724 95.3976C42.6552 94.875 43.7971 94.6165 45.0981 94.6222ZM45.1237 97.5195C44.5499 97.5195 44.0386 97.6559 43.5898 97.9286C43.1467 98.2012 42.7944 98.5677 42.5331 99.0278C42.2775 99.488 42.1525 100.002 42.1581 100.57C42.1581 101.144 42.2831 101.661 42.5331 102.121C42.7888 102.576 43.1353 102.939 43.5727 103.212C44.0159 103.479 44.5215 103.612 45.0896 103.612C45.5157 103.612 45.9105 103.533 46.2741 103.374C46.6377 103.215 46.953 102.996 47.22 102.718C47.4927 102.434 47.7057 102.107 47.8591 101.738C48.0125 101.368 48.0892 100.976 48.0892 100.562C48.0835 100.011 47.9529 99.5051 47.6972 99.0449C47.4416 98.5847 47.0893 98.2154 46.6405 97.9371C46.1917 97.6587 45.6861 97.5195 45.1237 97.5195Z" fill="#2065EA"/>
<path d="M61.4681 112.697C60.0024 112.691 58.7412 112.33 57.6845 111.614C56.6335 110.898 55.824 109.862 55.2559 108.504C54.6935 107.146 54.4151 105.513 54.4208 103.604C54.4208 101.701 54.702 100.079 55.2644 98.7381C55.8325 97.3974 56.6421 96.3776 57.6931 95.6788C58.7498 94.9744 60.0081 94.6222 61.4681 94.6222C62.9282 94.6222 64.1837 94.9744 65.2347 95.6788C66.2914 96.3833 67.1038 97.4059 67.6719 98.7466C68.24 100.082 68.5212 101.701 68.5155 103.604C68.5155 105.518 68.2315 107.155 67.6634 108.512C67.1009 109.87 66.2942 110.907 65.2432 111.623C64.1922 112.339 62.9339 112.697 61.4681 112.697ZM61.4681 109.637C62.468 109.637 63.2662 109.134 63.8627 108.129C64.4592 107.123 64.7547 105.615 64.749 103.604C64.749 102.28 64.6126 101.178 64.3399 100.298C64.0729 99.417 63.6923 98.7551 63.198 98.312C62.7095 97.8689 62.1328 97.6473 61.4681 97.6473C60.474 97.6473 59.6786 98.1444 59.0821 99.1386C58.4856 100.133 58.1845 101.621 58.1788 103.604C58.1788 104.945 58.3123 106.064 58.5793 106.961C58.852 107.853 59.2355 108.524 59.7297 108.973C60.224 109.416 60.8035 109.637 61.4681 109.637Z" fill="#2065EA"/>
<path d="M85.6909 105.999H76.3938V103.042H85.5886C86.2817 103.042 86.8498 102.939 87.2929 102.735C87.7361 102.53 88.0627 102.24 88.2729 101.866C88.4831 101.491 88.5882 101.047 88.5882 100.536C88.5882 100.036 88.4831 99.5846 88.2729 99.1812C88.0627 98.7779 87.7417 98.4569 87.31 98.2183C86.8782 97.9797 86.3385 97.8604 85.6909 97.8604H82.5379V112.313H78.8736V94.8608H85.6909C87.0714 94.8608 88.253 95.1079 89.2359 95.6021C90.2244 96.0907 90.98 96.7611 91.5026 97.6133C92.0253 98.4597 92.2838 99.4198 92.2781 100.494C92.2838 101.618 92.0196 102.593 91.4856 103.416C90.9516 104.24 90.1903 104.877 89.2018 105.325C88.2133 105.774 87.043 105.999 85.6909 105.999ZM86.347 107.123V110.08H76.3938V107.123H86.347Z" fill="#2065EA"/>
<path d="M42.614 156.142C42.614 156.937 42.4632 157.614 42.1615 158.173C41.8622 158.731 41.4537 159.157 40.9359 159.452C40.4205 159.744 39.8409 159.89 39.1972 159.89C38.5488 159.89 37.9668 159.743 37.4514 159.448C36.936 159.154 36.5286 158.727 36.2293 158.169C35.9301 157.611 35.7804 156.935 35.7804 156.142C35.7804 155.346 35.9301 154.669 36.2293 154.111C36.5286 153.553 36.936 153.128 37.4514 152.835C37.9668 152.541 38.5488 152.394 39.1972 152.394C39.8409 152.394 40.4205 152.541 40.9359 152.835C41.4537 153.128 41.8622 153.553 42.1615 154.111C42.4632 154.669 42.614 155.346 42.614 156.142ZM41.0499 156.142C41.0499 155.626 40.9727 155.192 40.8183 154.838C40.6663 154.484 40.4513 154.215 40.1734 154.032C39.8955 153.85 39.5701 153.758 39.1972 153.758C38.8243 153.758 38.4989 153.85 38.221 154.032C37.9431 154.215 37.7269 154.484 37.5725 154.838C37.4205 155.192 37.3445 155.626 37.3445 156.142C37.3445 156.657 37.4205 157.092 37.5725 157.446C37.7269 157.8 37.9431 158.068 38.221 158.251C38.4989 158.434 38.8243 158.525 39.1972 158.525C39.5701 158.525 39.8955 158.434 40.1734 158.251C40.4513 158.068 40.6663 157.8 40.8183 157.446C40.9727 157.092 41.0499 156.657 41.0499 156.142Z" fill="#2065EA"/>
<path d="M49.9597 152.493V159.79H48.4348V153.747H45.4848V159.79H43.9599V152.493H49.9597Z" fill="#2065EA"/>
<path d="M51.0331 159.79V158.55L51.2397 158.532C51.5057 158.511 51.7207 158.41 51.8846 158.23C52.0485 158.047 52.1708 157.756 52.2516 157.357C52.3347 156.955 52.3881 156.416 52.4119 155.739L52.533 152.493H57.4854V159.79H55.9854V153.73H53.9653L53.8513 156.27C53.8133 157.087 53.7159 157.754 53.5591 158.272C53.4047 158.79 53.1577 159.173 52.8181 159.42C52.4808 159.667 52.0188 159.79 51.4321 159.79H51.0331Z" fill="#2065EA"/>
<path d="M60.015 159.79H58.3619L60.8808 152.493H62.8689L65.3843 159.79H63.7311L61.9034 154.161H61.8464L60.015 159.79ZM59.9117 156.922H63.8166V158.126H59.9117V156.922Z" fill="#2065EA"/>
<path d="M65.093 153.765V152.493H71.0858V153.765H68.8518V159.79H67.3269V153.765H65.093Z" fill="#2065EA"/>
<path d="M72.0727 152.493H73.6118V157.082H73.6724L76.8255 152.493H78.1759V159.79H76.6331V155.198H76.5797L73.4088 159.79H72.0727V152.493Z" fill="#2065EA"/>
<path d="M79.1726 153.765V152.493H85.1653V153.765H82.9314V159.79H81.4065V153.765H79.1726Z" fill="#2065EA"/>
<path d="M87.1676 155.19H88.9063C89.4859 155.19 89.9847 155.284 90.4027 155.472C90.8232 155.657 91.1474 155.92 91.3754 156.259C91.6034 156.599 91.7162 156.999 91.7139 157.46C91.7162 157.918 91.6034 158.323 91.3754 158.675C91.1474 159.024 90.8232 159.297 90.4027 159.494C89.9847 159.691 89.4859 159.79 88.9063 159.79H86.1807V152.493H87.7199V158.55H88.9063C89.1842 158.55 89.4182 158.5 89.6082 158.401C89.7982 158.298 89.9419 158.164 90.0393 157.998C90.1391 157.829 90.1878 157.645 90.1854 157.446C90.1878 157.156 90.0785 156.911 89.8576 156.712C89.6391 156.51 89.322 156.409 88.9063 156.409H87.1676V155.19Z" fill="#2065EA"/>
</svg>
