<svg width="346" height="318" viewBox="0 0 346 318" fill="none" xmlns="http://www.w3.org/2000/svg" id="exam-print" >
<path d="M282.94 63.4405C282.94 63.4405 268.749 61.8953 261.796 64.736C254.843 67.5767 248.08 90.0407 248.163 91.8592C248.246 93.6777 243.932 116.368 243.932 116.368L209.273 112.576C209.273 112.576 202.617 106.479 196.282 107.667C189.947 108.856 186.096 112.671 186.607 115.987C187.118 119.303 190.434 124.402 191.563 125.08C192.692 125.757 196.935 122.703 196.935 122.703C196.935 122.703 203.342 123.344 205.327 122.703C207.312 122.061 210.176 120.86 210.176 120.86C210.176 120.86 230.073 129.299 239.082 130.916C248.092 132.532 251.075 133.863 253.345 132.485C255.615 131.106 262.438 102.342 263.9 98.016C265.361 93.6896 258.919 91.8949 258.919 91.8949C258.919 91.8949 254.534 102.473 254.534 105.052C254.534 107.632 258.658 113.562 260.476 115.619C262.295 117.675 262.794 121.811 262.794 121.811C262.794 121.811 261.511 129.549 260.999 135.729C260.488 141.91 252.739 147.615 250.16 168.736C247.58 189.857 249.137 205.582 254.545 223.41C259.953 241.239 260.488 244.555 260.488 244.555C260.488 244.555 261.261 263.382 263.84 275.755C266.419 288.128 274.537 324.486 274.3 328.611C274.062 332.735 262.307 348.614 259.466 350.682C256.625 352.75 253.797 354.545 254.569 355.318C255.342 356.09 264.886 355.579 268.749 354.807C272.612 354.034 275.714 347.842 280.361 345.785C285.009 343.729 289.121 343.408 289.121 339.593C289.121 335.778 285.555 332.366 285.258 325.663C284.961 318.959 284.735 281.056 284.735 281.056C284.735 281.056 299.949 323.345 301.244 329.015C302.54 334.684 295.563 348.876 296.348 353.511C297.132 358.147 300.983 358.158 306.141 354.545C311.3 350.932 310.266 328.504 309.493 322.062C308.721 315.619 304.073 287.51 303.55 269.764C303.027 252.019 296.074 241.916 296.074 241.916C296.074 241.916 311.526 206.853 313.606 192.412C315.554 177.13 313.968 161.605 308.97 147.033C306.022 138.955 305.135 130.27 306.391 121.764C306.391 119.957 316.185 103.46 319.025 89.7911C321.866 76.1225 321.605 73.2818 317.219 67.8738C312.833 62.4658 282.94 63.4405 282.94 63.4405Z" fill="white"/>
<mask id="mask0_313_14" style="mask-type:luminance" maskUnits="userSpaceOnUse" x="186" y="63" width="135" height="295">
<path d="M282.94 63.4405C282.94 63.4405 268.749 61.8953 261.796 64.736C254.843 67.5767 248.08 90.0407 248.163 91.8592C248.246 93.6777 243.932 116.368 243.932 116.368L209.273 112.576C209.273 112.576 202.617 106.479 196.282 107.667C189.947 108.856 186.096 112.671 186.607 115.987C187.118 119.303 190.434 124.402 191.563 125.08C192.692 125.757 196.935 122.703 196.935 122.703C196.935 122.703 203.342 123.344 205.327 122.703C207.312 122.061 210.176 120.86 210.176 120.86C210.176 120.86 230.073 129.299 239.082 130.916C248.092 132.532 251.075 133.863 253.345 132.485C255.615 131.106 262.438 102.342 263.9 98.016C265.361 93.6896 258.919 91.8949 258.919 91.8949C258.919 91.8949 254.534 102.473 254.534 105.052C254.534 107.632 258.658 113.562 260.476 115.619C262.295 117.675 262.794 121.811 262.794 121.811C262.794 121.811 261.511 129.549 260.999 135.729C260.488 141.91 252.739 147.615 250.16 168.736C247.58 189.857 249.137 205.582 254.545 223.41C259.953 241.239 260.488 244.555 260.488 244.555C260.488 244.555 261.261 263.382 263.84 275.755C266.419 288.128 274.537 324.486 274.3 328.611C274.062 332.735 262.307 348.614 259.466 350.682C256.625 352.75 253.797 354.545 254.569 355.318C255.342 356.09 264.886 355.579 268.749 354.807C272.612 354.034 275.714 347.842 280.361 345.785C285.009 343.729 289.121 343.408 289.121 339.593C289.121 335.778 285.555 332.366 285.258 325.663C284.961 318.959 284.735 281.056 284.735 281.056C284.735 281.056 299.949 323.345 301.244 329.015C302.54 334.684 295.563 348.876 296.348 353.511C297.132 358.147 300.983 358.158 306.141 354.545C311.3 350.932 310.266 328.504 309.493 322.062C308.721 315.619 304.073 287.51 303.55 269.764C303.027 252.019 296.074 241.916 296.074 241.916C296.074 241.916 311.526 206.853 313.606 192.412C315.554 177.13 313.968 161.605 308.97 147.033C306.022 138.955 305.135 130.27 306.391 121.764C306.391 119.957 316.185 103.46 319.025 89.7911C321.866 76.1225 321.605 73.2818 317.219 67.8738C312.833 62.4658 282.94 63.4405 282.94 63.4405Z" fill="white"/>
</mask>
<g mask="url(#mask0_313_14)">
<path d="M282.94 63.4405C282.94 63.4405 268.749 61.8953 261.796 64.736C254.843 67.5767 248.08 90.0407 248.163 91.8592C248.246 93.6777 243.932 116.368 243.932 116.368L209.273 112.576C209.273 112.576 202.617 106.479 196.282 107.667C189.947 108.856 186.096 112.671 186.607 115.987C187.118 119.303 190.434 124.402 191.563 125.08C192.692 125.757 196.935 122.703 196.935 122.703C196.935 122.703 203.342 123.344 205.327 122.703C207.312 122.061 210.176 120.86 210.176 120.86C210.176 120.86 230.073 129.299 239.082 130.916C248.092 132.532 251.075 133.863 253.345 132.485C255.615 131.106 262.438 102.342 263.9 98.016C265.361 93.6896 258.919 91.8949 258.919 91.8949C258.919 91.8949 254.534 102.473 254.534 105.052C254.534 107.632 258.658 113.562 260.476 115.619C262.295 117.675 262.794 121.811 262.794 121.811C262.794 121.811 261.511 129.549 260.999 135.729C260.488 141.91 252.739 147.615 250.16 168.736C247.58 189.857 249.137 205.582 254.545 223.41C259.953 241.239 260.488 244.555 260.488 244.555C260.488 244.555 261.261 263.382 263.84 275.755C266.419 288.128 274.537 324.486 274.3 328.611C274.062 332.735 262.307 348.614 259.466 350.682C256.625 352.75 253.797 354.545 254.569 355.318C255.342 356.09 264.886 355.579 268.749 354.807C272.612 354.034 275.714 347.842 280.361 345.785C285.009 343.729 289.121 343.408 289.121 339.593C289.121 335.778 285.555 332.366 285.258 325.663C284.961 318.959 284.735 281.056 284.735 281.056C284.735 281.056 299.949 323.345 301.244 329.015C302.54 334.684 295.563 348.876 296.348 353.511C297.132 358.147 300.983 358.158 306.141 354.545C311.3 350.932 310.266 328.504 309.493 322.062C308.721 315.619 304.073 287.51 303.55 269.764C303.027 252.019 296.074 241.916 296.074 241.916C296.074 241.916 311.526 206.853 313.606 192.412C315.554 177.13 313.968 161.605 308.97 147.033C306.022 138.955 305.135 130.27 306.391 121.764C306.391 119.957 316.185 103.46 319.025 89.7911C321.866 76.1225 321.605 73.2818 317.219 67.8738C312.833 62.4658 282.94 63.4405 282.94 63.4405Z" fill="#E7E9EC"/>
</g>
<path d="M282.94 63.4405C282.94 63.4405 268.749 61.8953 261.796 64.736C254.843 67.5767 248.08 90.0407 248.163 91.8592C248.246 93.6777 243.932 116.368 243.932 116.368L209.273 112.576C209.273 112.576 202.617 106.479 196.282 107.667C189.947 108.856 186.096 112.671 186.607 115.987C187.118 119.303 190.434 124.402 191.563 125.08C192.692 125.757 196.935 122.703 196.935 122.703C196.935 122.703 203.342 123.344 205.327 122.703C207.312 122.061 210.176 120.86 210.176 120.86C210.176 120.86 230.073 129.299 239.082 130.916C248.092 132.532 251.075 133.863 253.345 132.485C255.615 131.106 262.438 102.342 263.9 98.016C265.361 93.6896 258.919 91.8949 258.919 91.8949C258.919 91.8949 254.534 102.473 254.534 105.052C254.534 107.632 258.658 113.562 260.476 115.619C262.295 117.675 262.794 121.811 262.794 121.811C262.794 121.811 261.511 129.549 260.999 135.729C260.488 141.91 252.739 147.615 250.16 168.736C247.58 189.857 249.137 205.582 254.545 223.41C259.953 241.239 260.488 244.555 260.488 244.555C260.488 244.555 261.261 263.382 263.84 275.755C266.419 288.128 274.537 324.486 274.3 328.611C274.062 332.735 262.307 348.614 259.466 350.682C256.625 352.75 253.797 354.545 254.569 355.318C255.342 356.09 264.886 355.579 268.749 354.807C272.612 354.034 275.714 347.842 280.361 345.785C285.009 343.729 289.121 343.408 289.121 339.593C289.121 335.778 285.555 332.366 285.258 325.663C284.961 318.959 284.735 281.056 284.735 281.056C284.735 281.056 299.949 323.345 301.244 329.015C302.54 334.684 295.563 348.876 296.348 353.511C297.132 358.147 300.983 358.158 306.141 354.545C311.3 350.932 310.266 328.504 309.493 322.062C308.721 315.619 304.073 287.51 303.55 269.764C303.027 252.019 296.074 241.916 296.074 241.916C296.074 241.916 311.526 206.853 313.606 192.412C315.554 177.13 313.968 161.605 308.97 147.033C306.022 138.955 305.135 130.27 306.391 121.764C306.391 119.957 316.185 103.46 319.025 89.7911C321.866 76.1225 321.605 73.2818 317.219 67.8738C312.833 62.4658 282.94 63.4405 282.94 63.4405Z" stroke="#6D798F" stroke-width="1.1186" stroke-linecap="round" stroke-linejoin="round"/>
<path d="M260.5 115.524C262.307 117.592 262.818 121.716 262.818 121.716C262.818 121.716 261.534 129.454 261.023 135.634C260.524 141.577 253.5 146.961 250.6 165.717C255.473 169.639 265.932 176.022 282.691 176.414C293.316 176.569 303.912 175.278 314.188 172.575C313.573 163.868 311.827 155.277 308.994 147.021C306.046 138.943 305.159 130.258 306.415 121.752C306.415 119.945 316.209 103.448 319.049 89.7792C321.89 76.1106 321.629 73.27 317.243 67.862C312.857 62.454 282.952 63.4761 282.952 63.4761C282.952 63.4761 268.761 61.931 261.808 64.7717C254.855 67.6123 248.092 90.0763 248.175 91.8949C248.258 93.7134 243.932 116.368 243.932 116.368L232.985 115.179C233.704 117.663 233.982 120.254 233.805 122.833C233.419 124.943 232.688 126.975 231.642 128.848C234.079 129.657 236.564 130.316 239.082 130.821C248.092 132.437 251.075 133.768 253.345 132.389C254.534 131.7 256.756 124.236 258.908 116.379L260.5 115.524Z" fill="#CED2DA" stroke="#6D798F" stroke-width="1.1186" stroke-linecap="round" stroke-linejoin="round"/>
<path d="M275.476 113.658C275.476 113.658 278.864 120.991 292.96 122.679" stroke="#6D798F" stroke-width="1.1186" stroke-linecap="round" stroke-linejoin="round"/>
<path d="M255.604 78.3927L258.955 91.7998C258.955 91.7998 254.569 102.378 254.569 104.957C254.569 107.536 258.694 113.467 260.512 115.524" stroke="#6D798F" stroke-width="1.1186" stroke-linecap="round" stroke-linejoin="round"/>
<path d="M313.273 104.339L305.369 94.4741" stroke="#6D798F" stroke-width="1.1186" stroke-linecap="round" stroke-linejoin="round"/>
<path d="M196.935 122.548C196.935 122.548 197.221 120.718 194.38 118.471" stroke="#6D798F" stroke-width="1.1186" stroke-linecap="round" stroke-linejoin="round"/>
<path d="M200.157 107.691C200.157 107.691 191.837 104.209 190.398 105.314C188.96 106.419 186.393 109.688 183.778 112.54C181.163 115.393 183.885 115.096 186.155 113.729C188.425 112.362 191.991 109.64 191.991 109.64L193.976 109.01" fill="white"/>
<mask id="mask1_313_14" style="mask-type:luminance" maskUnits="userSpaceOnUse" x="182" y="105" width="19" height="10">
<path d="M200.157 107.691C200.157 107.691 191.837 104.209 190.398 105.314C188.96 106.419 186.393 109.688 183.778 112.54C181.163 115.393 183.885 115.096 186.155 113.729C188.425 112.362 191.991 109.64 191.991 109.64L193.976 109.01" fill="white"/>
</mask>
<g mask="url(#mask1_313_14)">
<path d="M200.157 107.691C200.157 107.691 191.837 104.209 190.398 105.314C188.96 106.419 186.393 109.688 183.778 112.54C181.163 115.393 183.885 115.096 186.155 113.729C188.425 112.362 191.991 109.64 191.991 109.64L193.976 109.01" fill="#E7E9EC"/>
</g>
<path d="M200.157 107.691C200.157 107.691 191.837 104.209 190.398 105.314C188.96 106.419 186.393 109.688 183.778 112.54C181.163 115.393 183.885 115.096 186.155 113.729C188.425 112.362 191.991 109.64 191.991 109.64L193.976 109.01" stroke="#6D798F" stroke-width="1.1186" stroke-linecap="round" stroke-linejoin="round"/>
<path d="M203.187 115.179L207.157 123.499C207.157 123.499 182.28 122.061 163.18 124.581C144.08 127.1 141.56 127.825 141.56 127.825L145.126 123.142C156.746 118.894 168.882 116.216 181.211 115.179C200.668 113.741 203.187 115.179 203.187 115.179Z" fill="white" stroke="#6D798F" stroke-width="1.1186" stroke-miterlimit="10"/>
<path d="M294.683 103.269H259.312V151.965H294.683V103.269Z" fill="white" stroke="#6D798F" stroke-width="1.1186" stroke-miterlimit="10"/>
<path d="M313.261 164.457C301.196 166.904 288.748 166.75 276.748 164.006C268.5 162.184 260.406 159.728 252.537 156.66C251.438 160.587 250.643 164.592 250.16 168.641C247.592 189.786 249.137 205.487 254.545 223.315C259.953 241.144 260.488 244.46 260.488 244.46C260.488 244.46 261.261 263.287 263.84 275.66C265.397 283.112 269.236 304.625 272.588 318.377C276.154 319.423 279.517 319.435 285.032 317.117C284.854 303.615 284.723 281.068 284.723 281.068C284.723 281.068 291.974 301.202 296.882 315.536C300.754 316.136 304.714 315.79 308.423 314.526C306.783 303.187 303.942 283.409 303.55 269.717C303.039 251.888 296.074 241.869 296.074 241.869C296.074 241.869 311.525 206.806 313.605 192.365C314.824 183.094 314.708 173.695 313.261 164.457Z" fill="#6D798F" stroke="#6D798F" stroke-width="1.1186" stroke-linecap="round" stroke-linejoin="round"/>
<path d="M281.918 274.614C282.691 276.991 283.19 278.477 283.19 278.477" stroke="white" stroke-width="1.1186" stroke-linecap="round" stroke-linejoin="round"/>
<path d="M278.032 178.435C278.032 178.435 271.59 236.199 274.169 247.8C275.595 254.218 278.21 262.93 280.254 269.432" stroke="white" stroke-width="1.1186" stroke-linecap="round" stroke-linejoin="round"/>
<path d="M277.532 181.157L268.048 173.478" stroke="white" stroke-width="1.1186" stroke-linecap="round" stroke-linejoin="round"/>
<path d="M282.679 51.5785C282.328 56.1795 281.637 60.7482 280.611 65.2471C279.066 71.4395 273.658 84.8466 274.431 88.7094C275.203 92.5723 286.031 85.8688 292.473 78.1431C298.915 70.4173 300.211 64.9856 299.7 60.5998C299.189 56.2139 297.097 42.9138 292.2 42.9138C287.303 42.9138 282.679 51.5785 282.679 51.5785Z" fill="white"/>
<mask id="mask2_313_14" style="mask-type:luminance" maskUnits="userSpaceOnUse" x="274" y="42" width="26" height="48">
<path d="M282.679 51.5785C282.328 56.1795 281.637 60.7482 280.611 65.2471C279.066 71.4395 273.658 84.8466 274.431 88.7094C275.203 92.5723 286.031 85.8688 292.473 78.1431C298.915 70.4173 300.211 64.9856 299.7 60.5998C299.189 56.2139 297.097 42.9138 292.2 42.9138C287.303 42.9138 282.679 51.5785 282.679 51.5785Z" fill="white"/>
</mask>
<g mask="url(#mask2_313_14)">
<path d="M282.679 51.5786C282.328 56.1795 281.637 60.7482 280.611 65.2471C279.066 71.4396 273.658 84.8466 274.43 88.7095C275.203 92.5724 286.031 85.8688 292.473 78.1431C298.915 70.4174 300.211 64.9856 299.7 60.5998C299.188 56.214 295.314 46.6816 290.417 46.6816C285.52 46.6816 282.679 51.5786 282.679 51.5786Z" fill="#E7E9EC"/>
</g>
<path d="M282.679 51.5785C282.328 56.1795 281.637 60.7482 280.611 65.2471C279.066 71.4395 273.658 84.8466 274.431 88.7094C275.203 92.5723 286.031 85.8688 292.473 78.1431C298.915 70.4173 300.211 64.9856 299.7 60.5998C299.189 56.2139 297.097 42.9138 292.2 42.9138C287.303 42.9138 282.679 51.5785 282.679 51.5785Z" stroke="#6D798F" stroke-width="1.1186" stroke-linecap="round" stroke-linejoin="round"/>
<path d="M290.666 49.5223C290.666 49.5223 290.928 60.8613 296.609 63.9516C302.291 67.0419 313.891 67.3152 318.004 71.1781C322.116 75.0409 329.343 97.9922 330.115 95.9241C330.888 93.856 330.115 83.3015 325.741 74.2684C321.367 65.2352 317.481 63.9516 320.06 54.9303C322.639 45.9091 322.187 23.8849 316.494 10.3233C313.321 2.81151 291.475 -1.01569 283.487 2.07459C278.832 3.79089 274.726 6.73084 271.602 10.5848C271.602 10.5848 263.603 9.03962 263.603 14.1505C263.603 19.2613 270.318 25.7509 275.215 25.7509C280.112 25.7509 279.85 13.3779 284.236 18.5244C288.622 23.6709 292.461 37.3514 290.666 49.5223Z" fill="#6D798F" stroke="#6D798F" stroke-width="1.1186" stroke-linecap="round" stroke-linejoin="round"/>
<path d="M296.027 13.9247C297.4 17.2931 298.13 20.8893 298.178 24.5267C298.808 38.1002 296.597 50.7466 301.34 56.7489C306.082 62.7512 313.665 62.4302 319.667 66.8517" stroke="white" stroke-width="1.1186" stroke-linecap="round" stroke-linejoin="round"/>
<path d="M291.867 9.03955C292.668 9.38451 293.377 9.91394 293.935 10.5847" stroke="white" stroke-width="1.1186" stroke-linecap="round" stroke-linejoin="round"/>
<path d="M303.871 6.82886C303.871 6.82886 307.663 14.1029 307.663 27.0346C307.663 39.9662 303.229 51.6736 306.391 56.7488C308.582 59.9669 311.651 62.4877 315.234 64.011" stroke="white" stroke-width="1.1186" stroke-linecap="round" stroke-linejoin="round"/>
<path d="M277.01 48.2268C277.01 48.2268 277.521 57.5096 273.444 63.1791C269.367 68.8485 263.032 74.0188 265.92 80.7105C268.809 87.4021 269.783 87.9251 270.045 84.8348C270.306 81.7445 269.011 78.892 275.988 74.0069C282.965 69.1219 283.725 56.4636 283.975 51.0556C284.224 45.6476 278.293 45.6476 277.01 48.2268Z" fill="#6D798F" stroke="#6D798F" stroke-width="1.1186" stroke-linecap="round" stroke-linejoin="round"/>
<path d="M279.137 13.2947C279.137 13.2947 274.324 12.427 271.305 21.3294C269.89 25.4894 273.052 27.4743 273.052 32.609C273.052 34.0353 270.461 37.2682 270.984 39.9187C272.089 45.4455 276.546 55.1799 279.72 55.6553C285.211 56.4755 291.807 48.3456 291.807 48.3456C291.807 48.3456 295.278 32.7635 290.179 26.5948L279.137 13.2947Z" fill="white"/>
<mask id="mask3_313_14" style="mask-type:luminance" maskUnits="userSpaceOnUse" x="270" y="13" width="23" height="43">
<path d="M279.138 13.2947C279.138 13.2947 274.324 12.427 271.305 21.3294C269.89 25.4894 273.052 27.4743 273.052 32.609C273.052 34.0353 270.461 37.2682 270.984 39.9187C272.089 45.4455 276.547 55.1799 279.72 55.6553C285.211 56.4755 291.808 48.3456 291.808 48.3456C291.808 48.3456 295.278 32.7635 290.179 26.5948L279.138 13.2947Z" fill="white"/>
</mask>
<g mask="url(#mask3_313_14)">
<path d="M281.681 12.7242C281.681 12.7242 274.324 12.427 271.305 21.3294C269.89 25.4894 273.052 27.4743 273.052 32.609C273.052 34.0353 270.461 37.2682 270.984 39.9187C272.089 45.4455 276.547 55.1799 279.72 55.6554C285.211 56.4755 291.808 48.3456 291.808 48.3456C293.555 43.0577 294.532 37.5455 294.708 31.979C294.708 23.9681 281.681 12.7242 281.681 12.7242Z" fill="#E7E9EC"/>
<path d="M278.578 32.2642C278.578 32.2642 277.021 37.4225 275.821 38.3853C275.821 38.3853 275.94 39.5739 277.01 39.7046C278.079 39.8353 278.079 39.348 278.804 39.5857" stroke="#6D798F" stroke-width="0.838949" stroke-linecap="round" stroke-linejoin="round"/>
<path d="M285.271 31.2658C285.271 32.3236 284.878 33.1794 284.391 33.1794C283.904 33.1794 283.523 32.3236 283.523 31.2658C283.523 30.208 283.916 29.3403 284.391 29.3403C284.867 29.3403 285.271 30.1961 285.271 31.2658Z" fill="#6D798F"/>
<path d="M276.701 31.2658C276.701 32.3236 276.308 33.1794 275.833 33.1794C275.357 33.1794 274.953 32.3236 274.953 31.2658C274.953 30.208 275.346 29.3403 275.833 29.3403C276.32 29.3403 276.701 30.1961 276.701 31.2658Z" fill="#6D798F"/>
<path d="M274.015 27.5219C274.015 27.5219 274.383 25.3349 277.117 26.6186" stroke="#6D798F" stroke-width="0.838949" stroke-linecap="round" stroke-linejoin="round"/>
<path d="M281.681 27.3436C281.681 27.3436 283.321 24.4316 287.517 28.2588" stroke="#6D798F" stroke-width="0.838949" stroke-linecap="round" stroke-linejoin="round"/>
<path d="M277.462 44.0191C277.462 44.0191 280.385 45.1126 284.938 42.3789" stroke="#6D798F" stroke-width="0.838949" stroke-linecap="round" stroke-linejoin="round"/>
</g>
<path d="M279.137 13.2947C279.137 13.2947 274.324 12.427 271.305 21.3294C269.89 25.4894 273.052 27.4743 273.052 32.609C273.052 34.0353 270.461 37.2682 270.984 39.9187C272.089 45.4455 276.546 55.1799 279.72 55.6553C285.211 56.4755 291.807 48.3457 291.807 48.3457C291.807 48.3457 295.278 32.7635 290.179 26.5948L279.137 13.2947Z" stroke="#6D798F" stroke-width="1.1186" stroke-linecap="round" stroke-linejoin="round"/>
<path d="M309.232 90.7777L322.9 124.295C322.9 124.295 322.128 126.875 306.653 128.681C291.177 130.488 281.693 128.931 279.066 128.42C276.439 127.909 271.851 121.716 268.749 121.193C265.754 120.864 262.737 120.781 259.728 120.944C257.351 120.944 257.149 122.489 258.183 123.523C259.079 124.22 260.146 124.664 261.273 124.806L261.796 125.841C261.796 125.841 255.853 125.329 255.342 127.124C254.831 128.919 257.149 130.476 258.183 130.69C259.217 130.904 261.273 135.076 262.818 136.359C264.363 137.643 268.499 137.655 273.658 137.655C276.854 137.638 280.041 137.291 283.166 136.621C283.166 136.621 299.153 139.2 314.628 140.187C330.103 141.173 343.249 137.346 344.532 135.801C345.816 134.256 333.217 102.105 330.115 95.9242C327.013 89.7436 323.934 72.9848 318.776 69.633C313.618 66.2812 307.948 69.11 307.948 69.11" fill="#CED2DA"/>
<path d="M309.232 90.7777L322.9 124.295C322.9 124.295 322.128 126.875 306.653 128.681C291.177 130.488 281.693 128.931 279.066 128.42C276.439 127.909 271.851 121.716 268.749 121.193C265.754 120.864 262.737 120.781 259.728 120.944C257.351 120.944 257.149 122.489 258.183 123.523C259.079 124.22 260.146 124.664 261.273 124.806L261.796 125.841C261.796 125.841 255.853 125.329 255.342 127.124C254.831 128.919 257.149 130.476 258.183 130.69C259.217 130.904 261.273 135.076 262.818 136.359C264.363 137.643 268.499 137.655 273.658 137.655C276.854 137.638 280.041 137.291 283.166 136.621C283.166 136.621 299.153 139.2 314.628 140.187C330.103 141.173 343.249 137.346 344.532 135.801C345.816 134.256 333.217 102.105 330.115 95.9242C327.013 89.7436 323.934 72.9848 318.776 69.633C313.618 66.2812 307.948 69.11 307.948 69.11" stroke="#6D798F" stroke-width="1.1186" stroke-linecap="round" stroke-linejoin="round"/>
<path d="M322.9 124.295C322.9 124.295 328.962 120.04 335.784 125.484" stroke="#6D798F" stroke-width="1.1186" stroke-linecap="round" stroke-linejoin="round"/>
<path d="M258.183 130.737C259.217 130.999 261.273 135.123 262.818 136.407C264.363 137.69 268.499 137.702 273.658 137.702C276.854 137.685 280.041 137.339 283.166 136.668C283.166 136.668 299.153 139.247 314.628 140.234C316.102 140.329 317.54 140.377 318.966 140.388C319.073 139.925 319.18 139.45 319.263 138.938C319.619 136.876 319.559 134.764 319.088 132.725C318.616 130.686 317.742 128.762 316.518 127.065C313.248 127.802 309.938 128.35 306.605 128.705C291.154 130.5 281.645 128.954 279.018 128.443C276.391 127.932 271.804 121.74 268.701 121.217C265.706 120.888 262.689 120.805 259.68 120.967C257.303 120.967 257.101 122.512 258.135 123.546C259.031 124.244 260.099 124.687 261.225 124.83L261.748 125.864C261.748 125.864 255.805 125.353 255.294 127.148C254.783 128.943 257.149 130.476 258.183 130.737Z" fill="white"/>
<mask id="mask4_313_14" style="mask-type:luminance" maskUnits="userSpaceOnUse" x="255" y="120" width="65" height="21">
<path d="M258.183 130.737C259.217 130.999 261.273 135.123 262.818 136.407C264.363 137.69 268.499 137.702 273.658 137.702C276.854 137.685 280.041 137.339 283.166 136.668C283.166 136.668 299.153 139.247 314.628 140.234C316.102 140.329 317.54 140.377 318.966 140.388C319.073 139.925 319.18 139.45 319.263 138.938C319.619 136.876 319.559 134.764 319.088 132.725C318.616 130.686 317.742 128.762 316.518 127.065C313.248 127.802 309.938 128.35 306.605 128.705C291.154 130.5 281.645 128.954 279.018 128.443C276.391 127.932 271.804 121.74 268.701 121.217C265.706 120.888 262.689 120.805 259.68 120.967C257.303 120.967 257.101 122.512 258.135 123.546C259.031 124.244 260.099 124.687 261.225 124.83L261.748 125.864C261.748 125.864 255.805 125.353 255.294 127.148C254.783 128.943 257.149 130.476 258.183 130.737Z" fill="white"/>
</mask>
<g mask="url(#mask4_313_14)">
<path d="M258.183 130.737C259.217 130.999 261.273 135.123 262.818 136.407C264.363 137.69 268.499 137.702 273.658 137.702C276.854 137.685 280.041 137.339 283.166 136.668C283.166 136.668 299.153 139.247 314.628 140.234C316.102 140.329 317.54 140.377 318.966 140.388C319.073 139.925 319.18 139.45 319.263 138.938C319.619 136.876 319.559 134.764 319.088 132.725C318.616 130.686 317.742 128.762 316.518 127.065C313.248 127.802 309.938 128.35 306.605 128.705C291.154 130.5 281.645 128.954 279.018 128.443C276.391 127.932 271.804 121.74 268.701 121.217C265.706 120.888 262.689 120.805 259.68 120.967C257.303 120.967 257.101 122.512 258.135 123.546C259.031 124.244 260.099 124.687 261.225 124.83L261.748 125.864C261.748 125.864 255.805 125.353 255.294 127.148C254.783 128.943 257.149 130.476 258.183 130.737Z" fill="#E7E9EC"/>
</g>
<path d="M258.183 130.737C259.217 130.999 261.273 135.123 262.818 136.407C264.363 137.69 268.499 137.702 273.658 137.702C276.854 137.685 280.041 137.339 283.166 136.668C283.166 136.668 299.153 139.247 314.628 140.234C316.102 140.329 317.54 140.377 318.966 140.388C319.073 139.925 319.18 139.45 319.263 138.938C319.619 136.876 319.559 134.764 319.088 132.725C318.616 130.686 317.742 128.762 316.518 127.065C313.248 127.802 309.938 128.35 306.605 128.705C291.154 130.5 281.645 128.954 279.018 128.443C276.391 127.932 271.804 121.74 268.701 121.217C265.706 120.888 262.689 120.805 259.68 120.967C257.303 120.967 257.101 122.512 258.135 123.546C259.031 124.244 260.099 124.687 261.225 124.83L261.748 125.864C261.748 125.864 255.805 125.353 255.294 127.148C254.783 128.943 257.149 130.476 258.183 130.737Z" stroke="#6D798F" stroke-width="1.1186" stroke-linecap="round" stroke-linejoin="round"/>
<path d="M261.796 125.84L269.011 124.545" stroke="#6D798F" stroke-width="1.1186" stroke-linecap="round" stroke-linejoin="round"/>
<path d="M189.436 95.6509H178.739L111.917 110.627L110.431 104.018C78.6729 93.6541 51.0029 117.33 51.0029 117.33L52.8452 125.579L54.3309 132.188H65.0281L189.436 95.6509Z" fill="#2065EA" stroke="#2065EA" stroke-width="1.1186" stroke-linecap="round" stroke-linejoin="round"/>
<path d="M183.755 183.463L236.254 162.71L235.671 160.713L183.172 181.466L183.755 183.463Z" fill="white" stroke="#2065EA" stroke-width="1.1186" stroke-linecap="round" stroke-linejoin="round"/>
<path d="M174.816 184.449L235.671 160.713H224.475L171.964 181.466L174.816 184.449Z" fill="white" stroke="#2065EA" stroke-width="1.1186" stroke-linecap="round" stroke-linejoin="round"/>
<path d="M183.326 132.188H54.8182V349.458H183.326V132.188Z" fill="#2065EA" stroke="#2065EA" stroke-width="1.1186" stroke-linecap="round" stroke-linejoin="round"/>
<path d="M57.4452 224.73H1V231.849H57.4452V224.73Z" fill="#2065EA" stroke="#2065EA" stroke-width="1.1186" stroke-linecap="round" stroke-linejoin="round"/>
<path d="M70.852 224.73H14.4068V231.849H70.852V224.73Z" fill="white" stroke="#2065EA" stroke-width="1.1186" stroke-linecap="round" stroke-linejoin="round"/>
<path d="M193.572 132.188H65.0638V349.458H193.572V132.188Z" fill="white"/>
<mask id="mask5_313_14" style="mask-type:luminance" maskUnits="userSpaceOnUse" x="65" y="132" width="129" height="218">
<path d="M193.572 132.188H65.0638V349.458H193.572V132.188Z" fill="white"/>
</mask>
<g mask="url(#mask5_313_14)">
<path d="M193.572 234.595H65.064V248.965H193.572V234.595Z" fill="#D2E0FB"/>
<path d="M193.572 266.888H65.0641V281.258H193.572V266.888Z" fill="#D2E0FB"/>
<path d="M193.572 288.164H65.0641V302.533H193.572V288.164Z" fill="#D2E0FB"/>
<path d="M193.572 309.427H65.0641V323.797H193.572V309.427Z" fill="#D2E0FB"/>
<path d="M65.064 234.595H194.024" stroke="#2065EA" stroke-width="1.1186" stroke-linecap="round" stroke-linejoin="round"/>
<path d="M65.0641 268.113H194.024" stroke="#2065EA" stroke-width="1.1186" stroke-linecap="round" stroke-linejoin="round"/>
<path d="M65.0641 288.901H194.024" stroke="#2065EA" stroke-width="1.1186" stroke-linecap="round" stroke-linejoin="round"/>
<path d="M65.0641 309.011H194.024" stroke="#2065EA" stroke-width="1.1186" stroke-linecap="round" stroke-linejoin="round"/>
</g>
<path d="M193.572 132.188H65.0638V349.458H193.572V132.188Z" stroke="#2065EA" stroke-width="1.1186" stroke-linecap="round" stroke-linejoin="round"/>
<path d="M193.572 132.188H65.0638V146.557H193.572V132.188Z" fill="white" stroke="#2065EA" stroke-width="1.1186" stroke-linecap="round" stroke-linejoin="round"/>
<path d="M61.7361 117.33L63.5784 125.579L123.007 112.279L121.153 104.018C89.3704 93.6541 61.7361 117.33 61.7361 117.33Z" fill="white"/>
<mask id="mask6_313_14" style="mask-type:luminance" maskUnits="userSpaceOnUse" x="61" y="101" width="63" height="25">
<path d="M61.7361 117.33L63.5784 125.579L123.007 112.279L121.153 104.018C89.3704 93.6541 61.7361 117.33 61.7361 117.33Z" fill="white"/>
</mask>
<g mask="url(#mask6_313_14)">
<path d="M61.7361 117.33L63.5784 125.579L123.007 112.279L121.153 104.018C89.3704 93.6541 61.7361 117.33 61.7361 117.33Z" fill="#A6C1F7"/>
</g>
<path d="M61.7361 117.33L63.5784 125.579L123.007 112.279L121.153 104.018C89.3704 93.6541 61.7361 117.33 61.7361 117.33Z" stroke="#2065EA" stroke-width="1.1186" stroke-linecap="round" stroke-linejoin="round"/>
<path d="M189.422 95.66L63.2003 123.943L65.0481 132.19L191.27 103.906L189.422 95.66Z" fill="white"/>
<mask id="mask7_313_14" style="mask-type:luminance" maskUnits="userSpaceOnUse" x="63" y="95" width="129" height="38">
<path d="M189.422 95.6601L63.2002 123.943L65.048 132.19L191.27 103.906L189.422 95.6601Z" fill="white"/>
</mask>
<g mask="url(#mask7_313_14)">
<path d="M189.422 95.6601L63.2002 123.943L65.048 132.19L191.27 103.906L189.422 95.6601Z" fill="#A6C1F7"/>
</g>
<path d="M189.422 95.66L63.2003 123.943L65.0481 132.19L191.27 103.906L189.422 95.66Z" stroke="#2065EA" stroke-width="1.1186" stroke-linecap="round" stroke-linejoin="round"/>
<path d="M163.561 138.95H95.0753L95.3724 151.454C96.1212 155.495 111.026 158.728 129.318 158.728C147.61 158.728 162.515 155.495 163.264 151.454L163.561 138.95Z" fill="white"/>
<mask id="mask8_313_14" style="mask-type:luminance" maskUnits="userSpaceOnUse" x="95" y="138" width="69" height="21">
<path d="M163.561 138.95H95.0753L95.3724 151.454C96.1212 155.495 111.026 158.728 129.318 158.728C147.61 158.728 162.515 155.495 163.264 151.454L163.561 138.95Z" fill="white"/>
</mask>
<g mask="url(#mask8_313_14)">
<path d="M163.561 138.95H95.0753L95.3724 151.454C96.1212 155.495 111.026 158.728 129.318 158.728C147.61 158.728 162.515 155.495 163.264 151.454L163.561 138.95Z" fill="#A6C1F7"/>
</g>
<path d="M163.561 138.95H95.0753L95.3724 151.454C96.1212 155.495 111.026 158.728 129.318 158.728C147.61 158.728 162.515 155.495 163.264 151.454L163.561 138.95Z" stroke="#2065EA" stroke-width="1.1186" stroke-linecap="round" stroke-linejoin="round"/>
<path d="M136.402 183.356C136.402 181.945 135.984 180.566 135.2 179.394C134.416 178.221 133.303 177.307 132 176.767C130.696 176.227 129.263 176.086 127.879 176.361C126.496 176.636 125.225 177.316 124.228 178.313C123.23 179.31 122.551 180.581 122.276 181.964C122.001 183.348 122.142 184.782 122.682 186.085C123.222 187.388 124.136 188.502 125.308 189.285C126.481 190.069 127.86 190.487 129.27 190.487C131.162 190.487 132.976 189.736 134.313 188.398C135.651 187.061 136.402 185.247 136.402 183.356Z" fill="#2065EA" stroke="#2065EA" stroke-width="1.1186" stroke-linecap="round" stroke-linejoin="round"/>
</svg>
