<svg width="285" height="190" viewBox="0 0 285 190" fill="none" xmlns="http://www.w3.org/2000/svg" id="exam" >
<g clip-path="url(#clip0_214_2332)">
<g opacity="0.3">
<path d="M223.459 69.6292C231.218 68.7809 236.82 61.8034 235.972 54.0447C235.123 46.2859 228.146 40.6839 220.387 41.5323C212.628 42.3806 207.026 49.3581 207.875 57.1168C208.723 64.8756 215.701 70.4776 223.459 69.6292Z" stroke="#2065EA" stroke-linecap="round" stroke-linejoin="round"/>
<path d="M232.532 61.3152C235.693 55.4614 233.51 48.1533 227.656 44.9921C221.803 41.8309 214.494 44.0137 211.333 49.8675C208.172 55.7213 210.355 63.0294 216.209 66.1906C222.062 69.3518 229.371 67.169 232.532 61.3152Z" stroke="#2065EA" stroke-linecap="round" stroke-linejoin="round"/>
<path d="M227.054 57.9994C227.054 53.9486 221.308 53.8574 221.308 52.1664C221.308 51.2772 221.776 51.0074 222.733 51.0074C223.558 51.0074 224.253 51.3646 225.047 52.079L226.947 49.894C226.07 48.9114 224.886 48.255 223.588 48.032V45.752H221.084V48.0966C218.937 48.5602 217.664 50.0916 217.664 52.345C217.664 56.24 223.413 56.487 223.413 58.2692C223.413 59.1356 222.965 59.5156 221.852 59.5156C220.917 59.5156 219.982 59.1584 218.777 58.2692L217.132 60.8532C218.262 61.7865 219.639 62.3702 221.095 62.5328V64.771H223.592V62.377C225.906 61.826 227.054 60.1464 227.054 57.9994Z" stroke="#2065EA" stroke-linecap="round" stroke-linejoin="round"/>
</g>
<g opacity="0.3">
<path d="M230.345 137.108C233.904 137.108 236.789 134.222 236.789 130.663C236.789 127.104 233.904 124.218 230.345 124.218C226.785 124.218 223.9 127.104 223.9 130.663C223.9 134.222 226.785 137.108 230.345 137.108Z" stroke="#2065EA" stroke-linecap="round" stroke-linejoin="round"/>
<path d="M234.228 134.549C236.374 132.403 236.374 128.924 234.228 126.778C232.082 124.632 228.603 124.632 226.458 126.778C224.312 128.924 224.312 132.403 226.458 134.549C228.603 136.695 232.082 136.695 234.228 134.549Z" stroke="#2065EA" stroke-linecap="round" stroke-linejoin="round"/>
<path d="M232.682 131.765C232.682 129.918 230.06 129.865 230.06 129.105C230.06 128.698 230.272 128.577 230.709 128.577C231.112 128.597 231.492 128.771 231.77 129.063L232.632 128.068C232.234 127.623 231.699 127.324 231.112 127.216V126.179H229.972V127.247C229.51 127.314 229.09 127.551 228.795 127.913C228.501 128.275 228.352 128.734 228.38 129.2C228.38 130.978 231.002 131.1 231.002 131.902C231.002 132.301 230.797 132.472 230.291 132.472C229.774 132.443 229.28 132.243 228.889 131.902L228.129 133.084C228.645 133.508 229.274 133.772 229.938 133.844V134.866H231.078V133.76C231.543 133.681 231.963 133.434 232.258 133.066C232.553 132.699 232.704 132.236 232.682 131.765Z" stroke="#2065EA" stroke-linecap="round" stroke-linejoin="round"/>
</g>
<g opacity="0.3">
<path d="M114.566 28.2551C120.083 27.3725 123.839 22.185 122.957 16.6684C122.074 11.1519 116.886 7.39536 111.37 8.27798C105.853 9.1606 102.097 14.3481 102.979 19.8647C103.862 25.3812 109.05 29.1377 114.566 28.2551Z" stroke="#2065EA" stroke-linecap="round" stroke-linejoin="round"/>
<path d="M120.249 22.8933C122.8 18.8723 121.608 13.5447 117.587 10.9938C113.566 8.44298 108.238 9.63482 105.688 13.6559C103.137 17.6769 104.329 23.0045 108.35 25.5554C112.371 28.1062 117.698 26.9144 120.249 22.8933Z" stroke="#2065EA" stroke-linecap="round" stroke-linejoin="round"/>
<path d="M116.633 20.0032C116.633 17.1038 112.522 17.0392 112.522 15.8232C112.522 15.1886 112.856 14.9948 113.544 14.9948C114.174 15.0233 114.768 15.2959 115.201 15.7548L116.554 14.193C115.926 13.4884 115.078 13.0169 114.148 12.8554V11.2366H112.362V12.92C111.65 13.0343 111.005 13.4081 110.552 13.9694C110.099 14.5306 109.869 15.2396 109.907 15.96C109.907 18.7492 114.019 18.924 114.019 20.2008C114.019 20.8202 113.704 21.0938 112.906 21.0938C112.237 21.0938 111.564 20.8392 110.705 20.2008L109.527 22.04C110.334 22.7109 111.32 23.1298 112.362 23.2446V24.852H114.148V23.1382C114.872 23.0048 115.522 22.6135 115.979 22.0371C116.436 21.4606 116.669 20.738 116.633 20.0032Z" stroke="#2065EA" stroke-linecap="round" stroke-linejoin="round"/>
</g>
<g opacity="0.3">
<path d="M33.8718 138.804C37.3852 138.234 39.771 134.924 39.2007 131.41C38.6304 127.897 35.3199 125.511 31.8065 126.081C28.2932 126.652 25.9073 129.962 26.4776 133.475C27.0479 136.989 30.3584 139.375 33.8718 138.804Z" stroke="#2065EA" stroke-linecap="round" stroke-linejoin="round"/>
<path d="M38.3268 132.445C38.3268 131.358 38.0046 130.296 37.4008 129.392C36.797 128.489 35.9388 127.785 34.9348 127.369C33.9307 126.953 32.8259 126.844 31.76 127.056C30.6942 127.268 29.7151 127.791 28.9466 128.56C28.1782 129.328 27.6548 130.307 27.4428 131.373C27.2308 132.439 27.3396 133.544 27.7555 134.548C28.1714 135.552 28.8757 136.41 29.7793 137.014C30.6829 137.618 31.7453 137.94 32.832 137.94C34.2893 137.94 35.687 137.361 36.7174 136.331C37.7479 135.3 38.3268 133.903 38.3268 132.445Z" stroke="#2065EA" stroke-linecap="round" stroke-linejoin="round"/>
<path d="M35.169 133.551C35.169 131.7 32.5508 131.651 32.5508 130.891C32.5508 130.484 32.7636 130.363 33.2006 130.363C33.6023 130.382 33.9808 130.557 34.257 130.849L35.1196 129.854C34.7223 129.409 34.1869 129.11 33.5996 129.006V127.965H32.4596V129.037C32.005 129.108 31.5931 129.346 31.3039 129.704C31.0147 130.062 30.8686 130.515 30.894 130.975C30.894 132.749 33.516 132.875 33.516 133.676C33.516 134.056 33.3146 134.243 32.8054 134.243C32.288 134.215 31.7945 134.016 31.4032 133.676L30.6432 134.854C31.1601 135.277 31.7883 135.541 32.452 135.614V136.633H33.592V135.546C34.0527 135.462 34.467 135.214 34.7574 134.846C35.0477 134.479 35.1941 134.018 35.169 133.551Z" stroke="#2065EA" stroke-linecap="round" stroke-linejoin="round"/>
</g>
<g opacity="0.3">
<path d="M194.419 167.681C197.939 167.152 200.363 163.87 199.834 160.35C199.305 156.83 196.022 154.406 192.502 154.935C188.983 155.464 186.558 158.746 187.087 162.266C187.617 165.786 190.899 168.21 194.419 167.681Z" stroke="#2065EA" stroke-linecap="round" stroke-linejoin="round"/>
<path d="M198.949 161.318C198.948 160.231 198.624 159.17 198.019 158.267C197.415 157.364 196.556 156.661 195.552 156.247C194.548 155.832 193.443 155.724 192.378 155.937C191.312 156.15 190.334 156.674 189.566 157.443C188.798 158.211 188.276 159.19 188.064 160.256C187.853 161.322 187.962 162.426 188.378 163.43C188.795 164.433 189.499 165.291 190.402 165.895C191.306 166.498 192.368 166.82 193.454 166.82C194.177 166.821 194.892 166.679 195.559 166.402C196.227 166.126 196.833 165.72 197.343 165.209C197.854 164.698 198.258 164.091 198.534 163.423C198.809 162.756 198.951 162.04 198.949 161.318Z" stroke="#2065EA" stroke-linecap="round" stroke-linejoin="round"/>
<path d="M195.791 162.42C195.791 160.573 193.173 160.52 193.173 159.76C193.173 159.353 193.386 159.231 193.823 159.231C194.225 159.251 194.603 159.425 194.879 159.718L195.742 158.722C195.345 158.276 194.81 157.976 194.222 157.871V156.834H193.082V157.905C192.628 157.977 192.217 158.214 191.927 158.572C191.638 158.929 191.492 159.38 191.516 159.839C191.516 161.618 194.138 161.739 194.138 162.545C194.138 162.925 193.937 163.111 193.428 163.111C192.91 163.084 192.417 162.885 192.025 162.545L191.265 163.723C191.782 164.146 192.411 164.41 193.074 164.483V165.501H194.214V164.411C194.674 164.327 195.087 164.078 195.377 163.712C195.667 163.346 195.815 162.886 195.791 162.42Z" stroke="#2065EA" stroke-linecap="round" stroke-linejoin="round"/>
</g>
<g opacity="0.3">
<path d="M65.9908 65.7552C69.5502 65.7552 72.4356 62.8698 72.4356 59.3104C72.4356 55.751 69.5502 52.8656 65.9908 52.8656C62.4315 52.8656 59.546 55.751 59.546 59.3104C59.546 62.8698 62.4315 65.7552 65.9908 65.7552Z" stroke="#2065EA" stroke-linecap="round" stroke-linejoin="round"/>
<path d="M71.1577 61.1754C72.1906 58.3219 70.7148 55.1713 67.8613 54.1384C65.0078 53.1054 61.8572 54.5813 60.8243 57.4347C59.7914 60.2882 61.2672 63.4388 64.1207 64.4718C66.9742 65.5047 70.1247 64.0289 71.1577 61.1754Z" stroke="#2065EA" stroke-linecap="round" stroke-linejoin="round"/>
<path d="M68.3316 60.42C68.3316 58.5694 65.7096 58.52 65.7096 57.76C65.7096 57.3534 65.9224 57.2318 66.3594 57.2318C66.762 57.2513 67.141 57.4272 67.4158 57.722L68.2784 56.7264C67.8816 56.2801 67.3463 55.9803 66.7584 55.8752V54.834H65.6184V55.9056C65.1641 55.9782 64.7528 56.2163 64.4637 56.5742C64.1746 56.932 64.0283 57.3842 64.0528 57.8436C64.0528 59.622 66.6748 59.7436 66.6748 60.5454C66.6748 60.9254 66.4734 61.1154 65.9642 61.1154C65.4466 61.0859 64.9534 60.8854 64.562 60.5454L63.802 61.7234C64.3189 62.146 64.9471 62.41 65.6108 62.4834V63.5056H66.7508V62.4112C67.2111 62.3278 67.6254 62.0797 67.9163 61.7133C68.2072 61.347 68.3548 60.8872 68.3316 60.42Z" stroke="#2065EA" stroke-linecap="round" stroke-linejoin="round"/>
</g>
<g opacity="0.3">
<path d="M61.9978 151.45C69.7563 150.599 75.3558 143.619 74.5048 135.861C73.6537 128.102 66.6743 122.503 58.9159 123.354C51.1574 124.205 45.5578 131.184 46.4089 138.943C47.26 146.701 54.2394 152.301 61.9978 151.45Z" stroke="#2065EA" stroke-linecap="round" stroke-linejoin="round"/>
<path d="M71.267 142.721C74.2105 136.755 71.7601 129.532 65.7939 126.589C59.8276 123.645 52.6049 126.096 49.6614 132.062C46.7179 138.028 49.1682 145.251 55.1345 148.194C61.1007 151.138 68.3234 148.687 71.267 142.721Z" stroke="#2065EA" stroke-linecap="round" stroke-linejoin="round"/>
<path d="M65.5918 139.817C65.5918 135.763 59.8462 135.675 59.8462 133.98C59.8462 133.091 60.3136 132.821 61.2712 132.821C62.0958 132.821 62.7912 133.179 63.5892 133.893L65.4892 131.708C64.6095 130.727 63.4247 130.071 62.1262 129.846V127.566H59.622V129.914C57.4788 130.378 56.202 131.909 56.202 134.159C56.202 138.058 61.9476 138.301 61.9476 140.083C61.9476 140.953 61.503 141.33 60.3896 141.33C59.4548 141.33 58.5162 140.972 57.3154 140.083L55.6662 142.667C56.7963 143.6 58.1734 144.183 59.6296 144.347V146.585H62.1262V144.191C64.4442 143.64 65.5918 141.96 65.5918 139.817Z" stroke="#2065EA" stroke-linecap="round" stroke-linejoin="round"/>
</g>
<path d="M52.364 69.4222C52.4552 71.2348 50.9276 75.0044 50.9276 75.0082C50.9276 75.012 48.7464 73.2488 48.6248 73.1082C47.196 71.611 45.3112 67.8832 46.4132 65.8464C46.6058 65.513 46.8663 65.2239 47.178 64.9978C47.4896 64.7717 47.8453 64.6138 48.222 64.5342C48.5987 64.4546 48.9879 64.4552 49.3644 64.536C49.7408 64.6167 50.0961 64.7758 50.407 65.0028C51.756 65.9338 52.2842 67.8794 52.364 69.4222Z" fill="#E7E9EC"/>
<path d="M89.3456 105.431L89.5812 105.572L89.6116 107.209L88.6312 106.605C87.685 106.016 86.6856 105.37 85.6634 104.705C84.8734 105.566 84.0334 106.379 83.1478 107.141C83.9306 108.707 84.2612 112.081 84.2878 112.514C85.386 112.488 86.4538 112.45 87.4608 112.4C88.1524 112.366 88.8174 112.328 89.4596 112.286L88.92 113.715C88.4602 113.715 87.9966 113.749 87.514 113.761C86.4006 113.791 85.2112 113.806 83.9876 113.806C83.9192 114.243 83.334 117.834 82.3954 119.259C81.5442 120.547 80.1154 121.953 78.4662 122.056C78.0856 122.092 77.7017 122.048 77.3391 121.927C76.9765 121.806 76.6433 121.61 76.3609 121.352C76.0786 121.095 75.8532 120.781 75.6994 120.431C75.5456 120.081 75.4668 119.702 75.468 119.32C75.5554 117.002 79.0742 114.76 81.0654 114.19C81.1832 114.16 82.498 113.943 83.3264 113.81C82.8286 113.81 82.3422 113.81 81.8292 113.81C80.8108 113.81 79.7962 113.757 78.7018 113.719L77.1058 113.605C76.5738 113.578 76.0114 113.483 75.4604 113.422C74.1798 113.259 72.8954 113.042 71.6034 112.773C71.6034 113.662 71.5046 116.823 70.8434 118.233C70.1822 119.643 68.9852 121.247 67.3854 121.596C67.0117 121.691 66.6224 121.705 66.2427 121.639C65.863 121.573 65.5015 121.428 65.1817 121.213C64.8619 120.998 64.591 120.718 64.3867 120.391C64.1823 120.064 64.0491 119.698 63.9958 119.316C63.7298 117.013 66.8686 114.255 68.7534 113.4C68.8674 113.346 70.2734 112.887 71.0752 112.64C70.3152 112.476 69.5248 112.32 68.7458 112.13C66.4962 111.583 64.239 110.96 61.9818 110.348L59.9184 109.82C59.9184 110.139 59.8994 113.901 59.1584 115.478C58.5124 116.88 57.2964 118.492 55.7004 118.841C55.3267 118.936 54.9372 118.951 54.5572 118.886C54.1773 118.82 53.8155 118.675 53.4956 118.459C53.1757 118.244 52.9048 117.964 52.7006 117.637C52.4964 117.31 52.3636 116.943 52.3108 116.561C52.0448 114.258 55.1836 111.5 57.0646 110.645C57.209 110.58 59.2534 109.919 59.7816 109.778C58.2616 109.375 56.7416 108.992 55.2216 108.676C53.1775 108.238 51.1073 107.932 49.0238 107.76C49.0238 107.909 49.0238 111.834 48.2638 113.46C47.614 114.863 46.4018 116.47 44.8058 116.82C44.4318 116.915 44.0419 116.931 43.6615 116.865C43.2811 116.8 42.9189 116.655 42.5985 116.439C42.2781 116.224 42.0068 115.944 41.8024 115.616C41.598 115.289 41.4651 114.922 41.4124 114.54C41.1502 112.241 44.2852 109.478 46.17 108.623C46.3182 108.558 48.5184 107.863 48.925 107.745C48.8034 107.745 48.6818 107.715 48.545 107.707C46.4514 107.594 44.3519 107.666 42.2712 107.924C41.1312 108.053 40.0292 108.239 38.969 108.444C39.045 109.178 39.349 112.522 38.8398 114.053C38.3496 115.52 37.3198 117.249 35.7694 117.773C35.4125 117.901 35.033 117.954 34.6548 117.928C34.2766 117.901 33.9079 117.797 33.5722 117.621C33.2365 117.445 32.9409 117.201 32.7043 116.905C32.4676 116.608 32.295 116.266 32.1974 115.9C31.6806 113.62 34.4774 110.553 36.2748 109.497C36.3698 109.44 37.4148 108.965 38.1748 108.627C37.696 108.729 37.2058 108.824 36.7498 108.927C35.0436 109.307 33.5008 109.778 32.1404 110.2C31.3804 110.447 30.6774 110.683 30.0314 110.911C29.7312 111.671 28.4772 114.711 27.341 115.801C26.2048 116.892 24.5176 117.937 22.9026 117.701C21.2876 117.466 20.1362 115.976 20.558 114.361C21.1394 112.119 25.061 110.675 27.1282 110.561C27.3068 110.561 30.115 110.713 30.0998 110.751V110.797C30.7192 110.565 31.3804 110.322 32.1138 110.075C33.4666 109.622 35.0018 109.125 36.708 108.695C38.5409 108.206 40.401 107.825 42.2788 107.555C44.3794 107.249 46.503 107.129 48.6248 107.198H48.7008C48.0586 106.97 46.2954 106.271 46.1662 106.202C44.3422 105.226 41.3896 102.273 41.8 99.9932C41.8787 99.6165 42.036 99.2606 42.2615 98.9487C42.487 98.6368 42.7757 98.3759 43.1087 98.183C43.4418 97.9901 43.8118 97.8696 44.1945 97.8292C44.5773 97.7889 44.9642 97.8296 45.3302 97.9488C46.9034 98.401 47.9902 100.081 48.564 101.525C49.191 103.151 48.9668 106.921 48.944 107.225C51.1013 107.349 53.248 107.617 55.3698 108.026C56.6048 108.258 57.8474 108.532 59.0862 108.821C58.539 108.604 58.0526 108.406 57.988 108.372C56.1602 107.396 53.2114 104.443 53.6218 102.163C53.7006 101.786 53.8579 101.43 54.0834 101.118C54.3088 100.806 54.5974 100.545 54.9303 100.352C55.2633 100.159 55.6332 100.038 56.0159 99.997C56.3987 99.9561 56.7857 99.9963 57.152 100.115C58.7252 100.567 59.831 102.25 60.3858 103.694C60.9406 105.138 60.8228 108.376 60.7658 109.227C61.2408 109.341 61.7158 109.451 62.187 109.569C64.467 110.132 66.747 110.709 68.9662 111.196C69.7528 111.37 70.5394 111.515 71.3222 111.659C70.8358 111.465 70.4292 111.302 70.3722 111.279C68.5444 110.306 65.5918 107.35 66.006 105.07C66.0847 104.693 66.242 104.337 66.4675 104.025C66.693 103.714 66.9817 103.453 67.3147 103.26C67.6478 103.067 68.0178 102.946 68.4005 102.906C68.7833 102.866 69.1702 102.906 69.5362 103.026C71.1056 103.478 72.2152 105.161 72.77 106.601C73.3248 108.042 73.2184 110.971 73.15 111.982C73.9556 112.108 74.765 112.233 75.5516 112.317C76.0912 112.362 76.6042 112.446 77.1476 112.461L78.7474 112.541C79.7658 112.541 80.8146 112.571 81.8102 112.56C82.498 112.56 83.1592 112.541 83.8204 112.526C83.0338 112.362 81.4986 112.009 81.3732 111.963C79.6805 111.295 78.1866 110.206 77.0336 108.798C76.8426 108.731 76.6581 108.647 76.4826 108.547C76.1421 108.367 75.8434 108.117 75.6059 107.814C75.3684 107.511 75.1975 107.161 75.1042 106.788C75.011 106.414 74.9976 106.025 75.0648 105.646C75.1321 105.267 75.2785 104.906 75.4946 104.587C76.8436 102.706 81.0198 102.767 82.9882 103.402C83.106 103.44 84.322 103.983 85.082 104.34C84.6678 104.063 84.2612 103.797 83.8356 103.504C82.992 102.934 82.1674 102.342 81.2782 101.707L80.0356 100.7C79.6062 100.385 79.192 99.997 78.7626 99.6398C77.7898 98.8 76.8398 97.8956 75.905 96.9798C75.4072 97.717 73.5908 100.309 72.2684 101.126C70.946 101.943 69.0574 102.611 67.5336 102.022C66.0098 101.433 65.1966 99.7424 65.9528 98.2604C67.0016 96.1932 71.1436 95.6232 73.1728 95.9462C73.302 95.969 74.7384 96.368 75.525 96.5998C74.9702 96.0374 74.4116 95.4788 73.8644 94.8898C72.2912 93.195 70.7484 91.428 69.2056 89.6724C68.7306 89.1366 68.2518 88.6046 67.7768 88.0726C67.602 88.3386 65.4968 91.466 64.03 92.3818C62.719 93.195 60.819 93.8638 59.2952 93.2748C58.9317 93.1485 58.5988 92.9471 58.3182 92.6837C58.0376 92.4203 57.8155 92.1009 57.6664 91.7461C57.5173 91.3913 57.4446 91.0091 57.4528 90.6243C57.4611 90.2396 57.5502 89.8609 57.7144 89.5128C58.767 87.4494 62.9052 86.8756 64.9344 87.2024C65.0902 87.229 67.1612 87.8028 67.678 87.9624C66.6292 86.7882 65.5728 85.6292 64.486 84.5424C63.0231 83.0504 61.4657 81.6542 59.8234 80.3624C59.7436 80.4878 57.5738 83.7596 56.0614 84.6982C54.7466 85.5114 52.8466 86.184 51.3228 85.595C50.9591 85.4683 50.6262 85.2665 50.3456 85.0027C50.0651 84.7389 49.8432 84.419 49.6945 84.0638C49.5457 83.7086 49.4734 83.326 49.4822 82.941C49.4911 82.556 49.5809 82.1772 49.7458 81.8292C50.7946 79.7658 54.9328 79.1958 56.9658 79.5188C57.1292 79.5454 59.356 80.1686 59.7512 80.3092C59.6562 80.2332 59.565 80.1458 59.4662 80.0736C57.7825 78.8254 55.9921 77.728 54.1158 76.7942C53.086 76.2698 52.0714 75.8214 51.0758 75.4072C50.7338 76.0608 49.1378 79.0172 47.8724 80.0128C46.607 81.0084 44.8324 81.8406 43.2592 81.4226C42.8841 81.3365 42.5313 81.1724 42.2238 80.941C41.9163 80.7097 41.6608 80.4162 41.4741 80.0797C41.2874 79.7432 41.1736 79.3711 41.14 78.9878C41.1065 78.6044 41.1539 78.2182 41.2794 77.8544C42.0926 75.6884 46.1434 74.6662 48.2106 74.765C48.3246 74.765 49.4608 74.9512 50.2854 75.0956C49.8332 74.917 49.3696 74.7156 48.9326 74.5598C47.291 73.9442 45.752 73.4806 44.3726 73.0778C43.6126 72.8574 42.883 72.675 42.218 72.5078C41.5492 72.9714 38.8322 74.8106 37.278 75.0994C35.7238 75.3882 33.744 75.3274 32.5356 74.2292C31.3272 73.131 31.179 71.2652 32.4216 70.1518C34.143 68.6014 38.209 69.5628 39.9988 70.6002C40.1508 70.6914 42.408 72.3748 42.3738 72.4014L42.332 72.428C42.9742 72.5762 43.662 72.7396 44.4106 72.9334C45.79 73.3134 47.3404 73.7352 49.001 74.3204C50.7968 74.9288 52.5554 75.6419 54.2678 76.456C56.1885 77.3607 58.0259 78.4327 59.7588 79.6594L59.8158 79.7088C59.4092 79.1654 58.3262 77.6074 58.254 77.4782C57.2698 75.658 56.4376 71.5654 58.0412 69.8782C58.3147 69.6079 58.6421 69.3982 59.0021 69.2628C59.362 69.1274 59.7464 69.0692 60.1303 69.0922C60.5142 69.1151 60.889 69.2186 61.2302 69.3959C61.5715 69.5733 61.8716 69.8204 62.111 70.1214C63.175 71.364 63.1674 73.378 62.8368 74.8866C62.4568 76.589 60.1768 79.61 60.0134 79.8494C61.7616 81.1465 63.4209 82.5595 64.98 84.0788C65.8844 84.9566 66.7698 85.8648 67.64 86.7882C67.3056 86.3094 67.0054 85.8762 66.9712 85.8116C65.987 83.9914 65.1548 79.895 66.7584 78.2116C67.0319 77.9413 67.3593 77.7316 67.7193 77.5962C68.0792 77.4608 68.4636 77.4026 68.8475 77.4256C69.2314 77.4485 69.6062 77.552 69.9474 77.7293C70.2887 77.9067 70.5888 78.1538 70.8282 78.4548C71.8922 79.6974 71.8846 81.7114 71.554 83.22C71.2234 84.7286 69.3348 87.3658 68.8256 88.0536C69.16 88.4108 69.4944 88.7642 69.825 89.1214C71.4096 90.8466 72.9828 92.5718 74.5788 94.2172C75.1412 94.7986 75.7188 95.3572 76.2888 95.9044C75.9924 95.475 75.7454 95.114 75.7112 95.0532C74.727 93.233 73.8948 89.1404 75.4984 87.4532C76.6384 86.2486 78.5384 86.4804 79.5682 87.6964C80.598 88.9124 80.6246 90.9568 80.294 92.4654C79.9634 93.974 78.2572 96.3528 77.6568 97.1698C78.261 97.7208 78.8652 98.2718 79.477 98.7772C79.8988 99.1116 80.2864 99.465 80.731 99.7766L82.0192 100.723C82.8628 101.297 83.7254 101.893 84.5614 102.429C85.139 102.809 85.7014 103.159 86.26 103.512C85.6938 102.942 84.607 101.798 84.5272 101.692C83.277 100.043 81.8368 96.1248 83.1668 94.2248C83.3963 93.916 83.6882 93.6589 84.0235 93.4703C84.3589 93.2816 84.7301 93.1656 85.1132 93.1298C85.4963 93.0939 85.8826 93.1391 86.2471 93.2623C86.6116 93.3855 86.9462 93.5839 87.229 93.8448C88.464 94.9126 88.749 96.9038 88.6654 98.4466C88.5552 100.145 86.8566 103.352 86.64 103.767C87.5672 104.359 88.4754 104.918 89.3456 105.431Z" fill="#E7E9EC"/>
<path d="M38.646 108.205C38.646 108.247 35.8568 107.939 35.682 107.901C33.6642 107.441 30.0352 105.37 29.83 103.064C29.8071 102.679 29.8654 102.295 30.0011 101.934C30.1367 101.574 30.3467 101.246 30.6173 100.972C30.8879 100.699 31.213 100.485 31.5717 100.345C31.9303 100.205 32.3144 100.142 32.699 100.16C34.333 100.179 35.8454 101.509 36.7612 102.756C37.8366 104.215 38.646 108.201 38.646 108.205Z" fill="#E7E9EC"/>
<path d="M240.51 69.4222C240.418 71.2348 241.942 75.0044 241.942 75.0082C241.942 75.012 244.123 73.2488 244.249 73.1082C245.678 71.611 247.562 67.8832 246.46 65.8464C246.268 65.513 246.007 65.2239 245.696 64.9978C245.384 64.7717 245.028 64.6138 244.652 64.5342C244.275 64.4546 243.886 64.4552 243.509 64.536C243.133 64.6167 242.777 64.7758 242.467 65.0028C241.114 65.9338 240.586 67.8794 240.51 69.4222Z" fill="#E7E9EC"/>
<path d="M203.528 105.431L203.289 105.572L203.262 107.209L204.242 106.605C205.189 106.016 206.188 105.37 207.206 104.705C207.996 105.566 208.836 106.379 209.722 107.141C208.939 108.707 208.612 112.081 208.582 112.514C207.484 112.488 206.42 112.45 205.413 112.4C204.717 112.366 204.052 112.328 203.414 112.286L203.957 113.726C204.413 113.726 204.877 113.761 205.36 113.772C206.473 113.802 207.666 113.818 208.89 113.818C208.958 114.255 209.543 117.846 210.482 119.271C211.333 120.559 212.762 121.965 214.407 122.067C214.79 122.105 215.177 122.062 215.543 121.941C215.908 121.819 216.243 121.622 216.527 121.362C216.811 121.102 217.037 120.785 217.191 120.432C217.344 120.079 217.421 119.697 217.417 119.312C217.33 116.994 213.811 114.752 211.82 114.182C211.702 114.152 210.387 113.935 209.54 113.802C210.041 113.802 210.524 113.802 211.06 113.802C212.078 113.802 213.093 113.749 214.183 113.711L215.779 113.597C216.315 113.571 216.874 113.476 217.428 113.415C218.705 113.251 219.993 113.035 221.285 112.765C221.285 113.654 221.38 116.816 222.045 118.226C222.71 119.635 223.907 121.239 225.503 121.589C225.877 121.683 226.267 121.698 226.647 121.632C227.027 121.566 227.388 121.42 227.709 121.205C228.029 120.99 228.3 120.71 228.505 120.384C228.709 120.057 228.843 119.691 228.897 119.309C229.159 117.006 226.024 114.247 224.139 113.392C224.021 113.339 222.619 112.879 221.817 112.632C222.577 112.469 223.364 112.313 224.147 112.123C226.393 111.576 228.654 110.952 230.911 110.341L232.94 109.82C232.94 110.139 232.959 113.901 233.7 115.478C234.346 116.88 235.558 118.492 237.154 118.841C238.75 119.191 240.358 118.229 240.548 116.561C240.81 114.258 237.675 111.5 235.79 110.645C235.649 110.58 233.605 109.919 233.077 109.778C234.597 109.375 236.117 108.992 237.637 108.676C239.68 108.238 241.749 107.932 243.831 107.76C243.831 107.909 243.831 111.834 244.591 113.46C245.237 114.863 246.453 116.47 248.049 116.82C248.422 116.915 248.812 116.93 249.192 116.864C249.572 116.798 249.934 116.653 250.254 116.438C250.574 116.223 250.844 115.942 251.049 115.615C251.253 115.288 251.386 114.922 251.438 114.54C251.704 112.241 248.569 109.478 246.685 108.623C246.536 108.558 244.336 107.863 243.926 107.745C244.047 107.745 244.173 107.715 244.306 107.707C246.398 107.594 248.496 107.666 250.576 107.924C251.716 108.053 252.822 108.239 253.878 108.444C253.806 109.178 253.498 112.522 254.011 114.053C254.501 115.52 255.531 117.249 257.078 117.773C257.436 117.906 257.819 117.962 258.2 117.938C258.582 117.914 258.954 117.81 259.293 117.634C259.632 117.457 259.931 117.212 260.17 116.913C260.409 116.615 260.582 116.27 260.68 115.9C261.197 113.62 258.4 110.553 256.603 109.497C256.508 109.44 255.463 108.965 254.703 108.627C255.178 108.729 255.672 108.824 256.128 108.927C257.834 109.307 259.373 109.778 260.733 110.2C261.493 110.447 262.2 110.683 262.846 110.911C263.146 111.671 264.4 114.711 265.536 115.801C266.673 116.892 268.356 117.937 269.971 117.701C270.353 117.655 270.721 117.529 271.052 117.331C271.382 117.134 271.667 116.869 271.889 116.554C272.11 116.239 272.263 115.881 272.337 115.503C272.411 115.126 272.405 114.736 272.319 114.361C271.734 112.119 267.813 110.675 265.749 110.561C265.571 110.561 262.762 110.713 262.778 110.751V110.797C262.162 110.565 261.497 110.322 260.767 110.075C259.411 109.622 257.879 109.125 256.173 108.695C254.34 108.206 252.48 107.826 250.602 107.555C248.502 107.249 246.378 107.129 244.256 107.198H244.18C244.819 106.97 246.586 106.271 246.715 106.202C248.539 105.226 251.492 102.273 251.077 99.9933C250.999 99.6166 250.841 99.2606 250.616 98.9488C250.39 98.6369 250.102 98.376 249.769 98.1831C249.436 97.9902 249.066 97.8697 248.683 97.8293C248.3 97.789 247.913 97.8297 247.547 97.9489C245.978 98.4011 244.868 100.081 244.313 101.525C243.686 103.151 243.933 106.921 243.933 107.225C241.774 107.347 239.624 107.614 237.5 108.023C236.261 108.254 235.022 108.528 233.784 108.817C234.331 108.6 234.817 108.403 234.882 108.368C236.706 107.392 239.658 104.439 239.248 102.159C239.169 101.783 239.012 101.427 238.786 101.115C238.561 100.803 238.272 100.541 237.939 100.348C237.606 100.155 237.237 100.034 236.854 99.9933C236.471 99.9524 236.084 99.9926 235.718 100.111C234.145 100.563 233.035 102.247 232.48 103.691C231.925 105.135 232.047 108.372 232.1 109.223L230.675 109.565C228.395 110.128 226.138 110.705 223.9 111.192C223.109 111.367 222.327 111.511 221.544 111.655C222.026 111.462 222.433 111.298 222.494 111.275C224.318 110.303 227.27 107.346 226.86 105.066C226.781 104.69 226.624 104.334 226.398 104.022C226.173 103.71 225.884 103.449 225.551 103.256C225.218 103.063 224.848 102.943 224.465 102.902C224.083 102.862 223.696 102.903 223.33 103.022C221.757 103.474 220.651 105.157 220.096 106.598C219.541 108.038 219.64 110.96 219.697 111.967C218.891 112.092 218.082 112.218 217.295 112.301C216.756 112.347 216.239 112.431 215.696 112.446L214.1 112.526C213.081 112.526 212.029 112.556 211.037 112.545C210.345 112.545 209.688 112.526 209.027 112.51C209.813 112.347 211.348 111.994 211.47 111.948C213.163 111.281 214.658 110.192 215.81 108.783C216.002 108.716 216.188 108.632 216.364 108.532C216.704 108.352 217.003 108.102 217.24 107.799C217.477 107.495 217.648 107.146 217.741 106.772C217.834 106.399 217.848 106.01 217.781 105.631C217.714 105.252 217.568 104.891 217.352 104.572C216.003 102.691 211.823 102.752 209.855 103.387C209.741 103.425 208.525 103.968 207.761 104.325C208.179 104.048 208.586 103.782 209.008 103.489C209.851 102.919 210.676 102.326 211.565 101.692L212.834 100.715C213.264 100.4 213.678 100.012 214.107 99.6551C215.084 98.8153 216.03 97.9109 216.965 96.9951C217.466 97.7323 219.283 100.324 220.601 101.141C221.92 101.958 223.82 102.6 225.34 102.026C226.86 101.452 227.673 99.7463 226.917 98.2643C225.868 96.1971 221.73 95.6271 219.697 95.9501C219.572 95.9729 218.131 96.3719 217.345 96.6037C217.903 96.0413 218.462 95.4827 219.005 94.8937C220.582 93.1989 222.121 91.4319 223.668 89.6763C224.139 89.1405 224.618 88.6085 225.093 88.0765C225.272 88.3425 227.373 91.4699 228.84 92.3857C230.155 93.1989 232.055 93.8677 233.578 93.2787C233.942 93.1525 234.275 92.9511 234.555 92.6876C234.836 92.4242 235.058 92.1046 235.207 91.7496C235.355 91.3947 235.428 91.0125 235.419 90.6277C235.41 90.243 235.32 89.8644 235.155 89.5167C234.107 87.4533 229.968 86.8795 227.935 87.2063C227.783 87.2329 225.712 87.8067 225.192 87.9663C226.241 86.7921 227.301 85.6331 228.388 84.5463C229.848 83.0534 231.404 81.6572 233.046 80.3663C233.13 80.4917 235.3 83.7635 236.812 84.7021C238.127 85.5153 240.023 86.1879 241.551 85.5989C241.914 85.4722 242.247 85.2704 242.528 85.0066C242.809 84.7428 243.03 84.4229 243.179 84.0677C243.328 83.7125 243.4 83.3299 243.391 82.9449C243.382 82.5599 243.293 82.1811 243.128 81.8331C242.079 79.7697 237.941 79.1997 235.908 79.5227C235.748 79.5493 233.521 80.1725 233.126 80.3131C233.221 80.2371 233.312 80.1497 233.407 80.0775C235.092 78.8293 236.884 77.7319 238.762 76.7981C239.791 76.2737 240.806 75.8253 241.802 75.4111C242.144 76.0647 243.736 79.0211 245.005 80.0167C246.274 81.0123 248.045 81.8445 249.614 81.4265C249.99 81.3408 250.343 81.177 250.651 80.9459C250.959 80.7147 251.215 80.4213 251.402 80.0847C251.589 79.7482 251.703 79.376 251.737 78.9924C251.771 78.6088 251.723 78.2224 251.598 77.8583C250.781 75.6923 246.73 74.6701 244.663 74.7689C244.553 74.7689 243.417 74.9551 242.592 75.0995C243.044 74.9209 243.508 74.7195 243.945 74.5637C245.583 73.9481 247.122 73.4845 248.505 73.0817C249.265 72.8613 249.994 72.6789 250.656 72.5117C251.324 72.9753 254.041 74.8145 255.596 75.1033C257.15 75.3921 259.126 75.3313 260.338 74.2331C261.55 73.1349 261.695 71.2691 260.452 70.1557C258.727 68.6053 254.661 69.5667 252.875 70.6041C252.719 70.6953 250.466 72.3787 250.5 72.4053L250.542 72.4319C249.896 72.5801 249.208 72.7435 248.463 72.9373C247.084 73.3173 245.529 73.7391 243.869 74.3243C242.074 74.9327 240.317 75.6458 238.606 76.4599C236.684 77.363 234.847 78.435 233.115 79.6633L233.054 79.7127C233.461 79.1693 234.547 77.6113 234.616 77.4821C235.6 75.6619 236.432 71.5693 234.832 69.8821C234.558 69.6117 234.231 69.402 233.871 69.2665C233.51 69.131 233.126 69.0729 232.741 69.0958C232.357 69.1188 231.982 69.2223 231.641 69.3996C231.299 69.577 230.999 69.8242 230.759 70.1253C229.699 71.3679 229.702 73.3819 230.037 74.8905C230.417 76.5929 232.697 79.6139 232.86 79.8533C231.129 81.1474 229.487 82.5552 227.943 84.0675C227.039 84.9453 226.157 85.8535 225.283 86.7769C225.617 86.2981 225.914 85.8649 225.952 85.8003C226.936 83.9801 227.764 79.8837 226.165 78.2003C225.891 77.9299 225.563 77.7202 225.203 77.5847C224.842 77.4492 224.458 77.3911 224.074 77.414C223.689 77.437 223.314 77.5405 222.973 77.7178C222.631 77.8952 222.331 78.1424 222.091 78.4435C221.031 79.6861 221.035 81.7001 221.369 83.2087C221.703 84.7173 223.588 87.3545 224.094 88.0423L223.06 89.1329C221.475 90.8581 219.898 92.5833 218.302 94.2287C217.744 94.8101 217.162 95.3687 216.592 95.9159C216.893 95.4865 217.14 95.1255 217.17 95.0647C218.154 93.2445 218.986 89.1519 217.387 87.4647C217.113 87.1943 216.785 86.9846 216.425 86.8491C216.064 86.7136 215.68 86.6555 215.296 86.6784C214.911 86.7014 214.536 86.8049 214.195 86.9822C213.853 87.1596 213.553 87.4068 213.313 87.7079C212.253 88.9505 212.257 90.9683 212.591 92.4769C212.925 93.9855 214.628 96.3643 215.224 97.1813C214.62 97.7323 214.02 98.2833 213.408 98.7887C212.982 99.1231 212.599 99.4765 212.154 99.7881L210.862 100.734C210.022 101.308 209.156 101.905 208.32 102.44C207.742 102.82 207.18 103.17 206.625 103.523C207.191 102.953 208.278 101.81 208.358 101.703C209.604 100.054 211.048 96.1363 209.718 94.2363C209.489 93.9275 209.197 93.6704 208.861 93.4818C208.526 93.2931 208.155 93.1771 207.772 93.1413C207.389 93.1054 207.002 93.1506 206.638 93.2738C206.273 93.3969 205.939 93.5954 205.656 93.8563C204.417 94.9241 204.136 96.9153 204.216 98.4581C204.33 100.157 206.028 103.364 206.241 103.778C205.306 104.359 204.394 104.918 203.528 105.431Z" fill="#E7E9EC"/>
<path d="M254.22 108.205C254.22 108.247 257.009 107.939 257.184 107.901C259.198 107.441 262.827 105.37 263.032 103.064C263.18 101.403 261.767 100.141 260.167 100.16C258.567 100.179 257.021 101.509 256.105 102.756C255.037 104.215 254.22 108.201 254.22 108.205Z" fill="#E7E9EC"/>
<path d="M95.6033 37.4993L89.1346 42.5641L96.9848 52.5902L103.453 47.5254L95.6033 37.4993Z" fill="#2065EA" stroke="#2065EA" stroke-linejoin="round"/>
<path d="M95.0856 32.1719L84.087 40.7834L89.6579 47.8984L100.656 39.2868L95.0856 32.1719Z" fill="#E7E9EC" stroke="#2065EA" stroke-linejoin="round"/>
<path d="M86.4614 39.2616L90.5464 44.479" stroke="#2065EA" stroke-linejoin="round"/>
<path d="M90.1854 36.347L94.2704 41.5606" stroke="#2065EA" stroke-linejoin="round"/>
<path d="M89.1708 39.1438L93.2558 44.3574" stroke="#2065EA" stroke-linejoin="round"/>
<path d="M179.526 47.5327L185.994 52.5975L193.844 42.5714L187.376 37.5066L179.526 47.5327Z" fill="#2065EA" stroke="#2065EA" stroke-linejoin="round"/>
<path d="M182.329 39.285L193.327 47.8966L198.898 40.7817L187.9 32.1701L182.329 39.285Z" fill="#E7E9EC" stroke="#2065EA" stroke-linejoin="round"/>
<path d="M196.528 39.2616L192.443 44.479" stroke="#2065EA" stroke-linejoin="round"/>
<path d="M192.804 36.347L188.719 41.5606" stroke="#2065EA" stroke-linejoin="round"/>
<path d="M193.819 39.1438L189.734 44.3574" stroke="#2065EA" stroke-linejoin="round"/>
<path d="M147.66 19.8855H134.338V33.2273H147.66V19.8855Z" fill="#2065EA" stroke="#2065EA" stroke-linejoin="round"/>
<path d="M150.64 12.2323H131.358V25.5741H150.64V12.2323Z" fill="#E7E9EC" stroke="#2065EA" stroke-linejoin="round"/>
<path d="M133.091 12.1866V23.3054" stroke="#2065EA" stroke-linejoin="round"/>
<path d="M134.68 23.8032V17.8448" stroke="#2065EA" stroke-linejoin="round"/>
<path d="M136.367 12.4868V20.9228" stroke="#2065EA" stroke-linejoin="round"/>
<path d="M138.054 16.5566V24.301" stroke="#2065EA" stroke-linejoin="round"/>
<path d="M140.638 12.5857V21.3219" stroke="#2065EA" stroke-linejoin="round"/>
<path d="M190.279 149.868C217.497 122.65 217.497 78.5212 190.279 51.3033C163.061 24.0854 118.932 24.0854 91.714 51.3033C64.4961 78.5212 64.4961 122.65 91.714 149.868C118.932 177.086 163.061 177.086 190.279 149.868Z" fill="#2065EA" stroke="#2065EA" stroke-linejoin="round"/>
<path d="M184.502 144.091C208.529 120.064 208.529 81.1077 184.502 57.0804C160.474 33.0531 121.518 33.0531 97.4911 57.0804C73.4638 81.1077 73.4638 120.064 97.4911 144.091C121.518 168.118 160.474 168.118 184.502 144.091Z" fill="white" stroke="#2065EA" stroke-linejoin="round"/>
<path d="M181.092 140.681C203.236 118.537 203.236 82.6343 181.092 60.4902C158.948 38.3461 123.045 38.3461 100.901 60.4902C78.7567 82.6343 78.7567 118.537 100.901 140.681C123.045 162.825 158.948 162.825 181.092 140.681Z" fill="white" stroke="#2065EA" stroke-linejoin="round"/>
<path d="M140.999 43.8824V51.5698" stroke="#2065EA" stroke-linejoin="round"/>
<path d="M140.999 149.545V157.233" stroke="#2065EA" stroke-linejoin="round"/>
<path d="M197.672 100.559H189.985" stroke="#2065EA" stroke-linejoin="round"/>
<path d="M92.0094 100.559H84.322" stroke="#2065EA" stroke-linejoin="round"/>
<path d="M181.074 60.4846L175.636 65.9186" stroke="#2065EA" stroke-linejoin="round"/>
<path d="M106.358 135.196L100.924 140.634" stroke="#2065EA" stroke-linejoin="round"/>
<path d="M100.924 60.4846L106.358 65.9186" stroke="#2065EA" stroke-linejoin="round"/>
<path d="M175.636 135.196L181.074 140.634" stroke="#2065EA" stroke-linejoin="round"/>
<path d="M154.987 95.1597L155.872 98.5379L97.9222 112.514L97.6562 111.5L154.987 95.1597Z" fill="#2065EA" stroke="#2065EA" stroke-linejoin="round"/>
<path d="M143.222 100.586C143.222 100.146 143.092 99.7166 142.847 99.351C142.603 98.9854 142.256 98.7005 141.85 98.5323C141.444 98.364 140.997 98.32 140.565 98.4058C140.134 98.4915 139.738 98.7032 139.427 99.0141C139.116 99.325 138.904 99.7211 138.819 100.152C138.733 100.584 138.777 101.031 138.945 101.437C139.113 101.843 139.398 102.19 139.764 102.434C140.13 102.679 140.559 102.809 140.999 102.809C141.291 102.809 141.58 102.752 141.85 102.64C142.119 102.528 142.364 102.364 142.571 102.158C142.777 101.952 142.941 101.706 143.053 101.437C143.164 101.167 143.222 100.878 143.222 100.586Z" fill="white" stroke="#2065EA" stroke-linejoin="round"/>
</g>
</svg>
