<svg width="181" height="154" viewBox="0 0 181 154" fill="none" xmlns="http://www.w3.org/2000/svg" id="fines" >
<path d="M170.835 43.9172L57.8805 13.651C54.3884 12.7153 50.799 14.7877 49.8633 18.2798L1.69416 198.049C0.75846 201.541 2.83083 205.131 6.32293 206.067L119.278 236.333C122.77 237.268 126.359 235.196 127.295 231.704L175.464 51.9344C176.4 48.4423 174.327 44.8529 170.835 43.9172Z" fill="#0B1F44"/>
<path d="M170.298 50.2822L55.1694 19.4336L6.86455 199.71L121.993 230.558L170.298 50.2822Z" fill="white"/>
<path d="M121.901 230.877L6.7787 200.03C6.69366 200.008 6.62116 199.952 6.57714 199.876C6.53312 199.799 6.52119 199.709 6.54397 199.624L54.8557 19.3221C54.8785 19.2371 54.9341 19.1646 55.0103 19.1205C55.0866 19.0765 55.1772 19.0646 55.2622 19.0874L170.384 49.9343C170.469 49.9571 170.542 50.0127 170.586 50.089C170.63 50.1652 170.642 50.2558 170.619 50.3408L122.307 230.643C122.285 230.728 122.229 230.8 122.153 230.844C122.077 230.888 121.986 230.9 121.901 230.877ZM7.28399 199.478L121.752 230.15L169.885 50.5153L55.4042 19.8402L7.28399 199.478Z" fill="#0B1F44"/>
<path d="M125.74 28.5003L123.534 27.9093C123.074 27.779 122.645 27.5586 122.272 27.2608C121.898 26.9629 121.588 26.5937 121.358 26.1746C121.129 25.7555 120.985 25.2949 120.936 24.8197C120.886 24.3446 120.932 23.8643 121.07 23.4069C121.148 23.1451 121.204 22.8772 121.237 22.6061C121.376 21.3291 121.028 20.0466 120.262 19.0151C119.497 17.9835 118.37 17.279 117.108 17.0423C115.845 16.8056 114.54 17.0542 113.452 17.7383C112.365 18.4225 111.576 19.4919 111.243 20.7326L111.231 20.7775C111.122 21.2423 110.922 21.6807 110.641 22.0671C110.361 22.4536 110.006 22.7802 109.598 23.0279C109.19 23.2757 108.737 23.4395 108.264 23.51C107.792 23.5805 107.311 23.5561 106.848 23.4382L104.642 22.8471C103.973 22.667 103.275 22.6205 102.588 22.7103C101.901 22.8 101.239 23.0243 100.639 23.3704C100.038 23.7164 99.5122 24.1773 99.0903 24.7268C98.6684 25.2764 98.3589 25.9036 98.1796 26.5728L96.3496 33.4025L127.644 41.7877L129.474 34.9581C129.653 34.2889 129.699 33.591 129.608 32.9041C129.518 32.2173 129.292 31.555 128.946 30.9553C128.599 30.3555 128.137 29.83 127.587 29.4087C127.037 28.9875 126.41 28.6788 125.74 28.5003Z" fill="#9DA5B4"/>
<path d="M127.558 42.1084L96.2635 33.7231C96.1785 33.7004 96.106 33.6447 96.062 33.5685C96.018 33.4922 96.006 33.4016 96.0288 33.3166L97.8588 26.487C98.245 25.0525 99.1844 23.8298 100.471 23.087C101.757 22.3442 103.286 22.1421 104.721 22.5248L106.927 23.1159C107.33 23.2253 107.751 23.253 108.165 23.1975C108.579 23.1419 108.977 23.0043 109.337 22.7925C109.724 22.5627 110.062 22.2586 110.331 21.8977C110.6 21.5369 110.795 21.1264 110.904 20.6899C111.253 19.3662 112.088 18.2229 113.244 17.4889C114.399 16.7549 115.789 16.4842 117.136 16.7312C118.482 16.9782 119.685 17.7245 120.505 18.8208C121.325 19.9171 121.7 21.2825 121.556 22.6438C121.526 22.9334 121.47 23.2198 121.389 23.4993C121.145 24.3784 121.259 25.3182 121.706 26.1135C121.91 26.4746 122.185 26.7911 122.514 27.0444C122.843 27.2977 123.219 27.4828 123.62 27.5887L125.826 28.1798C127.262 28.5646 128.487 29.5036 129.231 30.7907C129.975 32.0778 130.178 33.6076 129.794 35.0441L127.964 41.8737C127.942 41.9588 127.886 42.0313 127.81 42.0753C127.734 42.1193 127.643 42.1312 127.558 42.1084ZM96.756 33.1678L127.409 41.3813L129.153 34.8723C129.491 33.6059 129.312 32.2573 128.656 31.1227C128 29.9881 126.92 29.1603 125.654 28.821L123.448 28.23C122.962 28.1006 122.507 27.8757 122.109 27.5685C121.711 27.2612 121.378 26.8777 121.13 26.4404C120.865 25.971 120.695 25.4539 120.629 24.9186C120.564 24.3834 120.605 23.8405 120.749 23.3211C120.821 23.0756 120.87 22.8242 120.896 22.5699C121.019 21.3797 120.691 20.1867 119.975 19.2276C119.26 18.2685 118.21 17.6136 117.034 17.3928C115.858 17.1721 114.642 17.4017 113.627 18.036C112.613 18.6703 111.874 19.6629 111.557 20.8168C111.43 21.3459 111.197 21.844 110.873 22.2815C110.549 22.7189 110.141 23.0868 109.672 23.3634C109.237 23.6198 108.754 23.7867 108.254 23.8544C107.753 23.922 107.244 23.889 106.756 23.7572L104.55 23.1661C103.284 22.8289 101.937 23.0072 100.803 23.6619C99.6688 24.3167 98.8407 25.3944 98.5001 26.6588L96.756 33.1678Z" fill="#0B1F44"/>
<path d="M145.871 105.685L50.0068 79.9983L49.8349 80.6396L145.7 106.326L145.871 105.685Z" fill="#0B1F44"/>
<path d="M142.341 118.864L46.4759 93.1768L46.3041 93.818L142.169 119.505L142.341 118.864Z" fill="#0B1F44"/>
<path d="M138.807 132.048L42.9423 106.361L42.7704 107.003L138.635 132.689L138.807 132.048Z" fill="#0B1F44"/>
<path d="M135.276 145.226L39.4114 119.539L39.2395 120.181L135.104 145.867L135.276 145.226Z" fill="#0B1F44"/>
<path d="M131.744 158.411L35.8791 132.724L35.7073 133.366L131.572 159.052L131.744 158.411Z" fill="#0B1F44"/>
<path d="M128.212 171.589L32.3476 145.902L32.1758 146.544L128.04 172.23L128.212 171.589Z" fill="#0B1F44"/>
<path d="M83.0816 48.7932L82.5519 50.7703L76.9144 49.2597L77.4441 47.2826L83.0816 48.7932ZM79.4612 43.2868L76.6044 53.9484L73.9555 53.2386L76.8123 42.577L79.4612 43.2868ZM85.9968 45.038L83.14 55.6996L80.4986 54.9918L83.3554 44.3302L85.9968 45.038Z" fill="#A6A6A6"/>
<path d="M89.4772 55.2629L90.3523 51.9971C90.4125 51.7725 90.4314 51.5709 90.4092 51.3923C90.387 51.2137 90.3172 51.0616 90.1998 50.936C90.0838 50.8055 89.9076 50.7085 89.6711 50.6452C89.4799 50.5939 89.3079 50.5818 89.155 50.6089C89.0022 50.636 88.8736 50.7035 88.7691 50.8116C88.6647 50.9196 88.5863 51.0713 88.534 51.2666L85.9907 50.5851C86.0888 50.219 86.2627 49.9019 86.5124 49.634C86.7685 49.3625 87.0839 49.1514 87.4587 49.0007C87.8384 48.8513 88.2641 48.7718 88.7359 48.7621C89.2139 48.749 89.7247 48.8152 90.268 48.9608C90.9171 49.1347 91.4675 49.3947 91.9194 49.7407C92.3764 50.0882 92.697 50.5115 92.8814 51.0109C93.067 51.5054 93.0755 52.0675 92.9068 52.6972L92.0376 55.9411C91.8989 56.4586 91.8238 56.8596 91.8122 57.1443C91.802 57.4241 91.8254 57.6789 91.8824 57.9087L91.8491 58.0332L89.2982 57.3497C89.2429 57.0733 89.2321 56.7512 89.2659 56.3836C89.3061 56.0124 89.3765 55.6388 89.4772 55.2629ZM90.5499 52.4974L90.2118 53.8195L89.0873 53.5182C88.8509 53.4548 88.6411 53.4326 88.4581 53.4516C88.2801 53.4719 88.1257 53.5247 87.995 53.61C87.8706 53.6918 87.7675 53.795 87.6856 53.9196C87.6087 54.0455 87.55 54.1841 87.5094 54.3354C87.4702 54.4819 87.4701 54.6231 87.5091 54.7591C87.5545 54.8916 87.6316 55.0065 87.7404 55.1036C87.8492 55.2008 87.9815 55.2703 88.1375 55.3121C88.4193 55.3876 88.672 55.4003 88.8957 55.3504C89.1257 55.2969 89.3138 55.2087 89.46 55.0857C89.6062 54.9626 89.697 54.8352 89.7323 54.7034L90.02 55.8636C89.867 56.0319 89.6984 56.1986 89.5139 56.3637C89.3345 56.5301 89.1263 56.6732 88.8893 56.7928C88.6587 56.9089 88.3932 56.9842 88.0927 57.0188C87.7935 57.0485 87.4503 57.0115 87.0629 56.9077C86.5597 56.7729 86.1237 56.5488 85.7547 56.2354C85.3907 55.9234 85.1307 55.5554 84.9746 55.1317C84.8199 54.703 84.8053 54.2544 84.9308 53.7857C85.0407 53.3757 85.2143 53.0298 85.4516 52.748C85.6939 52.4676 86.0011 52.2569 86.3732 52.116C86.7453 51.975 87.1885 51.9106 87.7029 51.9229C88.2173 51.9351 88.8015 52.0289 89.4556 52.2042L90.5499 52.4974Z" fill="#A6A6A6"/>
<path d="M96.3095 55.6653L99.7907 51.6693L102.334 52.3508L100.211 60.2738L97.6677 59.5923L98.9038 54.9791L95.4187 58.9897L92.8679 58.3062L94.9909 50.3832L97.5417 51.0667L96.3095 55.6653ZM100.67 48.3262L102.414 48.7933C102.296 49.2327 102.075 49.5922 101.752 49.8719C101.436 50.1481 101.043 50.3254 100.575 50.4039C100.106 50.4824 99.5874 50.4455 99.0189 50.2931C98.1586 50.0626 97.5324 49.6725 97.1405 49.1227C96.7498 48.5681 96.6435 47.9588 96.8214 47.2949L98.5571 47.76C98.493 47.9992 98.516 48.2355 98.626 48.4691C98.736 48.7026 98.9847 48.8713 99.3721 48.9751C99.7595 49.0789 100.057 49.0565 100.264 48.9079C100.471 48.7593 100.606 48.5654 100.67 48.3262Z" fill="#A6A6A6"/>
<path d="M105.209 53.1212L107.753 53.8027L107.046 56.2896C106.79 57.1838 106.475 57.9261 106.101 58.5165C105.734 59.1035 105.324 59.5666 104.872 59.9058C104.421 60.2402 103.944 60.4708 103.441 60.5976C102.944 60.7209 102.441 60.7666 101.932 60.7348L101.66 60.662L102.109 58.7733L102.314 58.7966C102.694 58.5846 103.002 58.369 103.239 58.1499C103.482 57.9272 103.675 57.6911 103.817 57.4415C103.965 57.1932 104.089 56.9204 104.19 56.6231C104.293 56.321 104.397 55.9826 104.502 55.6081L105.209 53.1212ZM105.919 53.3113L111.564 54.8239L109.441 62.7469L106.905 62.0674L108.518 56.0483L105.409 55.2152L105.919 53.3113ZM101.589 58.6025L111.174 61.1706L110.02 65.4763L107.477 64.7948L108.12 62.393L103.69 61.206L103.047 63.6078L100.435 62.9081L101.589 58.6025Z" fill="#A6A6A6"/>
<path d="M115.454 64.5151C114.79 64.3372 114.223 64.078 113.754 63.7377C113.285 63.3924 112.918 62.9931 112.651 62.5397C112.389 62.0876 112.225 61.604 112.158 61.0891C112.096 60.5754 112.134 60.0599 112.273 59.5424L112.348 59.2642C112.503 58.6832 112.73 58.1685 113.028 57.7199C113.328 57.2665 113.691 56.8981 114.117 56.6147C114.544 56.3313 115.031 56.1532 115.579 56.0802C116.128 56.0024 116.73 56.0512 117.384 56.2264C117.962 56.3815 118.456 56.6106 118.866 56.9139C119.275 57.2172 119.593 57.5798 119.82 58.0015C120.052 58.4247 120.187 58.8977 120.225 59.4205C120.267 59.9448 120.209 60.5047 120.049 61.1003L119.781 62.1034L113.109 60.3158L113.523 58.7708L117.712 59.8931L117.763 59.7027C117.838 59.4404 117.851 59.2031 117.8 58.9906C117.754 58.7795 117.651 58.6002 117.491 58.4527C117.331 58.3052 117.118 58.1957 116.851 58.1242C116.574 58.0501 116.33 58.0473 116.117 58.1159C115.91 58.1859 115.728 58.3099 115.573 58.488C115.423 58.6625 115.293 58.8762 115.183 59.1291C115.072 59.3819 114.977 59.6547 114.898 59.9476L114.824 60.2259C114.745 60.5188 114.714 60.7956 114.731 61.0564C114.752 61.3185 114.818 61.5559 114.928 61.7686C115.045 61.9777 115.201 62.1583 115.398 62.3104C115.599 62.4638 115.844 62.5789 116.13 62.6557C116.477 62.7488 116.837 62.777 117.208 62.7404C117.579 62.7038 117.924 62.5714 118.244 62.3432L119.042 63.9853C118.814 64.1702 118.518 64.329 118.154 64.4615C117.794 64.5955 117.385 64.6741 116.926 64.6976C116.468 64.7161 115.977 64.6553 115.454 64.5151Z" fill="#A6A6A6"/>
<path d="M126.901 62.2455L126.393 64.142L122.318 63.0501L122.826 61.1535L126.901 62.2455ZM124.582 58.3121L122.459 66.2351L119.916 65.5537L122.039 57.6307L124.582 58.3121ZM129.359 59.5922L127.236 67.5152L124.685 66.8317L126.808 58.9087L129.359 59.5922Z" fill="#A6A6A6"/>
<path d="M129.363 63.9254L129.404 63.7716C129.56 63.1907 129.789 62.6791 130.09 62.2368C130.394 61.7895 130.76 61.4298 131.188 61.1575C131.617 60.8853 132.103 60.7144 132.644 60.6451C133.187 60.5708 133.778 60.6193 134.417 60.7905C135.061 60.963 135.6 61.2172 136.033 61.553C136.472 61.8853 136.81 62.2765 137.045 62.7267C137.28 63.177 137.417 63.6715 137.456 64.2104C137.496 64.7444 137.439 65.3019 137.283 65.8828L137.242 66.0366C137.087 66.6126 136.859 67.1242 136.556 67.5714C136.254 68.0138 135.888 68.3735 135.457 68.6507C135.029 68.9229 134.543 69.0938 134.002 69.1631C133.46 69.2325 132.87 69.1816 132.231 69.0104C131.592 68.8392 131.053 68.5875 130.613 68.2552C130.174 67.9229 129.836 67.5317 129.601 67.0815C129.367 66.6264 129.23 66.1318 129.19 65.5978C129.151 65.0589 129.209 64.5015 129.363 63.9254ZM131.947 64.4531L131.906 64.6069C131.826 64.9047 131.774 65.189 131.75 65.4599C131.726 65.7307 131.741 65.9779 131.794 66.2015C131.849 66.4202 131.953 66.6075 132.105 66.7635C132.257 66.9194 132.469 67.0337 132.741 67.1065C133.008 67.178 133.243 67.1836 133.448 67.1234C133.658 67.0645 133.841 66.9541 133.998 66.792C134.156 66.625 134.292 66.4183 134.407 66.1717C134.522 65.9251 134.619 65.6529 134.699 65.3551L134.74 65.2013C134.817 64.9133 134.867 64.6363 134.89 64.3703C134.914 64.0995 134.899 63.8522 134.846 63.6287C134.794 63.4002 134.692 63.2056 134.541 63.0447C134.39 62.8839 134.179 62.7671 133.907 62.6943C133.64 62.6229 133.401 62.619 133.19 62.6828C132.984 62.7479 132.801 62.8663 132.642 63.0382C132.484 63.2051 132.348 63.4119 132.233 63.6585C132.12 63.9002 132.025 64.1651 131.947 64.4531Z" fill="#A6A6A6"/>
<path d="M71.2397 63.3728L73.709 64.0345L72.1673 69.7884L74.0212 70.2851L75.5629 64.5312L78.047 65.1968L76.5052 70.9507L78.3591 71.4475L79.9009 65.6936L82.3703 66.3552L80.3408 73.9291L69.2102 70.9467L71.2397 63.3728Z" fill="#A6A6A6"/>
<path d="M88.269 67.9358L86.2395 75.5097L83.7628 74.8461L85.7922 67.2721L88.269 67.9358ZM90.775 68.6073L90.2911 70.4133L82.8463 68.4184L83.3302 66.6124L90.775 68.6073Z" fill="#A6A6A6"/>
<path d="M93.7995 70.9782L91.38 80.0081L88.9106 79.3464L91.7203 68.8606L94.0211 69.4771L93.7995 70.9782ZM98.0648 74.5219L98.0255 74.6689C97.8779 75.2196 97.675 75.7129 97.4168 76.1489C97.1587 76.5849 96.8532 76.9432 96.5005 77.2238C96.1478 77.5044 95.7523 77.691 95.3138 77.7836C94.8815 77.8728 94.4138 77.85 93.9106 77.7152C93.4368 77.5882 93.0558 77.3786 92.7676 77.0863C92.4794 76.794 92.268 76.4398 92.1335 76.0236C91.9989 75.6074 91.922 75.1517 91.9029 74.6564C91.8838 74.1611 91.9009 73.648 91.9541 73.1171L92.0048 72.9281C92.2341 72.4044 92.4821 71.9281 92.7488 71.4994C93.0168 71.0661 93.3125 70.7052 93.6358 70.4167C93.9592 70.1282 94.3157 69.9311 94.7053 69.8254C95.0998 69.7211 95.5339 69.7324 96.0078 69.8593C96.5109 69.9942 96.9286 70.2036 97.2609 70.4877C97.5981 70.7731 97.8505 71.1208 98.0181 71.5309C98.1918 71.9376 98.2815 72.3942 98.2871 72.9009C98.2927 73.4076 98.2186 73.9479 98.0648 74.5219ZM95.5561 74.0072L95.5954 73.8602C95.6742 73.5662 95.7241 73.292 95.7452 73.0376C95.7675 72.7784 95.7542 72.5448 95.7052 72.3366C95.6612 72.1298 95.5741 71.9564 95.4441 71.8165C95.314 71.6766 95.1342 71.5759 94.9046 71.5144C94.6408 71.4437 94.4079 71.4238 94.2059 71.4547C94.01 71.4823 93.8371 71.561 93.6871 71.6908C93.5433 71.8173 93.4181 71.9914 93.3116 72.2129C93.2113 72.4311 93.1223 72.6949 93.0446 73.0042L92.8908 73.5782C92.786 73.9302 92.7389 74.2527 92.7494 74.5456C92.7612 74.8339 92.8496 75.0801 93.0148 75.2844C93.18 75.4888 93.4384 75.638 93.7901 75.7323C94.0246 75.7951 94.2338 75.7961 94.4176 75.7353C94.6027 75.6699 94.7666 75.5563 94.9095 75.3945C95.0535 75.228 95.1783 75.0264 95.2836 74.7895C95.389 74.5526 95.4798 74.2919 95.5561 74.0072Z" fill="#A6A6A6"/>
<path d="M102.753 77.8938L103.59 74.7719C103.647 74.5572 103.665 74.3644 103.643 74.1933C103.62 74.0223 103.552 73.8765 103.438 73.7558C103.325 73.6305 103.153 73.5371 102.924 73.4756C102.738 73.4259 102.571 73.4136 102.423 73.439C102.275 73.4643 102.151 73.5285 102.05 73.6315C101.949 73.7345 101.873 73.8793 101.823 74.066L99.3539 73.4043C99.4476 73.0543 99.6151 72.7516 99.8564 72.4961C100.104 72.2373 100.409 72.0364 100.772 71.8936C101.14 71.7521 101.552 71.6776 102.01 71.6701C102.473 71.6593 102.969 71.7246 103.497 71.866C104.127 72.0348 104.662 72.2857 105.101 72.6185C105.546 72.9527 105.858 73.3591 106.039 73.8376C106.221 74.3115 106.231 74.8495 106.07 75.4515L105.239 78.5524C105.107 79.0471 105.035 79.4306 105.025 79.703C105.016 79.9707 105.04 80.2146 105.096 80.4347L105.064 80.5537L102.587 79.8901C102.533 79.6253 102.521 79.3171 102.552 78.9654C102.59 78.6104 102.657 78.2532 102.753 77.8938ZM103.783 75.2514L103.46 76.5153L102.368 76.2227C102.139 76.1612 101.935 76.1392 101.758 76.1566C101.585 76.1754 101.436 76.2254 101.309 76.3065C101.189 76.3843 101.089 76.4827 101.01 76.6016C100.936 76.7218 100.88 76.8542 100.841 76.9989C100.804 77.1389 100.804 77.274 100.842 77.4043C100.887 77.5313 100.962 77.6415 101.068 77.7349C101.174 77.8283 101.302 77.8952 101.454 77.9358C101.727 78.0091 101.973 78.0223 102.189 77.9754C102.412 77.925 102.594 77.8413 102.736 77.7241C102.877 77.6069 102.965 77.4854 102.998 77.3594L103.282 78.4706C103.134 78.6311 102.971 78.79 102.793 78.9473C102.619 79.1059 102.418 79.242 102.189 79.3556C101.965 79.4659 101.708 79.537 101.417 79.5689C101.127 79.5963 100.794 79.5595 100.418 79.4587C99.929 79.3278 99.5052 79.1117 99.1462 78.8105C98.792 78.5105 98.5384 78.1575 98.3854 77.7513C98.2337 77.3406 98.2179 76.9112 98.3379 76.4632C98.4429 76.0712 98.61 75.7408 98.8391 75.4721C99.073 75.2047 99.3702 75.0042 99.7306 74.8707C100.091 74.7372 100.521 74.6773 101.02 74.6909C101.519 74.7046 102.086 74.7965 102.721 74.9667L103.783 75.2514Z" fill="#A6A6A6"/>
<path d="M117.037 79.718L116.998 79.865C116.85 80.4157 116.651 80.905 116.4 81.333C116.151 81.7563 115.854 82.1019 115.51 82.3698C115.171 82.6391 114.793 82.8179 114.376 82.9064C113.966 82.9916 113.522 82.97 113.043 82.8417C112.579 82.7174 112.206 82.515 111.925 82.2347C111.645 81.9543 111.437 81.6161 111.302 81.2199C111.169 80.819 111.091 80.3756 111.069 79.8896C111.053 79.405 111.073 78.8978 111.132 78.3682L111.182 78.1792C111.407 77.6542 111.652 77.1697 111.917 76.7256C112.183 76.2816 112.477 75.9077 112.799 75.6039C113.121 75.3002 113.476 75.0901 113.863 74.9738C114.25 74.8575 114.674 74.8608 115.133 74.9839C115.519 75.0873 115.851 75.2439 116.13 75.4536C116.409 75.6634 116.634 75.9164 116.806 76.2125C116.984 76.5053 117.11 76.8367 117.184 77.2065C117.259 77.5717 117.284 77.9661 117.26 78.3897C117.235 78.8133 117.161 79.256 117.037 79.718ZM114.521 79.2014L114.56 79.0544C114.623 78.8211 114.67 78.5961 114.702 78.3796C114.735 78.1584 114.748 77.9519 114.742 77.7602C114.736 77.5685 114.706 77.3955 114.654 77.2413C114.606 77.0883 114.53 76.9605 114.426 76.8578C114.323 76.7551 114.191 76.6821 114.03 76.6389C113.663 76.5407 113.344 76.5402 113.072 76.6374C112.801 76.7299 112.575 76.9093 112.394 77.1759C112.213 77.4377 112.071 77.7746 111.966 78.1866L111.812 78.7606C111.712 79.1139 111.679 79.4303 111.715 79.7098C111.751 79.9846 111.866 80.2205 112.059 80.4173C112.258 80.6108 112.544 80.7573 112.915 80.8568C113.12 80.9118 113.304 80.9109 113.466 80.8542C113.633 80.7942 113.782 80.689 113.911 80.5386C114.042 80.3835 114.156 80.1939 114.252 79.9697C114.355 79.7422 114.445 79.4861 114.521 79.2014ZM106.761 77.1221L106.8 76.9751C106.924 76.5132 107.081 76.0926 107.272 75.7135C107.463 75.3345 107.682 75.0055 107.929 74.7267C108.178 74.4433 108.45 74.2186 108.746 74.0528C109.048 73.8836 109.372 73.7779 109.718 73.7356C110.065 73.6934 110.428 73.7233 110.809 73.8254C111.274 73.9498 111.644 74.1591 111.921 74.4535C112.199 74.7478 112.401 75.1071 112.528 75.5313C112.655 75.9555 112.723 76.4263 112.731 76.9436C112.744 77.4622 112.716 78.005 112.648 78.5719L112.601 78.7469C112.385 79.2393 112.146 79.6905 111.885 80.1005C111.628 80.5119 111.339 80.8571 111.018 81.1363C110.702 81.4167 110.352 81.6081 109.969 81.7104C109.586 81.8128 109.159 81.8011 108.69 81.6754C108.217 81.5485 107.821 81.3449 107.503 81.0647C107.187 80.7799 106.949 80.4361 106.79 80.0333C106.631 79.6306 106.549 79.1835 106.545 78.6922C106.541 78.1961 106.614 77.6728 106.761 77.1221ZM109.27 77.6368L109.231 77.7838C109.154 78.0685 109.101 78.3344 109.072 78.5816C109.048 78.8254 109.055 79.0447 109.092 79.2396C109.133 79.4359 109.212 79.6019 109.327 79.7379C109.444 79.8692 109.605 79.9623 109.81 80.0173C110.186 80.1181 110.507 80.1339 110.771 80.0648C111.037 79.991 111.255 79.8418 111.425 79.6173C111.6 79.3941 111.731 79.1015 111.817 78.7396L111.966 78.1866C112.085 77.7785 112.13 77.4154 112.1 77.0973C112.077 76.7758 111.971 76.5073 111.782 76.2918C111.6 76.0729 111.323 75.9138 110.952 75.8143C110.747 75.7593 110.558 75.7688 110.387 75.8429C110.216 75.9122 110.061 76.0332 109.92 76.2056C109.781 76.3734 109.658 76.5803 109.55 76.8265C109.442 77.0727 109.349 77.3428 109.27 77.6368ZM108.893 84.7007L112.554 71.0368L115.031 71.7005L111.37 85.3643L108.893 84.7007Z" fill="#A6A6A6"/>
<path d="M117.804 79.9911L117.844 79.8441C117.992 79.2888 118.212 78.8001 118.504 78.3779C118.796 77.9511 119.15 77.6082 119.565 77.3493C119.98 77.0903 120.45 76.9287 120.975 76.8643C121.501 76.7953 122.074 76.8439 122.695 77.0101C123.32 77.1777 123.843 77.4229 124.265 77.7459C124.692 78.0655 125.021 78.4412 125.251 78.8729C125.481 79.3046 125.616 79.7784 125.655 80.2942C125.696 80.8054 125.642 81.3386 125.494 81.8939L125.454 82.0409C125.307 82.5916 125.087 83.0803 124.794 83.5072C124.503 83.9293 124.15 84.2722 123.733 84.5358C123.318 84.7948 122.848 84.9564 122.323 85.0208C121.798 85.0851 121.225 85.0342 120.605 84.868C119.985 84.7017 119.461 84.4588 119.033 84.1392C118.606 83.8196 118.277 83.4439 118.047 83.0122C117.819 82.5758 117.684 82.102 117.643 81.5909C117.603 81.075 117.657 80.5418 117.804 79.9911ZM120.313 80.5058L120.274 80.6528C120.197 80.9375 120.148 81.2094 120.126 81.4685C120.104 81.7276 120.119 81.9642 120.171 82.1784C120.225 82.3878 120.326 82.5675 120.474 82.7173C120.623 82.8671 120.829 82.9773 121.093 83.048C121.352 83.1173 121.58 83.1236 121.779 83.0668C121.982 83.0112 122.16 82.9062 122.311 82.7517C122.463 82.5925 122.595 82.3951 122.705 82.1596C122.815 81.924 122.909 81.6639 122.985 81.3793L123.024 81.2323C123.098 80.9569 123.145 80.6921 123.167 80.4376C123.189 80.1785 123.174 79.9419 123.121 79.7277C123.07 79.5089 122.971 79.3223 122.824 79.1678C122.676 79.0133 122.471 78.9008 122.207 78.8301C121.948 78.7607 121.716 78.7561 121.512 78.8163C121.312 78.8779 121.135 78.9905 120.981 79.1544C120.829 79.3136 120.697 79.5109 120.587 79.7465C120.478 79.9774 120.387 80.2305 120.313 80.5058Z" fill="#A6A6A6"/>
<path d="M130.468 84.0521L128.035 83.4002L128.411 81.9403L130.433 82.4822C130.633 82.5359 130.798 82.5574 130.926 82.5468C131.06 82.5376 131.162 82.4975 131.233 82.4266C131.311 82.3523 131.366 82.2545 131.398 82.1332C131.431 82.0118 131.439 81.9039 131.422 81.8095C131.411 81.7163 131.373 81.6336 131.308 81.5613C131.249 81.4903 131.166 81.4281 131.06 81.3747C130.954 81.3212 130.825 81.2742 130.673 81.2337L129.743 80.9843L128.197 86.7522L125.728 86.0906L127.757 78.5167L131.157 79.4277C131.68 79.5677 132.137 79.7377 132.529 79.9377C132.921 80.1329 133.238 80.3578 133.479 80.6124C133.726 80.8636 133.892 81.1431 133.977 81.451C134.062 81.7589 134.056 82.0925 133.96 82.4518C133.897 82.6852 133.78 82.8888 133.608 83.0627C133.435 83.2366 133.213 83.3721 132.941 83.4693C132.674 83.5677 132.36 83.6238 132.001 83.6375C131.642 83.6464 131.245 83.605 130.809 83.5132L130.468 84.0521ZM129.641 87.139L126.673 86.3439L127.912 84.7401L130.125 85.3331C130.33 85.388 130.502 85.4092 130.642 85.3966C130.781 85.3839 130.893 85.3388 130.976 85.2612C131.06 85.1836 131.12 85.0771 131.156 84.9417C131.191 84.8111 131.198 84.6902 131.175 84.5791C131.152 84.468 131.085 84.3675 130.973 84.2774C130.866 84.1887 130.698 84.1136 130.468 84.0521L128.533 83.5337L128.938 82.0817L131.027 82.6412L131.395 83.3776C132.002 83.5752 132.475 83.8097 132.816 84.0811C133.162 84.3538 133.391 84.6427 133.503 84.9478C133.62 85.2542 133.637 85.5614 133.554 85.8694C133.458 86.2287 133.3 86.5241 133.081 86.7555C132.867 86.9882 132.594 87.1576 132.262 87.2637C131.931 87.3651 131.546 87.4068 131.105 87.3889C130.671 87.3676 130.183 87.2843 129.641 87.139Z" fill="#A6A6A6"/>
</svg>
