<svg width="244" height="244" viewBox="0 0 244 244" fill="none" xmlns="http://www.w3.org/2000/svg" id="floatlink-pic" >
<path d="M91.6927 270.039V144.452C91.6803 143.369 91.8743 142.295 92.2637 141.29C92.653 140.284 93.2301 139.369 93.9619 138.594C94.6936 137.82 95.5657 137.203 96.5282 136.778C97.4907 136.353 98.5248 136.128 99.5714 136.117H234.845C236.958 136.142 238.974 137.035 240.452 138.598C241.929 140.161 242.746 142.266 242.724 144.452V270.039H91.6927Z" fill="#9DA5B4" stroke="#0B1F44" stroke-miterlimit="10"/>
<path d="M76.6251 270.039V144.452C76.6028 142.266 77.4201 140.161 78.8973 138.598C80.3746 137.035 82.3911 136.142 84.5038 136.117H219.778C220.824 136.128 221.858 136.353 222.821 136.778C223.783 137.203 224.655 137.82 225.387 138.594C226.119 139.369 226.696 140.284 227.085 141.29C227.475 142.295 227.669 143.369 227.656 144.452V270.039H76.6251Z" fill="#9DA5B4" stroke="#0B1F44" stroke-miterlimit="10"/>
<path d="M1.00507 270.039V209.213C0.98835 207.532 1.61715 205.912 2.75343 204.71C3.88972 203.508 5.4406 202.822 7.06554 202.802H83.4902C85.1106 202.828 86.655 203.517 87.7851 204.719C88.9152 205.92 89.5389 207.537 89.5193 209.213V270.082L1.00507 270.039Z" fill="#9DA5B4" stroke="#0B1F44" stroke-miterlimit="10"/>
<path d="M1.00502 270.039V209.375C0.939842 207.693 1.52102 206.053 2.62146 204.813C3.72191 203.573 5.25209 202.835 6.87741 202.759H37.7858C39.4111 202.835 40.9413 203.573 42.0418 204.813C43.1422 206.053 43.7234 207.693 43.6582 209.375V270.039H1.00502Z" fill="#9DA5B4" stroke="#0B1F44" stroke-miterlimit="10"/>
<path d="M15.8112 270.039C29.395 261.054 61.7245 239.291 68.3806 231.258C76.8548 221.03 78.6207 217.744 85.329 218.111C92.0373 218.479 160.562 228.339 160.562 228.339C163.429 232.195 165.366 236.701 166.215 241.486C167.093 247.573 159.946 264.514 157.48 270.039H15.8112Z" fill="#0B1F44" stroke="#0B1F44" stroke-miterlimit="10"/>
<path d="M133.343 81.4755C132.298 81.5404 112.162 83.6378 104.085 87.3245C96.0079 91.0112 78.6625 95.725 73.0095 98.2873C67.3566 100.85 64.1905 103.758 63.4799 111.434C62.7694 119.11 56.0611 147.599 55.0057 152.345C53.9504 157.091 52.1845 177.211 54.2952 183.406C56.4059 189.601 81.4628 190.347 81.4628 190.347C81.4628 190.347 81.8181 200.207 80.4179 205.689C79.0177 211.17 75.4755 219.938 87.1262 222.122C98.777 224.306 158.797 237.474 163.039 234.545C167.281 231.615 165.505 208.975 165.505 203.494C165.505 198.013 170.803 186.693 170.803 186.693C175.875 187.964 180.835 189.675 185.63 191.807C191.638 194.726 199.402 193.266 209.287 189.98C219.171 186.693 219.851 177.19 222.672 171.373C225.493 165.556 213.142 157.123 210.676 152.734C208.21 148.345 191.251 108.169 190.541 103.78C189.83 99.3901 180.311 98.309 167.553 94.2871C167.595 94.2655 140.051 81.1079 133.343 81.4755Z" fill="#6D798F" stroke="#0B1F44" stroke-miterlimit="10"/>
<path d="M147.438 222.111C138.233 211.668 115.778 187.374 99.5084 179.493" stroke="#0B1F44" stroke-miterlimit="10"/>
<path d="M151.629 226.966C151.629 226.966 150.73 225.885 149.121 224.047" stroke="#0B1F44" stroke-miterlimit="10"/>
<path d="M132.162 199.602C131.222 198.867 130.281 198.142 129.351 197.439" stroke="#0B1F44" stroke-miterlimit="10"/>
<path d="M149.842 215.905C149.842 215.905 143.656 209.419 136.394 203.105" stroke="#0B1F44" stroke-miterlimit="10"/>
<path d="M183.749 130.841C180.615 143.047 176.195 159.556 174.481 163.924C171.66 171.081 169.862 183.277 169.862 183.277" fill="white"/>
<path d="M183.749 130.841C180.615 143.047 176.195 159.556 174.481 163.924C171.66 171.081 169.862 183.277 169.862 183.277" stroke="#0B1F44" stroke-miterlimit="10"/>
<path d="M187.281 117.013C187.281 117.013 186.236 121.067 184.784 126.83L187.281 117.013Z" fill="white"/>
<path d="M187.281 117.013C187.281 117.013 186.236 121.067 184.784 126.83" stroke="#0B1F44" stroke-miterlimit="10"/>
<path d="M189.204 145.144C190.711 144.027 192.404 143.206 194.199 142.723" stroke="#0B1F44" stroke-miterlimit="10"/>
<path d="M197.072 150.983C193.216 151.837 188.556 153.567 186.006 157.037C183.619 160.182 181.394 163.455 179.34 166.843C179.34 166.843 178.828 161.805 182.412 154.118C183.408 151.921 184.676 149.868 186.184 148.009" stroke="#0B1F44" stroke-miterlimit="10"/>
<path d="M203.414 150.15C203.414 150.15 202.422 150.15 200.886 150.345" stroke="#0B1F44" stroke-miterlimit="10"/>
<path d="M209.569 156.767C209.569 156.767 200.342 152.269 191.377 155.977" stroke="#0B1F44" stroke-miterlimit="10"/>
<path d="M75.3609 127.295L83.2917 185.396" stroke="#0B1F44" stroke-miterlimit="10"/>
<path d="M73.8142 115.953L74.6606 122.202" stroke="#0B1F44" stroke-miterlimit="10"/>
<path d="M62.3517 152.096C60.7143 151.118 58.957 150.373 57.1272 149.88" stroke="#0B1F44" stroke-miterlimit="10"/>
<path d="M81.7557 178.509C81.7557 178.509 80.9825 172.411 73.3024 162.075C70.873 158.755 67.9366 155.866 64.6088 153.523" stroke="#0B1F44" stroke-miterlimit="10"/>
<path d="M80.7316 179.038C80.7316 179.038 72.2782 167.632 62.5397 166.573" stroke="#0B1F44" stroke-miterlimit="10"/>
<path d="M137.585 78.5564C137.585 78.5564 143.583 78.924 145.004 82.2107C146.425 85.4973 146.415 113.629 146.415 113.629C146.415 113.629 125.935 105.585 123.113 105.585C120.292 105.585 98.3908 114.353 98.3908 114.353C98.3908 114.353 101.222 93.8979 106.165 85.8649C111.107 77.832 119.582 78.1888 122.403 78.1888C125.224 78.1888 137.585 78.5564 137.585 78.5564Z" fill="white" stroke="#0B1F44" stroke-miterlimit="10"/>
<path d="M142.883 75.9941L141.472 83.6702C141.472 83.6702 123.458 119.467 121.347 116.916C119.237 114.364 108.631 85.1298 108.631 85.1298L107.931 74.9021C107.931 74.9021 116.405 80.7511 121.347 80.7511C126.29 80.7511 141.472 72.3398 141.472 72.3398L142.883 75.9941Z" fill="white" stroke="#0B1F44" stroke-miterlimit="10"/>
<path d="M107.931 74.9021C107.931 74.9021 116.405 80.7511 121.347 80.7511C126.29 80.7511 141.472 72.3398 141.472 72.3398L142.883 75.9941L141.472 83.6702C141.472 83.6702 137.408 91.7464 132.914 99.9523C132.195 99.6742 131.497 99.3417 130.825 98.9577C111.17 87.5515 107.931 74.9021 107.931 74.9021Z" fill="#E7E9EC" stroke="#0B1F44" stroke-miterlimit="10"/>
<path d="M150.772 48.0573C150.772 48.0573 154.837 39.6459 157.679 46.7923C160.521 53.9387 148.337 63.6042 148.337 63.6042L150.772 48.0573Z" fill="white" stroke="#0B1F44" stroke-miterlimit="10"/>
<path d="M103.03 46.176C103.03 46.176 99.1845 37.97 97.1469 45.5381C95.1093 53.1061 103.416 62.7608 103.416 62.7608L103.03 46.176Z" fill="white" stroke="#0B1F44" stroke-miterlimit="10"/>
<path d="M151.587 45.9597C151.587 45.9597 148.734 68.2421 147.115 72.0262C145.725 75.2696 132.998 86.6109 129.278 89.8868C128.622 90.4632 127.788 90.7777 126.927 90.7733C124.557 90.8296 122.186 90.7104 119.832 90.4165C118.202 89.9949 107.293 79.605 104.869 73.702C102.445 67.7989 103.239 33.7751 103.239 33.7751C103.239 33.7751 104.462 11.5035 106.896 8.56275C109.331 5.62202 139.8 5.61122 147.522 9.81689C155.244 14.0226 155.234 21.1689 154.022 25.3746C152.81 29.5803 151.587 45.9597 151.587 45.9597Z" fill="white" stroke="#0B1F44" stroke-miterlimit="10"/>
<path d="M116.927 1.43802C129.863 -0.670221 134.795 3.20028 142.235 8.09788C144.062 8.42657 145.839 9.00084 147.522 9.8061C155.234 14.0118 155.234 21.1582 154.022 25.3638C152.809 29.5695 151.587 45.9057 151.587 45.9057L148.734 46.3273C148.734 46.3273 148.337 36.6618 147.93 35.4077C147.522 34.1536 142.642 28.2613 142.235 25.3206C141.827 22.3799 142.642 13.9685 142.642 13.9685C142.642 13.9685 138.181 28.683 121.117 33.7211C117.042 34.9491 112.823 35.5894 108.578 35.6239C108.359 38.0349 107.962 40.3161 107.251 40.8675L105.632 42.1324C105.632 42.1324 106.039 48.0139 104.817 49.268C104.34 49.7417 103.735 50.0546 103.082 50.1654C103.03 43.7758 103.082 37.9268 103.155 35.2564C95.4544 34.1212 96.6037 31.1696 96.3634 27.6018C96.0082 21.7636 101.494 3.96791 116.927 1.43802Z" fill="#E7E9EC" stroke="#0B1F44" stroke-miterlimit="10"/>
<path d="M131.316 63.55C130.261 65.2844 128.664 66.593 126.791 67.2584C123.96 68.0368 120.94 68.2314 117.742 63.1608" stroke="#0B1F44" stroke-miterlimit="10"/>
<path d="M135.84 70.7613C135.84 70.7613 132.256 75.2481 124.523 74.8589C116.791 74.4696 113.97 71.1613 113.97 71.1613" stroke="#0B1F44" stroke-miterlimit="10"/>
<path d="M140.929 53.3979C139.43 54.2041 137.789 54.6886 136.105 54.8224C134.421 54.9561 132.728 54.7364 131.128 54.1764" stroke="#0B1F44" stroke-miterlimit="10"/>
<path d="M118.871 54.1765C117.039 54.9374 115.079 55.3121 113.105 55.2787C111.131 55.2452 109.184 54.8044 107.377 53.9819" stroke="#0B1F44" stroke-miterlimit="10"/>
<path d="M142.256 46.9652C142.256 46.9652 139.236 42.2838 131.128 45.2029" stroke="#0B1F44" stroke-miterlimit="10"/>
<path d="M118.682 46.176C117.05 45.0834 115.118 44.5696 113.179 44.7119C111.24 44.8543 109.397 45.6451 107.93 46.9652" stroke="#0B1F44" stroke-miterlimit="10"/>
<path d="M131.316 56.7711C131.316 56.7711 134.9 59.7011 136.593 60.2849" stroke="#0B1F44" stroke-miterlimit="10"/>
<path d="M119.247 56.1334C119.247 56.1334 115.287 60.458 112.643 61.3986" stroke="#0B1F44" stroke-miterlimit="10"/>
<path d="M84.8276 183.536C84.8276 183.536 79.7076 179.568 71.505 174.26C63.3025 168.951 55.3716 170.551 51.0144 175.59C46.6571 180.628 46.1451 194.672 52.8116 200.77C59.4781 206.867 68.433 205.267 74.065 203.678C79.6971 202.089 86.604 195.991 87.1369 194.672C87.6698 193.353 84.8276 183.536 84.8276 183.536Z" fill="#6D798F" stroke="#0B1F44" stroke-miterlimit="10"/>
<path d="M81.4943 180.628C81.4943 180.628 78.9343 177.438 75.3502 177.179C71.7662 176.919 65.3609 180.357 63.8562 188.844C62.3516 197.331 65.946 204.207 70.2615 206.326C74.577 208.446 81.5256 207.127 83.0617 204.737C84.2956 202.548 85.3244 200.242 86.1337 197.85L81.4943 180.628Z" fill="white" stroke="#0B1F44" stroke-miterlimit="10"/>
<path d="M86.3844 171.611C86.3844 171.611 100.47 159.718 102.006 159.156C103.542 158.594 114.304 162.075 114.304 162.075L111.483 172.941C111.483 172.941 112.768 174.022 116.864 170.292C120.96 166.562 123.521 161.545 125.057 163.135C126.593 164.724 127.366 167.902 123.782 171.881C120.198 175.86 115.328 181.157 112.768 184.855C110.208 188.552 102.779 190.423 102.779 190.423C102.779 190.423 100.982 193.861 94.0645 197.31C87.1472 200.758 76.3951 202.878 76.3951 202.878C76.3951 202.878 68.9658 194.391 71.7871 186.974C72.476 184.933 73.8127 183.194 75.5792 182.039C77.3457 180.885 79.438 180.383 81.5152 180.617L84.8484 179.817L86.3844 171.611Z" fill="white" stroke="#0B1F44" stroke-miterlimit="10"/>
<path d="M105.402 156.81C105.402 156.81 113.761 149.772 115.966 150.096C118.171 150.42 122.967 152.864 124.869 154.237C126.77 155.61 125.067 158.28 122.779 158.183C120.973 158.044 119.183 157.74 117.429 157.275L116.081 156.507L109.989 166.356" fill="white"/>
<path d="M105.402 156.81C105.402 156.81 113.761 149.772 115.966 150.096C118.171 150.42 122.967 152.864 124.869 154.237C126.77 155.61 125.067 158.28 122.779 158.183C120.973 158.044 119.183 157.74 117.429 157.275L116.081 156.507L109.989 166.356" stroke="#0B1F44" stroke-miterlimit="10"/>
<path d="M116.081 156.507L112.811 154.961" stroke="#0B1F44" stroke-miterlimit="10"/>
<path d="M95.789 156.291C95.789 156.291 104.148 149.263 106.343 149.588C108.537 149.912 113.354 152.345 115.256 153.729C117.157 155.112 115.454 157.761 113.166 157.675C111.36 157.534 109.569 157.227 107.816 156.756L106.468 155.999L100.387 165.837" fill="white"/>
<path d="M95.789 156.291C95.789 156.291 104.148 149.263 106.343 149.588C108.537 149.912 113.354 152.345 115.256 153.729C117.157 155.112 115.454 157.761 113.166 157.675C111.36 157.534 109.569 157.227 107.816 156.756L106.468 155.999L100.387 165.837" stroke="#0B1F44" stroke-miterlimit="10"/>
<path d="M106.468 155.999L103.197 154.442" stroke="#0B1F44" stroke-miterlimit="10"/>
<path d="M88.1606 163.394C88.1606 163.394 92.2566 153.058 94.3047 152.269C96.3527 151.48 101.734 151.188 104.033 151.469C106.332 151.75 106.123 154.918 104.033 155.977C102.383 156.751 100.669 157.37 98.9127 157.826H97.3767L96.6139 169.492" fill="white"/>
<path d="M88.1606 163.394C88.1606 163.394 92.2566 153.058 94.3047 152.269C96.3527 151.48 101.734 151.188 104.033 151.469C106.332 151.75 106.123 154.918 104.033 155.977C102.383 156.751 100.669 157.37 98.9127 157.826H97.3767L96.6139 169.492" stroke="#0B1F44" stroke-miterlimit="10"/>
<path d="M97.3768 157.826L93.7928 158.096" stroke="#0B1F44" stroke-miterlimit="10"/>
<path d="M85.8516 181.947C85.8516 181.947 83.5424 169.232 84.0544 167.892C84.5664 166.551 88.9237 160.734 90.2089 160.734C91.4941 160.734 94.0437 163.383 93.0197 166.032C92.7995 166.754 92.3999 167.404 91.8608 167.916C91.3216 168.429 90.6619 168.786 89.9477 168.951V176.368L92.2569 179.557" fill="white"/>
<path d="M85.8516 181.947C85.8516 181.947 83.5424 169.232 84.0544 167.892C84.5664 166.551 88.9237 160.734 90.2089 160.734C91.4941 160.734 94.0437 163.383 93.0197 166.032C92.7995 166.754 92.3999 167.404 91.8608 167.916C91.3216 168.429 90.6619 168.786 89.9477 168.951V176.368L92.2569 179.557" stroke="#0B1F44" stroke-miterlimit="10"/>
<path d="M111.442 196.726H157.355L159.905 139.685H108.892L111.442 196.726Z" fill="#0B1F44" stroke="#0B1F44" stroke-miterlimit="10"/>
<path d="M181.012 171.708C181.012 171.708 199.015 158.194 200.781 157.469C202.547 156.745 212.432 161.113 218.085 165.502C223.738 169.892 223.383 174.27 221.22 179.752C219.057 185.233 210.635 192.174 207.448 194.726C204.261 197.277 189.089 195.807 189.089 195.807L181.012 171.708Z" fill="#6D798F" stroke="#0B1F44" stroke-miterlimit="10"/>
<path d="M177.48 173.535C177.48 173.535 181.367 167.697 183.133 167.329C184.898 166.962 190.196 170.984 193.017 174.638C195.839 178.292 198.67 188.152 198.67 193.266C198.67 198.38 190.196 199.839 188.786 199.839C187.375 199.839 185.254 195.461 182.777 194.001C180.301 192.542 177.48 173.535 177.48 173.535Z" fill="white" stroke="#0B1F44" stroke-miterlimit="10"/>
<path d="M124.524 191.753C124.524 191.753 118.129 191.753 116.593 190.672C115.057 189.59 110.188 182.195 109.415 180.606C108.641 179.017 111.724 179.017 113.511 182.455C115.297 185.893 122.225 188.553 123.96 189.612C125.847 190.469 127.825 191.094 129.853 191.472L124.524 191.753Z" fill="white" stroke="#0B1F44" stroke-miterlimit="10"/>
<path d="M181.011 171.708L155.234 174.617C155.234 174.617 151.054 162.194 149.236 161.827C145.436 160.496 141.772 158.783 138.296 156.713C136.874 155.632 134.408 154.15 135.819 158.172C137.23 162.194 145.004 166.216 145.004 166.216C145.004 166.216 137.94 170.962 135.819 171.33C133.698 171.697 118.871 168.4 118.871 168.4C118.871 168.4 107.93 164.075 106.865 164.746C105.799 165.416 108.631 168.4 108.631 168.4C108.631 168.4 106.541 166.94 105.809 168.767C105.078 170.595 107.575 174.249 107.575 174.249C107.575 174.249 106.53 174.973 107.22 177.903C107.91 180.833 117.46 188.855 119.581 190.326C121.702 191.796 132.998 192.153 140.406 192.153C145.848 192.04 151.276 191.549 156.655 190.682C156.655 190.682 186.309 195.807 187.72 195.807C189.13 195.807 196.194 180.844 181.011 171.708Z" fill="white" stroke="#0B1F44" stroke-miterlimit="10"/>
<path d="M108.631 168.422C108.631 168.422 122.403 179.384 124.169 179.384C125.934 179.384 136.53 182.303 136.53 182.303" fill="white"/>
<path d="M108.631 168.422C108.631 168.422 122.403 179.384 124.169 179.384C125.934 179.384 136.53 182.303 136.53 182.303" stroke="#0B1F44" stroke-miterlimit="10"/>
<path d="M107.575 174.27C107.575 174.27 118.515 184.131 119.581 184.866C120.647 185.601 130.877 187.417 130.877 187.417" fill="white"/>
<path d="M107.575 174.27C107.575 174.27 118.515 184.131 119.581 184.866C120.647 185.601 130.877 187.417 130.877 187.417" stroke="#0B1F44" stroke-miterlimit="10"/>
<path d="M10.1064 270.038C19.5942 253.919 48.6113 207.526 67.0017 209.343C89.2479 211.505 160.218 241.485 160.218 241.485L31.4226 270.038H10.1064Z" fill="#0B1F44" stroke="#0B1F44" stroke-miterlimit="10"/>
<path d="M167.961 270.039V209.213C167.944 207.532 168.573 205.912 169.709 204.71C170.845 203.508 172.396 202.822 174.021 202.802H219.423C221.048 202.822 222.598 203.508 223.735 204.71C224.871 205.912 225.5 207.532 225.483 209.213V270.082L167.961 270.039Z" fill="#9DA5B4" stroke="#0B1F44" stroke-miterlimit="10"/>
<path d="M153.133 270.039V209.375C153.097 208.54 153.22 207.705 153.495 206.919C153.77 206.132 154.193 205.41 154.738 204.792C155.284 204.175 155.941 203.674 156.673 203.32C157.406 202.965 158.198 202.764 159.006 202.726H189.914C191.539 202.802 193.07 203.541 194.17 204.781C195.27 206.021 195.852 207.661 195.786 209.343V270.006L153.133 270.039Z" fill="#9DA5B4" stroke="#0B1F44" stroke-miterlimit="10"/>
</svg>
