<svg width="21" height="20" viewBox="0 0 21 20" fill="none" xmlns="http://www.w3.org/2000/svg" id="input-close" >
<path fill-rule="evenodd" clip-rule="evenodd" d="M10.0529 4.58334C7.06136 4.58334 4.63623 7.00847 4.63623 10C4.63623 12.9916 7.06136 15.4167 10.0529 15.4167C13.0445 15.4167 15.4696 12.9916 15.4696 10C15.4696 7.00847 13.0445 4.58334 10.0529 4.58334ZM3.38623 10C3.38623 6.31812 6.371 3.33334 10.0529 3.33334C13.7348 3.33334 16.7196 6.31812 16.7196 10C16.7196 13.6819 13.7348 16.6667 10.0529 16.6667C6.37101 16.6667 3.38623 13.6819 3.38623 10Z" fill="#777776"/>
<path fill-rule="evenodd" clip-rule="evenodd" d="M7.73579 7.68306C7.97987 7.43898 8.3756 7.43898 8.61968 7.68306L12.3697 11.4331C12.6138 11.6771 12.6138 12.0729 12.3697 12.3169C12.1256 12.561 11.7299 12.561 11.4858 12.3169L7.73579 8.56694C7.49171 8.32286 7.49171 7.92714 7.73579 7.68306Z" fill="#777776"/>
<path fill-rule="evenodd" clip-rule="evenodd" d="M12.3697 7.68306C12.6138 7.92714 12.6138 8.32286 12.3697 8.56694L8.61968 12.3169C8.3756 12.561 7.97987 12.561 7.73579 12.3169C7.49171 12.0729 7.49171 11.6771 7.73579 11.4331L11.4858 7.68306C11.7299 7.43898 12.1256 7.43898 12.3697 7.68306Z" fill="#777776"/>
</svg>
