<svg width="507" height="249" viewBox="0 0 507 249" fill="none" xmlns="http://www.w3.org/2000/svg" id="intro-car-mobile" >
<path d="M2.52617 160.221C2.52617 160.221 5.56707 166.799 7.74326 169.045C9.91944 171.29 49.1628 180.991 49.1628 180.991L176.347 208.8L191.753 207.144L245.61 208.871C245.61 208.871 256.362 182.618 244.63 156.752C232.899 130.887 174.214 120.769 157.626 126.037C141.038 131.305 102.184 148.26 74.2682 138.991C46.3525 129.721 24.0863 111.514 14.7762 113.932C5.46619 116.35 1.02734 131.319 1.02734 137.782C1.02734 144.244 2.52617 160.221 2.52617 160.221Z" fill="#0B1F44" stroke="#0B1F44" stroke-miterlimit="10"/>
<path d="M275.919 196.191C274.809 169.491 256.924 147.814 235.983 147.757H213.27L213.674 157.314C204.796 166.108 199.406 180.156 200.055 195.989C200.703 211.822 207.261 225.914 216.888 234.751L217.291 244.438H239.99C260.945 244.481 277.028 222.891 275.919 196.191Z" fill="#0B1F44" stroke="#0B1F44" stroke-miterlimit="10"/>
<path d="M220.634 244.225C241.401 241.928 255.844 218.506 252.895 191.912C249.946 165.317 230.72 145.619 209.954 147.916C189.187 150.214 174.744 173.635 177.693 200.23C180.642 226.825 199.867 246.522 220.634 244.225Z" fill="white" stroke="#0B1F44" stroke-miterlimit="10"/>
<path d="M244.63 212.542C244.991 211.347 245.322 210.124 245.596 208.872C245.865 207.605 246.096 206.324 246.288 205.029C246.678 202.095 246.813 199.133 246.691 196.177C246.467 189.967 245.094 183.852 242.642 178.142L242.57 177.998C242.051 176.803 241.474 175.637 240.855 174.514L240.739 174.298C240.12 173.19 239.471 172.111 238.779 171.074L238.664 170.902C232.525 161.877 223.517 156.076 213.674 156.062C205.243 156.062 197.821 160.25 192.431 167.116C192.071 167.562 191.725 168.037 191.393 168.555C191.062 169.03 190.73 169.52 190.413 169.995C190.096 170.484 189.793 170.988 189.505 171.434C189.217 171.938 188.943 172.442 188.684 172.96V173.046C188.424 173.55 188.179 174.054 187.934 174.586V174.701C187.704 175.205 187.488 175.723 187.271 176.242C187.271 176.242 187.271 176.357 187.199 176.429C186.998 176.932 186.81 177.436 186.623 177.954L186.536 178.199C186.363 178.688 186.205 179.192 186.046 179.71C186.046 179.811 185.974 179.912 185.945 180.013C185.801 180.502 185.672 181.006 185.528 181.452C185.501 181.583 185.467 181.713 185.427 181.841C185.311 182.316 185.196 182.805 185.095 183.28C185.095 183.424 185.023 183.582 184.994 183.726C184.893 184.201 184.807 184.676 184.72 185.166L184.634 185.698C184.548 186.144 184.49 186.619 184.432 187.137L184.346 187.728C184.346 188.174 184.245 188.634 184.202 189.095C184.202 189.311 184.202 189.527 184.202 189.743C184.202 190.189 184.202 190.65 184.115 191.096V191.787C184.115 192.262 184.115 192.751 184.115 193.226C184.115 193.442 184.115 193.643 184.115 193.845C184.115 194.536 184.115 195.284 184.115 195.946C184.115 196.608 184.202 197.63 184.288 198.465C184.288 198.667 184.288 198.868 184.288 199.07C184.36 199.789 184.447 200.509 184.548 201.214V201.545C184.821 203.301 185.182 205.014 185.614 206.698C187.507 214.567 191.525 221.766 197.23 227.511L197.432 227.698C198.095 228.332 198.772 228.922 199.478 229.498L199.622 229.598C204.476 233.669 210.58 235.955 216.916 236.076C223.146 236.041 229.149 233.744 233.807 229.613C238.93 225.035 242.677 219.125 244.63 212.542Z" fill="white" stroke="#0B1F44" stroke-miterlimit="10"/>
<path d="M243.103 197.385C242.922 192.897 242.027 188.466 240.451 184.259L227.971 192.074C228.539 193.781 228.864 195.559 228.936 197.357C228.936 197.63 228.936 197.889 228.936 198.148L243.117 200.451C243.146 199.444 243.146 198.422 243.103 197.385Z" fill="#0B1F44" stroke="#0B1F44" stroke-miterlimit="10"/>
<path d="M221.024 183.064C222.361 183.809 223.556 184.784 224.555 185.943L233.346 172.442C230.456 169.199 226.828 166.696 222.768 165.144L221.024 183.064Z" fill="#0B1F44" stroke="#0B1F44" stroke-miterlimit="10"/>
<path d="M227.149 206.151C226.542 207.383 225.755 208.518 224.814 209.519L232.02 225.655C235.646 222.533 238.465 218.582 240.235 214.14L227.149 206.151Z" fill="#0B1F44" stroke="#0B1F44" stroke-miterlimit="10"/>
<path d="M205.92 188.965L193.195 180.128C191.233 184.767 190.2 189.745 190.154 194.78L204.378 195.183C204.505 193.034 205.027 190.926 205.92 188.965Z" fill="#0B1F44" stroke="#0B1F44" stroke-miterlimit="10"/>
<path d="M210.244 183.582C211.275 182.863 212.427 182.336 213.645 182.027L211.57 164.179C207.028 165.021 202.858 167.248 199.637 170.556L210.244 183.582Z" fill="#0B1F44" stroke="#0B1F44" stroke-miterlimit="10"/>
<path d="M218.632 212.845C218.182 212.902 217.73 212.931 217.277 212.931C215.992 212.927 214.721 212.677 213.53 212.197L206.612 227.641C210.066 229.741 214.026 230.865 218.07 230.894C219.165 230.9 220.259 230.818 221.341 230.649L218.632 212.845Z" fill="#0B1F44" stroke="#0B1F44" stroke-miterlimit="10"/>
<path d="M205.82 204.006L191.739 207.144C193.1 212.064 195.438 216.66 198.614 220.66L207.636 207.346C206.906 206.304 206.297 205.184 205.82 204.006Z" fill="#0B1F44" stroke="#0B1F44" stroke-miterlimit="10"/>
<path d="M62.9268 169.203C62.408 146.835 54.0203 128.656 44.1914 128.613H21.536L23.424 209.62H46.0793C55.9082 209.663 63.4456 191.527 62.9268 169.203Z" fill="#0B1F44" stroke="#0B1F44" stroke-miterlimit="10"/>
<path d="M40.2707 169.203C40.7895 191.57 33.2521 209.663 23.4233 209.62C13.5944 209.577 5.20671 191.412 4.68788 169.03C4.16906 146.648 11.7064 128.57 21.5353 128.613C31.3642 128.656 39.7519 146.907 40.2707 169.203Z" fill="white" stroke="#0B1F44" stroke-miterlimit="10"/>
<path d="M36.2499 182.891C36.4228 181.883 36.5813 180.861 36.7111 179.811C36.8408 178.76 36.9416 177.68 37.0281 176.587C37.2011 174.197 37.2731 171.722 37.2155 169.174C37.1201 164.081 36.4725 159.014 35.2843 154.061V153.946C35.0393 152.938 34.7655 151.959 34.4772 151.067V150.88C34.1746 149.959 33.8719 149.052 33.5405 148.188V148.044C30.6581 140.473 26.4354 135.623 21.8092 135.594C17.8604 135.594 14.3583 139.106 11.8507 144.863C11.6777 145.252 11.5192 145.64 11.3606 146.029C11.2021 146.432 11.0436 146.835 10.8995 147.252C10.7553 147.67 10.6112 148.087 10.4815 148.505C10.3518 148.922 10.2221 149.34 10.0924 149.786C9.9579 150.208 9.8426 150.64 9.74653 151.081V151.182C9.63123 151.599 9.53035 152.031 9.42946 152.477C9.43617 152.525 9.43617 152.574 9.42946 152.621C9.32858 153.039 9.24211 153.47 9.15564 153.902C9.14959 153.969 9.14959 154.037 9.15564 154.104C9.06916 154.521 8.99711 154.953 8.91064 155.37V155.63C8.91064 156.047 8.78093 156.464 8.72329 156.882V157.198C8.72329 157.601 8.60799 158.004 8.56476 158.407C8.55777 158.537 8.55777 158.667 8.56476 158.796C8.56476 159.185 8.47828 159.588 8.44946 159.976C8.44946 160.135 8.44946 160.279 8.44946 160.423L8.36299 161.589V162.078C8.36299 162.467 8.36299 162.841 8.36299 163.229C8.36299 163.618 8.36299 163.589 8.36299 163.762C8.36299 164.151 8.36299 164.525 8.36299 164.913C8.36299 165.302 8.36299 165.288 8.36299 165.475C8.36299 165.878 8.36299 166.281 8.36299 166.698C8.36299 166.871 8.36299 167.044 8.36299 167.216C8.36299 167.792 8.36299 168.382 8.36299 168.958C8.36299 169.534 8.36299 170.397 8.36299 171.088C8.36299 171.247 8.36299 171.419 8.36299 171.592L8.49269 173.377C8.49269 173.478 8.49269 173.564 8.49269 173.665C8.6224 175.104 8.79534 176.543 8.9971 177.983C9.74214 184.079 11.6138 189.985 14.5168 195.399L14.6033 195.572C14.9204 196.09 15.2374 196.594 15.5689 197.011V197.097C17.9469 200.509 20.7428 202.509 23.6972 202.524C26.6516 202.538 29.3754 200.537 31.6093 197.112C34.0575 192.714 35.6331 187.885 36.2499 182.891Z" fill="white" stroke="#0B1F44" stroke-miterlimit="10"/>
<path d="M494.633 180.718C493.523 154.018 475.638 132.341 454.698 132.283H431.985C411.03 132.283 394.946 153.874 396.056 180.531C397.166 207.187 415.051 228.951 436.005 228.951H458.704C479.659 229.022 495.742 207.36 494.633 180.718Z" fill="#0B1F44" stroke="#0B1F44" stroke-miterlimit="10"/>
<path d="M70.1898 14.0837C70.1898 14.0837 60.1016 17.0488 58.7613 19.9995C57.421 22.9502 56.6571 25.066 56.6571 25.066L26.205 69.4125C26.205 69.4125 15.2087 68.5777 11.7931 77.8615C8.37753 87.1454 9.689 99.8261 9.689 99.8261C9.689 99.8261 1.6472 119.675 1.22926 134.457C0.942647 143.065 1.36684 151.683 2.49751 160.221C2.49751 160.221 0.37897 133.19 6.72017 124.741C13.0614 116.292 26.1761 122.64 31.2203 137.839C36.2644 153.039 42.3174 181.337 42.3174 181.337L176.347 208.8C176.347 208.8 169.574 173.32 178.466 153.039C187.358 132.759 228.778 134.04 236.401 170.786C244.025 207.533 241.474 214.284 241.474 214.284C241.474 214.284 269.808 220.199 356.077 218.933C442.346 217.666 489.704 207.533 502.4 204.151C502.4 204.151 505.283 188.519 506.205 179.235C506.766 173.892 505.89 168.497 503.669 163.604C503.669 163.604 502.818 146.706 500.7 140.79C498.581 134.874 492.24 126.008 492.24 126.008C492.24 126.008 485.899 111.226 475.335 101.942C464.771 92.6581 447.419 83.3599 443.182 81.244C438.945 79.1282 433.469 77.8615 425.427 72.3776C417.385 66.8937 367.491 32.2484 351.84 22.9645C336.189 13.6807 302.364 9.01721 295.634 7.75058C288.904 6.48395 211.051 1 183.986 1C156.92 1 101.06 2.26663 70.1898 14.0837Z" fill="#E7E9EC" stroke="#0B1F44" stroke-miterlimit="10"/>
<path opacity="0.15" d="M506.19 179.235C506.751 173.892 505.875 168.497 503.654 163.604C503.654 163.604 503.38 158.192 502.76 152.435C449.84 168.023 355.169 169.074 328.766 166.742C298.43 164.079 244.616 156.753 242.295 148.03C239.975 139.308 219.107 119.517 204.825 114.162C192.589 109.585 50.6182 89.9522 10.2651 84.425C9.52389 89.5194 9.36433 94.6814 9.78952 99.8118C9.78952 99.8118 1.74771 119.66 1.32977 134.443C1.04316 143.051 1.46735 151.668 2.59802 160.207C2.59802 160.207 0.479479 133.176 6.82068 124.727C13.1619 116.278 26.2766 122.626 31.3208 137.825C36.3649 153.025 42.317 181.337 42.317 181.337L176.347 208.8C176.347 208.8 169.573 173.32 178.466 153.039C187.358 132.759 228.777 134.04 236.401 170.786C244.025 207.533 241.474 214.284 241.474 214.284C241.474 214.284 269.808 220.199 356.077 218.933C442.346 217.666 489.703 207.533 502.4 204.151C502.386 204.151 505.34 188.519 506.19 179.235Z" fill="#0B1F44"/>
<path d="M162.8 27.599C145.78 15.422 131.094 13.5653 124.205 13.0039C117.648 24.7634 106.911 47.0159 104.764 70.0887C140.793 75.7022 180.988 82.093 180.988 82.093C180.988 82.093 190.284 85.4611 193.67 82.093C194.781 81.1902 195.652 80.0286 196.207 78.7105C197.057 76.5946 182.256 41.5463 162.8 27.599Z" fill="white" stroke="#0B1F44" stroke-miterlimit="10"/>
<path d="M112.633 13.0474C102.921 13.5681 93.2597 14.7851 83.7228 16.6889C73.9948 18.8048 70.608 19.2222 68.9218 20.9206C67.2356 22.6191 50.7341 43.2738 44.8108 58.0128C45.0538 59.0727 45.6433 60.0215 46.4862 60.7096C47.3292 61.3977 48.3775 61.7858 49.4658 61.8127C50.907 61.8127 68.6047 64.4899 90.6548 67.9012C94.3443 54.7887 101.752 31.759 112.633 13.0474Z" fill="white" stroke="#0B1F44" stroke-miterlimit="10"/>
<path d="M58.9055 62.4745C58.9055 62.4745 66.1114 34.7382 80.6674 18.2432" stroke="#0B1F44" stroke-miterlimit="10"/>
<path d="M105.153 90.0238L93.1194 87.8936C92.728 88.0103 92.3637 88.2035 92.0477 88.4619C91.7317 88.7204 91.4702 89.039 91.2785 89.3992C91.0867 89.7594 90.9686 90.1541 90.9308 90.5603C90.893 90.9665 90.9364 91.3761 91.0585 91.7654C91.952 94.7161 93.5517 94.385 93.5517 94.385L103.568 95.9971C104.226 96.064 104.885 95.8846 105.417 95.4936C105.95 95.1026 106.318 94.528 106.45 93.8813C106.969 91.4632 107.647 91.1609 105.153 90.0238Z" stroke="#0B1F44" stroke-miterlimit="10"/>
<path d="M44.3203 79.5458L35.1111 77.8186C34.4866 78.0318 33.9715 78.4824 33.6774 79.0725C33.3834 79.6626 33.3341 80.3446 33.5402 80.9708C34.2176 83.3601 35.4426 83.101 35.4426 83.101L43.0953 84.4109C43.6145 84.4607 44.1331 84.3091 44.5436 83.9876C44.954 83.666 45.225 83.1992 45.3003 82.6836C45.7182 80.6973 46.2371 80.4814 44.3203 79.5458Z" stroke="#0B1F44" stroke-miterlimit="10"/>
<path d="M117.907 11.6082C117.907 11.6082 100.757 43.4611 97.7308 69.902" stroke="#0B1F44" stroke-miterlimit="10"/>
<path d="M93.8399 75.3716C93.8399 75.3716 86.0142 88.5849 85.7116 93.09C85.4089 97.5952 86.3169 151.686 87.8157 161.603" stroke="#0B1F44" stroke-miterlimit="10"/>
<path d="M178.985 45.9224C178.985 45.9224 172.96 63.353 171.159 72.6656" stroke="#0B1F44" stroke-miterlimit="10"/>
<path d="M176.578 94.2991C176.578 94.2991 169.948 116.235 169.66 132.759C169.372 149.282 169.055 180.257 169.055 180.257" stroke="#0B1F44" stroke-miterlimit="10"/>
<path d="M43.8885 63.9431C43.8885 63.9431 29.7505 76.8973 28.5543 81.0714C27.3581 85.2456 28.8426 121.373 28.8426 121.373" stroke="#0B1F44" stroke-miterlimit="10"/>
<path d="M46.6409 162.208C46.6409 162.208 48.745 168.224 53.2559 169.721C57.7668 171.218 167.297 192.262 167.297 192.262" stroke="#0B1F44" stroke-miterlimit="10"/>
<path d="M363.859 181.279C363.859 181.279 447.722 182.43 478.88 172.83C478.88 172.83 475.81 193.571 470.031 197.803C464.252 202.034 422.328 206.338 401.95 207.015C378.891 207.792 365.776 205.489 365.776 205.489L363.859 181.279Z" fill="#0B1F44" stroke="#0B1F44" stroke-miterlimit="10"/>
<path d="M348.857 129.016L357.316 146.289C357.316 146.289 404.63 147.44 410.02 147.814C415.41 148.189 421.175 150.895 427.315 147.814C433.454 144.734 460.015 141.294 463.099 141.294C466.183 141.294 470.017 143.986 470.017 143.986C470.017 143.986 463.099 126.713 460.404 125.159C458.385 124.137 456.109 123.732 453.861 123.993C452.723 124.022 396.56 119.805 348.857 129.016Z" fill="#0B1F44" stroke="#0B1F44" stroke-miterlimit="10"/>
<path d="M259.677 94.5148C259.677 94.5148 239.5 91.4202 231.819 94.1262C224.137 96.8321 227.942 107.267 241.1 116.926C254.258 126.584 265.095 135.853 278.57 137.408C292.046 138.962 315.393 144.029 316.546 139.711C317.699 135.392 313.447 120.006 297.969 108.793C282.491 97.5806 259.677 94.5148 259.677 94.5148Z" fill="white" stroke="#0B1F44" stroke-miterlimit="10"/>
<path d="M421.348 72.4785L417.486 73.6444L398.75 74.177C388.907 74.4648 375.908 74.8247 361.539 75.1989C341.708 75.7315 319.284 76.2784 299.035 76.6383C268.078 77.286 242.166 77.617 238.275 77.0413C230.455 76.0367 223.108 72.7411 217.162 67.5703C212.682 63.5676 208.958 58.7949 206.165 53.479C196.985 36.5378 173.465 15.6816 173.465 15.6816C210.604 11.3635 299.208 12.9756 309.267 13.3642C312.388 13.5231 315.494 13.8982 318.563 14.4869C329.3 16.3869 343.308 20.6042 351.436 26.1169C352.878 27.0957 355.198 28.6358 358.109 30.5789C364.911 35.1129 375 41.7915 385.131 48.4989L402.8 60.172L421.348 72.4785Z" fill="white" stroke="#0B1F44" stroke-miterlimit="10"/>
<path d="M351.364 26.1166C352.805 27.0953 355.126 28.6354 358.037 30.5786L299.15 76.6379C268.194 77.2856 242.281 77.6167 238.39 77.041C230.57 76.0364 223.223 72.7407 217.277 67.57L318.491 14.4866C329.228 16.3865 343.236 20.6038 351.364 26.1166Z" fill="#0B1F44" stroke="#0B1F44" stroke-miterlimit="10"/>
<path d="M402.728 60.172L398.866 74.1769C389.022 74.4647 376.023 74.8246 361.654 75.1988L385.059 48.4988L402.728 60.172Z" fill="#0B1F44" stroke="#0B1F44" stroke-miterlimit="10"/>
<path d="M338.004 117.458C340.354 119.847 342.631 122.366 344.792 125.043" stroke="#0B1F44" stroke-miterlimit="10"/>
<path d="M280.948 83.302C280.948 83.302 310.233 91.9381 333.941 113.528" stroke="#0B1F44" stroke-miterlimit="10"/>
<path d="M468.518 124.353C471.612 130.158 473.854 136.377 475.176 142.819" stroke="#0B1F44" stroke-miterlimit="10"/>
<path d="M423.726 84.8567C423.726 84.8567 449.667 94.9322 465.218 118.768" stroke="#0B1F44" stroke-miterlimit="10"/>
<path d="M304.166 188.793C304.166 193.283 299.842 196.91 294.496 196.91C289.149 196.91 284.825 193.283 284.825 188.793C284.825 184.302 289.149 180.675 294.496 180.675C299.842 180.675 304.166 184.331 304.166 188.793Z" fill="white" stroke="#0B1F44" stroke-miterlimit="10"/>
<path d="M504.49 175.608C503.669 179.48 501.06 182.2 498.654 181.682C496.247 181.164 494.964 177.638 495.771 173.766C496.578 169.894 499.201 167.188 501.536 167.692C503.871 168.195 505.312 171.751 504.49 175.608Z" fill="white" stroke="#0B1F44" stroke-miterlimit="10"/>
<path d="M172.096 77.8185C172.096 77.8185 164.069 64.3029 158.996 63.4249C153.923 62.5469 132.348 61.7409 127.693 64.7059C123.038 67.671 124.321 77.3723 126.007 79.9055C127.693 82.4388 134.467 83.7054 140.419 83.288C146.371 82.8706 166.216 84.5546 166.216 84.5546C166.216 84.5546 178.048 93.0037 182.285 92.1544C186.522 91.3052 192.013 82.079 188.194 76.9405C184.375 71.802 178.452 73.2125 172.096 77.8185Z" fill="#0B1F44" stroke="#0B1F44" stroke-miterlimit="10"/>
<path d="M172.096 77.8613L186.061 80.8264" stroke="#0B1F44" stroke-miterlimit="10"/>
<path d="M70.1898 14.0837C70.1898 14.0837 60.1016 17.0488 58.7613 19.9995C57.421 22.9502 56.6571 25.066 56.6571 25.066L26.205 69.4125C26.205 69.4125 15.2087 68.5777 11.7931 77.8615C8.37753 87.1454 9.689 99.8261 9.689 99.8261C9.689 99.8261 1.6472 119.675 1.22926 134.457C0.942647 143.065 1.36684 151.683 2.49751 160.221C2.49751 160.221 0.37897 133.19 6.72017 124.741C13.0614 116.292 26.1761 122.64 31.2203 137.839C36.2644 153.039 42.3174 181.337 42.3174 181.337L176.347 208.8C176.347 208.8 169.574 173.32 178.466 153.039C187.358 132.759 228.778 134.04 236.401 170.786C244.025 207.533 241.474 214.284 241.474 214.284C241.474 214.284 269.808 220.199 356.077 218.933C442.346 217.666 489.704 207.533 502.4 204.151C502.4 204.151 505.283 188.519 506.205 179.235C506.766 173.892 505.89 168.497 503.669 163.604C503.669 163.604 502.818 146.706 500.7 140.79C498.581 134.874 492.24 126.008 492.24 126.008C492.24 126.008 485.899 111.226 475.335 101.942C464.771 92.6581 447.419 83.3599 443.182 81.244C438.945 79.1282 433.469 77.8615 425.427 72.3776C417.385 66.8937 367.491 32.2484 351.84 22.9645C336.189 13.6807 302.364 9.01721 295.634 7.75058C288.904 6.48395 211.051 1 183.986 1C156.92 1 101.06 2.26663 70.1898 14.0837Z" stroke="#0B1F44" stroke-miterlimit="10"/>
<path d="M460.087 91.0315C460.087 91.0315 451.584 94.1261 453.905 97.2207C456.225 100.315 468.994 108.419 474.787 118.466C480.581 128.512 481.763 133.536 484.458 133.536C487.153 133.536 493.033 128.527 492.226 126.008C491.419 123.489 487.167 100.69 460.087 91.0315Z" fill="white" stroke="#0B1F44" stroke-miterlimit="10"/>
<path d="M34.3765 168.498C34.3014 164.57 33.8965 160.656 33.1659 156.796L27.4012 163.762C27.6864 165.326 27.855 166.909 27.9056 168.498C27.9056 168.742 27.9056 168.973 27.9056 169.203L34.4053 171.261C34.3909 170.297 34.3909 169.376 34.3765 168.498Z" fill="#0B1F44" stroke="#0B1F44" stroke-miterlimit="10"/>
<path d="M24.2303 155.688C24.9012 156.448 25.4505 157.307 25.8588 158.235L29.8797 146.188C28.8186 143.663 27.1504 141.438 25.0229 139.711L24.2303 155.688Z" fill="#0B1F44" stroke="#0B1F44" stroke-miterlimit="10"/>
<path d="M27.0551 176.27C26.8015 177.306 26.4442 178.314 25.9886 179.278L29.3034 193.672C31.122 190.479 32.3934 187.006 33.0649 183.395L27.0551 176.27Z" fill="#0B1F44" stroke="#0B1F44" stroke-miterlimit="10"/>
<path d="M17.327 160.941L11.5623 153.054C10.637 157.35 10.1541 161.729 10.1211 166.123L16.6353 166.483C16.6855 164.618 16.9172 162.762 17.327 160.941Z" fill="#0B1F44" stroke="#0B1F44" stroke-miterlimit="10"/>
<path d="M19.2587 156.148C19.6498 155.547 20.1847 155.052 20.8151 154.709L19.864 138.732C17.8031 139.437 15.9295 141.453 14.3875 144.418L19.2587 156.148Z" fill="#0B1F44" stroke="#0B1F44" stroke-miterlimit="10"/>
<path d="M23.1497 182.229C22.9482 182.287 22.7396 182.316 22.53 182.315C21.8995 182.296 21.2944 182.063 20.815 181.653L17.6156 195.442C18.2339 196.271 19.0238 196.958 19.9315 197.454C20.8393 197.951 21.8435 198.247 22.8759 198.321C23.3646 198.311 23.8495 198.233 24.3171 198.091L23.1497 182.229Z" fill="#0B1F44" stroke="#0B1F44" stroke-miterlimit="10"/>
<path d="M17.2836 174.356L10.8271 177.134C11.3862 181.262 12.4461 185.308 13.9833 189.181L18.1195 177.306C17.7712 176.344 17.4918 175.358 17.2836 174.356Z" fill="#0B1F44" stroke="#0B1F44" stroke-miterlimit="10"/>
</svg>
