<svg width="606" height="358" viewBox="0 0 606 358" fill="none" xmlns="http://www.w3.org/2000/svg" id="intro-car" >
<path d="M0 203.261V136.5L606 217V358L0 203.261Z" fill="#EDF2FA"/>
<path d="M56.5262 160.221C56.5262 160.221 59.5671 166.799 61.7433 169.045C63.9194 171.29 103.163 180.991 103.163 180.991L230.347 208.8L245.753 207.144L299.61 208.871C299.61 208.871 310.362 182.618 298.63 156.752C286.899 130.887 228.214 120.769 211.626 126.037C195.038 131.305 156.184 148.26 128.268 138.991C100.353 129.721 78.0863 111.514 68.7762 113.932C59.4662 116.35 55.0273 131.319 55.0273 137.782C55.0273 144.244 56.5262 160.221 56.5262 160.221Z" fill="#0B1F44" stroke="#0B1F44" stroke-miterlimit="10"/>
<path d="M329.919 196.191C328.809 169.491 310.924 147.814 289.983 147.757H267.27L267.674 157.314C258.796 166.108 253.406 180.156 254.055 195.989C254.703 211.822 261.261 225.914 270.888 234.751L271.291 244.438H293.99C314.945 244.481 331.028 222.891 329.919 196.191Z" fill="#0B1F44" stroke="#0B1F44" stroke-miterlimit="10"/>
<path d="M274.634 244.225C295.401 241.928 309.844 218.506 306.895 191.912C303.946 165.317 284.72 145.619 263.954 147.916C243.187 150.214 228.744 173.635 231.693 200.23C234.642 226.825 253.867 246.522 274.634 244.225Z" fill="white" stroke="#0B1F44" stroke-miterlimit="10"/>
<path d="M298.63 212.542C298.991 211.347 299.322 210.124 299.596 208.872C299.865 207.605 300.096 206.324 300.288 205.029C300.678 202.095 300.813 199.133 300.691 196.177C300.467 189.967 299.094 183.852 296.642 178.142L296.57 177.998C296.051 176.803 295.474 175.637 294.855 174.514L294.739 174.298C294.12 173.19 293.471 172.111 292.779 171.074L292.664 170.902C286.525 161.877 277.517 156.076 267.674 156.062C259.243 156.062 251.821 160.25 246.431 167.116C246.071 167.562 245.725 168.037 245.393 168.555C245.062 169.03 244.73 169.52 244.413 169.995C244.096 170.484 243.793 170.988 243.505 171.434C243.217 171.938 242.943 172.442 242.684 172.96V173.046C242.424 173.55 242.179 174.054 241.934 174.586V174.701C241.704 175.205 241.488 175.723 241.271 176.242C241.271 176.242 241.271 176.357 241.199 176.429C240.998 176.932 240.81 177.436 240.623 177.954L240.536 178.199C240.363 178.688 240.205 179.192 240.046 179.71C240.046 179.811 239.974 179.912 239.945 180.013C239.801 180.502 239.672 181.006 239.528 181.452C239.501 181.583 239.467 181.713 239.427 181.841C239.311 182.316 239.196 182.805 239.095 183.28C239.095 183.424 239.023 183.582 238.994 183.726C238.893 184.201 238.807 184.676 238.72 185.166L238.634 185.698C238.548 186.144 238.49 186.619 238.432 187.137L238.346 187.728C238.346 188.174 238.245 188.634 238.202 189.095C238.202 189.311 238.202 189.527 238.202 189.743C238.202 190.189 238.202 190.65 238.115 191.096V191.787C238.115 192.262 238.115 192.751 238.115 193.226C238.115 193.442 238.115 193.643 238.115 193.845C238.115 194.536 238.115 195.284 238.115 195.946C238.115 196.608 238.202 197.63 238.288 198.465C238.288 198.667 238.288 198.868 238.288 199.07C238.36 199.789 238.447 200.509 238.548 201.214V201.545C238.821 203.301 239.182 205.014 239.614 206.698C241.507 214.567 245.525 221.766 251.23 227.511L251.432 227.698C252.095 228.332 252.772 228.922 253.478 229.498L253.622 229.598C258.476 233.669 264.58 235.955 270.916 236.076C277.146 236.041 283.149 233.744 287.807 229.613C292.93 225.035 296.677 219.125 298.63 212.542Z" fill="white" stroke="#0B1F44" stroke-miterlimit="10"/>
<path d="M297.103 197.385C296.922 192.897 296.027 188.466 294.451 184.259L281.971 192.074C282.539 193.781 282.864 195.559 282.936 197.357C282.936 197.63 282.936 197.889 282.936 198.148L297.117 200.451C297.146 199.444 297.146 198.422 297.103 197.385Z" fill="#0B1F44" stroke="#0B1F44" stroke-miterlimit="10"/>
<path d="M275.024 183.064C276.361 183.809 277.556 184.784 278.555 185.943L287.346 172.442C284.456 169.199 280.828 166.696 276.768 165.144L275.024 183.064Z" fill="#0B1F44" stroke="#0B1F44" stroke-miterlimit="10"/>
<path d="M281.149 206.151C280.542 207.383 279.755 208.518 278.814 209.519L286.02 225.655C289.646 222.533 292.465 218.582 294.235 214.14L281.149 206.151Z" fill="#0B1F44" stroke="#0B1F44" stroke-miterlimit="10"/>
<path d="M259.92 188.965L247.195 180.128C245.233 184.767 244.2 189.745 244.154 194.78L258.378 195.183C258.505 193.034 259.027 190.926 259.92 188.965Z" fill="#0B1F44" stroke="#0B1F44" stroke-miterlimit="10"/>
<path d="M264.244 183.582C265.275 182.863 266.427 182.336 267.645 182.027L265.57 164.179C261.028 165.021 256.858 167.248 253.637 170.556L264.244 183.582Z" fill="#0B1F44" stroke="#0B1F44" stroke-miterlimit="10"/>
<path d="M272.632 212.845C272.182 212.902 271.73 212.931 271.277 212.931C269.992 212.927 268.721 212.677 267.53 212.197L260.612 227.641C264.066 229.741 268.026 230.865 272.07 230.894C273.165 230.9 274.259 230.818 275.341 230.649L272.632 212.845Z" fill="#0B1F44" stroke="#0B1F44" stroke-miterlimit="10"/>
<path d="M259.82 204.006L245.739 207.144C247.1 212.064 249.438 216.66 252.614 220.66L261.636 207.346C260.906 206.304 260.297 205.184 259.82 204.006Z" fill="#0B1F44" stroke="#0B1F44" stroke-miterlimit="10"/>
<path d="M116.927 169.203C116.408 146.835 108.02 128.656 98.1914 128.613H75.536L77.424 209.62H100.079C109.908 209.663 117.446 191.527 116.927 169.203Z" fill="#0B1F44" stroke="#0B1F44" stroke-miterlimit="10"/>
<path d="M94.2707 169.203C94.7895 191.57 87.2521 209.663 77.4233 209.62C67.5944 209.577 59.2067 191.412 58.6879 169.03C58.1691 146.648 65.7064 128.57 75.5353 128.613C85.3642 128.656 93.7519 146.907 94.2707 169.203Z" fill="white" stroke="#0B1F44" stroke-miterlimit="10"/>
<path d="M90.2499 182.891C90.4228 181.883 90.5813 180.861 90.7111 179.811C90.8408 178.76 90.9416 177.68 91.0281 176.587C91.2011 174.197 91.2731 171.722 91.2155 169.174C91.1201 164.081 90.4725 159.014 89.2843 154.061V153.946C89.0393 152.938 88.7655 151.959 88.4772 151.067V150.88C88.1746 149.959 87.8719 149.052 87.5405 148.188V148.044C84.6581 140.473 80.4354 135.623 75.8092 135.594C71.8604 135.594 68.3583 139.106 65.8507 144.863C65.6777 145.252 65.5192 145.64 65.3606 146.029C65.2021 146.432 65.0436 146.835 64.8995 147.252C64.7553 147.67 64.6112 148.087 64.4815 148.505C64.3518 148.922 64.2221 149.34 64.0924 149.786C63.9579 150.208 63.8426 150.64 63.7465 151.081V151.182C63.6312 151.599 63.5303 152.031 63.4295 152.477C63.4362 152.525 63.4362 152.574 63.4295 152.621C63.3286 153.039 63.2421 153.47 63.1556 153.902C63.1496 153.969 63.1496 154.037 63.1556 154.104C63.0692 154.521 62.9971 154.953 62.9106 155.37V155.63C62.9106 156.047 62.7809 156.464 62.7233 156.882V157.198C62.7233 157.601 62.608 158.004 62.5648 158.407C62.5578 158.537 62.5578 158.667 62.5648 158.796C62.5648 159.185 62.4783 159.588 62.4495 159.976C62.4495 160.135 62.4495 160.279 62.4495 160.423L62.363 161.589V162.078C62.363 162.467 62.363 162.841 62.363 163.229C62.363 163.618 62.363 163.589 62.363 163.762C62.363 164.151 62.363 164.525 62.363 164.913C62.363 165.302 62.363 165.288 62.363 165.475C62.363 165.878 62.363 166.281 62.363 166.698C62.363 166.871 62.363 167.044 62.363 167.216C62.363 167.792 62.363 168.382 62.363 168.958C62.363 169.534 62.363 170.397 62.363 171.088C62.363 171.247 62.363 171.419 62.363 171.592L62.4927 173.377C62.4927 173.478 62.4927 173.564 62.4927 173.665C62.6224 175.104 62.7953 176.543 62.9971 177.983C63.7421 184.079 65.6138 189.985 68.5168 195.399L68.6033 195.572C68.9204 196.09 69.2374 196.594 69.5689 197.011V197.097C71.9469 200.509 74.7428 202.509 77.6972 202.524C80.6516 202.538 83.3754 200.537 85.6093 197.112C88.0575 192.714 89.6331 187.885 90.2499 182.891Z" fill="white" stroke="#0B1F44" stroke-miterlimit="10"/>
<path d="M548.633 180.718C547.523 154.018 529.638 132.341 508.698 132.283H485.985C465.03 132.283 448.946 153.874 450.056 180.531C451.166 207.187 469.051 228.951 490.005 228.951H512.704C533.659 229.022 549.742 207.36 548.633 180.718Z" fill="#0B1F44" stroke="#0B1F44" stroke-miterlimit="10"/>
<path d="M124.19 14.0837C124.19 14.0837 114.102 17.0488 112.761 19.9995C111.421 22.9502 110.657 25.066 110.657 25.066L80.205 69.4125C80.205 69.4125 69.2087 68.5777 65.7931 77.8615C62.3775 87.1454 63.689 99.8261 63.689 99.8261C63.689 99.8261 55.6472 119.675 55.2293 134.457C54.9426 143.065 55.3668 151.683 56.4975 160.221C56.4975 160.221 54.379 133.19 60.7202 124.741C67.0614 116.292 80.1761 122.64 85.2203 137.839C90.2644 153.039 96.3174 181.337 96.3174 181.337L230.347 208.8C230.347 208.8 223.574 173.32 232.466 153.039C241.358 132.759 282.778 134.04 290.401 170.786C298.025 207.533 295.474 214.284 295.474 214.284C295.474 214.284 323.808 220.199 410.077 218.933C496.346 217.666 543.704 207.533 556.4 204.151C556.4 204.151 559.283 188.519 560.205 179.235C560.766 173.892 559.89 168.497 557.669 163.604C557.669 163.604 556.818 146.706 554.7 140.79C552.581 134.874 546.24 126.008 546.24 126.008C546.24 126.008 539.899 111.226 529.335 101.942C518.771 92.6581 501.419 83.3599 497.182 81.244C492.945 79.1282 487.469 77.8615 479.427 72.3776C471.385 66.8937 421.491 32.2484 405.84 22.9645C390.189 13.6807 356.364 9.01721 349.634 7.75058C342.904 6.48395 265.051 1 237.986 1C210.92 1 155.06 2.26663 124.19 14.0837Z" fill="#E7E9EC" stroke="#0B1F44" stroke-miterlimit="10"/>
<path opacity="0.15" d="M560.19 179.235C560.751 173.892 559.875 168.497 557.654 163.604C557.654 163.604 557.38 158.192 556.76 152.435C503.84 168.023 409.169 169.074 382.766 166.742C352.43 164.079 298.616 156.753 296.295 148.03C293.975 139.308 273.107 119.517 258.825 114.162C246.589 109.585 104.618 89.9522 64.2651 84.425C63.5239 89.5194 63.3643 94.6814 63.7895 99.8118C63.7895 99.8118 55.7477 119.66 55.3298 134.443C55.0432 143.051 55.4673 151.668 56.598 160.207C56.598 160.207 54.4795 133.176 60.8207 124.727C67.1619 116.278 80.2766 122.626 85.3208 137.825C90.3649 153.025 96.317 181.337 96.317 181.337L230.347 208.8C230.347 208.8 223.573 173.32 232.466 153.039C241.358 132.759 282.777 134.04 290.401 170.786C298.025 207.533 295.474 214.284 295.474 214.284C295.474 214.284 323.808 220.199 410.077 218.933C496.346 217.666 543.703 207.533 556.4 204.151C556.386 204.151 559.34 188.519 560.19 179.235Z" fill="#0B1F44"/>
<path d="M216.8 27.599C199.78 15.422 185.094 13.5653 178.205 13.0039C171.648 24.7634 160.911 47.0159 158.764 70.0887C194.793 75.7022 234.988 82.093 234.988 82.093C234.988 82.093 244.284 85.4611 247.67 82.093C248.781 81.1902 249.652 80.0286 250.207 78.7105C251.057 76.5946 236.256 41.5463 216.8 27.599Z" fill="white" stroke="#0B1F44" stroke-miterlimit="10"/>
<path d="M166.633 13.0474C156.921 13.5681 147.26 14.7851 137.723 16.6889C127.995 18.8048 124.608 19.2222 122.922 20.9206C121.236 22.6191 104.734 43.2738 98.8108 58.0128C99.0538 59.0727 99.6433 60.0215 100.486 60.7096C101.329 61.3977 102.378 61.7858 103.466 61.8127C104.907 61.8127 122.605 64.4899 144.655 67.9012C148.344 54.7887 155.752 31.759 166.633 13.0474Z" fill="white" stroke="#0B1F44" stroke-miterlimit="10"/>
<path d="M112.906 62.4745C112.906 62.4745 120.111 34.7382 134.667 18.2432" stroke="#0B1F44" stroke-miterlimit="10"/>
<path d="M159.153 90.0238L147.119 87.8936C146.728 88.0103 146.364 88.2035 146.048 88.4619C145.732 88.7204 145.47 89.039 145.278 89.3992C145.087 89.7594 144.969 90.1541 144.931 90.5603C144.893 90.9665 144.936 91.3761 145.058 91.7654C145.952 94.7161 147.552 94.385 147.552 94.385L157.568 95.9971C158.226 96.064 158.885 95.8846 159.417 95.4936C159.95 95.1026 160.318 94.528 160.45 93.8813C160.969 91.4632 161.647 91.1609 159.153 90.0238Z" stroke="#0B1F44" stroke-miterlimit="10"/>
<path d="M98.3203 79.5458L89.1111 77.8186C88.4866 78.0318 87.9715 78.4824 87.6774 79.0725C87.3834 79.6626 87.3341 80.3446 87.5402 80.9708C88.2176 83.3601 89.4426 83.101 89.4426 83.101L97.0953 84.4109C97.6145 84.4607 98.1331 84.3091 98.5436 83.9876C98.954 83.666 99.225 83.1992 99.3003 82.6836C99.7182 80.6973 100.237 80.4814 98.3203 79.5458Z" stroke="#0B1F44" stroke-miterlimit="10"/>
<path d="M171.907 11.6082C171.907 11.6082 154.757 43.4611 151.731 69.902" stroke="#0B1F44" stroke-miterlimit="10"/>
<path d="M147.84 75.3716C147.84 75.3716 140.014 88.5849 139.712 93.09C139.409 97.5952 140.317 151.686 141.816 161.603" stroke="#0B1F44" stroke-miterlimit="10"/>
<path d="M232.985 45.9224C232.985 45.9224 226.96 63.353 225.159 72.6656" stroke="#0B1F44" stroke-miterlimit="10"/>
<path d="M230.578 94.2991C230.578 94.2991 223.948 116.235 223.66 132.759C223.372 149.282 223.055 180.257 223.055 180.257" stroke="#0B1F44" stroke-miterlimit="10"/>
<path d="M97.8885 63.9431C97.8885 63.9431 83.7505 76.8973 82.5543 81.0714C81.3581 85.2456 82.8426 121.373 82.8426 121.373" stroke="#0B1F44" stroke-miterlimit="10"/>
<path d="M100.641 162.208C100.641 162.208 102.745 168.224 107.256 169.721C111.767 171.218 221.297 192.262 221.297 192.262" stroke="#0B1F44" stroke-miterlimit="10"/>
<path d="M417.859 181.279C417.859 181.279 501.722 182.43 532.88 172.83C532.88 172.83 529.81 193.571 524.031 197.803C518.252 202.034 476.328 206.338 455.95 207.015C432.891 207.792 419.776 205.489 419.776 205.489L417.859 181.279Z" fill="#0B1F44" stroke="#0B1F44" stroke-miterlimit="10"/>
<path d="M402.857 129.016L411.316 146.289C411.316 146.289 458.63 147.44 464.02 147.814C469.41 148.189 475.175 150.895 481.315 147.814C487.454 144.734 514.015 141.294 517.099 141.294C520.183 141.294 524.017 143.986 524.017 143.986C524.017 143.986 517.099 126.713 514.404 125.159C512.385 124.137 510.109 123.732 507.861 123.993C506.723 124.022 450.56 119.805 402.857 129.016Z" fill="#0B1F44" stroke="#0B1F44" stroke-miterlimit="10"/>
<path d="M313.677 94.5148C313.677 94.5148 293.5 91.4202 285.819 94.1262C278.137 96.8321 281.942 107.267 295.1 116.926C308.258 126.584 319.095 135.853 332.57 137.408C346.046 138.962 369.393 144.029 370.546 139.711C371.699 135.392 367.447 120.006 351.969 108.793C336.491 97.5806 313.677 94.5148 313.677 94.5148Z" fill="white" stroke="#0B1F44" stroke-miterlimit="10"/>
<path d="M475.348 72.4785L471.486 73.6444L452.75 74.177C442.907 74.4648 429.908 74.8247 415.539 75.1989C395.708 75.7315 373.284 76.2784 353.035 76.6383C322.078 77.286 296.166 77.617 292.275 77.0413C284.455 76.0367 277.108 72.7411 271.162 67.5703C266.682 63.5676 262.958 58.7949 260.165 53.479C250.985 36.5378 227.465 15.6816 227.465 15.6816C264.604 11.3635 353.208 12.9756 363.267 13.3642C366.388 13.5231 369.494 13.8982 372.563 14.4869C383.3 16.3869 397.308 20.6042 405.436 26.1169C406.878 27.0957 409.198 28.6358 412.109 30.5789C418.911 35.1129 429 41.7915 439.131 48.4989L456.8 60.172L475.348 72.4785Z" fill="white" stroke="#0B1F44" stroke-miterlimit="10"/>
<path d="M405.364 26.1166C406.805 27.0953 409.126 28.6354 412.037 30.5786L353.15 76.6379C322.194 77.2856 296.281 77.6167 292.39 77.041C284.57 76.0364 277.223 72.7407 271.277 67.57L372.491 14.4866C383.228 16.3865 397.236 20.6038 405.364 26.1166Z" fill="#0B1F44" stroke="#0B1F44" stroke-miterlimit="10"/>
<path d="M456.728 60.172L452.866 74.1769C443.022 74.4647 430.023 74.8246 415.654 75.1988L439.059 48.4988L456.728 60.172Z" fill="#0B1F44" stroke="#0B1F44" stroke-miterlimit="10"/>
<path d="M392.004 117.458C394.354 119.847 396.631 122.366 398.792 125.043" stroke="#0B1F44" stroke-miterlimit="10"/>
<path d="M334.948 83.302C334.948 83.302 364.233 91.9381 387.941 113.528" stroke="#0B1F44" stroke-miterlimit="10"/>
<path d="M522.518 124.353C525.612 130.158 527.854 136.377 529.176 142.819" stroke="#0B1F44" stroke-miterlimit="10"/>
<path d="M477.726 84.8567C477.726 84.8567 503.667 94.9322 519.218 118.768" stroke="#0B1F44" stroke-miterlimit="10"/>
<path d="M358.166 188.793C358.166 193.283 353.842 196.91 348.496 196.91C343.149 196.91 338.825 193.283 338.825 188.793C338.825 184.302 343.149 180.675 348.496 180.675C353.842 180.675 358.166 184.331 358.166 188.793Z" fill="white" stroke="#0B1F44" stroke-miterlimit="10"/>
<path d="M558.49 175.608C557.669 179.48 555.06 182.2 552.654 181.682C550.247 181.164 548.964 177.638 549.771 173.766C550.578 169.894 553.201 167.188 555.536 167.692C557.871 168.195 559.312 171.751 558.49 175.608Z" fill="white" stroke="#0B1F44" stroke-miterlimit="10"/>
<path d="M226.096 77.8185C226.096 77.8185 218.069 64.3029 212.996 63.4249C207.923 62.5469 186.348 61.7409 181.693 64.7059C177.038 67.671 178.321 77.3723 180.007 79.9055C181.693 82.4388 188.467 83.7054 194.419 83.288C200.371 82.8706 220.216 84.5546 220.216 84.5546C220.216 84.5546 232.048 93.0037 236.285 92.1544C240.522 91.3052 246.013 82.079 242.194 76.9405C238.375 71.802 232.452 73.2125 226.096 77.8185Z" fill="#0B1F44" stroke="#0B1F44" stroke-miterlimit="10"/>
<path d="M226.096 77.8613L240.061 80.8264" stroke="#0B1F44" stroke-miterlimit="10"/>
<path d="M124.19 14.0837C124.19 14.0837 114.102 17.0488 112.761 19.9995C111.421 22.9502 110.657 25.066 110.657 25.066L80.205 69.4125C80.205 69.4125 69.2087 68.5777 65.7931 77.8615C62.3775 87.1454 63.689 99.8261 63.689 99.8261C63.689 99.8261 55.6472 119.675 55.2293 134.457C54.9426 143.065 55.3668 151.683 56.4975 160.221C56.4975 160.221 54.379 133.19 60.7202 124.741C67.0614 116.292 80.1761 122.64 85.2203 137.839C90.2644 153.039 96.3174 181.337 96.3174 181.337L230.347 208.8C230.347 208.8 223.574 173.32 232.466 153.039C241.358 132.759 282.778 134.04 290.401 170.786C298.025 207.533 295.474 214.284 295.474 214.284C295.474 214.284 323.808 220.199 410.077 218.933C496.346 217.666 543.704 207.533 556.4 204.151C556.4 204.151 559.283 188.519 560.205 179.235C560.766 173.892 559.89 168.497 557.669 163.604C557.669 163.604 556.818 146.706 554.7 140.79C552.581 134.874 546.24 126.008 546.24 126.008C546.24 126.008 539.899 111.226 529.335 101.942C518.771 92.6581 501.419 83.3599 497.182 81.244C492.945 79.1282 487.469 77.8615 479.427 72.3776C471.385 66.8937 421.491 32.2484 405.84 22.9645C390.189 13.6807 356.364 9.01721 349.634 7.75058C342.904 6.48395 265.051 1 237.986 1C210.92 1 155.06 2.26663 124.19 14.0837Z" stroke="#0B1F44" stroke-miterlimit="10"/>
<path d="M514.087 91.0315C514.087 91.0315 505.584 94.1261 507.905 97.2207C510.225 100.315 522.994 108.419 528.787 118.466C534.581 128.512 535.763 133.536 538.458 133.536C541.153 133.536 547.033 128.527 546.226 126.008C545.419 123.489 541.167 100.69 514.087 91.0315Z" fill="white" stroke="#0B1F44" stroke-miterlimit="10"/>
<path d="M88.3765 168.498C88.3014 164.57 87.8965 160.656 87.1659 156.796L81.4012 163.762C81.6864 165.326 81.855 166.909 81.9056 168.498C81.9056 168.742 81.9056 168.973 81.9056 169.203L88.4053 171.261C88.3909 170.297 88.3909 169.376 88.3765 168.498Z" fill="#0B1F44" stroke="#0B1F44" stroke-miterlimit="10"/>
<path d="M78.2303 155.688C78.9012 156.448 79.4505 157.307 79.8588 158.235L83.8797 146.188C82.8186 143.663 81.1504 141.438 79.0229 139.711L78.2303 155.688Z" fill="#0B1F44" stroke="#0B1F44" stroke-miterlimit="10"/>
<path d="M81.0551 176.27C80.8015 177.306 80.4442 178.314 79.9886 179.278L83.3034 193.672C85.122 190.479 86.3934 187.006 87.0649 183.395L81.0551 176.27Z" fill="#0B1F44" stroke="#0B1F44" stroke-miterlimit="10"/>
<path d="M71.327 160.941L65.5623 153.054C64.637 157.35 64.1541 161.729 64.1211 166.123L70.6353 166.483C70.6855 164.618 70.9172 162.762 71.327 160.941Z" fill="#0B1F44" stroke="#0B1F44" stroke-miterlimit="10"/>
<path d="M73.2587 156.148C73.6498 155.547 74.1847 155.052 74.8151 154.709L73.864 138.732C71.8031 139.437 69.9295 141.453 68.3875 144.418L73.2587 156.148Z" fill="#0B1F44" stroke="#0B1F44" stroke-miterlimit="10"/>
<path d="M77.1497 182.229C76.9482 182.287 76.7396 182.316 76.53 182.315C75.8995 182.296 75.2944 182.063 74.815 181.653L71.6156 195.442C72.2339 196.271 73.0238 196.958 73.9315 197.454C74.8393 197.951 75.8435 198.247 76.8759 198.321C77.3646 198.311 77.8495 198.233 78.3171 198.091L77.1497 182.229Z" fill="#0B1F44" stroke="#0B1F44" stroke-miterlimit="10"/>
<path d="M71.2836 174.356L64.8271 177.134C65.3862 181.262 66.4461 185.308 67.9833 189.181L72.1195 177.306C71.7712 176.344 71.4918 175.358 71.2836 174.356Z" fill="#0B1F44" stroke="#0B1F44" stroke-miterlimit="10"/>
</svg>
