<svg width="134" height="42" viewBox="0 0 134 42" fill="none" xmlns="http://www.w3.org/2000/svg">
<path d="M60.2851 4.6181L59.3242 6.54712C58.8033 6.02673 57.9651 5.76654 56.8096 5.76654C55.714 5.76654 54.816 6.22711 54.1155 7.14825C53.415 8.06342 53.0648 9.22382 53.0648 10.6295C53.0648 12.0351 53.3881 13.1506 54.0347 13.9761C54.6872 14.8015 55.5554 15.2142 56.639 15.2142C57.8783 15.2142 58.8482 14.7716 59.5487 13.8864L60.6354 15.7705C59.6834 16.7814 58.2884 17.2868 56.4504 17.2868C54.6124 17.2868 53.1845 16.6827 52.1667 15.4744C51.1489 14.2662 50.64 12.6183 50.64 10.5308C50.64 8.58679 51.2028 6.96283 52.3284 5.65887C53.4599 4.34894 54.9058 3.69397 56.666 3.69397C58.1747 3.69397 59.3811 4.00201 60.2851 4.6181Z" fill="#2065EA"/>
<path d="M68.6191 17.0625V11.1409C68.6191 10.5487 68.4335 10.0732 68.0623 9.71429C67.6911 9.35541 67.2061 9.17596 66.6074 9.17596C66.2362 9.17596 65.862 9.27765 65.4849 9.48102C65.1077 9.67841 64.8383 9.9057 64.6766 10.1629V17.0625H62.3955V3.87341L64.6766 3.33508V8.06342C65.2573 7.53705 66.0566 7.27386 67.0744 7.27386C68.2778 7.27386 69.2118 7.60883 69.8763 8.27875C70.5409 8.94269 70.8732 9.89673 70.8732 11.1409V17.0625H68.6191Z" fill="#2065EA"/>
<path d="M81.8833 12.9443H75.0132C75.0551 13.7099 75.3186 14.3051 75.8035 14.7297C76.2885 15.1544 76.941 15.3668 77.7613 15.3668C78.785 15.3668 79.5634 15.1006 80.0962 14.5682L80.9673 16.2819C80.177 16.9219 78.9976 17.2419 77.429 17.2419C75.9622 17.2419 74.8007 16.8143 73.9445 15.9589C73.0944 15.0976 72.6693 13.8983 72.6693 12.3611C72.6693 10.8478 73.1363 9.62158 74.0703 8.6825C75.0102 7.74341 76.1358 7.27386 77.4469 7.27386C78.8419 7.27386 79.9615 7.68958 80.8057 8.521C81.6498 9.35242 82.0719 10.4111 82.0719 11.6971C82.0719 11.9723 82.0091 12.388 81.8833 12.9443ZM75.094 11.2575H79.8178C79.6621 9.85187 78.8838 9.14905 77.4829 9.14905C76.2016 9.14905 75.4054 9.85187 75.094 11.2575Z" fill="#2065EA"/>
<path d="M91.4207 8.21594L90.4598 9.89374C89.9329 9.39728 89.2264 9.14905 88.3403 9.14905C87.4902 9.14905 86.8166 9.43317 86.3197 10.0014C85.8288 10.5637 85.5833 11.3442 85.5833 12.3431C85.5833 14.3589 86.5442 15.3668 88.4661 15.3668C89.2983 15.3668 90.0317 15.0916 90.6663 14.5413L91.4925 16.3088C90.8399 16.7156 90.2682 16.9728 89.7772 17.0804C89.2923 17.1881 88.7175 17.2419 88.053 17.2419C86.5682 17.2419 85.3947 16.8113 84.5326 15.95C83.6764 15.0826 83.2484 13.8804 83.2484 12.3431C83.2484 10.8298 83.7184 9.60663 84.6583 8.67352C85.5983 7.74042 86.8795 7.27386 88.502 7.27386C89.6216 7.27386 90.5945 7.58789 91.4207 8.21594Z" fill="#0B1F44"/>
<path d="M99.4403 17.0625L96.6114 12.711L95.5338 13.8505V17.0625H93.2886V3.87341L95.5338 3.33508V11.1409L98.7398 7.45331H101.443L98.192 11.096L102.108 17.0625H99.4403Z" fill="#0B1F44"/>
<path d="M105.125 3.72986C105.484 3.72986 105.79 3.85846 106.041 4.11566C106.298 4.36688 106.427 4.67194 106.427 5.03082C106.427 5.38971 106.298 5.69775 106.041 5.95496C105.79 6.20618 105.484 6.33179 105.125 6.33179C104.766 6.33179 104.457 6.20618 104.2 5.95496C103.949 5.69775 103.823 5.38971 103.823 5.03082C103.823 4.67194 103.949 4.36688 104.2 4.11566C104.457 3.85846 104.766 3.72986 105.125 3.72986ZM103.966 17.0625V9.2926H102.736V7.45331H106.239V17.0625H103.966Z" fill="#0B1F44"/>
<path d="M115.048 17.0625V11.5087C115.048 10.6893 114.89 10.0911 114.573 9.71429C114.261 9.33746 113.749 9.14905 113.037 9.14905C112.708 9.14905 112.354 9.24176 111.977 9.42719C111.606 9.61261 111.316 9.8429 111.106 10.118V17.0625H108.861V7.45331H110.477L110.89 8.35052C111.501 7.63275 112.402 7.27386 113.594 7.27386C114.737 7.27386 115.638 7.6178 116.297 8.30566C116.961 8.98755 117.294 9.94159 117.294 11.1678V17.0625H115.048Z" fill="#0B1F44"/>
<path d="M119.009 19.5298L120.428 17.7803C121.212 18.498 122.086 18.8569 123.05 18.8569C123.697 18.8569 124.23 18.7612 124.649 18.5698C125.068 18.3784 125.277 18.1152 125.277 17.7803C125.277 17.212 124.813 16.9279 123.885 16.9279C123.634 16.9279 123.26 16.9578 122.763 17.0176C122.266 17.0775 121.892 17.1074 121.64 17.1074C120.096 17.1074 119.323 16.5541 119.323 15.4475C119.323 15.1305 119.452 14.8195 119.709 14.5144C119.967 14.2094 120.266 13.985 120.607 13.8415C119.512 13.1297 118.964 12.1218 118.964 10.8179C118.964 9.78906 119.341 8.9397 120.096 8.26978C120.85 7.59387 121.778 7.25592 122.88 7.25592C123.742 7.25592 124.463 7.41742 125.044 7.74042L125.924 6.71759L127.478 8.12622L126.409 8.9068C126.78 9.46906 126.966 10.133 126.966 10.8986C126.966 11.9932 126.63 12.8695 125.96 13.5275C125.295 14.1794 124.454 14.5054 123.436 14.5054C123.275 14.5054 123.059 14.4905 122.79 14.4606L122.422 14.4067C122.38 14.4067 122.218 14.4725 121.937 14.6041C121.661 14.7297 121.523 14.8613 121.523 14.9989C121.523 15.2382 121.73 15.3578 122.143 15.3578C122.329 15.3578 122.64 15.3129 123.077 15.2232C123.514 15.1335 123.888 15.0886 124.2 15.0886C126.385 15.0886 127.478 15.9649 127.478 17.7175C127.478 18.6865 127.041 19.4461 126.166 19.9964C125.292 20.5527 124.239 20.8308 123.005 20.8308C121.532 20.8308 120.2 20.3972 119.009 19.5298ZM121.254 10.8268C121.254 11.3951 121.41 11.8527 121.721 12.1996C122.038 12.5405 122.463 12.711 122.996 12.711C123.529 12.711 123.939 12.5435 124.227 12.2086C124.514 11.8736 124.658 11.413 124.658 10.8268C124.658 10.3423 124.502 9.93262 124.191 9.59766C123.885 9.2627 123.487 9.09521 122.996 9.09521C122.481 9.09521 122.062 9.25671 121.739 9.57971C121.416 9.90271 121.254 10.3184 121.254 10.8268Z" fill="#0B1F44"/>
<path d="M60.2851 25.6181L59.3242 27.5471C58.8033 27.0267 57.9651 26.7665 56.8096 26.7665C55.714 26.7665 54.816 27.2271 54.1155 28.1483C53.415 29.0634 53.0648 30.2238 53.0648 31.6295C53.0648 33.0351 53.3881 34.1506 54.0347 34.9761C54.6872 35.8015 55.5554 36.2142 56.639 36.2142C57.8783 36.2142 58.8482 35.7716 59.5487 34.8864L60.6354 36.7705C59.6834 37.7814 58.2884 38.2868 56.4504 38.2868C54.6124 38.2868 53.1845 37.6827 52.1667 36.4744C51.1489 35.2662 50.64 33.6183 50.64 31.5308C50.64 29.5868 51.2028 27.9628 52.3284 26.6589C53.4599 25.3489 54.9058 24.694 56.666 24.694C58.1747 24.694 59.3811 25.002 60.2851 25.6181Z" fill="#2065EA"/>
<path d="M67.748 37.1025C67.5444 37.4374 67.1882 37.7126 66.6793 37.9279C66.1764 38.1373 65.6495 38.2419 65.0987 38.2419C64.0629 38.2419 63.2487 37.9847 62.656 37.4703C62.0633 36.95 61.7669 36.2142 61.7669 35.2632C61.7669 34.1506 62.183 33.2803 63.0152 32.6523C63.8534 32.0242 65.0418 31.7102 66.5805 31.7102C66.8439 31.7102 67.1552 31.7551 67.5145 31.8448C67.5145 30.7143 66.799 30.149 65.3681 30.149C64.5239 30.149 63.8175 30.2896 63.2487 30.5707L62.7638 28.8301C63.5361 28.4593 64.4551 28.2739 65.5208 28.2739C66.9876 28.2739 68.0623 28.6088 68.7448 29.2787C69.4273 29.9427 69.7686 31.2048 69.7686 33.065V35.1196C69.7686 36.3997 70.026 37.2042 70.5409 37.5331C70.3553 37.8561 70.1488 38.0535 69.9212 38.1253C69.6937 38.2031 69.4333 38.2419 69.1399 38.2419C68.8166 38.2419 68.5263 38.1223 68.2688 37.8831C68.0114 37.6438 67.8378 37.3836 67.748 37.1025ZM67.5324 33.5405C67.1493 33.4628 66.8619 33.4239 66.6703 33.4239C64.8981 33.4239 64.012 34.0041 64.012 35.1645C64.012 36.0258 64.512 36.4565 65.5118 36.4565C66.8589 36.4565 67.5324 35.7836 67.5324 34.4377V33.5405Z" fill="#2065EA"/>
<path d="M77.7613 30.5438C77.3601 30.2806 76.9201 30.149 76.4411 30.149C75.9202 30.149 75.4563 30.3853 75.0491 30.8578C74.648 31.3304 74.4474 31.9076 74.4474 32.5895V38.0625H72.2023V28.4533H74.4474V29.3326C75.0761 28.6268 75.9113 28.2739 76.953 28.2739C77.7194 28.2739 78.3061 28.3905 78.7132 28.6238L77.7613 30.5438Z" fill="#2065EA"/>
<path d="M85.6282 30.5438C85.2271 30.2806 84.787 30.149 84.3081 30.149C83.7872 30.149 83.3232 30.3853 82.9161 30.8578C82.515 31.3304 82.3144 31.9076 82.3144 32.5895V38.0625H80.0693V28.4533H82.3144V29.3326C82.943 28.6268 83.7782 28.2739 84.82 28.2739C85.5863 28.2739 86.173 28.3905 86.5802 28.6238L85.6282 30.5438Z" fill="#0B1F44"/>
<path d="M89.6964 24.7299C90.0556 24.7299 90.361 24.8585 90.6124 25.1157C90.8699 25.3669 90.9986 25.6719 90.9986 26.0308C90.9986 26.3897 90.8699 26.6978 90.6124 26.955C90.361 27.2062 90.0556 27.3318 89.6964 27.3318C89.3372 27.3318 89.0289 27.2062 88.7714 26.955C88.52 26.6978 88.3942 26.3897 88.3942 26.0308C88.3942 25.6719 88.52 25.3669 88.7714 25.1157C89.0289 24.8585 89.3372 24.7299 89.6964 24.7299ZM88.5379 38.0625V30.2926H87.3076V28.4533H90.81V38.0625H88.5379Z" fill="#0B1F44"/>
<path d="M102.018 33.9443H95.1476C95.1895 34.7099 95.4529 35.3051 95.9379 35.7297C96.4228 36.1544 97.0754 36.3668 97.8956 36.3668C98.9194 36.3668 99.6977 36.1006 100.231 35.5682L101.102 37.2819C100.311 37.9219 99.132 38.2419 97.5634 38.2419C96.0965 38.2419 94.9351 37.8143 94.0789 36.9589C93.2288 36.0976 92.8037 34.8983 92.8037 33.3611C92.8037 31.8478 93.2707 30.6216 94.2046 29.6825C95.1446 28.7434 96.2702 28.2739 97.5813 28.2739C98.9763 28.2739 100.096 28.6896 100.94 29.521C101.784 30.3524 102.206 31.4111 102.206 32.6971C102.206 32.9723 102.143 33.388 102.018 33.9443ZM95.2284 32.2575H99.9522C99.7965 30.8519 99.0182 30.149 97.6172 30.149C96.336 30.149 95.5397 30.8519 95.2284 32.2575Z" fill="#0B1F44"/>
<path d="M109.57 30.5438C109.169 30.2806 108.729 30.149 108.25 30.149C107.729 30.149 107.265 30.3853 106.858 30.8578C106.457 31.3304 106.257 31.9076 106.257 32.5895V38.0625H104.011V28.4533H106.257V29.3326C106.885 28.6268 107.72 28.2739 108.762 28.2739C109.528 28.2739 110.115 28.3905 110.522 28.6238L109.57 30.5438Z" fill="#0B1F44"/>
<path d="M111.286 37.4434L112.085 35.658C112.755 36.1903 113.513 36.4565 114.357 36.4565C115.231 36.4565 115.668 36.1454 115.668 35.5234C115.668 35.1585 115.536 34.8594 115.273 34.6262C115.01 34.3929 114.498 34.1177 113.737 33.8007C112.079 33.1129 111.25 32.1498 111.25 30.9117C111.25 30.0803 111.567 29.4343 112.202 28.9737C112.836 28.5071 113.648 28.2739 114.635 28.2739C115.635 28.2739 116.575 28.4982 117.455 28.9468L116.809 30.6874C116.318 30.2687 115.635 30.0593 114.761 30.0593C113.977 30.0593 113.585 30.3704 113.585 30.9924C113.585 31.2377 113.713 31.459 113.971 31.6564C114.228 31.8538 114.779 32.1199 115.623 32.4549C116.467 32.7839 117.075 33.1846 117.446 33.6572C117.817 34.1297 118.003 34.7009 118.003 35.3708C118.003 36.2621 117.671 36.9649 117.006 37.4793C116.348 37.9877 115.45 38.2419 114.312 38.2419C113.671 38.2419 113.157 38.1881 112.767 38.0804C112.384 37.9788 111.89 37.7664 111.286 37.4434Z" fill="#0B1F44"/>
<path fill-rule="evenodd" clip-rule="evenodd" d="M33.7081 29.0362C35.6414 26.4214 36.7843 23.1878 36.7843 19.6875C36.7843 10.989 29.7262 3.9375 21.0196 3.9375C12.313 3.9375 5.25488 10.989 5.25488 19.6875C5.25488 28.386 12.313 35.4375 21.0196 35.4375C23.8425 35.4375 26.4923 34.6962 28.7842 33.3977L34.4619 39.0702L39.1067 34.4298L33.7081 29.0362Z" fill="white"/>
<path fill-rule="evenodd" clip-rule="evenodd" d="M36.7843 19.6875C36.7843 23.1878 35.6414 26.4214 33.7081 29.0362L39.1067 34.4298L34.4619 39.0702L28.7842 33.3977C26.4923 34.6962 23.8425 35.4375 21.0196 35.4375C12.313 35.4375 5.25488 28.386 5.25488 19.6875C5.25488 10.989 12.313 3.9375 21.0196 3.9375C29.7262 3.9375 36.7843 10.989 36.7843 19.6875ZM25.759 11.8125H24.5936C23.7691 11.8125 22.9761 12.1286 22.3781 12.6955L17.1855 17.6179C16.9512 17.84 16.6645 17.9991 16.3521 18.0805L10.5165 19.5997C8.83321 20.0379 7.65849 21.5566 7.65849 23.2945V25.1575C7.65849 26.2118 8.51401 27.0666 9.56935 27.0666H13.2155C13.6083 29.0007 15.32 30.4564 17.3719 30.4564C19.4238 30.4564 21.1353 29.0007 21.5283 27.0666H26.4991C28.7544 25.3923 30.2157 22.7103 30.2157 19.6875C30.2157 19.2419 30.1839 18.8037 30.1225 18.375H21.2917C20.7065 18.375 20.4134 17.6681 20.8273 17.2547L23.7268 14.3578C24.0963 13.9886 24.5975 13.7812 25.1201 13.7812H28.0639C27.4113 13.0051 26.6325 12.3383 25.759 11.8125ZM19.7059 26.2193C19.7059 27.5071 18.6609 28.5511 17.3719 28.5511C16.0829 28.5511 15.0378 27.5071 15.0378 26.2193C15.0378 24.9315 16.0829 23.8875 17.3719 23.8875C18.6609 23.8875 19.7059 24.9315 19.7059 26.2193Z" fill="#2065EA"/>
</svg>
