<svg width="11" height="15" viewBox="0 0 11 15" fill="none" xmlns="http://www.w3.org/2000/svg">
<path d="M2.50517 0.727572L3.26733 0.483905C3.98204 0.255822 4.74563 0.624863 5.05163 1.34595L5.66079 2.78245C5.92571 3.40791 5.77838 4.14386 5.29671 4.60145L3.95442 5.87503C4.03729 6.63723 4.29371 7.38736 4.72296 8.12544C5.13061 8.83951 5.67737 9.46454 6.33088 9.96356L7.94304 9.42523C8.55363 9.22194 9.21946 9.4564 9.59346 10.0068L10.4668 11.2889C10.9025 11.9292 10.8238 12.8118 10.2834 13.3544L9.70467 13.9359C9.12809 14.5146 8.30429 14.725 7.54283 14.487C5.74367 13.926 4.09113 12.2607 2.58238 9.49111C1.0715 6.71727 0.538126 4.36274 0.98296 2.4304C1.16996 1.61724 1.74867 0.969113 2.50517 0.727572Z" fill="#6D798F"/>
</svg>
