<svg width="32" height="32" viewBox="0 0 32 32" fill="none" xmlns="http://www.w3.org/2000/svg" id="popup-close">
    <path fill-rule="evenodd" clip-rule="evenodd" d="M16.0002 7.33337C11.2137 7.33337 7.3335 11.2136 7.3335 16C7.3335 20.7866 11.2137 24.6667 16.0002 24.6667C20.7867 24.6667 24.6668 20.7866 24.6668 16C24.6668 11.2136 20.7867 7.33337 16.0002 7.33337ZM5.3335 16C5.3335 10.109 10.1091 5.33337 16.0002 5.33337C21.8913 5.33337 26.6668 10.109 26.6668 16C26.6668 21.8911 21.8912 26.6667 16.0002 26.6667C10.1091 26.6667 5.3335 21.8911 5.3335 16Z" fill="#6D798F"/>
    <path fill-rule="evenodd" clip-rule="evenodd" d="M12.2929 12.2929C12.6834 11.9024 13.3166 11.9024 13.7071 12.2929L19.7071 18.2929C20.0976 18.6834 20.0976 19.3166 19.7071 19.7071C19.3166 20.0976 18.6834 20.0976 18.2929 19.7071L12.2929 13.7071C11.9024 13.3166 11.9024 12.6834 12.2929 12.2929Z" fill="#6D798F"/>
    <path fill-rule="evenodd" clip-rule="evenodd" d="M19.7071 12.2929C20.0976 12.6834 20.0976 13.3166 19.7071 13.7071L13.7071 19.7071C13.3166 20.0976 12.6834 20.0976 12.2929 19.7071C11.9024 19.3166 11.9024 18.6834 12.2929 18.2929L18.2929 12.2929C18.6834 11.9024 19.3166 11.9024 19.7071 12.2929Z" fill="#6D798F"/>
</svg>
