<svg width="25" height="25" viewBox="0 0 25 25" fill="none" xmlns="http://www.w3.org/2000/svg" id="report-four" >
<path fill-rule="evenodd" clip-rule="evenodd" d="M12.5 5.72916C8.76059 5.72916 5.72919 8.76056 5.72919 12.5C5.72919 16.2394 8.76059 19.2708 12.5 19.2708C16.2394 19.2708 19.2709 16.2394 19.2709 12.5C19.2709 8.76056 16.2394 5.72916 12.5 5.72916ZM4.16669 12.5C4.16669 7.89762 7.89765 4.16666 12.5 4.16666C17.1024 4.16666 20.8334 7.89762 20.8334 12.5C20.8334 17.1024 17.1024 20.8333 12.5 20.8333C7.89765 20.8333 4.16669 17.1024 4.16669 12.5Z" fill="#FF731E"/>
<path d="M13.2349 13.8235H9.04517C8.65202 13.8235 8.33331 13.5048 8.33331 13.1117C8.33331 12.7185 8.65202 12.3998 9.04517 12.3998H13.2025C13.6385 12.3998 13.9903 12.3259 14.2579 12.178C14.5256 12.0254 14.722 11.8132 14.8472 11.5413C14.9724 11.2694 15.0349 10.9523 15.0349 10.5898C15.0349 10.2655 14.9724 9.9626 14.8472 9.68119C14.722 9.39979 14.5277 9.17085 14.2644 8.99438C14.0011 8.81314 13.6579 8.72252 13.2349 8.72252H11.7794C11.5033 8.72252 11.2794 8.94638 11.2794 9.22252V16.8957C11.2794 17.3445 10.9156 17.7083 10.4668 17.7083C10.018 17.7083 9.65421 17.3445 9.65421 16.8957V8.29166C9.65421 7.73937 10.1019 7.29166 10.6542 7.29166H13.2349C13.9601 7.29166 14.5774 7.43236 15.0867 7.71376C15.5961 7.99516 15.9868 8.38388 16.2587 8.87991C16.5307 9.37117 16.6666 9.93636 16.6666 10.5755C16.6666 11.2575 16.5285 11.8418 16.2522 12.3283C15.9803 12.81 15.5875 13.1796 15.0738 13.4372C14.5644 13.6948 13.9515 13.8235 13.2349 13.8235ZM12.6784 14.589C13.0716 14.589 13.3903 14.9078 13.3903 15.3009C13.3903 15.694 13.0716 16.0128 12.6784 16.0128H9.04517C8.65202 16.0128 8.33331 15.694 8.33331 15.3009C8.33331 14.9078 8.65202 14.589 9.04517 14.589H12.6784Z" fill="#FF731E"/>
</svg>
