<svg width="25" height="25" viewBox="0 0 25 25" fill="none" xmlns="http://www.w3.org/2000/svg" id="report-two" >
<path fill-rule="evenodd" clip-rule="evenodd" d="M12.5 5.72919C11.0618 5.72919 9.89583 6.89511 9.89583 8.33335C9.89583 9.7716 11.0618 10.9375 12.5 10.9375C13.9382 10.9375 15.1042 9.7716 15.1042 8.33335C15.1042 6.89511 13.9382 5.72919 12.5 5.72919ZM8.33333 8.33335C8.33333 6.03217 10.1988 4.16669 12.5 4.16669C14.8012 4.16669 16.6667 6.03217 16.6667 8.33335C16.6667 10.6345 14.8012 12.5 12.5 12.5C10.1988 12.5 8.33333 10.6345 8.33333 8.33335Z" fill="#FF731E"/>
<path fill-rule="evenodd" clip-rule="evenodd" d="M7.3582 15.0294C8.59665 14.2901 10.2653 13.8021 12.5 13.8021C14.7347 13.8021 16.4033 14.2901 17.6418 15.0294C18.8809 15.769 19.6436 16.7329 20.1083 17.6126L20.1083 17.6127C20.5393 18.4287 20.3982 19.2801 19.9078 19.8959C19.4382 20.4856 18.6781 20.8333 17.8672 20.8333H7.13281C6.32192 20.8333 5.56177 20.4856 5.09216 19.8959C4.60181 19.2801 4.46071 18.4287 4.89172 17.6126L5.58254 17.9775L4.89172 17.6126C5.35636 16.7329 6.11914 15.769 7.3582 15.0294ZM8.15906 16.371C7.20305 16.9417 6.62585 17.6749 6.27337 18.3423L6.27336 18.3423C6.14889 18.578 6.18817 18.7639 6.31446 18.9225C6.46148 19.1071 6.75421 19.2708 7.13281 19.2708H17.8672C18.2458 19.2708 18.5385 19.1071 18.6855 18.9225C18.8118 18.7639 18.8511 18.578 18.7267 18.3424C18.3742 17.6749 17.797 16.9417 16.8409 16.371C15.8843 15.8 14.5028 15.3646 12.5 15.3646C10.4972 15.3646 9.11569 15.8 8.15906 16.371Z" fill="#FF731E"/>
</svg>
