<svg width="25" height="25" viewBox="0 0 25 25" fill="none" xmlns="http://www.w3.org/2000/svg" id="report-three" >
<path fill-rule="evenodd" clip-rule="evenodd" d="M4.16666 4.94794C4.16666 4.51646 4.51643 4.16669 4.94791 4.16669H15.8856C16.3171 4.16669 16.6669 4.51646 16.6669 4.94794V15.8854C16.6669 16.3169 16.3171 16.6667 15.8856 16.6667H4.94791C4.51643 16.6667 4.16666 16.3169 4.16666 15.8854V4.94794ZM5.72916 5.72919V15.1042H15.1044V5.72919H5.72916Z" fill="#FF731E"/>
<path fill-rule="evenodd" clip-rule="evenodd" d="M7.81251 17.1875C7.23721 17.1875 6.77084 17.6539 6.77084 18.2292C6.77084 18.8045 7.23721 19.2708 7.81251 19.2708C8.38781 19.2708 8.85418 18.8045 8.85418 18.2292C8.85418 17.6539 8.38781 17.1875 7.81251 17.1875ZM5.20834 18.2292C5.20834 16.7909 6.37427 15.625 7.81251 15.625C9.25075 15.625 10.4167 16.7909 10.4167 18.2292C10.4167 19.6674 9.25075 20.8333 7.81251 20.8333C6.37427 20.8333 5.20834 19.6674 5.20834 18.2292Z" fill="#FF731E"/>
<path fill-rule="evenodd" clip-rule="evenodd" d="M17.1875 17.1875C16.6122 17.1875 16.1458 17.6539 16.1458 18.2292C16.1458 18.8045 16.6122 19.2708 17.1875 19.2708C17.7628 19.2708 18.2292 18.8045 18.2292 18.2292C18.2292 17.6539 17.7628 17.1875 17.1875 17.1875ZM14.5833 18.2292C14.5833 16.7909 15.7493 15.625 17.1875 15.625C18.6258 15.625 19.7917 16.7909 19.7917 18.2292C19.7917 19.6674 18.6258 20.8333 17.1875 20.8333C15.7493 20.8333 14.5833 19.6674 14.5833 18.2292Z" fill="#FF731E"/>
<path fill-rule="evenodd" clip-rule="evenodd" d="M15.1042 9.11456C15.1042 8.68309 15.4539 8.33331 15.8854 8.33331H16.9273C19.0847 8.33331 20.8335 10.0822 20.8335 12.2396V15.8854C20.8335 16.3169 20.4838 16.6666 20.0523 16.6666H15.8854C15.4539 16.6666 15.1042 16.3169 15.1042 15.8854V9.11456ZM16.6667 9.89581V15.1041H19.271V12.2396C19.271 10.9451 18.2217 9.89581 16.9273 9.89581H16.6667Z" fill="#FF731E"/>
</svg>
