<svg width="25" height="25" viewBox="0 0 25 25" fill="none" xmlns="http://www.w3.org/2000/svg" id="report-five" >
<path fill-rule="evenodd" clip-rule="evenodd" d="M5.98958 11.1979C6.42105 11.1979 6.77083 11.5477 6.77083 11.9792V20.0521C6.77083 20.4835 6.42105 20.8333 5.98958 20.8333C5.55811 20.8333 5.20833 20.4835 5.20833 20.0521V11.9792C5.20833 11.5477 5.55811 11.1979 5.98958 11.1979ZM10.1562 11.1979C10.5877 11.1979 10.9375 11.5477 10.9375 11.9792V20.0521C10.9375 20.4835 10.5877 20.8333 10.1562 20.8333C9.72477 20.8333 9.375 20.4835 9.375 20.0521V11.9792C9.375 11.5477 9.72477 11.1979 10.1562 11.1979ZM14.8437 11.1979C15.2752 11.1979 15.625 11.5477 15.625 11.9792V20.0521C15.625 20.4835 15.2752 20.8333 14.8437 20.8333C14.4123 20.8333 14.0625 20.4835 14.0625 20.0521V11.9792C14.0625 11.5477 14.4123 11.1979 14.8437 11.1979ZM19.0104 11.1979C19.4419 11.1979 19.7917 11.5477 19.7917 11.9792V20.0521C19.7917 20.4835 19.4419 20.8333 19.0104 20.8333C18.5789 20.8333 18.2292 20.4835 18.2292 20.0521V11.9792C18.2292 11.5477 18.5789 11.1979 19.0104 11.1979Z" fill="#FF731E"/>
<path fill-rule="evenodd" clip-rule="evenodd" d="M11.9785 4.36621C12.2752 4.10014 12.7247 4.10014 13.0215 4.36621L20.5736 11.137C20.8147 11.3532 20.8974 11.6956 20.7817 11.9979C20.666 12.3003 20.3758 12.5 20.0521 12.5H4.94791C4.62416 12.5 4.33395 12.3003 4.21825 11.9979C4.10255 11.6956 4.18533 11.3532 4.42639 11.137L11.9785 4.36621ZM6.98964 10.9375H18.0103L12.5 5.99717L6.98964 10.9375Z" fill="#FF731E"/>
<path fill-rule="evenodd" clip-rule="evenodd" d="M4.16667 20.0521C4.16667 19.6206 4.51645 19.2708 4.94792 19.2708H20.0521C20.4836 19.2708 20.8333 19.6206 20.8333 20.0521C20.8333 20.4836 20.4836 20.8333 20.0521 20.8333H4.94792C4.51645 20.8333 4.16667 20.4836 4.16667 20.0521Z" fill="#FF731E"/>
</svg>
