<svg width="25" height="25" viewBox="0 0 25 25" fill="none" xmlns="http://www.w3.org/2000/svg" id="report-one">
<path fill-rule="evenodd" clip-rule="evenodd" d="M7.03127 5.72919C6.31215 5.72919 5.72919 6.31215 5.72919 7.03127V14.8438C5.72919 15.5629 6.31214 16.1459 7.03127 16.1459H9.76565C9.99093 16.1459 10.2052 16.2431 10.3536 16.4126L12.5 18.8657L14.6464 16.4126C14.7948 16.2431 15.0091 16.1459 15.2344 16.1459H17.9688C18.6879 16.1459 19.2709 15.5629 19.2709 14.8438V7.03127C19.2709 6.31214 18.6879 5.72919 17.9688 5.72919H7.03127ZM4.16669 7.03127C4.16669 5.4492 5.4492 4.16669 7.03127 4.16669H17.9688C19.5509 4.16669 20.8334 5.44921 20.8334 7.03127V14.8438C20.8334 16.4259 19.5509 17.7084 17.9688 17.7084H15.5889L13.088 20.5666C12.9396 20.7361 12.7253 20.8334 12.5 20.8334C12.2747 20.8334 12.0604 20.7361 11.9121 20.5666L9.41114 17.7084H7.03127C5.44921 17.7084 4.16669 16.4259 4.16669 14.8438V7.03127Z" fill="white"/>
<path fill-rule="evenodd" clip-rule="evenodd" d="M12.5 7.29169C13.0753 7.29169 13.5416 7.75806 13.5416 8.33335V10.4167C13.5416 10.992 13.0753 11.4584 12.5 11.4584C11.9247 11.4584 11.4583 10.992 11.4583 10.4167V8.33335C11.4583 7.75806 11.9247 7.29169 12.5 7.29169Z" fill="white"/>
<path fill-rule="evenodd" clip-rule="evenodd" d="M11.4583 13.5417C11.4583 12.9664 11.9247 12.5 12.5 12.5C13.0752 12.5 13.5416 12.9664 13.5416 13.5417C13.5416 14.1169 13.0752 14.5833 12.5 14.5833C11.9247 14.5833 11.4583 14.1169 11.4583 13.5417Z" fill="white"/>
</svg>
