<svg width="18" height="18" viewBox="0 0 18 18" fill="none" xmlns="http://www.w3.org/2000/svg" id="share-copy">
<path fill-rule="evenodd" clip-rule="evenodd" d="M8.60177 4.1021C10.0641 2.6398 12.4349 2.6398 13.8973 4.1021C15.3596 5.56441 15.3596 7.93526 13.8973 9.3976L12.9598 10.3351C12.7401 10.5548 12.3839 10.5548 12.1643 10.3351C11.9446 10.1154 11.9446 9.75927 12.1643 9.5396L13.1018 8.6021C14.1248 7.57909 14.1248 5.92057 13.1018 4.8976C12.0788 3.87463 10.4203 3.87463 9.39726 4.8976C9.39726 4.8976 9.39726 4.89759 9.39726 4.8976L8.45976 5.8351C8.24009 6.05477 7.88393 6.05477 7.66426 5.8351C7.44459 5.61543 7.44459 5.25927 7.66426 5.0396L8.60177 4.1021Z" fill="#2065EA"/>
<path fill-rule="evenodd" clip-rule="evenodd" d="M5.83558 7.66463C6.05525 7.8843 6.05525 8.24046 5.83559 8.46013L4.89809 9.39762C4.89809 9.39762 4.89809 9.39762 4.89809 9.39762C3.87512 10.4206 3.87512 12.0791 4.89809 13.1021C5.92105 14.1251 7.57958 14.1251 8.60259 13.1021L9.54009 12.1646C9.75976 11.945 10.1159 11.945 10.3356 12.1646C10.5553 12.3843 10.5553 12.7405 10.3356 12.9601L9.39809 13.8976C7.93574 15.36 5.5649 15.36 4.10258 13.8976C2.64028 12.4353 2.64028 10.0645 4.10258 8.60214L5.04009 7.66463C5.25976 7.44496 5.61592 7.44496 5.83558 7.66463Z" fill="#2065EA"/>
<path fill-rule="evenodd" clip-rule="evenodd" d="M11.0852 6.91475C11.3049 7.13442 11.3049 7.49058 11.0852 7.71025L7.71025 11.0852C7.49058 11.3049 7.13442 11.3049 6.91475 11.0852C6.69508 10.8656 6.69508 10.5094 6.91475 10.2898L10.2898 6.91475C10.5094 6.69508 10.8656 6.69508 11.0852 6.91475Z" fill="#2065EA"/>
</svg>
