<svg width="18" height="18" viewBox="0 0 18 18" fill="none" xmlns="http://www.w3.org/2000/svg" id="share-od" >
<path fill-rule="evenodd" clip-rule="evenodd" d="M9.00045 3.91055C9.82215 3.91055 10.4909 4.57835 10.4909 5.40095C10.4909 6.22175 9.82215 6.89045 9.00045 6.89045C8.60548 6.88997 8.2268 6.73292 7.94742 6.45371C7.66805 6.17451 7.51077 5.79593 7.51005 5.40095C7.51005 4.57835 8.17875 3.91055 9.00045 3.91055ZM9.00045 9.00005C10.9859 9.00005 12.6005 7.38545 12.6005 5.40005C12.6005 3.41465 10.9859 1.80005 9.00045 1.80005C7.01505 1.80005 5.40045 3.41465 5.40045 5.40005C5.40045 7.38545 7.01505 9.00005 9.00045 9.00005ZM10.4603 12.2634C11.2052 12.0884 11.9143 11.7861 12.5564 11.3697C12.7951 11.211 12.9629 10.9659 13.0247 10.6859C13.0865 10.406 13.0373 10.113 12.8876 9.86855C12.8162 9.74826 12.7213 9.64361 12.6086 9.56088C12.4958 9.47815 12.3675 9.41904 12.2314 9.3871C12.0952 9.35517 11.954 9.35106 11.8162 9.37502C11.6785 9.39898 11.5469 9.45052 11.4296 9.52655C10.7059 9.99481 9.86237 10.2439 9.00045 10.2439C8.13853 10.2439 7.29498 9.99481 6.57135 9.52655C6.45397 9.45052 6.32245 9.39898 6.18467 9.37502C6.04689 9.35106 5.90569 9.35517 5.76953 9.3871C5.63338 9.41904 5.50508 9.47815 5.39232 9.56088C5.27956 9.64361 5.18468 9.74826 5.11335 9.86855C4.96361 10.113 4.91445 10.406 4.97622 10.6859C5.03798 10.9659 5.20585 11.211 5.44455 11.3697C6.08645 11.7858 6.79521 12.0881 7.53975 12.2634L5.52285 14.3415C5.32429 14.5485 5.21341 14.8242 5.21341 15.1111C5.21341 15.3979 5.32429 15.6736 5.52285 15.8805C5.61973 15.981 5.73584 16.0608 5.86426 16.1154C5.99268 16.1699 6.13078 16.198 6.2703 16.198C6.40983 16.198 6.54792 16.1699 6.67634 16.1154C6.80476 16.0608 6.92088 15.981 7.01775 15.8805L9.00045 13.8403L10.9841 15.8823C11.0807 15.9831 11.1966 16.0632 11.325 16.118C11.4534 16.1727 11.5915 16.201 11.7311 16.201C11.8706 16.201 12.0087 16.1727 12.1371 16.118C12.2655 16.0632 12.3815 15.9831 12.4781 15.8823C12.8921 15.4566 12.8921 14.7663 12.4781 14.3424L10.4603 12.2634Z" fill="#0B1F44"/>
</svg>
