<svg width="18" height="18" viewBox="0 0 18 18" fill="none" xmlns="http://www.w3.org/2000/svg" id="share-what" >
<path d="M14.0398 3.87005C12.6898 2.52005 10.8898 1.80005 8.9998 1.80005C5.0398 1.80005 1.8898 5.04005 1.8898 8.91005C1.8898 10.17 2.2498 11.43 2.8798 12.51L1.7998 16.2L5.5798 15.21C6.6598 15.75 7.8298 16.11 8.9998 16.11C12.9598 16.11 16.1098 12.87 16.1098 9.00005C16.1098 7.02005 15.3898 5.22005 14.0398 3.87005ZM12.5098 11.52C12.3298 11.97 11.6098 12.33 11.3398 12.33C11.0698 12.42 10.6198 12.42 10.2598 12.24C9.9898 12.15 9.62981 12.06 9.2698 11.88C7.46981 11.07 6.29981 9.27005 6.20981 9.18005C6.0298 9.09005 5.3998 8.19005 5.3998 7.38005C5.3998 6.48005 5.8498 6.03005 6.0298 5.85005C6.2098 5.67005 6.3898 5.67005 6.4798 5.67005H6.8398C6.9298 5.67005 7.10981 5.67005 7.1998 5.94005C7.37981 6.30005 7.73981 7.20005 7.73981 7.29005C7.73981 7.38005 7.82981 7.47005 7.73981 7.56005C7.73981 7.74005 7.6498 7.74005 7.5598 7.92005L7.28981 8.19005C7.19981 8.28005 7.10981 8.37005 7.28981 8.55005C7.37981 8.73005 7.7398 9.27005 8.2798 9.81005C8.9998 10.44 9.5398 10.62 9.71981 10.71C9.89981 10.8 9.98981 10.8 10.0798 10.71C10.1698 10.62 10.5298 10.17 10.6198 9.99005C10.7098 9.81005 10.8898 9.81005 10.9798 9.90005C11.1598 9.99005 12.0598 10.35 12.2398 10.44C12.4198 10.53 12.5098 10.53 12.5998 10.62C12.5998 10.71 12.5998 11.07 12.5098 11.52Z" fill="#0B1F44"/>
</svg>
