<svg width="18" height="18" viewBox="0 0 18 18" fill="none" xmlns="http://www.w3.org/2000/svg" id="share-vib" >
<path fill-rule="evenodd" clip-rule="evenodd" d="M14.0648 3.04651C13.7264 2.74051 12.2684 1.82611 9.22462 1.81261C9.22462 1.81261 5.62192 1.57591 3.87232 3.15721C2.89852 4.11661 2.57092 5.54221 2.53492 7.28371L2.53042 7.46191C2.48992 9.24211 2.41882 12.3786 5.50312 13.2336L5.49052 15.9192C5.49052 16.0713 5.51392 16.1748 5.60122 16.1964C5.66422 16.2117 5.75692 16.1793 5.83702 16.1001C6.34732 15.5889 7.98082 13.6224 7.98082 13.6224C10.1723 13.7655 11.9165 13.3335 12.1028 13.2723C12.1478 13.2579 12.2108 13.2435 12.29 13.2246C13.0037 13.059 14.9774 12.6 15.3419 9.66331C15.7604 6.30091 15.1889 4.00591 14.0657 3.04651H14.0648ZM9.35332 5.87521C9.35635 5.82157 9.38048 5.77129 9.42044 5.73538C9.46041 5.69946 9.51296 5.68081 9.56662 5.68351C9.98692 5.70511 10.3361 5.83201 10.5854 6.08851C10.8329 6.34411 10.9544 6.70051 10.976 7.13071C10.9787 7.18466 10.9597 7.23744 10.9235 7.27744C10.8872 7.31744 10.8365 7.34139 10.7825 7.34401C10.7286 7.34664 10.6758 7.32773 10.6358 7.29144C10.5958 7.25515 10.5719 7.20446 10.5692 7.15051C10.5512 6.78331 10.4495 6.53311 10.2929 6.37111C10.1363 6.20911 9.89692 6.10741 9.54592 6.08851C9.49212 6.08572 9.44162 6.06169 9.40551 6.0217C9.3694 5.98171 9.35063 5.92903 9.35332 5.87521ZM9.26332 4.59451C9.23589 4.59088 9.208 4.59288 9.18137 4.60039C9.15473 4.60791 9.12991 4.62078 9.10842 4.63822C9.08693 4.65567 9.06923 4.67731 9.05639 4.70183C9.04356 4.72635 9.03586 4.75323 9.03378 4.78083C9.03169 4.80842 9.03526 4.83616 9.04427 4.86233C9.05327 4.8885 9.06752 4.91255 9.08614 4.93302C9.10477 4.9535 9.12738 4.96995 9.15258 4.98138C9.17778 4.99282 9.20505 4.99899 9.23273 4.99951C10.0076 5.05531 10.589 5.31451 11.0057 5.76721C11.4233 6.22261 11.6276 6.78961 11.6132 7.48531C11.6126 7.51202 11.6173 7.53859 11.627 7.56349C11.6367 7.5884 11.6511 7.61115 11.6696 7.63046C11.6881 7.64976 11.7102 7.66524 11.7346 7.67601C11.7591 7.68678 11.7854 7.69262 11.8121 7.69321C11.8388 7.6938 11.8654 7.68913 11.8903 7.67945C11.9152 7.66978 11.938 7.65529 11.9573 7.63682C11.9766 7.61835 11.9921 7.59626 12.0028 7.57181C12.0136 7.54736 12.0194 7.52102 12.02 7.49431C12.0371 6.70591 11.8013 6.03361 11.3054 5.49361C10.805 4.94821 10.1174 4.65661 9.26242 4.59361L9.26332 4.59451ZM8.68552 3.74221C8.68642 3.62971 8.77822 3.53971 8.89073 3.54061C10.0715 3.54871 11.0687 3.94111 11.8706 4.71961C12.6788 5.50621 13.0784 6.57631 13.0883 7.90561C13.0887 7.95956 13.0676 8.01144 13.0297 8.04983C12.9918 8.08823 12.9402 8.11001 12.8863 8.11036C12.8323 8.11072 12.7805 8.08964 12.7421 8.05174C12.7037 8.01385 12.6819 7.96226 12.6815 7.90831C12.6725 6.66271 12.3008 5.70511 11.5862 5.01031C10.8662 4.31011 9.97072 3.95371 8.88802 3.94651C8.86131 3.9464 8.83489 3.94102 8.81026 3.93069C8.78562 3.92036 8.76327 3.90527 8.74446 3.8863C8.72566 3.86733 8.71077 3.84484 8.70066 3.82012C8.69055 3.7954 8.68541 3.76892 8.68552 3.74221ZM10.0364 9.69391C9.88342 9.88291 9.59722 9.85951 9.59722 9.85951C7.50652 9.32671 6.94672 7.21351 6.94672 7.21351C6.94672 7.21351 6.92152 6.92911 7.11232 6.77521L7.49032 6.47551C7.67752 6.33151 7.79632 5.98231 7.60642 5.64121C7.45998 5.385 7.30078 5.13628 7.12942 4.89601C6.94973 4.66098 6.76488 4.42992 6.57502 4.20301C6.38782 3.98431 6.11332 3.93301 5.82352 4.08331L5.82082 4.08421H5.81812C5.52804 4.25139 5.26671 4.4641 5.04412 4.71421C4.86502 4.92931 4.76242 5.13991 4.73722 5.34691C4.72272 5.4687 4.735 5.59218 4.77322 5.70871L4.78222 5.71591C4.87222 6.03541 5.09812 6.56821 5.58952 7.45651C5.87032 7.96951 6.19432 8.45911 6.55792 8.91811C6.73972 9.14851 6.93502 9.36811 7.14202 9.57601L7.14922 9.58321L7.16452 9.59851L7.18612 9.62011L7.20862 9.64261L7.23112 9.66421C7.43902 9.87121 7.65952 10.0665 7.88992 10.2483C8.35072 10.6101 8.84032 10.9341 9.35512 11.214C10.2461 11.7036 10.7798 11.9286 11.0993 12.0195L11.1065 12.0285C11.2234 12.0667 11.3471 12.079 11.4692 12.0645C11.6762 12.0402 11.8886 11.9385 12.1037 11.7585L12.1064 11.7567L12.1091 11.754C12.3566 11.5326 12.5681 11.2734 12.7337 10.9863V10.9836L12.7355 10.98C12.8858 10.692 12.8345 10.4175 12.6131 10.2312L12.5645 10.1907C12.353 10.0152 12.1379 9.84418 11.9192 9.67771C11.6789 9.50643 11.4302 9.34724 11.174 9.20071C10.832 9.01171 10.481 9.13051 10.337 9.31771L10.0364 9.69391Z" fill="#0B1F44"/>
</svg>
