<svg width="18" height="18" viewBox="0 0 18 18" fill="none" xmlns="http://www.w3.org/2000/svg" id="share-tel" >
<path fill-rule="evenodd" clip-rule="evenodd" d="M2.35958 7.91999C2.35958 7.91999 1.75478 8.13059 1.80248 8.51759C1.85018 8.90459 2.34428 9.08189 2.34428 9.08189L5.56088 10.179L13.2856 5.21099C13.2856 5.21099 13.7311 4.93649 13.7149 5.21099C13.7149 5.21099 13.795 5.25959 13.5556 5.48549C13.3171 5.71049 7.48778 11.0178 7.48778 11.0178L7.47608 11.1168L12.7276 15.1947C13.6042 15.5817 13.9228 14.7753 13.9228 14.7753L16.1998 3.14729C16.1998 2.37239 15.1486 2.84039 15.1486 2.84039L2.35958 7.91999Z" fill="#0B1F44"/>
<path fill-rule="evenodd" clip-rule="evenodd" d="M10.3624 12.4434L7.40856 14.598C7.40856 14.598 7.24656 14.724 7.06836 14.6448L7.40856 11.0259L10.3624 12.4434Z" fill="#0B1F44"/>
</svg>
