<svg width="38" height="49" viewBox="0 0 38 49" fill="none" xmlns="http://www.w3.org/2000/svg">
<path fill-rule="evenodd" clip-rule="evenodd" d="M0.452393 5.44441C0.452393 2.6881 2.68031 0.453674 5.42858 0.453674H24.9385C25.3435 0.453674 25.7274 0.635105 25.9852 0.948395L37.2372 14.6217C37.4379 14.8655 37.5476 15.1719 37.5476 15.4881V43.5555C37.5476 46.3118 35.3197 48.5463 32.5714 48.5463H5.42858C2.6803 48.5463 0.452393 46.3118 0.452393 43.5555V5.44441ZM5.42858 3.1759C4.17937 3.1759 3.16668 4.19155 3.16668 5.44441V43.5555C3.16668 44.8084 4.17938 45.824 5.42858 45.824H32.5714C33.8206 45.824 34.8333 44.8084 34.8333 43.5555V16.8492H28.5576C25.8093 16.8492 23.5814 14.6147 23.5814 11.8584V3.1759H5.42858ZM26.2957 5.60229L33.3107 14.1269H28.5576C27.3084 14.1269 26.2957 13.1113 26.2957 11.8584V5.60229ZM7.95368 15.4881C7.95368 14.7363 8.5613 14.1269 9.31083 14.1269H20.4325C21.182 14.1269 21.7897 14.7363 21.7897 15.4881C21.7897 16.2398 21.182 16.8492 20.4325 16.8492H9.31083C8.5613 16.8492 7.95368 16.2398 7.95368 15.4881ZM7.95368 25.5977C7.95368 24.8459 8.5613 24.2365 9.31083 24.2365H28.0641C28.8136 24.2365 29.4212 24.8459 29.4212 25.5977C29.4212 26.3494 28.8136 26.9588 28.0641 26.9588H9.31083C8.5613 26.9588 7.95368 26.3494 7.95368 25.5977ZM7.95368 36.2084C7.95368 35.4567 8.5613 34.8473 9.31083 34.8473H28.0641C28.8136 34.8473 29.4212 35.4567 29.4212 36.2084C29.4212 36.9601 28.8136 37.5695 28.0641 37.5695H9.31083C8.5613 37.5695 7.95368 36.9601 7.95368 36.2084Z" fill="#0B1F44"/>
</svg>
