<svg width="49" height="49" viewBox="0 0 49 49" fill="none" xmlns="http://www.w3.org/2000/svg" id="tariff-three">
<path fill-rule="evenodd" clip-rule="evenodd" d="M8.42188 13.7812C6.30766 13.7812 4.59375 15.4952 4.59375 17.6094V40.5781C4.59375 42.6924 6.30764 44.4062 8.42188 44.4062H40.5781C42.6924 44.4062 44.4062 42.6924 44.4062 40.5781V17.6094C44.4062 15.4951 42.6924 13.7812 40.5781 13.7812H8.42188ZM0 17.6094C0 12.9581 3.7706 9.1875 8.42188 9.1875H40.5781C45.2295 9.1875 49 12.9581 49 17.6094V40.5781C49 45.2295 45.2295 49 40.5781 49H8.42188C3.77062 49 0 45.2295 0 40.5781V17.6094Z" fill="#0B1F44"/>
<path fill-rule="evenodd" clip-rule="evenodd" d="M20.6719 4.59375C18.5577 4.59375 16.8438 6.30766 16.8438 8.42188V10.7188C16.8438 11.9873 15.8154 13.0156 14.5469 13.0156C13.2783 13.0156 12.25 11.9873 12.25 10.7188V8.42188C12.25 3.7706 16.0206 0 20.6719 0H28.3281C32.9795 0 36.75 3.77062 36.75 8.42188V10.7188C36.75 11.9873 35.7217 13.0156 34.4531 13.0156C33.1846 13.0156 32.1562 11.9873 32.1562 10.7188V8.42188C32.1562 6.30764 30.4424 4.59375 28.3281 4.59375H20.6719Z" fill="#0B1F44"/>
<path fill-rule="evenodd" clip-rule="evenodd" d="M0.765624 28.3281C0.765624 27.0596 1.79397 26.0313 3.0625 26.0313H45.9375C47.206 26.0313 48.2344 27.0596 48.2344 28.3281C48.2344 29.5967 47.206 30.625 45.9375 30.625H3.0625C1.79397 30.625 0.765624 29.5967 0.765624 28.3281Z" fill="#0B1F44"/>
<path fill-rule="evenodd" clip-rule="evenodd" d="M14.5469 21.4375C15.8154 21.4375 16.8438 22.4658 16.8438 23.7344V31.3906C16.8438 32.6592 15.8154 33.6875 14.5469 33.6875C13.2783 33.6875 12.25 32.6592 12.25 31.3906V23.7344C12.25 22.4658 13.2783 21.4375 14.5469 21.4375Z" fill="#0B1F44"/>
<path fill-rule="evenodd" clip-rule="evenodd" d="M34.4531 21.4375C35.7217 21.4375 36.75 22.4658 36.75 23.7344V31.3906C36.75 32.6592 35.7217 33.6875 34.4531 33.6875C33.1846 33.6875 32.1562 32.6592 32.1562 31.3906V23.7344C32.1562 22.4658 33.1846 21.4375 34.4531 21.4375Z" fill="#0B1F44"/>
</svg>
