<svg width="73" height="52" viewBox="0 0 73 52" fill="none" xmlns="http://www.w3.org/2000/svg" id="tariff-two" >
<g clip-path="url(#clip0_321_2)">
<path d="M42.3976 8.20361L43.5302 7.20828L48.2981 7.18705L61.5196 11.1627L67.4045 23.1299L61.9639 45.0503L60.0737 48.8731L35.7297 42.7831L33.8473 40.1141L42.3976 8.20361Z" fill="white"/>
<path fill-rule="evenodd" clip-rule="evenodd" d="M40.6472 8.11946C41.2439 5.89275 43.5274 4.56991 45.7476 5.16482L61.5089 9.38804C61.8361 9.47571 62.1069 9.70538 62.2474 10.0143L68.3776 23.496C68.487 23.7365 68.5093 24.0077 68.4409 24.2631L62.3653 46.9377C61.7686 49.1644 59.4851 50.4873 57.2649 49.8924L35.3373 44.0169C33.117 43.422 31.8009 41.1346 32.3975 38.9079L40.6472 8.11946ZM45.1584 7.36399C44.1492 7.09358 43.1112 7.69487 42.84 8.70701L34.5903 39.4954C34.3191 40.5076 34.9173 41.5473 35.9265 41.8177L57.8541 47.6932C58.8633 47.9636 59.9013 47.3623 60.1725 46.3502L65.9535 24.7752L60.8835 23.4167C58.6633 22.8218 57.3472 20.5344 57.9438 18.3077L59.8233 11.2934L45.1584 7.36399ZM61.4908 13.8412L65.3127 22.2464L61.4728 21.2175C60.4636 20.9471 59.8654 19.9074 60.1366 18.8952L61.4908 13.8412ZM44.5331 17.8571C44.6959 17.2498 45.3186 16.889 45.9242 17.0513L54.9089 19.4587C55.5144 19.621 55.8734 20.2448 55.7107 20.8521C55.5479 21.4594 54.9252 21.8201 54.3197 21.6579L45.3349 19.2504C44.7294 19.0882 44.3704 18.4644 44.5331 17.8571ZM42.3448 26.0242C42.5075 25.4169 43.1303 25.0562 43.7358 25.2184L58.8858 29.2778C59.4913 29.4401 59.8502 30.0639 59.6875 30.6712C59.5248 31.2785 58.902 31.6393 58.2965 31.477L43.1465 27.4176C42.541 27.2553 42.182 26.6315 42.3448 26.0242ZM40.0479 34.5962C40.2106 33.9889 40.8334 33.6282 41.4389 33.7904L56.5889 37.8498C57.1944 38.0121 57.5534 38.6359 57.3907 39.2432C57.2279 39.8505 56.6052 40.2113 55.9996 40.049L40.8496 35.9896C40.2441 35.8273 39.8852 35.2035 40.0479 34.5962Z" fill="#FF8F4B"/>
</g>
<g clip-path="url(#clip1_321_2)">
<path d="M29.7613 8.58044L28.6287 7.58511L23.8608 7.56388L10.6394 11.5395L4.75442 23.5067L10.1951 45.4271L12.0852 49.25L36.4293 43.1599L38.3117 40.4909L29.7613 8.58044Z" fill="white"/>
<path fill-rule="evenodd" clip-rule="evenodd" d="M31.5117 8.49629C30.915 6.26958 28.6315 4.94674 26.4113 5.54165L10.65 9.76487C10.3228 9.85255 10.052 10.0822 9.91153 10.3911L3.7813 23.8729C3.67197 24.1133 3.64961 24.3845 3.71805 24.64L9.79368 47.3145C10.3903 49.5412 12.6739 50.8641 14.8941 50.2692L36.8217 44.3937C39.0419 43.7988 40.3581 41.5114 39.7614 39.2847L31.5117 8.49629ZM27.0006 7.74082C28.0098 7.47041 29.0477 8.0717 29.3189 9.08384L37.5687 39.8723C37.8399 40.8844 37.2416 41.9241 36.2324 42.1945L14.3048 48.07C13.2956 48.3404 12.2576 47.7391 11.9864 46.727L6.20544 25.152L11.2754 23.7935C13.4956 23.1986 14.8118 20.9112 14.2151 18.6845L12.3357 11.6703L27.0006 7.74082ZM10.6681 14.218L6.84623 22.6232L10.6861 21.5943C11.6953 21.3239 12.2936 20.2842 12.0224 19.2721L10.6681 14.218ZM27.6258 18.2339C27.4631 17.6266 26.8403 17.2659 26.2348 17.4281L17.25 19.8356C16.6445 19.9978 16.2856 20.6216 16.4483 21.2289C16.611 21.8362 17.2338 22.197 17.8393 22.0347L26.8241 19.6273C27.4296 19.465 27.7885 18.8412 27.6258 18.2339ZM29.8142 26.4011C29.6515 25.7938 29.0287 25.433 28.4232 25.5952L13.2732 29.6547C12.6676 29.8169 12.3087 30.4407 12.4714 31.048C12.6341 31.6553 13.2569 32.0161 13.8624 31.8538L29.0124 27.7944C29.6179 27.6322 29.9769 27.0083 29.8142 26.4011ZM32.111 34.9731C31.9483 34.3658 31.3255 34.005 30.72 34.1672L15.57 38.2267C14.9645 38.3889 14.6056 39.0128 14.7683 39.62C14.931 40.2273 15.5538 40.5881 16.1593 40.4259L31.3093 36.3664C31.9148 36.2042 32.2738 35.5803 32.111 34.9731Z" fill="#FF8F4B"/>
</g>
<g clip-path="url(#clip2_321_2)">
<path d="M21.5 5L22.5 3.5L28 2L44.5 2.5L55 14.5L55.5 41.5L54.5 46.5L24.5 47L21.5 44.5V5Z" fill="white"/>
<path fill-rule="evenodd" clip-rule="evenodd" d="M19.4524 5.44441C19.4524 2.6881 21.6803 0.453674 24.4286 0.453674H43.9385C44.3435 0.453674 44.7274 0.635105 44.9852 0.948395L56.2372 14.6217C56.4379 14.8655 56.5476 15.1719 56.5476 15.4881V43.5555C56.5476 46.3118 54.3197 48.5463 51.5714 48.5463H24.4286C21.6803 48.5463 19.4524 46.3118 19.4524 43.5555V5.44441ZM24.4286 3.1759C23.1794 3.1759 22.1667 4.19155 22.1667 5.44441V43.5555C22.1667 44.8084 23.1794 45.824 24.4286 45.824H51.5714C52.8206 45.824 53.8333 44.8084 53.8333 43.5555V16.8492H47.5575C44.8093 16.8492 42.5814 14.6147 42.5814 11.8584V3.1759H24.4286ZM45.2956 5.60229L52.3107 14.1269H47.5575C46.3084 14.1269 45.2956 13.1113 45.2956 11.8584V5.60229ZM26.9537 15.4881C26.9537 14.7363 27.5613 14.1269 28.3108 14.1269H39.4325C40.182 14.1269 40.7896 14.7363 40.7896 15.4881C40.7896 16.2398 40.182 16.8492 39.4325 16.8492H28.3108C27.5613 16.8492 26.9537 16.2398 26.9537 15.4881ZM26.9537 25.5977C26.9537 24.8459 27.5613 24.2365 28.3108 24.2365H47.0641C47.8136 24.2365 48.4212 24.8459 48.4212 25.5977C48.4212 26.3494 47.8136 26.9588 47.0641 26.9588H28.3108C27.5613 26.9588 26.9537 26.3494 26.9537 25.5977ZM26.9537 36.2084C26.9537 35.4567 27.5613 34.8473 28.3108 34.8473H47.0641C47.8136 34.8473 48.4212 35.4567 48.4212 36.2084C48.4212 36.9601 47.8136 37.5695 47.0641 37.5695H28.3108C27.5613 37.5695 26.9537 36.9601 26.9537 36.2084Z" fill="#FF8F4B"/>
</g>
<defs>
<clipPath id="clip0_321_2">
<rect width="31.7816" height="40.9815" fill="white" transform="translate(41.4603 3.62317) rotate(15)"/>
</clipPath>
<clipPath id="clip1_321_2">
<rect width="31.7816" height="40.9815" fill="white" transform="matrix(-0.965926 0.258819 0.258819 0.965926 30.6986 4)"/>
</clipPath>
<clipPath id="clip2_321_2">
<rect width="38" height="49" fill="white" transform="translate(19)"/>
</clipPath>
</defs>
</svg>
