<svg width="235" height="125" viewBox="0 0 235 125" fill="none" xmlns="http://www.w3.org/2000/svg">
<path d="M196.681 89.2808C196.681 89.2808 196.384 102.846 196.835 107.167C197.287 111.489 199.872 133.5 200.881 141.146C201.89 148.791 202.33 163.444 202.33 163.444C202.33 163.444 201.173 163.736 201.173 164.745C201.171 165.375 201.123 166.005 201.03 166.629C200.384 167.427 199.656 168.155 198.858 168.801C197.987 169.379 193.215 170.537 193.937 171.694C194.659 172.852 206.094 172.273 206.094 172.273C206.094 172.273 202.33 174.009 200.159 174.444C197.987 174.88 198.715 176.759 201.46 176.902C204.204 177.046 207.538 177.338 210.581 177.338C213.623 177.338 214.923 176.18 217.382 176.037C219.84 175.894 220.71 175.888 221.146 175.602C221.581 175.315 221.868 171.115 221.868 171.115L221.289 166.916C221.289 166.916 224.145 151.806 223.025 141.591C221.958 131.191 222.202 120.698 223.752 110.358C223.752 110.358 226.55 100.584 226.104 96.2676C225.658 91.9513 224.921 87.3643 224.921 87.3643L197.419 88.2721L196.681 89.2808Z" fill="#0B1F44" stroke="#0B1F44" stroke-width="0.5" stroke-linecap="round" stroke-linejoin="round"/>
<path d="M206.222 47.7637C206.222 47.7637 201.184 51.5756 199.745 54.1664C198.306 56.7573 198.226 71.1078 198.072 75.1215C197.918 79.1352 196.448 84.4284 196.48 86.7007C196.511 88.973 196.4 91.7868 204.3 91.7762C212.2 91.7655 223.328 90.125 224.66 89.0579C225.993 87.9908 226.524 87.8474 227.119 85.5326C227.713 83.2179 231.833 67.7843 232.247 62.8893C232.661 57.9943 232.502 55.7698 228.276 49.4679C224.05 43.166 218.709 42.2422 218.709 42.2422L208.919 46.1709L206.222 47.7637Z" fill="white" stroke="#0B1F44" stroke-width="0.5" stroke-linecap="round" stroke-linejoin="round"/>
<path d="M206.222 47.7636L206.45 52.6162L200.297 83.7275L202.787 89.9392L208.16 83.2869L207.836 52.3029L210.108 49.2236L208.919 46.1709L206.222 47.7636Z" fill="#A6A6A6" stroke="#0B1F44" stroke-width="0.5" stroke-linecap="round" stroke-linejoin="round"/>
<path d="M208.234 44.0525L206.047 45.2895L203.812 50.4234L206.222 47.7636L207.337 48.2255L210.161 45.3267L208.234 44.0525Z" fill="white" stroke="#0B1F44" stroke-width="0.5" stroke-linecap="round" stroke-linejoin="round"/>
<path d="M201.343 22.0411C201.343 22.0411 201.311 28.7252 201.518 29.8932C201.725 31.0612 201.582 33.5087 202.644 35.3085C203.705 37.1083 204.64 40.6601 205.426 41.1486C206.086 41.499 206.806 41.724 207.549 41.8122L208.16 46.9514L217.488 39.6408L217.047 34.2414C217.954 33.3597 218.477 32.156 218.502 30.8914C218.539 28.7677 218.327 27.536 217.302 27.175C216.633 26.9142 216.016 26.5347 215.481 26.0548L216.283 22.3755C216.283 22.3755 218.274 19.6148 212.46 18.5901C206.647 17.5655 201.778 20.2041 201.343 22.0411Z" fill="white" stroke="#0B1F44" stroke-width="0.5" stroke-linecap="round" stroke-linejoin="round"/>
<path d="M199.225 20.3156C199.225 20.3156 198.954 21.7703 204.003 23.2303C209.052 24.6903 211.765 24.4992 211.765 24.4992C211.765 24.4992 211.053 24.9876 211.643 25.4442C212.01 25.7225 212.429 25.9264 212.874 26.0441C212.874 26.0441 213.097 30.1481 213.543 30.2914C213.989 30.4347 214.833 29.9516 214.833 29.9516C214.833 29.9516 214.717 28.3589 215.614 27.7749C216.129 27.4461 216.711 27.2358 217.318 27.159C217.318 27.159 218.874 20.7881 216.915 18.6379C214.955 16.4877 212.412 15.8931 206.429 16.87C200.446 17.8469 198.678 19.6095 199.225 20.3156Z" fill="#0B1F44" stroke="#0B1F44" stroke-width="0.5" stroke-linecap="round" stroke-linejoin="round"/>
<path d="M206.604 34.8466L204.624 35.0483L204.427 29.564L202.941 27.9235L201.853 27.5625" stroke="#0B1F44" stroke-width="0.5" stroke-linecap="round" stroke-linejoin="round"/>
<path d="M205.452 37.1083C206.055 37.1398 206.659 37.1185 207.257 37.0446C207.838 36.9522 208.414 36.8299 208.983 36.6782C208.983 36.6782 207.629 37.894 206.647 38.0851C205.665 38.2763 205.452 37.1083 205.452 37.1083Z" stroke="#0B1F44" stroke-width="0.5" stroke-linecap="round" stroke-linejoin="round"/>
<path d="M207.528 41.8333C207.528 41.8333 207.608 42.0138 208.76 41.5626C209.725 41.0933 210.628 40.5047 211.446 39.8105" stroke="#0B1F44" stroke-width="0.5" stroke-linecap="round" stroke-linejoin="round"/>
<path d="M210.135 27.2971C208.983 26.8777 206.041 27.6422 206.041 27.6422" stroke="#0B1F44" stroke-width="0.5" stroke-linecap="round" stroke-linejoin="round"/>
<path d="M208.993 29.8401C209.02 30.2702 208.85 30.6312 208.611 30.6471C208.372 30.6631 208.154 30.3286 208.122 29.8985C208.091 29.4685 208.261 29.1128 208.505 29.0916C208.749 29.0703 208.993 29.3942 208.993 29.8401Z" fill="#0B1F44"/>
<path d="M203.971 30.1586C203.971 30.5887 203.828 30.9497 203.589 30.9656C203.35 30.9815 203.132 30.6524 203.1 30.2223C203.068 29.7923 203.238 29.4313 203.482 29.4153C203.727 29.3994 203.939 29.7339 203.971 30.1586Z" fill="#0B1F44"/>
<path d="M207.932 45.916L210.416 50.5031L220.052 41.3874L218.168 39.1416L207.932 45.916Z" fill="white" stroke="#0B1F44" stroke-width="0.5" stroke-linecap="round" stroke-linejoin="round"/>
<path d="M181.774 60.1711L199.564 63.1018L202.299 86.1698L186.27 83.6268L181.774 60.1711Z" fill="white" stroke="#0B1F44" stroke-width="0.5" stroke-miterlimit="10"/>
<path d="M182.533 65.3369C182.533 65.3369 181.375 65.4325 181.083 66.2979C180.951 66.6642 180.909 67.0569 180.959 67.443C181.01 67.8291 181.153 68.1974 181.375 68.5171C181.763 69.0002 183.595 69.5789 184.561 69.2869C185.527 68.9949 185.819 68.2251 185.14 67.7472C184.51 67.384 183.828 67.1224 183.117 66.9721L182.533 65.3369Z" fill="white" stroke="#0B1F44" stroke-width="0.5" stroke-linecap="round" stroke-linejoin="round"/>
<path d="M181.386 68.5171C181.386 68.5171 180.998 69.77 181.673 70.4443C182.347 71.1186 184.184 71.315 184.762 70.6407C185.341 69.9665 184.566 69.2869 184.566 69.2869C184.566 69.2869 182.05 69.0958 181.386 68.5171Z" fill="white" stroke="#0B1F44" stroke-width="0.5" stroke-linecap="round" stroke-linejoin="round"/>
<path d="M181.954 71.3362C181.954 71.3362 181.859 73.359 182.628 74.2297C183.398 75.1003 184.269 74.6172 184.078 73.8421C183.953 73.3662 183.758 72.9117 183.499 72.4936L181.954 71.3362Z" fill="white" stroke="#0B1F44" stroke-width="0.5" stroke-linecap="round" stroke-linejoin="round"/>
<path d="M181.662 70.4441C181.619 70.7394 181.66 71.0408 181.78 71.314C181.9 71.5871 182.095 71.821 182.342 71.989C183.207 72.5677 184.465 73.1464 184.847 72.281C184.958 72.0186 185.007 71.7341 184.991 71.4496C184.974 71.1652 184.892 70.8883 184.752 70.6405C184.752 70.6405 182.819 71.1237 181.662 70.4441Z" fill="white" stroke="#0B1F44" stroke-width="0.5" stroke-linecap="round" stroke-linejoin="round"/>
<path d="M186.339 61.5036L186.488 62.4433L195.264 63.9829V62.5548C195.264 62.2979 195.183 62.0475 195.031 61.8402C194.879 61.633 194.665 61.4797 194.42 61.4027L193.432 61.0895L193.23 60.3834C193.175 60.1909 193.067 60.018 192.917 59.8846C192.768 59.7512 192.584 59.6627 192.386 59.6295L189.169 59.0986C189.016 59.0729 188.858 59.0812 188.709 59.1229C188.559 59.1647 188.42 59.2388 188.302 59.3401C188.184 59.4414 188.09 59.5673 188.026 59.7091C187.962 59.8508 187.93 60.0049 187.932 60.1604H187.592C187.418 60.1523 187.243 60.1822 187.082 60.2482C186.92 60.3141 186.774 60.4144 186.655 60.5422C186.536 60.67 186.446 60.8221 186.391 60.9881C186.337 61.1541 186.319 61.33 186.339 61.5036Z" fill="#A6A6A6" stroke="#0B1F44" stroke-width="0.5" stroke-linecap="round" stroke-linejoin="round"/>
<path d="M205.771 73.72C205.771 73.72 204.571 72.4193 204.029 71.9839C203.488 71.5486 200.547 71.5486 200.547 71.5486V73.3962C200.547 73.3962 195.981 73.72 194.675 73.9271C193.369 74.1341 193.151 74.7978 193.48 75.3446C193.809 75.8914 197.069 75.5623 197.069 75.5623L198.699 75.7799C198.699 75.7799 196.198 76.433 195.434 76.5391C194.669 76.6453 193.151 76.5391 193.151 77.0701C193.151 77.601 193.369 77.9355 194.563 78.0469C195.758 78.1584 197.722 78.1531 199.023 78.4823C200.324 78.8114 196.851 79.0132 195.869 79.0132C194.887 79.0132 194.807 79.8839 195.434 80.1016C196.06 80.3192 198.157 80.6325 198.157 80.6325C198.943 81.0698 199.784 81.3984 200.658 81.6094C202.288 82.0447 201.189 81.827 204.789 81.6094C206.553 81.5578 208.306 81.303 210.013 80.8502L210.119 75.8437L206.748 74.7818L205.771 73.72Z" fill="white" stroke="#0B1F44" stroke-width="0.5" stroke-linecap="round" stroke-linejoin="round"/>
<path d="M200.547 73.396L202.506 73.6137" stroke="#0B1F44" stroke-width="0.5" stroke-linecap="round" stroke-linejoin="round"/>
<path d="M198.158 80.6855L201.417 80.7917" stroke="#0B1F44" stroke-width="0.5" stroke-linecap="round" stroke-linejoin="round"/>
<path d="M210.119 75.8967L209.684 82.0978L211.967 82.2093L212.184 76.0082L210.119 75.8967Z" fill="white" stroke="#0B1F44" stroke-width="0.5" stroke-linecap="round" stroke-linejoin="round"/>
<path d="M223.328 44.7905C224.958 45.3214 234.164 50.6305 234.164 55.2813C234.164 59.9321 232.863 77.5796 232.428 81.6888C231.992 85.7981 230.686 84.9539 226.009 84.9539C221.332 84.9539 214.265 84.7363 212.959 84.1894C212.593 84.028 212.295 83.7441 212.116 83.3865C211.937 83.029 211.887 82.6202 211.977 82.2304L212.179 76.0081C212.179 76.0081 212.508 74.4844 213.596 74.2667C214.685 74.049 221.735 75.0524 221.735 75.0524C221.735 75.0524 223.041 63.1972 223.259 60.9143C223.477 58.6314 222.654 54.5434 224.395 53.5718" fill="white"/>
<path d="M223.328 44.7905C224.958 45.3214 234.164 50.6305 234.164 55.2813C234.164 59.9321 232.863 77.5796 232.428 81.6888C231.992 85.7981 230.686 84.9539 226.009 84.9539C221.332 84.9539 214.265 84.7363 212.959 84.1894C212.593 84.028 212.295 83.7441 212.116 83.3865C211.937 83.029 211.887 82.6202 211.977 82.2304L212.179 76.0081C212.179 76.0081 212.508 74.4844 213.596 74.2667C214.685 74.049 221.735 75.0524 221.735 75.0524C221.735 75.0524 223.041 63.1972 223.259 60.9143C223.477 58.6314 222.654 54.5434 224.395 53.5718" stroke="#0B1F44" stroke-width="0.5" stroke-linecap="round" stroke-linejoin="round"/>
<path d="M226.869 78.5087C225.239 77.8557 221.735 75.0525 221.735 75.0525C221.735 75.0525 225.871 76.1409 226.413 76.0347" stroke="#0B1F44" stroke-width="0.5" stroke-linecap="round" stroke-linejoin="round"/>
<path d="M133.076 44.2594C133.678 45.1142 134.11 46.0767 134.35 47.0945C134.631 48.5811 134.063 49.5048 132.932 49.4305C132.588 49.3893 132.262 49.2561 131.987 49.0449C131.712 48.8338 131.5 48.5525 131.371 48.2307C131.371 48.2307 131.589 50.6357 132.433 51.7718C133.277 52.908 133.92 52.7593 138.878 53.3274C143.837 53.8955 151.275 53.3274 153.33 53.046C155.384 52.7646 156.728 52.4089 157.434 51.3471C158.062 50.3183 158.631 49.2548 159.138 48.1616C159.138 48.1616 157.014 49.7225 155.878 49.3668C154.742 49.0111 154.742 46.7441 155.098 45.8256C155.365 45.1695 155.673 44.5312 156.022 43.9144C156.461 42.6088 156.722 41.2497 156.797 39.8741C156.797 38.1062 156.16 36.2639 155.029 32.1547C153.898 28.0454 150.426 24.4352 147.803 21.8125C145.18 19.1898 142.351 20.9631 139.16 22.593C135.969 24.2229 132.359 33.0732 131.727 36.6887C131.095 40.3042 133.076 44.2594 133.076 44.2594Z" fill="#0B1F44" stroke="#0B1F44" stroke-width="0.5" stroke-miterlimit="10"/>
<path d="M138.857 51.0021L144.835 46.6487L151.11 51.0021L145.138 65.4854L138.857 51.0021Z" fill="white" stroke="#0B1F44" stroke-width="0.5" stroke-miterlimit="10"/>
<path d="M142.85 52.0374L144.761 55.1538L143.062 62.2362L145.398 66.4198L147.877 61.5991L145.897 55.1538L147.309 52.2497L145.048 48.7776L142.85 52.0374Z" fill="#0B1F44" stroke="#0B1F44" stroke-width="0.5" stroke-miterlimit="10"/>
<path d="M141.076 40.5432C141.076 40.5432 141.151 46.4204 141.289 46.9141C141.427 47.4079 144.267 50.3173 144.83 50.5296C145.393 50.742 147.952 46.9141 148.164 46.6328C148.377 46.3514 148.233 40.6812 148.233 40.6812L141.076 40.5432Z" fill="white" stroke="#0B1F44" stroke-width="0.5" stroke-miterlimit="10"/>
<path d="M145.897 21.579C145.897 21.579 143.487 24.4141 140.652 27.1748C137.816 29.9356 134.493 33.4767 133.219 37.0232C131.945 40.5697 133.081 44.2436 133.081 44.2436C131.419 42.1185 130.498 39.5082 130.458 36.8109C130.527 32.5636 131.308 24.7645 134.992 20.3049C138.677 15.8452 144.485 15.6275 147.203 16.2646C149.921 16.9017 153.155 20.1615 154.636 24.1274C156.117 28.0933 157.54 35.6747 157.396 38.8602C157.368 40.6226 156.907 42.3511 156.053 43.8932C156.301 40.5224 155.639 37.147 154.137 34.1192C151.657 29.3728 149.178 27.3182 147.336 25.5449C146.799 25.0451 146.388 24.4249 146.138 23.7354C145.888 23.0459 145.805 22.3068 145.897 21.579Z" fill="#0B1F44" stroke="#0B1F44" stroke-width="0.5" stroke-miterlimit="10"/>
<path d="M144.83 50.5508L141.575 55.1538L138.751 48.5174L141.289 46.3726L144.83 50.5508Z" fill="white" stroke="#0B1F44" stroke-width="0.5" stroke-miterlimit="10"/>
<path d="M144.83 50.5509L148.164 55.5096L150.781 48.6397L148.164 46.6541L144.83 50.5509Z" fill="white" stroke="#0B1F44" stroke-width="0.5" stroke-miterlimit="10"/>
<path d="M128.005 51.7612C128.005 51.7612 114.732 69.6105 114.026 70.6935C113.32 71.7766 112.725 71.7553 113.086 72.6366C113.447 73.518 115.9 76.1725 117.705 76.2468C119.51 76.3212 120.01 75.7425 120.806 74.5851C121.602 73.4277 131.467 61.2486 131.467 61.2486C131.467 61.2486 128.801 52.1222 128.005 51.7612Z" fill="#E7E9EC" stroke="#0B1F44" stroke-width="0.5" stroke-miterlimit="10"/>
<path d="M134.079 118.534C134.079 118.534 135.183 125.967 134.939 130.586C134.695 135.205 134.329 138.231 134.817 142.414C135.305 146.598 137.886 161.32 137.886 164.638C137.886 167.956 136.781 171.052 136.043 172.156C135.305 173.26 131.133 176.026 130.888 177.242C130.644 178.458 133.835 178.129 136.781 177.688C139.728 177.247 141.448 177.131 141.814 176.69C142.181 176.249 141.692 173.595 142.552 170.499C143.413 167.404 144.267 167.516 143.901 165.636C143.535 163.757 142.059 161.655 142.059 158.559C142.059 155.464 144.023 136.999 143.535 132.242C143.046 127.485 142.823 118.645 142.823 118.645L134.079 118.534Z" fill="white" stroke="#0B1F44" stroke-width="0.5" stroke-miterlimit="10"/>
<path d="M157.519 118.423C158.112 122.687 159.237 126.861 160.869 130.846C162.637 135.21 162.854 137.822 163.704 141.995C164.537 146.062 163.842 160.216 164.065 164.33C164.245 167.643 167.282 171.572 168.073 172.645C168.864 173.717 173.128 176.287 173.436 177.492C173.743 178.697 170.574 178.506 167.643 178.198C164.713 177.89 163.014 177.853 162.626 177.428C162.239 177.003 162.578 174.328 161.564 171.275C160.55 168.222 159.706 168.371 159.972 166.497C160.237 164.622 159.828 162.021 159.223 159.149C158.581 156.107 154.28 139.362 153.261 134.679C152.242 129.996 148.663 118.757 148.663 118.757L157.519 118.423Z" fill="white" stroke="#0B1F44" stroke-width="0.5" stroke-miterlimit="10"/>
<path d="M129.55 89.3444C128.774 92.0489 128.291 94.8293 128.111 97.6372C127.888 101.948 128.552 126.168 128.552 126.168C128.552 126.168 132.736 127.496 140.699 127.713C148.663 127.931 163.252 126.275 163.252 126.275C163.252 126.275 162.589 101.731 160.932 95.5401C159.276 89.3497 158.278 87.5765 158.278 87.5765C158.278 87.5765 142.154 76.8521 129.55 89.3444Z" fill="#0B1F44" stroke="#0B1F44" stroke-width="0.5" stroke-miterlimit="10"/>
<path d="M160.779 52.0957C160.779 52.0957 173.51 70.2741 174.237 71.3359C174.965 72.3977 175.538 72.3977 175.182 73.279C174.826 74.1604 172.384 76.8202 170.579 76.8999C168.774 76.9795 168.27 76.4061 167.473 75.254C166.677 74.102 156.738 61.891 156.738 61.891C156.738 61.891 159.988 52.4567 160.779 52.0957Z" fill="#E7E9EC" stroke="#0B1F44" stroke-width="0.5" stroke-miterlimit="10"/>
<path d="M138.751 48.5068L145.122 63.3723L150.787 48.6396L160.731 52.0852L152.767 75.1267L161.633 93.7351C161.633 93.7351 157.688 95.7579 150.787 96.6445C143.885 97.5311 137.827 96.91 134.859 95.9703C131.891 95.0305 127.719 92.7848 127.957 92.7848C128.196 92.7848 135.454 74.2454 135.454 74.2454L128.021 51.7454L138.751 48.5068Z" fill="#E7E9EC" stroke="#0B1F44" stroke-width="0.5" stroke-miterlimit="10"/>
<path d="M145.196 67.2322L152.311 58.6155L150.325 55.7433L154.498 54.0337L153.096 49.6643L150.782 48.6397L145.101 63.3725L138.751 48.5176L136.59 49.1706L135.491 54.9204L140.206 55.8813L138.225 59.0243L145.196 67.2322Z" fill="#E7E9EC" stroke="#0B1F44" stroke-width="0.5" stroke-miterlimit="10"/>
<path d="M129.88 86.6953C130.819 86.5041 131.744 86.245 132.646 85.9202C134.191 85.3892 134.966 85.6972 135.964 86.4511C136.962 87.205 139.5 88.8508 139.149 89.4029C138.799 89.9551 138.618 90.2099 138.045 89.8754C137.472 89.541 134.732 87.3324 134.175 87.3324C133.491 87.4747 132.829 87.705 132.205 88.0173C133.135 88.082 134.041 88.3464 134.86 88.7924C135.858 89.456 138.045 91.1178 137.955 91.6699C137.865 92.2221 137.424 92.3017 136.856 92.2008C136.288 92.0999 134.09 90.1303 133.755 90.1303H131.318C132.258 90.5698 133.16 91.0847 134.015 91.6699C134.456 92.1159 135.077 92.5618 135.077 92.891C135.077 93.2202 134.876 94.0696 134.217 93.852C133.559 93.6343 131.674 91.9991 131.674 91.9991C131.674 91.9991 133.442 93.8732 133.336 94.1917C133.182 94.6589 132.89 94.6536 132.561 94.4307C132.232 94.2077 129.837 92.7955 129.062 92.1318C128.499 91.6487 128.579 91.5584 127.915 91.4469C127.252 91.3354 126.588 89.8967 126.588 89.8967L129.88 86.6953Z" fill="white" stroke="#0B1F44" stroke-width="0.5" stroke-miterlimit="10"/>
<path d="M131.674 91.999C131.674 91.999 130.564 90.9106 129.906 90.9106" stroke="#0B1F44" stroke-width="0.5" stroke-miterlimit="10"/>
<path d="M159.812 86.6953C158.872 86.5041 157.948 86.245 157.046 85.9202C155.501 85.3892 154.726 85.6972 153.733 86.4511C152.74 87.205 150.197 88.8508 150.548 89.4029C150.898 89.9551 151.079 90.2099 151.652 89.8754C152.225 89.541 154.97 87.3324 155.522 87.3324C156.212 87.4669 156.881 87.6899 157.513 87.996C156.583 88.0613 155.678 88.3256 154.859 88.7711C153.866 89.4348 151.673 91.0965 151.763 91.6487C151.854 92.2008 152.294 92.2805 152.862 92.1796C153.43 92.0787 155.634 90.109 155.963 90.109C156.454 90.0341 156.939 89.9205 157.412 89.7693L155.628 91.5584C155.188 91.9991 154.567 92.7264 154.567 93.0609C154.567 93.3954 154.837 94.0484 155.501 93.8307C156.165 93.613 158.044 91.277 158.044 91.277C158.044 91.277 156.271 93.8626 156.377 94.1811C156.531 94.6483 156.823 94.643 157.152 94.42C157.481 94.1971 159.366 92.6521 160.141 91.9885C160.704 91.5053 161.134 91.5478 161.798 91.4575C162.461 91.3673 163.125 89.9073 163.125 89.9073L159.812 86.6953Z" fill="white" stroke="#0B1F44" stroke-width="0.5" stroke-miterlimit="10"/>
<path d="M158.071 91.2877C158.395 90.7009 158.933 90.2616 159.573 90.0613" stroke="#0B1F44" stroke-width="0.5" stroke-miterlimit="10"/>
<path d="M161.946 84.2583L159.281 86.6952L162.929 91.1124L165.774 88.426L161.946 84.2583Z" fill="white" stroke="#0B1F44" stroke-width="0.5" stroke-miterlimit="10"/>
<path d="M168.896 71.867L160.874 84.8583L165.068 90.263C165.068 90.263 168.848 85.2618 170.717 82.602C172.586 79.9421 175.533 73.6986 175.421 72.9235C175.31 72.1483 172.639 69.5044 172.639 69.5044" fill="#E7E9EC"/>
<path d="M168.896 71.867L160.874 84.8583L165.068 90.263C165.068 90.263 168.848 85.2618 170.717 82.602C172.586 79.9421 175.533 73.6986 175.421 72.9235C175.31 72.1483 172.639 69.5044 172.639 69.5044" stroke="#0B1F44" stroke-width="0.5" stroke-miterlimit="10"/>
<path d="M127.214 84.2583L129.879 86.6952L126.232 91.1124L123.386 88.426L127.214 84.2583Z" fill="white" stroke="#0B1F44" stroke-width="0.5" stroke-miterlimit="10"/>
<path d="M119.367 71.1767L127.782 84.7043L123.8 89.7267C123.8 89.7267 117.87 82.7028 116.001 80.0482C114.133 77.3937 112.731 73.0561 112.842 72.281C112.954 71.5059 115.603 68.8513 115.603 68.8513" fill="#E7E9EC"/>
<path d="M119.367 71.1767L127.782 84.7043L123.8 89.7267C123.8 89.7267 117.87 82.7028 116.001 80.0482C114.133 77.3937 112.731 73.0561 112.842 72.281C112.954 71.5059 115.603 68.8513 115.603 68.8513" stroke="#0B1F44" stroke-width="0.5" stroke-miterlimit="10"/>
<path d="M145.684 24.085C145.684 24.085 142.419 28.6136 140.943 30.1957L139.467 31.7885L136.282 32.4203C136.495 33.1824 136.778 33.9234 137.126 34.6342C137.546 35.3721 138.719 35.5792 138.719 35.5792C138.719 35.5792 139.037 38.2337 139.982 39.5876C140.927 40.9414 143.497 43.1022 147.357 43.7977C148.519 44.0047 150.925 42.4173 152.082 37.1454C153.239 31.8734 152.082 30.3125 151.466 28.5234C150.85 26.7342 147.07 24.085 145.684 24.085Z" fill="white" stroke="#0B1F44" stroke-width="0.5" stroke-miterlimit="10"/>
<path d="M151.758 30.8433C151.758 30.8433 150.388 29.5691 149.704 31.5282C149.454 32.229 150.877 35.6428 150.388 35.9348C149.9 36.2268 149.704 35.8392 149.013 36.3276" stroke="#0B1F44" stroke-width="0.5" stroke-miterlimit="10"/>
<path d="M149.799 38.3877C149.799 38.3877 147.145 39.1735 146.083 37.3259" stroke="#0B1F44" stroke-width="0.5" stroke-miterlimit="10"/>
<path d="M147.251 30.0576C147.251 30.0576 145.095 29.2718 143.821 30.4505" stroke="#0B1F44" stroke-width="0.5" stroke-miterlimit="10"/>
<path d="M146.858 32.6433C146.858 33.1742 146.592 33.583 146.258 33.583C145.923 33.583 145.658 33.1636 145.658 32.6433C145.658 32.123 145.929 31.6982 146.258 31.6982C146.587 31.6982 146.858 32.123 146.858 32.6433Z" fill="#0B1F44"/>
<path d="M151.562 32.8024C151.562 33.3334 151.297 33.7422 150.962 33.7422C150.628 33.7422 150.367 33.3227 150.367 32.8024C150.367 32.2821 150.633 31.8574 150.962 31.8574C151.291 31.8574 151.562 32.2821 151.562 32.8024Z" fill="#0B1F44"/>
<path d="M117.341 55.1759L47.3354 14.7583C46.2162 14.1122 44.7851 14.4956 44.139 15.6148L-16.8299 121.216C-17.476 122.335 -17.0926 123.766 -15.9734 124.412L54.0319 164.83C55.151 165.476 56.5821 165.093 57.2283 163.974L118.197 58.3723C118.843 57.2531 118.46 55.8221 117.341 55.1759Z" fill="#0B1F44" stroke="#0B1F44" stroke-linecap="round" stroke-linejoin="round"/>
<path d="M114.173 56.6444L47.6437 18.2339L-11.7993 121.192L54.7298 159.603L114.173 56.6444Z" fill="white" stroke="#0B1F44" stroke-linecap="round" stroke-linejoin="round"/>
<path d="M92.9247 29.5609C92.7754 29.4747 92.6663 29.3326 92.6217 29.166C92.5771 28.9994 92.6004 28.8219 92.6867 28.6725L94.5244 25.4895C94.6158 25.3312 94.675 25.1565 94.6987 24.9752C94.7225 24.794 94.7102 24.6099 94.6627 24.4334C94.6151 24.2569 94.5332 24.0916 94.4216 23.9468C94.3101 23.802 94.171 23.6807 94.0125 23.5897L88.8831 20.6283C88.7252 20.5365 88.5508 20.4769 88.3698 20.4528C88.1888 20.4287 88.0048 20.4407 87.8284 20.4879C87.6521 20.5352 87.4868 20.6168 87.3421 20.7282C87.1974 20.8395 87.0761 20.9784 86.9852 21.1368L85.1475 24.3198C85.1047 24.394 85.0476 24.459 84.9795 24.5111C84.9114 24.5632 84.8336 24.6014 84.7508 24.6233C84.6679 24.6452 84.5815 24.6506 84.4965 24.639C84.4116 24.6275 84.3297 24.5992 84.2557 24.5559C84.1815 24.513 84.0995 24.4853 84.0145 24.4742C83.9295 24.4631 83.8431 24.469 83.7603 24.4914C83.6776 24.5138 83.6001 24.5524 83.5323 24.6049C83.4645 24.6574 83.4078 24.7228 83.3653 24.7973L78.3853 33.423L88.1842 39.0804L93.1642 30.4547C93.2072 30.3803 93.2351 30.2981 93.2463 30.2129C93.2575 30.1278 93.2518 30.0412 93.2296 29.9582C93.2073 29.8752 93.169 29.7974 93.1167 29.7293C93.0644 29.6611 92.9991 29.6039 92.9247 29.5609ZM88.7632 26.7628C88.4507 26.5824 88.1988 26.3134 88.0392 25.9898C87.8796 25.6662 87.8196 25.3025 87.8667 24.9448C87.9138 24.5871 88.0659 24.2514 88.3038 23.9801C88.5416 23.7089 88.8546 23.5143 89.2031 23.4209C89.5516 23.3275 89.92 23.3396 90.2617 23.4555C90.6033 23.5715 90.9029 23.7862 91.1225 24.0724C91.3422 24.3587 91.472 24.7036 91.4956 25.0636C91.5192 25.4236 91.4355 25.7826 91.2551 26.095C91.0125 26.5133 90.614 26.8183 90.147 26.9435C89.68 27.0686 89.1824 27.0036 88.7632 26.7628Z" fill="#0B1F44" stroke="#0B1F44" stroke-linecap="round" stroke-linejoin="round"/>
<path d="M72.4466 26.3369L97.2871 40.6785C98.0517 41.12 98.6096 41.8471 98.8381 42.6999C99.0667 43.5527 98.947 44.4614 98.5056 45.226L97.0354 47.7724L66.4289 30.1017L67.8991 27.5554C68.3405 26.7907 69.0677 26.2328 69.9205 26.0043C70.7733 25.7758 71.682 25.8954 72.4466 26.3369Z" fill="white" stroke="#0B1F44" stroke-linecap="round" stroke-linejoin="round"/>
<path d="M69.781 26.0507L98.8576 42.8382C98.759 42.3865 98.5672 41.9605 98.2945 41.5872C98.0218 41.214 97.6741 40.9018 97.2738 40.6706L72.4467 26.3366C72.0468 26.1059 71.6031 25.9613 71.144 25.912C70.685 25.8628 70.2207 25.91 69.781 26.0507Z" fill="#0B1F44" stroke="#0B1F44" stroke-linecap="round" stroke-linejoin="round"/>
<path d="M97.0508 47.7456L66.4443 30.075L65.4148 31.8581L96.0213 49.5287L97.0508 47.7456Z" fill="white" stroke="#0B1F44" stroke-linecap="round" stroke-linejoin="round"/>
<path d="M74.7785 69.5134L79.9446 72.4961" stroke="#263238" stroke-miterlimit="10"/>
<path d="M38.949 48.8271L70.7787 67.204" stroke="#263238" stroke-miterlimit="10"/>
<path d="M64.8034 69.0872L77.6352 76.4956" stroke="#263238" stroke-miterlimit="10"/>
<path d="M45.1391 57.7339L61.3039 67.0666" stroke="#263238" stroke-miterlimit="10"/>
<path d="M36.6399 52.8271L42.1393 56.0022" stroke="#263238" stroke-miterlimit="10"/>
<path d="M50.329 66.0632L75.3262 80.4953" stroke="#263238" stroke-miterlimit="10"/>
<path d="M34.3308 56.8267L44.8296 62.8881" stroke="#263238" stroke-miterlimit="10"/>
<path d="M87.1581 87.3262C89.551 88.7077 92.6109 87.8879 93.9925 85.4949C95.3741 83.1019 94.5542 80.0421 92.1612 78.6605C89.7682 77.2789 86.7084 78.0988 85.3268 80.4918C83.9452 82.8847 84.7651 85.9446 87.1581 87.3262Z" stroke="#263238" stroke-miterlimit="10"/>
<path d="M33.8202 69.6416L28.6542 66.6589" stroke="#263238" stroke-miterlimit="10"/>
<path d="M69.6497 90.3273L37.82 71.9504" stroke="#263238" stroke-miterlimit="10"/>
<path d="M39.177 78.0669L26.3451 70.6584" stroke="#263238" stroke-miterlimit="10"/>
<path d="M58.8414 89.4199L42.6766 80.0872" stroke="#263238" stroke-miterlimit="10"/>
<path d="M67.3407 94.3269L61.8413 91.1519" stroke="#263238" stroke-miterlimit="10"/>
<path d="M49.0329 89.0898L24.0358 74.6577" stroke="#263238" stroke-miterlimit="10"/>
<path d="M65.0311 98.3264L54.5323 92.2649" stroke="#263238" stroke-miterlimit="10"/>
<path d="M76.8632 105.157C79.2562 106.539 82.3161 105.719 83.6976 103.326C85.0792 100.933 84.2593 97.8734 81.8664 96.4918C79.4734 95.1102 76.4136 95.9301 75.032 98.3231C73.6504 100.716 74.4703 103.776 76.8632 105.157Z" stroke="#263238" stroke-miterlimit="10"/>
<path d="M54.1885 105.176L59.3545 108.158" stroke="#263238" stroke-miterlimit="10"/>
<path d="M18.3594 84.49L50.1891 102.867" stroke="#263238" stroke-miterlimit="10"/>
<path d="M44.2137 104.75L57.0456 112.158" stroke="#263238" stroke-miterlimit="10"/>
<path d="M24.5493 93.3962L40.7141 102.729" stroke="#263238" stroke-miterlimit="10"/>
<path d="M16.0499 88.4895L21.5492 91.6646" stroke="#263238" stroke-miterlimit="10"/>
<path d="M29.7394 101.726L54.7365 116.158" stroke="#263238" stroke-miterlimit="10"/>
<path d="M13.741 92.489L24.2398 98.5505" stroke="#263238" stroke-miterlimit="10"/>
<path d="M66.5684 122.989C68.9614 124.371 72.0212 123.551 73.4028 121.158C74.7844 118.765 73.9645 115.705 71.5715 114.323C69.1786 112.942 66.1187 113.762 64.7371 116.155C63.3556 118.548 64.1755 121.607 66.5684 122.989Z" stroke="#263238" stroke-miterlimit="10"/>
<path d="M78.1305 99.152L78.0986 101.924L85.04 100.177" stroke="#A6A6A6" stroke-width="2" stroke-miterlimit="10" stroke-linecap="round"/>
<path d="M88.5352 81.1313L88.5013 83.907L95.4447 82.1564" stroke="#A6A6A6" stroke-width="2" stroke-miterlimit="10" stroke-linecap="round"/>
<path d="M67.6915 115.794L67.6576 118.569L74.601 116.819" stroke="#A6A6A6" stroke-width="2" stroke-miterlimit="10" stroke-linecap="round"/>
<path d="M9.01456 116.846L-6.24208 135.444L2.34457 132.571L4.46915 141.93L14.6956 119.522L9.01456 116.846Z" fill="#878787" stroke="#263238" stroke-miterlimit="10"/>
<path d="M11.8574 118.719L0.703454 140.032L8.52572 135.473L12.5105 144.204L17.9696 120.186L11.8574 118.719Z" fill="#878787" stroke="#263238" stroke-miterlimit="10"/>
<path d="M27.0857 121.569C27.4321 120.969 29.1117 121.024 29.3613 120.399C29.6108 119.774 28.3652 118.637 28.5319 117.987C28.6985 117.337 30.3216 116.896 30.3828 116.22C30.4441 115.545 28.9307 114.818 28.9141 114.146C28.8976 113.474 30.3226 112.599 30.1919 111.933C30.0612 111.266 28.4031 110.998 28.1797 110.353C27.9563 109.709 29.0993 108.476 28.7893 107.866C28.4794 107.256 26.7977 107.467 26.4135 106.916C26.0293 106.365 26.7663 104.858 26.2945 104.359C25.8227 103.86 24.2941 104.537 23.7598 104.131C23.2255 103.725 23.5256 102.058 22.9323 101.716C22.3391 101.373 21.0449 102.452 20.4269 102.207C19.8088 101.961 19.6063 100.28 18.962 100.125C18.3178 99.9712 17.3583 101.364 16.6879 101.301C16.0175 101.238 15.3571 99.6883 14.6776 99.7183C13.9982 99.7482 13.4979 101.361 12.8281 101.49C12.1583 101.619 11.0986 100.314 10.4508 100.535C9.80299 100.757 9.79309 102.444 9.17115 102.752C8.54922 103.059 7.18058 102.105 6.62221 102.502C6.06384 102.9 6.51873 104.513 6.02111 104.99C5.52349 105.467 3.93675 104.929 3.51757 105.478C3.09839 106.027 3.98814 107.434 3.64176 108.034C3.29539 108.634 1.61773 108.576 1.36623 109.204C1.11473 109.832 2.36227 110.966 2.19564 111.616C2.02901 112.267 0.405938 112.707 0.341359 113.381C0.276779 114.055 1.79678 114.786 1.83195 115.464C1.86712 116.142 0.420203 117.008 0.552304 117.68C0.684406 118.352 2.3411 118.615 2.5645 119.259C2.7879 119.904 1.64486 121.137 1.95674 121.744C2.26862 122.35 3.94649 122.146 4.3307 122.697C4.71491 123.247 3.97784 124.755 4.45156 125.251C4.92528 125.746 6.45201 125.072 6.98436 125.482C7.5167 125.892 7.22192 127.557 7.81185 127.897C8.40178 128.238 9.69926 127.161 10.3173 127.406C10.9353 127.652 11.1412 129.335 11.7841 129.484C12.4269 129.633 13.3858 128.249 14.0563 128.312C14.7267 128.374 15.3871 129.924 16.0685 129.891C16.7498 129.858 17.2462 128.251 17.9161 128.123C18.5859 127.994 19.6456 129.299 20.29 129.076C20.9345 128.852 20.9477 127.167 21.5697 126.859C22.1916 126.552 23.5569 127.504 24.1186 127.109C24.6803 126.713 24.2188 125.096 24.7197 124.621C25.2207 124.145 26.806 124.678 27.2233 124.133C27.6405 123.587 26.7451 122.159 27.0857 121.569Z" fill="#263238"/>
<path d="M9.9428 124.106C15.0987 127.082 21.6915 125.316 24.6683 120.16C27.6451 115.004 25.8785 108.411 20.7226 105.434C15.5667 102.458 8.97388 104.224 5.99711 109.38C3.02035 114.536 4.78689 121.129 9.9428 124.106Z" fill="white" stroke="#263238" stroke-linecap="round" stroke-linejoin="round"/>
<path d="M17.2832 122.042C21.299 120.966 23.6822 116.839 22.6062 112.823C21.5301 108.807 17.4024 106.424 13.3865 107.5C9.37073 108.576 6.98756 112.704 8.0636 116.72C9.13963 120.735 13.2674 123.119 17.2832 122.042Z" fill="white" stroke="#263238" stroke-linecap="round" stroke-linejoin="round"/>
<path d="M12.3929 119.886C15.2239 121.52 18.844 120.55 20.4785 117.719C22.113 114.888 21.143 111.268 18.312 109.633C15.4809 107.999 11.8608 108.969 10.2263 111.8C8.59183 114.631 9.56183 118.251 12.3929 119.886Z" fill="#A6A6A6"/>
<path d="M14.2867 112.865L12.6469 111.918C12.5015 111.834 12.3155 111.884 12.2316 112.029L10.4112 115.182C10.3272 115.328 10.3771 115.513 10.5225 115.597L12.1623 116.544C12.3077 116.628 12.4936 116.578 12.5776 116.433L14.398 113.28C14.4819 113.135 14.4321 112.949 14.2867 112.865Z" fill="white"/>
<path d="M18.6983 116.123C19.7158 115.63 19.0978 114.953 19.0978 114.953L17.1213 113.812L17.2547 113.658C17.2547 113.658 18.1977 112.425 18.2169 111.876C18.236 111.327 17.5204 110.696 17.3986 110.83C17.2767 110.965 16.9284 111.683 16.641 112.02C16.0783 112.523 15.4765 112.981 14.8414 113.389C14.7817 113.419 14.7168 113.438 14.6502 113.443L12.8838 116.503C12.9692 116.664 13.1006 116.795 13.2611 116.881L16.1341 118.539C16.2339 118.564 16.3375 118.568 16.4388 118.551C16.5402 118.535 16.6372 118.498 16.7242 118.443C16.8112 118.389 16.8863 118.318 16.9453 118.233C17.0043 118.149 17.0458 118.054 17.0676 117.954C17.2884 117.955 17.5027 117.879 17.6747 117.741C17.8468 117.602 17.9663 117.409 18.0132 117.194C18.1385 117.19 18.2609 117.156 18.3698 117.094C18.4788 117.032 18.571 116.944 18.6385 116.839C18.706 116.733 18.7468 116.613 18.7572 116.488C18.7676 116.363 18.7473 116.238 18.6983 116.123Z" fill="white"/>
</svg>
