<svg width="15" height="13" viewBox="0 0 15 13" fill="none" xmlns="http://www.w3.org/2000/svg">
<path d="M13.572 0.133281C13.3366 0.108312 13.0807 0.145079 12.8236 0.246725C12.5048 0.3721 7.5102 2.47313 2.85433 4.43309L1.31592 5.08055C0.72021 5.32209 0.419434 5.71491 0.419434 6.24404C0.419434 6.6145 0.576219 7.11698 1.32422 7.41306L3.92098 8.45343C4.14552 9.12706 4.66705 10.6911 4.7981 11.1069C4.87601 11.3534 5.07282 11.9744 5.57007 12.1196C5.67207 12.1543 5.77851 12.1722 5.88688 12.1722C6.20067 12.1722 6.42661 12.0261 6.53711 11.9411L8.18758 10.5452L10.1922 12.3991C10.2694 12.4777 10.6781 12.875 11.2271 12.875C11.912 12.875 12.4316 12.3048 12.54 11.753C12.5988 11.4505 14.5321 1.74498 14.5321 1.7464C14.7057 0.967941 14.3937 0.564113 14.1932 0.391988C14.0214 0.245009 13.8075 0.158249 13.572 0.133281ZM13.103 1.66339C12.836 3.00214 11.3803 10.3096 11.1593 11.3629L8.22909 8.65265L6.24105 10.3363L6.79167 8.18227C6.79167 8.18227 10.5901 4.33734 10.8189 4.11351C11.0031 3.9343 11.0417 3.87148 11.0417 3.80914C11.0417 3.72627 10.999 3.66665 10.9006 3.66665C10.812 3.66665 10.6918 3.75149 10.628 3.79116C9.81814 4.29607 6.36957 6.26073 4.6722 7.2263L2.20964 6.24266L3.40495 5.74046C6.45007 4.45838 11.8734 2.17481 13.103 1.66339Z" fill="#6D798F"/>
</svg>
