<svg width="311" height="465" viewBox="0 0 311 465" fill="none" xmlns="http://www.w3.org/2000/svg">
<path d="M349.46 50.04H164.54C160.304 50.04 156.87 53.474 156.87 57.71V420.64C156.87 424.876 160.304 428.31 164.54 428.31H349.46C353.696 428.31 357.13 424.876 357.13 420.64V57.71C357.13 53.474 353.696 50.04 349.46 50.04Z" fill="#0B1F44" stroke="#0B1F44" stroke-linecap="round" stroke-linejoin="round"/>
<path d="M348.24 91.57H165.78V386.77H348.24V91.57Z" fill="white" stroke="#0B1F44" stroke-linecap="round" stroke-linejoin="round"/>
<path d="M276.84 70.91H237.17C236.454 70.91 235.767 70.6255 235.261 70.1192C234.755 69.6128 234.47 68.9261 234.47 68.21C234.469 67.8546 234.538 67.5024 234.673 67.1737C234.808 66.8449 235.007 66.5461 235.257 66.2943C235.508 66.0426 235.806 65.8428 236.135 65.7065C236.463 65.5702 236.815 65.5 237.17 65.5H276.84C277.196 65.5 277.548 65.5702 277.876 65.7065C278.204 65.8428 278.502 66.0426 278.753 66.2943C279.004 66.5461 279.202 66.8449 279.338 67.1737C279.473 67.5024 279.542 67.8546 279.54 68.21C279.54 68.9261 279.256 69.6128 278.749 70.1192C278.243 70.6255 277.556 70.91 276.84 70.91Z" fill="white"/>
<path d="M267.82 403.44C267.82 401.3 267.186 399.208 265.997 397.429C264.808 395.649 263.118 394.263 261.141 393.444C259.164 392.625 256.988 392.41 254.889 392.828C252.79 393.245 250.862 394.276 249.349 395.789C247.836 397.302 246.806 399.23 246.388 401.329C245.971 403.428 246.185 405.604 247.004 407.581C247.823 409.558 249.21 411.248 250.989 412.436C252.768 413.625 254.86 414.26 257 414.26C258.421 414.261 259.829 413.982 261.142 413.439C262.456 412.896 263.649 412.099 264.654 411.094C265.659 410.089 266.456 408.896 266.999 407.582C267.543 406.269 267.822 404.861 267.82 403.44Z" fill="white" stroke="#0B1F44" stroke-width="0.704333" stroke-linecap="round" stroke-linejoin="round"/>
<path d="M262.49 397.95H251.52V408.92H262.49V397.95Z" fill="#0B1F44"/>
<path d="M254 191C277.196 191 296 172.196 296 149C296 125.804 277.196 107 254 107C230.804 107 212 125.804 212 149C212 172.196 230.804 191 254 191Z" fill="#F6F6F6"/>
<path d="M279.64 129.99H229.86L254.4 153.65L279.64 129.99Z" fill="#0B1F44"/>
<path d="M264.37 148.41L281.7 163.73V132.17L264.37 148.41Z" fill="#0B1F44"/>
<path d="M244.62 148.38L227.06 131.46V163.01L244.62 148.38Z" fill="#0B1F44"/>
<path d="M262.17 150.47L254.37 157.78L246.79 150.48L228.52 165.7H279.4L262.17 150.47Z" fill="#0B1F44"/>
<path d="M254 283C277.196 283 296 264.196 296 241C296 217.804 277.196 199 254 199C230.804 199 212 217.804 212 241C212 264.196 230.804 283 254 283Z" fill="#F6F6F6"/>
<path d="M248.39 227.75C248.509 227.982 248.675 228.186 248.878 228.349C249.08 228.513 249.315 228.632 249.567 228.699C249.819 228.766 250.082 228.779 250.339 228.738C250.596 228.697 250.842 228.602 251.06 228.46C252.43 227.71 253.8 226.96 255.06 226.09C255.511 225.661 255.883 225.157 256.16 224.6C255.91 224.01 255.78 223.6 255.58 223.24C255.04 222.24 254.46 221.24 253.89 220.24L248.1 210.24C247.985 209.949 247.804 209.688 247.57 209.48C247.336 209.271 247.057 209.121 246.754 209.04C246.452 208.959 246.135 208.95 245.828 209.015C245.522 209.079 245.234 209.214 244.99 209.41C243.75 210.11 242.52 210.81 241.31 211.55C241.076 211.662 240.868 211.823 240.701 212.021C240.533 212.219 240.41 212.451 240.339 212.701C240.268 212.95 240.251 213.212 240.289 213.469C240.327 213.726 240.42 213.972 240.56 214.19C243.16 218.73 245.77 223.25 248.39 227.75Z" fill="#0B1F44"/>
<path d="M277.22 260.66C274.687 256.26 272.147 251.867 269.6 247.48C269.492 247.214 269.324 246.976 269.109 246.784C268.895 246.592 268.64 246.452 268.363 246.374C268.086 246.296 267.795 246.282 267.512 246.333C267.229 246.384 266.962 246.5 266.73 246.67C265.457 247.383 264.197 248.113 262.95 248.86C262.715 248.971 262.505 249.129 262.333 249.325C262.162 249.52 262.034 249.75 261.956 249.998C261.878 250.246 261.852 250.508 261.88 250.766C261.909 251.025 261.99 251.275 262.12 251.5L270.4 265.63C270.699 265.889 271.073 266.045 271.467 266.075C271.861 266.106 272.255 266.009 272.59 265.8C273.93 265.07 275.28 264.34 276.59 263.49C277.054 263.069 277.452 262.58 277.77 262.04C277.622 261.567 277.439 261.105 277.22 260.66Z" fill="#0B1F44"/>
<path d="M260.08 252.41C259.264 252.702 258.395 252.814 257.532 252.738C256.668 252.662 255.832 252.4 255.08 251.97C254.229 251.535 253.431 251.005 252.7 250.39C249.002 247.134 246.418 242.801 245.31 238C244.58 235 244.38 232 246.68 229.6L238.16 215C237.49 215.43 236.84 215.84 236.23 216.27C234.997 217.036 233.997 218.125 233.339 219.419C232.681 220.713 232.391 222.162 232.5 223.61C232.652 226.581 233.084 229.53 233.79 232.42C236.613 242.43 241.639 251.683 248.5 259.5C251.047 262.611 254.087 265.283 257.5 267.41C259.181 268.458 261.14 268.971 263.119 268.88C265.098 268.789 267.002 268.098 268.58 266.9L260.08 252.41Z" fill="#0B1F44"/>
<path d="M254 375C277.196 375 296 356.196 296 333C296 309.804 277.196 291 254 291C230.804 291 212 309.804 212 333C212 356.196 230.804 375 254 375Z" fill="#F6F6F6"/>
<path d="M247.81 340.87H238.48V345.6C238.479 347.073 239.037 348.492 240.041 349.571C241.045 350.649 242.42 351.306 243.89 351.41L247.81 340.87Z" fill="#0B1F44"/>
<path d="M273.82 324.67H269.82V332.9C269.82 335.022 268.977 337.057 267.477 338.557C265.976 340.057 263.942 340.9 261.82 340.9H261.68L247.4 351.43H262.9L259.07 361.73L273 351.43H273.84C275.387 351.43 276.871 350.816 277.966 349.723C279.061 348.63 279.677 347.147 279.68 345.6V330.5C279.679 329.732 279.526 328.972 279.231 328.264C278.935 327.555 278.503 326.911 277.959 326.37C277.415 325.828 276.769 325.4 276.059 325.108C275.348 324.816 274.588 324.667 273.82 324.67Z" fill="#0B1F44"/>
<path d="M261.81 312H232.3C230.754 312 229.271 312.614 228.178 313.708C227.084 314.801 226.47 316.284 226.47 317.83V332.93C226.47 334.477 227.084 335.961 228.177 337.056C229.27 338.151 230.753 338.767 232.3 338.77H250.89L247.06 349L261 338.74H261.84C263.388 338.737 264.872 338.121 265.967 337.027C267.061 335.932 267.678 334.448 267.68 332.9V317.8C267.67 316.253 267.046 314.773 265.945 313.686C264.844 312.598 263.357 311.992 261.81 312Z" fill="#0B1F44"/>
<path d="M238.97 327.06C240.124 327.06 241.06 326.124 241.06 324.97C241.06 323.816 240.124 322.88 238.97 322.88C237.816 322.88 236.88 323.816 236.88 324.97C236.88 326.124 237.816 327.06 238.97 327.06Z" fill="#F6F6F6"/>
<path d="M249.57 325C249.57 325.413 249.448 325.817 249.218 326.161C248.988 326.505 248.662 326.773 248.28 326.931C247.898 327.089 247.478 327.13 247.072 327.05C246.667 326.969 246.295 326.77 246.002 326.478C245.71 326.186 245.511 325.813 245.43 325.408C245.35 325.002 245.391 324.582 245.549 324.2C245.707 323.818 245.975 323.492 246.319 323.262C246.663 323.033 247.067 322.91 247.48 322.91C248.034 322.913 248.564 323.134 248.955 323.525C249.346 323.916 249.568 324.447 249.57 325Z" fill="#F6F6F6"/>
<path d="M258.07 325C258.07 325.414 257.947 325.818 257.717 326.162C257.487 326.506 257.16 326.774 256.778 326.932C256.395 327.09 255.974 327.131 255.569 327.049C255.163 326.968 254.791 326.768 254.499 326.474C254.207 326.181 254.009 325.808 253.929 325.402C253.85 324.995 253.892 324.575 254.052 324.193C254.212 323.812 254.481 323.486 254.826 323.257C255.171 323.029 255.576 322.908 255.99 322.91C256.543 322.913 257.072 323.134 257.462 323.526C257.851 323.917 258.07 324.447 258.07 325Z" fill="#F6F6F6"/>
<path d="M153.17 210.61L153.93 209.61L166.32 192.73C166.32 192.73 168 182.66 168.84 180.14C169.68 177.62 171.36 172.31 171.92 170.35C172.48 168.39 173.04 166.15 174.16 166.99C175.28 167.83 175.28 171.19 174.72 172.87C174.227 174.404 174.13 176.038 174.44 177.62C174.72 178.46 189.55 165.87 190.94 166.99C192.33 168.11 190.39 173.43 187.59 177.06C184.79 180.69 173.32 193.85 173.32 193.85C173.32 193.85 160.17 229.1 156.25 234.7C152.33 240.3 151.5 237.78 147.58 234.7C143.66 231.62 138.58 224.63 138.58 224.63L153.17 210.61Z" fill="white" stroke="#0B1F44" stroke-linecap="round" stroke-linejoin="round"/>
<path d="M173.6 187.11C173.6 187.11 175 182.11 176.4 180.95C177.8 179.79 183.11 176.48 183.11 176.48L186.75 165.28C186.75 165.28 187.87 164.44 187.59 166.96C187.31 169.48 186.75 175.08 185.91 177.59C185.07 180.1 181.43 184.59 181.43 184.59" fill="white"/>
<path d="M173.6 187.11C173.6 187.11 175 182.11 176.4 180.95C177.8 179.79 183.11 176.48 183.11 176.48L186.75 165.28C186.75 165.28 187.87 164.44 187.59 166.96C187.31 169.48 186.75 175.08 185.91 177.59C185.07 180.1 181.43 184.59 181.43 184.59" stroke="#0B1F44" stroke-linecap="round" stroke-linejoin="round"/>
<path d="M133.03 167.8L154.57 210.05L138.07 226.84L133.31 210.89L133.03 167.8Z" fill="#F6F6F6" stroke="#0B1F44" stroke-linecap="round" stroke-linejoin="round"/>
<path d="M136.09 220.22L138.07 226.84L154.57 210.05L151.6 204.23L136.09 220.22Z" fill="#0B1F44" stroke="#0B1F44" stroke-miterlimit="10"/>
<path d="M81.3803 446L79.3803 453.93C79.3803 453.93 67.6503 460.43 66.7503 461.33C65.8503 462.23 66.2003 466.02 66.2003 466.02H99.7803C99.9509 463.114 99.7085 460.198 99.0603 457.36C98.5525 453.843 98.2421 450.301 98.1303 446.75L81.3803 446Z" fill="#0B1F44" stroke="#0B1F44" stroke-linecap="round" stroke-linejoin="round"/>
<path d="M66.2102 466H99.7802C99.8192 465.277 99.8192 464.553 99.7802 463.83H66.1502C66.1202 465 66.2102 466 66.2102 466Z" fill="white" stroke="#0B1F44" stroke-linecap="round" stroke-linejoin="round"/>
<path d="M67.4803 461C69.7804 459.036 72.6012 457.782 75.6003 457.39C81.0103 456.48 85.8903 458.47 86.9703 459.55C88.0503 460.63 88.7703 463.7 88.7703 463.7L66.1503 463.88C65.982 463.613 65.883 463.309 65.8624 462.994C65.8419 462.68 65.9003 462.365 66.0325 462.079C66.1647 461.792 66.3665 461.544 66.6193 461.355C66.8722 461.167 67.1682 461.045 67.4803 461Z" fill="white" stroke="#0B1F44" stroke-linecap="round" stroke-linejoin="round"/>
<path d="M96.3503 452.37C96.3503 454.32 95.6703 455.89 94.8203 455.89C93.9703 455.89 93.2803 454.32 93.2803 452.37C93.2803 450.42 93.9703 448.85 94.8203 448.85C95.6703 448.85 96.3503 450.43 96.3503 452.37Z" fill="white" stroke="#0B1F44" stroke-linecap="round" stroke-linejoin="round"/>
<path d="M165.18 446L167.18 453.93C167.18 453.93 178.91 460.43 179.81 461.33C180.71 462.23 180.35 466.02 180.35 466.02H146.78C146.603 463.114 146.846 460.197 147.5 457.36C148.001 453.843 148.308 450.301 148.42 446.75L165.18 446Z" fill="#0B1F44" stroke="#0B1F44" stroke-linecap="round" stroke-linejoin="round"/>
<path d="M180.34 466H146.78C146.723 465.278 146.703 464.554 146.72 463.83H180.41C180.426 464.554 180.402 465.278 180.34 466Z" fill="white" stroke="#0B1F44" stroke-linecap="round" stroke-linejoin="round"/>
<path d="M179.08 461C176.778 459.039 173.958 457.785 170.96 457.39C165.55 456.48 160.67 458.47 159.59 459.55C158.51 460.63 157.78 463.7 157.78 463.7L180.41 463.88C180.579 463.613 180.678 463.309 180.698 462.994C180.719 462.68 180.66 462.365 180.528 462.079C180.396 461.792 180.194 461.544 179.941 461.355C179.688 461.167 179.392 461.045 179.08 461Z" fill="white" stroke="#0B1F44" stroke-linecap="round" stroke-linejoin="round"/>
<path d="M150.2 452.37C150.2 454.32 150.89 455.89 151.74 455.89C152.59 455.89 153.27 454.32 153.27 452.37C153.27 450.42 152.59 448.85 151.74 448.85C150.89 448.85 150.2 450.43 150.2 452.37Z" fill="white" stroke="#0B1F44" stroke-linecap="round" stroke-linejoin="round"/>
<path d="M81.0001 277.66L79.8901 295.16L81.3801 445.98L98.1301 446.73L114.89 307.45L117.13 306.7L148.42 446.73L165.18 445.98L157.72 352.14L146.46 271.6L81.0001 277.66Z" fill="white" stroke="#0B1F44" stroke-linecap="round" stroke-linejoin="round"/>
<path d="M116.36 282.41V295.18L119.84 289.38L120.43 280.67" stroke="#808080" stroke-linecap="round" stroke-linejoin="round"/>
<path d="M92.4599 165.84C92.4599 165.84 54.6899 182.35 54.1299 184C53.5699 185.65 43.4999 227.37 45.1299 231.28C46.1312 233.473 47.924 235.206 50.1492 236.134C52.3745 237.061 54.8678 237.113 57.1299 236.28C62.4399 234.28 67.4799 213.9 67.4799 213.9C67.4799 213.9 79.2299 249.71 79.2299 253.35C79.2299 256.99 80.3499 279.35 80.3499 279.35C80.3499 279.35 101.89 282.42 119.8 278.23C137.71 274.04 146.38 271.51 146.38 271.51L137.99 220.31C137.99 220.31 133.51 169.67 132.99 167.71C132.47 165.75 100.53 165.19 97.9899 165.47C95.4499 165.75 92.4599 165.84 92.4599 165.84Z" fill="#F6F6F6" stroke="#0B1F44" stroke-linecap="round" stroke-linejoin="round"/>
<path d="M63.8103 226C62.5269 221.872 60.2344 218.129 57.1403 215.11C54.0203 212.34 49.8703 213.91 47.0303 215.63C45.5303 223.4 44.5603 229.93 45.1803 231.36C46.1816 233.553 47.9744 235.286 50.1996 236.214C52.4248 237.141 54.9182 237.193 57.1803 236.36C59.6103 235.46 62.0003 230.8 63.8103 226Z" fill="#0B1F44" stroke="#0B1F44" stroke-miterlimit="10"/>
<path d="M74.8701 237L138.58 223.61L138.07 220.45C138.07 220.45 137.97 219.45 137.82 217.64L73.0801 231.24C73.6801 233.1 74.2801 235 74.8701 237Z" fill="#0B1F44"/>
<path d="M146.46 271.6L140.17 233.26L77.6201 246.26C78.378 248.61 78.9432 251.018 79.3101 253.46C79.3101 257.09 80.4301 279.46 80.4301 279.46C80.4301 279.46 101.97 282.53 119.88 278.34C137.79 274.15 146.46 271.6 146.46 271.6Z" fill="#0B1F44" stroke="#0B1F44" stroke-miterlimit="10"/>
<path d="M98.0603 165.56C95.5403 165.84 92.4603 165.84 92.4603 165.84C92.4603 165.84 85.3803 168.94 77.3003 172.59L110 206.35C110 206.35 117 172.68 116.38 169.78C116.086 168.422 115.698 167.085 115.22 165.78C107.19 165.49 99.2603 165.43 98.0603 165.56Z" fill="#0B1F44" stroke="#0B1F44" stroke-miterlimit="10"/>
<path d="M108.69 156.05C108.69 156.05 110.37 170.6 111.21 173.4C112.05 176.2 106.45 195.78 106.45 195.78C106.45 195.78 90.2201 179.27 88.2601 174.52C86.3001 169.77 81.8301 153.25 81.8301 153.25C81.8301 153.25 96.1001 160.53 108.69 156.05Z" fill="white" stroke="#0B1F44" stroke-linecap="round" stroke-linejoin="round"/>
<path d="M81.8301 153.25C81.8301 153.25 82.8301 157.02 84.1301 161.47C84.8101 161.85 85.6301 162.28 86.6301 162.78C91.8422 165.54 97.7784 166.626 103.63 165.89C104.852 165.69 106.01 165.205 107.01 164.476C108.01 163.746 108.826 162.792 109.39 161.69C108.99 158.56 108.7 156.05 108.7 156.05C96.1001 160.53 81.8301 153.25 81.8301 153.25Z" fill="#0B1F44" stroke="#0B1F44" stroke-linecap="round" stroke-linejoin="round"/>
<path d="M101.5 119.33C101.5 119.33 105.74 127.82 108.58 131.5C111.42 135.18 115.94 143.4 113.96 148.21C111.98 153.02 110.68 161.21 104.33 162.09C98.4774 162.818 92.5427 161.728 87.3299 158.97C82.2299 156.42 81.6699 155.57 81.6699 155.57C81.6699 155.57 77.4199 155.57 74.8699 153.57C72.3199 151.57 67.2299 145.36 68.6399 139.98C70.0499 134.6 73.4599 134.03 73.4599 134.03C73.4599 134.03 66.3799 131.2 70.9099 124.12C75.4399 117.04 85.0599 114.5 89.5999 114.5C94.1399 114.5 101.5 119.33 101.5 119.33Z" fill="white" stroke="#0B1F44" stroke-linecap="round" stroke-linejoin="round"/>
<path d="M100.08 128.67C100.731 129.698 101.602 130.569 102.63 131.22C104.63 132.64 107.44 131.79 106.63 134.34C105.82 136.89 103.8 137.73 102.1 137.45" stroke="#0B1F44" stroke-linecap="round" stroke-linejoin="round"/>
<path d="M106.88 140.57C106.88 140.57 101.5 143.68 97.8199 143.4C95.9013 143.357 94.0349 142.767 92.4399 141.7" stroke="#0B1F44" stroke-linecap="round" stroke-linejoin="round"/>
<path d="M95 143.4C95 143.4 97 150.48 99.81 148.21C101.59 146.652 102.788 144.537 103.21 142.21C100.598 143.221 97.7914 143.627 95 143.4Z" fill="#0B1F44" stroke="#0B1F44" stroke-linecap="round" stroke-linejoin="round"/>
<path d="M94.7102 131.13C95.3302 132.13 95.3502 133.22 94.7102 133.6C94.0702 133.98 93.1102 133.5 92.4802 132.52C91.8502 131.54 91.8402 130.43 92.4802 130.04C93.1202 129.65 94.0802 130.14 94.7102 131.13Z" fill="#0B1F44"/>
<path d="M103.75 126.85C104.37 127.85 104.39 128.95 103.75 129.33C103.11 129.71 102.15 129.23 101.52 128.24C100.89 127.25 100.88 126.15 101.52 125.77C102.16 125.39 103.12 125.87 103.75 126.85Z" fill="#0B1F44"/>
<path d="M88.77 130.28C88.77 130.28 89.59 126.5 92.55 126" stroke="#0B1F44" stroke-linecap="round" stroke-linejoin="round"/>
<path d="M98.4702 124.36C98.4702 124.36 100.12 121.24 102.75 122.55" stroke="#0B1F44" stroke-linecap="round" stroke-linejoin="round"/>
<path d="M74.3103 128.11C74.3103 128.11 92.7203 128.11 94.1403 124.99C95.5603 121.87 91.3003 119.61 91.3003 119.61C91.3003 119.61 107.16 120.18 108.86 115.36C110.56 110.54 103.2 108.57 100.93 108.57H97.5303C97.5303 108.57 96.6803 101.49 88.4703 103.19C80.2603 104.89 64.4003 115.65 62.4703 121.88C60.5403 128.11 55.9603 130.09 59.3603 137.45C62.7603 144.81 72.1003 150.76 72.1003 150.76C72.1003 150.76 70.6803 145.38 73.5203 145.1C76.3603 144.82 81.1603 146.79 82.0103 146.79C82.8603 146.79 85.4103 144.53 84.0103 143.11C82.6103 141.69 81.1803 140.85 80.9003 140C80.6203 139.15 82.3103 136.32 81.1803 133.77C80.0503 131.22 74.3103 128.11 74.3103 128.11Z" fill="#0B1F44" stroke="#0B1F44" stroke-linecap="round" stroke-linejoin="round"/>
<path d="M74.5705 138.403L68.0078 142.765C66.9453 143.471 66.6565 144.905 67.3627 145.967L80.2933 165.422C80.9995 166.484 82.4333 166.773 83.4958 166.067L90.0584 161.705C91.1209 160.999 91.4098 159.565 90.7036 158.503L77.773 139.048C77.0668 137.985 75.633 137.697 74.5705 138.403Z" fill="#F6F6F6" stroke="#0B1F44" stroke-miterlimit="10"/>
<path d="M70.92 162.11C70.92 162.11 69.61 158.76 68.31 156.33C67.01 153.9 67 152.79 67.93 152.79C68.9154 152.975 69.8253 153.443 70.5483 154.138C71.2713 154.832 71.7758 155.723 72 156.7C72.4457 158.721 72.5706 160.8 72.37 162.86L70.92 162.11Z" fill="white" stroke="#0B1F44" stroke-miterlimit="10"/>
<path d="M82.1101 175C82.1101 175 71.4801 164.37 71.1101 163.44C70.7401 162.51 71.1601 150.44 71.2701 146.97C71.29 146.728 71.3888 146.499 71.5513 146.318C71.7139 146.137 71.9313 146.015 72.1701 145.97C72.3208 145.945 72.4751 145.951 72.6233 145.988C72.7714 146.026 72.9102 146.094 73.0306 146.188C73.151 146.282 73.2505 146.4 73.3227 146.535C73.395 146.669 73.4383 146.818 73.4501 146.97L74.2901 156.77L76.7201 144.41C76.7691 144.16 76.9039 143.936 77.1012 143.775C77.2984 143.614 77.5457 143.528 77.8001 143.53C77.948 143.531 78.0942 143.562 78.2298 143.621C78.3655 143.68 78.4879 143.766 78.5896 143.873C78.6914 143.981 78.7704 144.107 78.8221 144.246C78.8737 144.385 78.8968 144.532 78.8901 144.68L78.2001 158.45L81.2701 146.7C81.3072 146.554 81.3731 146.417 81.4641 146.297C81.555 146.176 81.669 146.076 81.7994 146C81.9299 145.925 82.0741 145.876 82.2237 145.857C82.3732 145.838 82.525 145.849 82.6701 145.89C82.9112 145.958 83.1231 146.104 83.2732 146.304C83.4232 146.505 83.5029 146.749 83.5001 147L82.1101 159.65L84.7201 161.89V157.41L87.8501 152.15C87.9616 151.957 88.1431 151.814 88.3572 151.75C88.5712 151.687 88.8014 151.708 89.0001 151.81C89.2022 151.913 89.3572 152.09 89.4334 152.304C89.5096 152.517 89.5013 152.752 89.4101 152.96L87.3301 157.6C87.3301 157.6 91.4401 174.38 91.6201 174.94C91.8001 175.5 90.8801 178.49 90.3201 179.61C89.7601 180.73 64.7601 233.7 63.3201 235.75C61.8801 237.8 51.7601 240.97 47.3201 236.12C42.8801 231.27 44.3201 226.42 46.7601 220.83C49.2001 215.24 82.1101 175 82.1101 175Z" fill="white" stroke="#0B1F44" stroke-miterlimit="10"/>
<path d="M85.8403 288.46L100 296.65" stroke="#808080" stroke-linecap="round" stroke-linejoin="round"/>
<path d="M143.19 282.87L134.63 294.04" stroke="#808080" stroke-linecap="round" stroke-linejoin="round"/>
</svg>
